G04 Layer_Physical_Order=1*
G04 Layer_Color=255*
%FSLAX25Y25*%
%MOIN*%
G70*
G01*
G75*
%ADD10R,0.03937X0.11811*%
%ADD11C,0.07874*%
%ADD12C,0.01968*%
%ADD13C,0.03150*%
%ADD14C,0.01181*%
%ADD15C,0.05905*%
%ADD16C,0.07874*%
%ADD17C,0.03937*%
%ADD18R,0.03839X0.43209*%
%ADD19R,0.41929X0.20866*%
%ADD20C,0.11811*%
%ADD21R,0.11811X0.11811*%
%ADD22R,0.11811X0.11811*%
%ADD23C,0.05905*%
%ADD24R,0.06500X0.06500*%
%ADD25C,0.06500*%
%ADD26R,0.05905X0.05905*%
%ADD27C,0.05512*%
%ADD28R,0.06299X0.06299*%
%ADD29C,0.06299*%
%ADD30C,0.08000*%
%ADD31R,0.08000X0.08000*%
%ADD32O,0.07874X0.05512*%
%ADD33O,0.07000X0.06000*%
%ADD34R,0.07000X0.06000*%
%ADD35R,0.10000X0.10000*%
%ADD36C,0.10000*%
%ADD37C,0.09842*%
%ADD38C,0.08268*%
%ADD39R,0.08268X0.08268*%
%ADD40R,0.08268X0.08268*%
%ADD41C,0.19685*%
%ADD42C,0.02362*%
G36*
X1451691Y1165293D02*
X1452511Y1164224D01*
X1453580Y1163403D01*
X1454825Y1162888D01*
X1456161Y1162712D01*
X1457498Y1162888D01*
X1458743Y1163403D01*
X1459812Y1164224D01*
X1460632Y1165293D01*
X1460891Y1165918D01*
X1461432D01*
X1461691Y1165293D01*
X1462511Y1164224D01*
X1463580Y1163403D01*
X1464205Y1163145D01*
Y1162603D01*
X1463580Y1162345D01*
X1462511Y1161524D01*
X1461691Y1160455D01*
X1461175Y1159210D01*
X1460999Y1157874D01*
X1461175Y1156538D01*
X1461691Y1155293D01*
X1462511Y1154224D01*
X1463580Y1153403D01*
X1464825Y1152888D01*
X1466161Y1152712D01*
X1467498Y1152888D01*
X1468742Y1153403D01*
X1469812Y1154224D01*
X1470632Y1155293D01*
X1470891Y1155918D01*
X1471432D01*
X1471691Y1155293D01*
X1472511Y1154224D01*
X1473580Y1153403D01*
X1474825Y1152888D01*
X1476161Y1152712D01*
X1477497Y1152888D01*
X1478743Y1153403D01*
X1479812Y1154224D01*
X1480632Y1155293D01*
X1480891Y1155918D01*
X1481432D01*
X1481691Y1155293D01*
X1482511Y1154224D01*
X1483580Y1153403D01*
X1484825Y1152888D01*
X1486161Y1152712D01*
X1487498Y1152888D01*
X1488743Y1153403D01*
X1489812Y1154224D01*
X1490543Y1155177D01*
X1491043Y1155043D01*
Y1152756D01*
X1499182D01*
Y1149538D01*
X1458410D01*
X1458240Y1150038D01*
X1458267Y1150059D01*
X1458741Y1150676D01*
X1459038Y1151394D01*
X1459140Y1152165D01*
Y1154939D01*
X1459786Y1155781D01*
X1460204Y1156791D01*
X1460281Y1157374D01*
X1456161D01*
X1452042D01*
X1452119Y1156791D01*
X1452537Y1155781D01*
X1452682Y1155592D01*
X1452461Y1155144D01*
X1451111D01*
X1450777Y1155644D01*
X1451148Y1156538D01*
X1451324Y1157874D01*
X1451148Y1159210D01*
X1450632Y1160455D01*
X1449812Y1161524D01*
X1448742Y1162345D01*
X1448118Y1162603D01*
Y1163145D01*
X1448742Y1163403D01*
X1449812Y1164224D01*
X1450632Y1165293D01*
X1450891Y1165918D01*
X1451432D01*
X1451691Y1165293D01*
D02*
G37*
G36*
X1563699Y1151495D02*
X1564789Y1150658D01*
X1566059Y1150132D01*
X1567421Y1149953D01*
X1568784Y1150132D01*
X1569553Y1150451D01*
X1570053Y1150117D01*
Y1098524D01*
X1511091D01*
X1511058Y1099024D01*
X1511174Y1099039D01*
X1512323Y1099515D01*
X1513310Y1100272D01*
X1513611Y1100663D01*
X1519783D01*
X1520554Y1100765D01*
X1521273Y1101062D01*
X1521889Y1101536D01*
X1522363Y1102153D01*
X1522660Y1102871D01*
X1522762Y1103642D01*
Y1135033D01*
X1531004D01*
Y1133090D01*
X1540847D01*
Y1142933D01*
X1531111D01*
X1530667Y1143293D01*
X1530734Y1143799D01*
Y1152238D01*
X1535963D01*
X1536534Y1151495D01*
X1537624Y1150658D01*
X1538894Y1150132D01*
X1540256Y1149953D01*
X1541618Y1150132D01*
X1542888Y1150658D01*
X1543978Y1151495D01*
X1544548Y1152238D01*
X1563129D01*
X1563699Y1151495D01*
D02*
G37*
G36*
X1456809Y1066021D02*
X1457629Y1064952D01*
X1458698Y1064132D01*
Y1056640D01*
X1458084Y1056026D01*
X1453906D01*
X1453613Y1056526D01*
X1453773Y1056911D01*
X1453861Y1057579D01*
Y1064132D01*
X1454930Y1064952D01*
X1455750Y1066021D01*
X1456009Y1066646D01*
X1456550D01*
X1456809Y1066021D01*
D02*
G37*
G36*
X1505294Y1142900D02*
X1505338Y1142566D01*
X1505814Y1141417D01*
X1506571Y1140430D01*
X1507558Y1139672D01*
X1508708Y1139196D01*
X1509941Y1139034D01*
X1511174Y1139196D01*
X1512323Y1139672D01*
X1513310Y1140430D01*
X1513611Y1140821D01*
X1517773D01*
X1517943Y1140321D01*
X1517677Y1140117D01*
X1517204Y1139501D01*
X1516907Y1138782D01*
X1516805Y1138011D01*
Y1106620D01*
X1513611D01*
X1513310Y1107011D01*
X1512323Y1107769D01*
X1511174Y1108245D01*
X1509941Y1108407D01*
X1508708Y1108245D01*
X1507558Y1107769D01*
X1506571Y1107011D01*
X1505814Y1106024D01*
X1505338Y1104875D01*
X1505176Y1103642D01*
X1505338Y1102408D01*
X1505814Y1101259D01*
X1506571Y1100272D01*
X1507558Y1099515D01*
X1508708Y1099039D01*
X1508824Y1099024D01*
X1508791Y1098524D01*
X1495002D01*
Y1132677D01*
X1494914Y1133345D01*
X1494657Y1133968D01*
X1494246Y1134502D01*
X1488242Y1140506D01*
X1487708Y1140916D01*
X1487085Y1141174D01*
X1486417Y1141262D01*
X1381999D01*
X1381669Y1141638D01*
X1381689Y1141788D01*
X1381645Y1142120D01*
X1382104Y1142466D01*
X1382677Y1142391D01*
X1502756D01*
X1503681Y1142513D01*
X1504543Y1142869D01*
X1504832Y1143091D01*
X1505294Y1142900D01*
D02*
G37*
G36*
X1524778Y1155069D02*
Y1146777D01*
X1513611D01*
X1513310Y1147169D01*
X1512323Y1147926D01*
X1511174Y1148402D01*
X1509941Y1148564D01*
X1508708Y1148402D01*
X1507558Y1147926D01*
X1506830Y1147367D01*
X1506330Y1147614D01*
Y1154650D01*
X1506799Y1154823D01*
X1506977Y1154615D01*
X1508391Y1153407D01*
X1509976Y1152436D01*
X1511693Y1151724D01*
X1513501Y1151290D01*
X1515354Y1151145D01*
X1517208Y1151290D01*
X1519015Y1151724D01*
X1520733Y1152436D01*
X1522318Y1153407D01*
X1523732Y1154615D01*
X1524308Y1155289D01*
X1524778Y1155069D01*
D02*
G37*
G36*
X1224409Y951476D02*
X1224773D01*
Y938981D01*
X1224444Y938869D01*
X1224333Y938854D01*
X1224273Y938853D01*
X1215188Y947937D01*
Y951194D01*
X1215504Y951363D01*
X1216566Y952234D01*
X1217436Y953295D01*
X1218083Y954505D01*
X1218482Y955819D01*
X1218616Y957185D01*
X1218482Y958551D01*
X1218083Y959865D01*
X1217436Y961075D01*
X1216566Y962136D01*
X1215504Y963007D01*
X1214294Y963654D01*
X1212980Y964053D01*
X1211614Y964187D01*
X1210248Y964053D01*
X1208934Y963654D01*
X1207909Y963106D01*
X1207409Y963352D01*
Y966997D01*
X1224409D01*
Y951476D01*
D02*
G37*
G36*
X1375735Y1047608D02*
X1375105Y1046788D01*
X1374629Y1045639D01*
X1374467Y1044405D01*
X1374629Y1043172D01*
X1375105Y1042023D01*
X1375863Y1041036D01*
X1376651Y1040431D01*
Y1018207D01*
X1376739Y1017540D01*
X1376997Y1016917D01*
X1377407Y1016382D01*
X1377942Y1015972D01*
X1378564Y1015714D01*
X1379232Y1015626D01*
X1385246D01*
X1385959Y1014698D01*
X1386987Y1013909D01*
X1388184Y1013413D01*
X1389468Y1013244D01*
X1390753Y1013413D01*
X1391950Y1013909D01*
X1392978Y1014698D01*
X1393767Y1015726D01*
X1394263Y1016923D01*
X1394432Y1018207D01*
X1394263Y1019492D01*
X1393767Y1020689D01*
X1393201Y1021427D01*
X1393448Y1021927D01*
X1399963D01*
X1400568Y1021138D01*
X1401554Y1020381D01*
X1402704Y1019905D01*
X1403805Y1019760D01*
Y1019256D01*
X1402704Y1019111D01*
X1401554Y1018635D01*
X1400568Y1017877D01*
X1399810Y1016891D01*
X1399334Y1015741D01*
X1399172Y1014508D01*
X1399334Y1013275D01*
X1399810Y1012125D01*
X1400568Y1011138D01*
X1401554Y1010381D01*
X1402704Y1009905D01*
X1403937Y1009743D01*
X1406299D01*
X1407533Y1009905D01*
X1408682Y1010381D01*
X1409669Y1011138D01*
X1409969Y1011530D01*
X1411713D01*
X1412483Y1011631D01*
X1412489Y1011633D01*
X1412804Y1011223D01*
X1412729Y1011125D01*
X1412233Y1009927D01*
X1412064Y1008643D01*
X1412233Y1007358D01*
X1412729Y1006161D01*
X1413518Y1005133D01*
X1414375Y1004475D01*
X1414446Y1004303D01*
Y1002089D01*
X1409743D01*
X1409521Y1002537D01*
X1409580Y1002614D01*
X1409958Y1003527D01*
X1410022Y1004008D01*
X1405118D01*
Y1004508D01*
X1404618D01*
Y1008296D01*
X1403937D01*
X1402956Y1008167D01*
X1402043Y1007789D01*
X1401649Y1007486D01*
X1393740D01*
X1393545Y1007708D01*
X1389468D01*
X1385548D01*
X1385618Y1007176D01*
X1386016Y1006214D01*
X1386490Y1005596D01*
Y1004508D01*
X1386592Y1003737D01*
X1386889Y1003019D01*
X1387219Y1002589D01*
X1386981Y1002089D01*
X1383902D01*
X1383624Y1002505D01*
X1383835Y1003015D01*
X1383997Y1004248D01*
X1383835Y1005481D01*
X1383359Y1006631D01*
X1382602Y1007617D01*
X1381615Y1008375D01*
X1380466Y1008851D01*
X1379232Y1009013D01*
X1377999Y1008851D01*
X1376850Y1008375D01*
X1376662Y1008231D01*
X1370671D01*
X1370288Y1008946D01*
X1369550Y1009846D01*
X1368963Y1010328D01*
Y1010972D01*
X1369550Y1011454D01*
X1370288Y1012353D01*
X1370837Y1013379D01*
X1371174Y1014492D01*
X1371288Y1015650D01*
X1371174Y1016807D01*
X1370837Y1017920D01*
X1370288Y1018946D01*
X1369550Y1019846D01*
X1368651Y1020584D01*
X1367625Y1021132D01*
X1366512Y1021470D01*
X1365354Y1021584D01*
X1364197Y1021470D01*
X1363083Y1021132D01*
X1362057Y1020584D01*
X1361158Y1019846D01*
X1360420Y1018946D01*
X1360038Y1018231D01*
X1353839D01*
X1353170Y1018143D01*
X1352548Y1017885D01*
X1352013Y1017475D01*
X1351603Y1016940D01*
X1351345Y1016318D01*
X1351258Y1015650D01*
Y999508D01*
Y985827D01*
X1351345Y985159D01*
X1351603Y984536D01*
X1352013Y984002D01*
X1352548Y983591D01*
X1353170Y983334D01*
X1353839Y983246D01*
X1373206D01*
Y978999D01*
X1372758Y978778D01*
X1372560Y978930D01*
X1371410Y979406D01*
X1370177Y979568D01*
X1368944Y979406D01*
X1367795Y978930D01*
X1366808Y978173D01*
X1366508Y977781D01*
X1347342D01*
X1346572Y977680D01*
X1345853Y977382D01*
X1345237Y976909D01*
X1344763Y976292D01*
X1344466Y975574D01*
X1344364Y974803D01*
Y964888D01*
X1340091D01*
X1339973Y965108D01*
X1339235Y966007D01*
X1338336Y966745D01*
X1337310Y967293D01*
X1336197Y967631D01*
X1335039Y967745D01*
X1333882Y967631D01*
X1332769Y967293D01*
X1331743Y966745D01*
X1330843Y966007D01*
X1330105Y965108D01*
X1329557Y964082D01*
X1329219Y962969D01*
X1329105Y961811D01*
X1329219Y960653D01*
X1329557Y959540D01*
X1330105Y958514D01*
X1330843Y957615D01*
X1331743Y956877D01*
X1332334Y956561D01*
X1332355Y956517D01*
X1332362Y955979D01*
X1331518Y955332D01*
X1330727Y954301D01*
X1330229Y953100D01*
X1330126Y952311D01*
X1339953D01*
X1339849Y953100D01*
X1339352Y954301D01*
X1338560Y955332D01*
X1337717Y955979D01*
X1337723Y956517D01*
X1337745Y956561D01*
X1338336Y956877D01*
X1339235Y957615D01*
X1339973Y958514D01*
X1340196Y958931D01*
X1347342D01*
X1348113Y959033D01*
X1348832Y959330D01*
X1349448Y959803D01*
X1349922Y960420D01*
X1350219Y961139D01*
X1350321Y961909D01*
Y971825D01*
X1366508D01*
X1366808Y971434D01*
X1367795Y970676D01*
X1368944Y970200D01*
X1370177Y970038D01*
X1371410Y970200D01*
X1372560Y970676D01*
X1372758Y970828D01*
X1373206Y970607D01*
Y964392D01*
X1370671D01*
X1370288Y965108D01*
X1369550Y966007D01*
X1368651Y966745D01*
X1367625Y967293D01*
X1366512Y967631D01*
X1365354Y967745D01*
X1364197Y967631D01*
X1363083Y967293D01*
X1362057Y966745D01*
X1361158Y966007D01*
X1360420Y965108D01*
X1360038Y964392D01*
X1353839D01*
X1353170Y964304D01*
X1352548Y964046D01*
X1352013Y963636D01*
X1351603Y963102D01*
X1351345Y962479D01*
X1351258Y961811D01*
Y945669D01*
Y931988D01*
X1351345Y931320D01*
X1351603Y930698D01*
X1352013Y930163D01*
X1352548Y929753D01*
X1353170Y929495D01*
X1353839Y929407D01*
X1373206D01*
Y924865D01*
X1372758Y924644D01*
X1372560Y924796D01*
X1371410Y925272D01*
X1370177Y925434D01*
X1368944Y925272D01*
X1367795Y924796D01*
X1366808Y924039D01*
X1366508Y923647D01*
X1347342D01*
X1346572Y923546D01*
X1345853Y923248D01*
X1345237Y922775D01*
X1344763Y922158D01*
X1344466Y921440D01*
X1344364Y920669D01*
Y910754D01*
X1339508D01*
X1339235Y911086D01*
X1338336Y911824D01*
X1337310Y912372D01*
X1336197Y912710D01*
X1335039Y912824D01*
X1333882Y912710D01*
X1332769Y912372D01*
X1331743Y911824D01*
X1330843Y911086D01*
X1330105Y910187D01*
X1329557Y909161D01*
X1329219Y908047D01*
X1329105Y906890D01*
X1329219Y905732D01*
X1329557Y904619D01*
X1330105Y903593D01*
X1330843Y902694D01*
X1331743Y901956D01*
X1332334Y901640D01*
X1332355Y901596D01*
X1332362Y901058D01*
X1331518Y900411D01*
X1330727Y899380D01*
X1330229Y898179D01*
X1330126Y897390D01*
X1339953D01*
X1339849Y898179D01*
X1339352Y899380D01*
X1338560Y900411D01*
X1337717Y901058D01*
X1337723Y901596D01*
X1337745Y901640D01*
X1338336Y901956D01*
X1339235Y902694D01*
X1339973Y903593D01*
X1340522Y904619D01*
X1340576Y904797D01*
X1347342D01*
X1348113Y904899D01*
X1348832Y905196D01*
X1349448Y905670D01*
X1349922Y906287D01*
X1350219Y907005D01*
X1350321Y907776D01*
Y917691D01*
X1366508D01*
X1366808Y917300D01*
X1367795Y916543D01*
X1368944Y916066D01*
X1370177Y915904D01*
X1371410Y916066D01*
X1372560Y916543D01*
X1372758Y916695D01*
X1373206Y916473D01*
Y909471D01*
X1370671D01*
X1370288Y910187D01*
X1369550Y911086D01*
X1368651Y911824D01*
X1367625Y912372D01*
X1366512Y912710D01*
X1365354Y912824D01*
X1364197Y912710D01*
X1363083Y912372D01*
X1362057Y911824D01*
X1361158Y911086D01*
X1360420Y910187D01*
X1360038Y909471D01*
X1358169D01*
X1357501Y909383D01*
X1356879Y909125D01*
X1356344Y908715D01*
X1355934Y908180D01*
X1355676Y907558D01*
X1355588Y906890D01*
Y889862D01*
X1355352Y889592D01*
X1338438D01*
X1338018Y890013D01*
Y892952D01*
X1338560Y893369D01*
X1339352Y894400D01*
X1339849Y895601D01*
X1339953Y896390D01*
X1330126D01*
X1330229Y895601D01*
X1330727Y894400D01*
X1331518Y893369D01*
X1332061Y892952D01*
Y888780D01*
X1332163Y888009D01*
X1332460Y887290D01*
X1332933Y886674D01*
X1335099Y884508D01*
X1335099Y884508D01*
X1335716Y884035D01*
X1336434Y883737D01*
X1337205Y883636D01*
X1337205Y883636D01*
X1371796D01*
X1371904Y883319D01*
X1371930Y883136D01*
X1371144Y882112D01*
X1370644Y880903D01*
X1370473Y879606D01*
X1370644Y878309D01*
X1371144Y877101D01*
X1371941Y876063D01*
X1372979Y875266D01*
X1373441Y875075D01*
X1373341Y874575D01*
X1370516D01*
Y866164D01*
X1327447D01*
X1326499Y867112D01*
Y916786D01*
X1326999Y917033D01*
X1327637Y916543D01*
X1328786Y916066D01*
X1330020Y915904D01*
X1331253Y916066D01*
X1332402Y916543D01*
X1333389Y917300D01*
X1334146Y918287D01*
X1334622Y919436D01*
X1334785Y920669D01*
X1334622Y921903D01*
X1334146Y923052D01*
X1333389Y924039D01*
X1332402Y924796D01*
X1331253Y925272D01*
X1330020Y925434D01*
X1328786Y925272D01*
X1327637Y924796D01*
X1326999Y924306D01*
X1326499Y924553D01*
Y970920D01*
X1326999Y971166D01*
X1327637Y970676D01*
X1328786Y970200D01*
X1330020Y970038D01*
X1331253Y970200D01*
X1332402Y970676D01*
X1333389Y971434D01*
X1334146Y972421D01*
X1334622Y973570D01*
X1334785Y974803D01*
X1334622Y976036D01*
X1334146Y977186D01*
X1333389Y978173D01*
X1332402Y978930D01*
X1331253Y979406D01*
X1330020Y979568D01*
X1328786Y979406D01*
X1327637Y978930D01*
X1326999Y978440D01*
X1326499Y978686D01*
Y1024660D01*
X1326999Y1024907D01*
X1327637Y1024417D01*
X1328786Y1023940D01*
X1330020Y1023778D01*
X1331253Y1023940D01*
X1332402Y1024417D01*
X1333389Y1025174D01*
X1334146Y1026161D01*
X1334622Y1027310D01*
X1334785Y1028543D01*
X1334622Y1029777D01*
X1334146Y1030926D01*
X1333389Y1031913D01*
X1332402Y1032670D01*
X1331253Y1033146D01*
X1330020Y1033309D01*
X1328786Y1033146D01*
X1327637Y1032670D01*
X1326999Y1032180D01*
X1326499Y1032427D01*
Y1047651D01*
X1326955Y1048108D01*
X1375515D01*
X1375735Y1047608D01*
D02*
G37*
G36*
X1371691Y1165293D02*
X1372511Y1164224D01*
X1373580Y1163403D01*
X1374825Y1162888D01*
X1376161Y1162712D01*
X1377497Y1162888D01*
X1378743Y1163403D01*
X1379812Y1164224D01*
X1380632Y1165293D01*
X1380891Y1165918D01*
X1381432D01*
X1381691Y1165293D01*
X1382511Y1164224D01*
X1383580Y1163403D01*
X1384205Y1163145D01*
Y1162603D01*
X1383580Y1162345D01*
X1382511Y1161524D01*
X1381691Y1160455D01*
X1381175Y1159210D01*
X1380999Y1157874D01*
X1381175Y1156538D01*
X1381546Y1155644D01*
X1381211Y1155144D01*
X1379862D01*
X1379641Y1155592D01*
X1379786Y1155781D01*
X1380204Y1156791D01*
X1380281Y1157374D01*
X1376161D01*
X1372042D01*
X1372119Y1156791D01*
X1372537Y1155781D01*
X1372682Y1155592D01*
X1372461Y1155144D01*
X1371111D01*
X1370777Y1155644D01*
X1371148Y1156538D01*
X1371324Y1157874D01*
X1371148Y1159210D01*
X1370632Y1160455D01*
X1369812Y1161524D01*
X1368742Y1162345D01*
X1368118Y1162603D01*
Y1163145D01*
X1368742Y1163403D01*
X1369812Y1164224D01*
X1370632Y1165293D01*
X1370891Y1165918D01*
X1371432D01*
X1371691Y1165293D01*
D02*
G37*
G36*
X1437967Y990194D02*
X1437467Y989854D01*
X1436909Y989927D01*
X1435332D01*
Y992917D01*
X1423395D01*
Y990026D01*
X1417027D01*
X1416257Y989924D01*
X1415538Y989627D01*
X1414922Y989153D01*
X1414448Y988536D01*
X1414151Y987818D01*
X1414049Y987047D01*
Y968722D01*
X1413518Y968314D01*
X1413185Y967881D01*
X1411713D01*
X1410942Y967779D01*
X1410539Y967612D01*
X1410224Y968023D01*
X1410426Y968287D01*
X1410902Y969436D01*
X1411064Y970669D01*
X1410902Y971903D01*
X1410426Y973052D01*
X1409669Y974039D01*
X1408682Y974796D01*
X1407533Y975272D01*
X1406299Y975434D01*
X1403937D01*
X1402704Y975272D01*
X1401554Y974796D01*
X1400568Y974039D01*
X1400038Y973349D01*
X1389468D01*
X1388800Y973261D01*
X1388178Y973003D01*
X1387643Y972593D01*
X1387233Y972058D01*
X1386975Y971436D01*
X1386887Y970768D01*
Y968591D01*
X1385959Y967879D01*
X1385322Y967048D01*
X1381813D01*
Y986592D01*
X1382602Y987197D01*
X1383359Y988184D01*
X1383835Y989334D01*
X1383997Y990567D01*
X1383835Y991800D01*
X1383359Y992949D01*
X1382602Y993936D01*
X1381615Y994694D01*
X1380466Y995170D01*
X1379232Y995332D01*
X1377999Y995170D01*
X1376850Y994694D01*
X1375863Y993936D01*
X1375105Y992949D01*
X1374629Y991800D01*
X1374467Y990567D01*
X1374629Y989334D01*
X1374841Y988824D01*
X1374563Y988408D01*
X1356420D01*
Y996927D01*
X1417027D01*
X1417696Y997015D01*
X1418318Y997273D01*
X1418853Y997683D01*
X1419263Y998217D01*
X1419521Y998840D01*
X1419609Y999508D01*
Y1002809D01*
X1424188D01*
X1424377Y1002455D01*
X1425123Y1001547D01*
X1426031Y1000801D01*
X1427068Y1000247D01*
X1428193Y999905D01*
X1429363Y999790D01*
X1430534Y999905D01*
X1431658Y1000247D01*
X1432695Y1000801D01*
X1433604Y1001547D01*
X1434350Y1002455D01*
X1434904Y1003492D01*
X1435246Y1004617D01*
X1435361Y1005787D01*
X1435246Y1006957D01*
X1434904Y1008082D01*
X1434350Y1009119D01*
X1433604Y1010028D01*
X1432695Y1010774D01*
X1431658Y1011328D01*
X1430534Y1011670D01*
X1429363Y1011785D01*
X1428193Y1011670D01*
X1427068Y1011328D01*
X1426031Y1010774D01*
X1425123Y1010028D01*
X1424377Y1009119D01*
X1424188Y1008766D01*
X1421975D01*
X1421822Y1009927D01*
X1421326Y1011125D01*
X1420537Y1012153D01*
X1419509Y1012941D01*
X1418436Y1013386D01*
X1418436Y1013387D01*
Y1013899D01*
X1418436Y1013899D01*
X1419509Y1014344D01*
X1420537Y1015133D01*
X1421326Y1016161D01*
X1421822Y1017358D01*
X1421991Y1018643D01*
X1421822Y1019928D01*
X1421326Y1021125D01*
X1420537Y1022153D01*
X1420006Y1022561D01*
Y1037809D01*
X1423395D01*
Y1034819D01*
X1435332D01*
Y1037809D01*
X1437967D01*
Y990194D01*
D02*
G37*
G36*
X1232512Y941272D02*
X1238257Y935528D01*
Y925197D01*
X1238379Y924272D01*
X1238736Y923410D01*
X1239304Y922670D01*
X1245209Y916764D01*
X1245949Y916196D01*
X1246811Y915839D01*
X1247736Y915718D01*
X1258657D01*
X1261584Y912791D01*
Y908218D01*
X1261213Y908020D01*
X1260164Y907159D01*
X1259303Y906110D01*
X1258663Y904913D01*
X1258269Y903614D01*
X1258136Y902264D01*
X1258269Y900913D01*
X1258663Y899614D01*
X1259303Y898417D01*
X1260164Y897368D01*
X1261213Y896507D01*
X1261584Y896309D01*
Y886448D01*
X1225326D01*
Y924208D01*
X1225696Y924334D01*
X1225826Y924337D01*
X1240618Y909544D01*
X1240606Y909449D01*
X1240781Y908113D01*
X1241297Y906868D01*
X1242117Y905799D01*
X1243187Y904978D01*
X1244432Y904463D01*
X1245768Y904287D01*
X1247104Y904463D01*
X1248349Y904978D01*
X1249418Y905799D01*
X1250238Y906868D01*
X1250754Y908113D01*
X1250930Y909449D01*
X1250754Y910785D01*
X1250238Y912030D01*
X1249418Y913099D01*
X1248349Y913920D01*
X1247104Y914435D01*
X1245768Y914611D01*
X1245672Y914598D01*
X1231920Y928350D01*
Y941222D01*
X1232420Y941392D01*
X1232512Y941272D01*
D02*
G37*
G36*
X1325197Y1110433D02*
X1239173D01*
Y1135433D01*
X1313091D01*
Y1149311D01*
X1325197D01*
Y1110433D01*
D02*
G37*
G36*
X1375378Y1142113D02*
X1375335Y1141788D01*
X1375444Y1140966D01*
X1375761Y1140200D01*
X1375931Y1139978D01*
Y1138712D01*
X1376019Y1138044D01*
X1376277Y1137422D01*
X1376687Y1136887D01*
X1376718Y1136856D01*
X1377253Y1136446D01*
X1377875Y1136188D01*
X1378543Y1136100D01*
X1485348D01*
X1489840Y1131608D01*
Y1040815D01*
X1489340Y1040481D01*
X1489225Y1040528D01*
X1487992Y1040690D01*
X1486759Y1040528D01*
X1485610Y1040052D01*
X1484623Y1039295D01*
X1483865Y1038308D01*
X1483389Y1037158D01*
X1483227Y1035925D01*
X1483389Y1034692D01*
X1483865Y1033543D01*
X1484623Y1032556D01*
X1485610Y1031798D01*
X1486759Y1031322D01*
X1487992Y1031160D01*
X1489225Y1031322D01*
X1489523Y1031446D01*
X1489939Y1031168D01*
Y1029068D01*
X1489523Y1028791D01*
X1489225Y1028914D01*
X1487992Y1029076D01*
X1486759Y1028914D01*
X1485610Y1028438D01*
X1484623Y1027680D01*
X1483865Y1026694D01*
X1483389Y1025544D01*
X1483227Y1024311D01*
X1483389Y1023078D01*
X1483865Y1021928D01*
X1484623Y1020942D01*
X1485610Y1020184D01*
X1486759Y1019708D01*
X1487992Y1019546D01*
X1489225Y1019708D01*
X1490375Y1020184D01*
X1491362Y1020942D01*
X1491967Y1021730D01*
X1492520D01*
X1492520Y1021730D01*
Y794317D01*
X1317083D01*
Y795667D01*
X1329724D01*
X1330392Y795755D01*
X1331015Y796013D01*
X1331549Y796423D01*
X1331960Y796957D01*
X1332218Y797580D01*
X1332306Y798248D01*
Y801257D01*
X1338545D01*
X1339150Y800469D01*
X1340137Y799712D01*
X1341286Y799236D01*
X1342520Y799073D01*
X1343753Y799236D01*
X1344902Y799712D01*
X1345889Y800469D01*
X1346646Y801456D01*
X1347122Y802605D01*
X1347285Y803839D01*
X1347122Y805072D01*
X1346646Y806221D01*
X1345889Y807208D01*
X1344902Y807965D01*
X1343753Y808441D01*
X1342520Y808604D01*
X1341286Y808441D01*
X1340137Y807965D01*
X1339150Y807208D01*
X1338545Y806420D01*
X1329724D01*
X1329056Y806332D01*
X1328434Y806074D01*
X1327899Y805664D01*
X1327489Y805129D01*
X1327231Y804507D01*
X1327143Y803839D01*
Y800829D01*
X1317083D01*
Y803216D01*
X1312787D01*
X1312687Y803716D01*
X1313003Y803847D01*
X1313538Y804257D01*
X1313820Y804625D01*
X1314131Y804754D01*
X1314967Y805395D01*
X1315608Y806231D01*
X1316011Y807204D01*
X1316083Y807748D01*
X1311614D01*
Y808248D01*
X1311114D01*
Y812282D01*
X1310070Y812145D01*
X1309184Y811778D01*
X1308683Y811982D01*
Y821751D01*
X1323827D01*
X1323893Y821700D01*
X1324903Y821282D01*
X1325486Y821205D01*
Y825324D01*
Y829444D01*
X1324903Y829367D01*
X1323893Y828949D01*
X1323827Y828898D01*
X1308242D01*
X1308096Y829011D01*
X1307134Y829409D01*
X1306602Y829479D01*
Y825558D01*
X1305602D01*
Y829479D01*
X1305070Y829409D01*
X1304401Y829132D01*
X1282174D01*
X1282141Y829632D01*
X1282712Y829707D01*
X1283478Y830024D01*
X1284136Y830529D01*
X1284641Y831187D01*
X1284958Y831953D01*
X1285041Y832579D01*
X1296161D01*
Y844783D01*
X1285067D01*
Y874213D01*
X1284958Y875035D01*
X1284641Y875801D01*
X1284136Y876459D01*
X1283478Y876964D01*
X1282712Y877281D01*
X1281890Y877389D01*
X1217547D01*
Y931791D01*
X1217439Y932614D01*
X1217121Y933380D01*
X1216616Y934038D01*
X1215958Y934542D01*
X1215192Y934860D01*
X1214370Y934968D01*
X1207409D01*
Y950576D01*
X1207909Y950853D01*
X1208040Y950771D01*
Y946457D01*
X1208162Y945532D01*
X1208519Y944670D01*
X1209087Y943930D01*
X1218178Y934839D01*
Y882874D01*
X1218300Y881949D01*
X1218657Y881087D01*
X1219225Y880347D01*
X1219965Y879779D01*
X1220827Y879422D01*
X1221752Y879300D01*
X1265158D01*
X1266082Y879422D01*
X1266944Y879779D01*
X1267685Y880347D01*
X1268252Y881087D01*
X1268610Y881949D01*
X1268731Y882874D01*
Y896414D01*
X1268905Y896507D01*
X1269954Y897368D01*
X1270815Y898417D01*
X1271455Y899614D01*
X1271849Y900913D01*
X1271982Y902264D01*
X1271849Y903614D01*
X1271455Y904913D01*
X1270815Y906110D01*
X1269954Y907159D01*
X1268905Y908020D01*
X1268731Y908113D01*
Y914272D01*
X1268610Y915197D01*
X1268252Y916059D01*
X1267685Y916799D01*
X1262665Y921818D01*
X1261925Y922386D01*
X1261063Y922743D01*
X1260138Y922865D01*
X1249217D01*
X1245405Y926677D01*
Y937008D01*
X1245283Y937933D01*
X1244926Y938795D01*
X1244358Y939535D01*
X1238613Y945280D01*
Y951476D01*
X1238976D01*
Y952445D01*
X1241232D01*
Y959350D01*
X1242232D01*
Y952445D01*
X1244454D01*
Y947342D01*
X1244590Y946315D01*
X1244986Y945357D01*
X1245617Y944535D01*
X1248964Y941188D01*
X1249786Y940557D01*
X1250744Y940160D01*
X1251772Y940025D01*
X1304690D01*
Y907999D01*
X1303668Y907159D01*
X1302807Y906110D01*
X1302167Y904913D01*
X1301773Y903614D01*
X1301640Y902264D01*
X1301773Y900913D01*
X1302167Y899614D01*
X1302807Y898417D01*
X1303668Y897368D01*
X1304690Y896529D01*
Y852067D01*
X1304826Y851039D01*
X1305223Y850081D01*
X1305853Y849259D01*
X1306676Y848628D01*
X1307634Y848231D01*
X1308661Y848096D01*
X1341009D01*
Y838467D01*
X1340682Y838040D01*
X1340186Y836843D01*
X1340017Y835558D01*
X1340186Y834273D01*
X1340682Y833076D01*
X1341470Y832048D01*
X1342498Y831259D01*
X1343696Y830763D01*
X1344980Y830594D01*
X1346265Y830763D01*
X1347462Y831259D01*
X1347889Y831587D01*
X1361024D01*
Y827953D01*
X1373228D01*
Y831077D01*
X1405361D01*
X1406194Y830243D01*
X1406089Y829898D01*
X1405975Y828740D01*
X1406089Y827582D01*
X1406427Y826469D01*
X1406975Y825443D01*
X1407713Y824544D01*
X1408613Y823806D01*
X1408711Y823754D01*
X1408585Y823254D01*
X1371312D01*
X1370788Y823937D01*
X1369715Y824760D01*
X1368466Y825277D01*
X1367626Y825388D01*
Y820275D01*
Y815163D01*
X1368466Y815274D01*
X1369715Y815791D01*
X1370788Y816614D01*
X1371312Y817297D01*
X1429035D01*
X1429806Y817399D01*
X1430525Y817696D01*
X1431141Y818170D01*
X1433307Y820335D01*
X1433780Y820952D01*
X1434077Y821670D01*
X1434179Y822441D01*
Y824999D01*
X1434722Y825416D01*
X1435513Y826447D01*
X1436011Y827648D01*
X1436115Y828437D01*
X1426287D01*
X1426391Y827648D01*
X1426888Y826447D01*
X1427680Y825416D01*
X1428223Y824999D01*
Y823675D01*
X1427802Y823254D01*
X1415234D01*
X1415108Y823754D01*
X1415206Y823806D01*
X1416105Y824544D01*
X1416844Y825443D01*
X1417392Y826469D01*
X1417729Y827582D01*
X1417844Y828740D01*
X1417729Y829898D01*
X1417392Y831011D01*
X1416844Y832037D01*
X1416105Y832936D01*
X1415206Y833674D01*
X1414180Y834223D01*
X1413067Y834560D01*
X1411909Y834674D01*
X1410752Y834560D01*
X1410406Y834455D01*
X1408700Y836161D01*
X1408084Y836634D01*
X1407365Y836932D01*
X1406594Y837033D01*
X1373228D01*
Y840158D01*
X1361024D01*
Y839529D01*
X1348951D01*
Y852067D01*
X1348816Y853095D01*
X1348419Y854052D01*
X1347788Y854875D01*
X1346966Y855506D01*
X1346311Y855777D01*
X1346410Y856277D01*
X1417520D01*
X1418188Y856365D01*
X1418810Y856623D01*
X1419345Y857033D01*
X1421018Y858706D01*
X1421428Y859241D01*
X1421686Y859863D01*
X1421774Y860532D01*
Y864638D01*
X1424661D01*
Y874575D01*
X1421836D01*
X1421736Y875075D01*
X1422199Y875266D01*
X1423236Y876063D01*
X1424033Y877101D01*
X1424533Y878309D01*
X1424704Y879606D01*
X1424533Y880903D01*
X1424033Y882112D01*
X1423247Y883136D01*
X1423273Y883319D01*
X1423381Y883636D01*
X1426818D01*
X1428223Y882231D01*
Y832875D01*
X1427680Y832458D01*
X1426888Y831427D01*
X1426391Y830226D01*
X1426287Y829437D01*
X1436115D01*
X1436011Y830226D01*
X1435513Y831427D01*
X1434722Y832458D01*
X1434179Y832875D01*
Y868746D01*
X1434679Y869129D01*
X1435138Y869069D01*
X1446317D01*
X1446332Y869019D01*
X1447063Y867651D01*
X1448047Y866453D01*
X1449246Y865469D01*
X1450614Y864737D01*
X1452098Y864287D01*
X1453642Y864135D01*
X1455185Y864287D01*
X1456670Y864737D01*
X1458037Y865469D01*
X1459236Y866453D01*
X1460220Y867651D01*
X1460660Y868473D01*
X1468375D01*
Y809578D01*
X1460660D01*
X1460220Y810400D01*
X1459236Y811599D01*
X1458037Y812583D01*
X1456670Y813314D01*
X1455185Y813764D01*
X1453642Y813916D01*
X1452098Y813764D01*
X1450614Y813314D01*
X1449246Y812583D01*
X1448047Y811599D01*
X1447063Y810400D01*
X1446332Y809032D01*
X1445882Y807547D01*
X1445730Y806004D01*
X1445882Y804460D01*
X1446332Y802976D01*
X1447063Y801608D01*
X1448047Y800409D01*
X1449246Y799425D01*
X1450614Y798694D01*
X1452098Y798244D01*
X1453642Y798092D01*
X1455185Y798244D01*
X1456670Y798694D01*
X1458037Y799425D01*
X1459236Y800409D01*
X1460220Y801608D01*
X1460660Y802430D01*
X1471949D01*
X1472874Y802552D01*
X1473736Y802909D01*
X1474476Y803477D01*
X1475044Y804217D01*
X1475401Y805079D01*
X1475523Y806004D01*
Y872047D01*
Y937500D01*
X1475401Y938425D01*
X1475044Y939287D01*
X1474476Y940027D01*
X1473736Y940595D01*
X1472874Y940952D01*
X1471949Y941074D01*
X1460660D01*
X1460220Y941896D01*
X1459236Y943095D01*
X1458037Y944079D01*
X1456670Y944810D01*
X1455185Y945260D01*
X1453642Y945412D01*
X1452098Y945260D01*
X1450614Y944810D01*
X1449246Y944079D01*
X1448047Y943095D01*
X1447063Y941896D01*
X1446332Y940528D01*
X1445882Y939044D01*
X1445730Y937500D01*
X1445882Y935956D01*
X1446332Y934472D01*
X1447063Y933104D01*
X1448047Y931905D01*
X1449246Y930921D01*
X1450614Y930190D01*
X1452098Y929740D01*
X1453642Y929588D01*
X1455185Y929740D01*
X1456670Y930190D01*
X1458037Y930921D01*
X1459236Y931905D01*
X1460220Y933104D01*
X1460660Y933926D01*
X1468375D01*
Y875621D01*
X1460660D01*
X1460220Y876443D01*
X1459236Y877642D01*
X1458037Y878626D01*
X1456670Y879357D01*
X1455185Y879807D01*
X1453642Y879959D01*
X1452098Y879807D01*
X1450614Y879357D01*
X1449246Y878626D01*
X1448047Y877642D01*
X1447063Y876443D01*
X1446332Y875075D01*
X1446317Y875025D01*
X1438116D01*
Y892220D01*
X1438616Y892346D01*
X1439189Y891273D01*
X1440173Y890075D01*
X1441372Y889091D01*
X1442740Y888359D01*
X1444224Y887909D01*
X1445768Y887757D01*
X1447311Y887909D01*
X1448796Y888359D01*
X1450163Y889091D01*
X1451362Y890075D01*
X1452346Y891273D01*
X1453078Y892641D01*
X1453528Y894126D01*
X1453680Y895669D01*
X1453528Y897213D01*
X1453078Y898697D01*
X1452346Y900065D01*
X1451362Y901264D01*
X1450163Y902248D01*
X1448796Y902979D01*
X1447311Y903429D01*
X1445768Y903581D01*
X1444224Y903429D01*
X1442740Y902979D01*
X1441372Y902248D01*
X1440173Y901264D01*
X1439189Y900065D01*
X1438458Y898697D01*
X1438342Y898315D01*
X1437811Y898289D01*
X1437717Y898517D01*
X1437244Y899133D01*
X1436627Y899607D01*
X1435909Y899904D01*
X1435138Y900006D01*
X1434539D01*
X1434350Y900360D01*
X1433604Y901268D01*
X1432695Y902014D01*
X1431658Y902568D01*
X1430534Y902910D01*
X1429363Y903025D01*
X1428193Y902910D01*
X1427068Y902568D01*
X1426031Y902014D01*
X1425123Y901268D01*
X1424813Y900892D01*
X1421859D01*
X1421822Y901168D01*
X1421326Y902365D01*
X1420537Y903393D01*
X1419509Y904182D01*
X1418436Y904626D01*
X1418436Y904627D01*
Y905139D01*
X1418436Y905140D01*
X1419509Y905584D01*
X1420537Y906373D01*
X1421326Y907401D01*
X1421822Y908598D01*
X1421991Y909883D01*
X1421822Y911168D01*
X1421326Y912365D01*
X1420537Y913393D01*
X1420006Y913801D01*
Y929935D01*
X1423395D01*
Y926059D01*
X1433931D01*
Y919291D01*
X1434033Y918521D01*
X1434330Y917802D01*
X1434803Y917185D01*
X1435420Y916712D01*
X1436139Y916415D01*
X1436909Y916313D01*
X1446317D01*
X1446332Y916263D01*
X1447063Y914896D01*
X1448047Y913697D01*
X1449246Y912713D01*
X1450614Y911981D01*
X1452098Y911531D01*
X1453642Y911379D01*
X1455185Y911531D01*
X1456670Y911981D01*
X1458037Y912713D01*
X1459236Y913697D01*
X1460220Y914896D01*
X1460952Y916263D01*
X1461402Y917748D01*
X1461554Y919291D01*
X1461402Y920835D01*
X1460952Y922319D01*
X1460220Y923687D01*
X1459236Y924886D01*
X1458037Y925870D01*
X1456670Y926601D01*
X1455185Y927051D01*
X1453642Y927203D01*
X1452098Y927051D01*
X1450614Y926601D01*
X1449246Y925870D01*
X1448047Y924886D01*
X1447063Y923687D01*
X1446332Y922319D01*
X1446317Y922270D01*
X1439888D01*
Y955115D01*
X1440388Y955351D01*
X1441372Y954543D01*
X1442740Y953812D01*
X1444224Y953362D01*
X1445768Y953210D01*
X1447311Y953362D01*
X1448796Y953812D01*
X1450163Y954543D01*
X1451362Y955527D01*
X1452346Y956726D01*
X1453078Y958094D01*
X1453528Y959579D01*
X1453680Y961122D01*
X1453528Y962666D01*
X1453078Y964150D01*
X1452346Y965518D01*
X1451362Y966717D01*
X1450163Y967701D01*
X1448796Y968432D01*
X1447311Y968882D01*
X1445768Y969034D01*
X1444224Y968882D01*
X1442740Y968432D01*
X1441372Y967701D01*
X1440388Y966893D01*
X1439888Y967129D01*
Y981499D01*
X1440388Y981839D01*
X1440945Y981766D01*
X1446317D01*
X1446332Y981716D01*
X1447063Y980348D01*
X1448047Y979149D01*
X1449246Y978165D01*
X1450614Y977434D01*
X1452098Y976984D01*
X1453642Y976832D01*
X1455185Y976984D01*
X1456670Y977434D01*
X1458037Y978165D01*
X1459236Y979149D01*
X1460220Y980348D01*
X1460952Y981716D01*
X1461402Y983200D01*
X1461554Y984744D01*
X1461402Y986288D01*
X1460952Y987772D01*
X1460220Y989140D01*
X1459236Y990339D01*
X1458037Y991323D01*
X1456670Y992054D01*
X1455185Y992504D01*
X1453642Y992656D01*
X1452098Y992504D01*
X1450614Y992054D01*
X1449246Y991323D01*
X1448047Y990339D01*
X1447063Y989140D01*
X1446332Y987772D01*
X1446317Y987722D01*
X1443923D01*
Y1020870D01*
X1444397Y1021031D01*
X1444465Y1020942D01*
X1445452Y1020184D01*
X1446601Y1019708D01*
X1447835Y1019546D01*
X1449068Y1019708D01*
X1450217Y1020184D01*
X1451204Y1020942D01*
X1451961Y1021928D01*
X1452437Y1023078D01*
X1452600Y1024311D01*
X1452437Y1025544D01*
X1451961Y1026694D01*
X1451204Y1027680D01*
X1450217Y1028438D01*
X1449068Y1028914D01*
X1447835Y1029076D01*
X1446601Y1028914D01*
X1445452Y1028438D01*
X1444465Y1027680D01*
X1444397Y1027591D01*
X1443923Y1027752D01*
Y1032484D01*
X1444397Y1032645D01*
X1444465Y1032556D01*
X1445452Y1031798D01*
X1446601Y1031322D01*
X1447835Y1031160D01*
X1449068Y1031322D01*
X1450217Y1031798D01*
X1451204Y1032556D01*
X1451961Y1033543D01*
X1452437Y1034692D01*
X1452600Y1035925D01*
X1452437Y1037158D01*
X1451961Y1038308D01*
X1451204Y1039295D01*
X1450217Y1040052D01*
X1449068Y1040528D01*
X1447835Y1040690D01*
X1446601Y1040528D01*
X1445452Y1040052D01*
X1444465Y1039295D01*
X1444397Y1039205D01*
X1443923Y1039366D01*
Y1040787D01*
X1443822Y1041558D01*
X1443524Y1042276D01*
X1443051Y1042893D01*
X1442434Y1043367D01*
X1441716Y1043664D01*
X1440945Y1043766D01*
X1435332D01*
Y1046756D01*
X1423395D01*
Y1043766D01*
X1417027D01*
X1416257Y1043664D01*
X1415538Y1043367D01*
X1414922Y1042893D01*
X1414448Y1042276D01*
X1414151Y1041558D01*
X1414049Y1040787D01*
Y1022561D01*
X1413518Y1022153D01*
X1413110Y1021621D01*
X1411713D01*
X1410942Y1021519D01*
X1410428Y1021307D01*
X1410113Y1021717D01*
X1410426Y1022125D01*
X1410902Y1023275D01*
X1411064Y1024508D01*
X1410902Y1025741D01*
X1410426Y1026890D01*
X1409669Y1027877D01*
X1408682Y1028635D01*
X1407533Y1029111D01*
X1406299Y1029273D01*
X1403937D01*
X1402704Y1029111D01*
X1401554Y1028635D01*
X1400568Y1027877D01*
X1399963Y1027089D01*
X1389468D01*
X1388800Y1027001D01*
X1388178Y1026743D01*
X1387643Y1026333D01*
X1387233Y1025799D01*
X1386975Y1025176D01*
X1386887Y1024508D01*
Y1022430D01*
X1385959Y1021717D01*
X1385246Y1020789D01*
X1381813D01*
Y1040431D01*
X1382602Y1041036D01*
X1383359Y1042023D01*
X1383835Y1043172D01*
X1383997Y1044405D01*
X1383835Y1045639D01*
X1383359Y1046788D01*
X1382730Y1047608D01*
X1382949Y1048108D01*
X1472638D01*
X1473306Y1048196D01*
X1473928Y1048454D01*
X1474463Y1048864D01*
X1476727Y1051128D01*
X1477137Y1051662D01*
X1477395Y1052285D01*
X1477483Y1052953D01*
Y1123819D01*
X1477395Y1124487D01*
X1477137Y1125109D01*
X1476727Y1125644D01*
X1471943Y1130427D01*
X1471409Y1130838D01*
X1470786Y1131096D01*
X1470118Y1131184D01*
X1466398D01*
Y1133720D01*
X1456161D01*
Y1131433D01*
X1455661Y1131299D01*
X1454930Y1132253D01*
X1453861Y1133073D01*
X1452616Y1133589D01*
X1451280Y1133765D01*
X1449943Y1133589D01*
X1448698Y1133073D01*
X1447629Y1132253D01*
X1446809Y1131184D01*
X1446550Y1130559D01*
X1446009D01*
X1445750Y1131184D01*
X1444930Y1132253D01*
X1443861Y1133073D01*
X1442616Y1133589D01*
X1441280Y1133765D01*
X1439943Y1133589D01*
X1438698Y1133073D01*
X1437629Y1132253D01*
X1436809Y1131184D01*
X1436550Y1130559D01*
X1436009D01*
X1435750Y1131184D01*
X1434930Y1132253D01*
X1433861Y1133073D01*
X1432616Y1133589D01*
X1431279Y1133765D01*
X1429943Y1133589D01*
X1428698Y1133073D01*
X1427629Y1132253D01*
X1426809Y1131184D01*
X1426550Y1130559D01*
X1426009D01*
X1425750Y1131184D01*
X1424930Y1132253D01*
X1423861Y1133073D01*
X1422616Y1133589D01*
X1421280Y1133765D01*
X1419943Y1133589D01*
X1418698Y1133073D01*
X1417629Y1132253D01*
X1416809Y1131184D01*
X1416550Y1130559D01*
X1416009D01*
X1415750Y1131184D01*
X1414930Y1132253D01*
X1413861Y1133073D01*
X1412616Y1133589D01*
X1411279Y1133765D01*
X1409943Y1133589D01*
X1408698Y1133073D01*
X1407629Y1132253D01*
X1406809Y1131184D01*
X1406550Y1130559D01*
X1406009D01*
X1405750Y1131184D01*
X1404930Y1132253D01*
X1403861Y1133073D01*
X1402616Y1133589D01*
X1401280Y1133765D01*
X1399943Y1133589D01*
X1398698Y1133073D01*
X1397629Y1132253D01*
X1396809Y1131184D01*
X1396550Y1130559D01*
X1396009D01*
X1395750Y1131184D01*
X1394930Y1132253D01*
X1393861Y1133073D01*
X1392616Y1133589D01*
X1391280Y1133765D01*
X1389943Y1133589D01*
X1388698Y1133073D01*
X1387629Y1132253D01*
X1386809Y1131184D01*
X1386550Y1130559D01*
X1386009D01*
X1385750Y1131184D01*
X1384930Y1132253D01*
X1383861Y1133073D01*
X1382616Y1133589D01*
X1381279Y1133765D01*
X1379943Y1133589D01*
X1378698Y1133073D01*
X1377629Y1132253D01*
X1376809Y1131184D01*
X1376550Y1130559D01*
X1376009D01*
X1375750Y1131184D01*
X1374930Y1132253D01*
X1373861Y1133073D01*
X1372616Y1133589D01*
X1371280Y1133765D01*
X1369943Y1133589D01*
X1368698Y1133073D01*
X1367629Y1132253D01*
X1366809Y1131184D01*
X1366550Y1130559D01*
X1366009D01*
X1365750Y1131184D01*
X1364930Y1132253D01*
X1363861Y1133073D01*
X1362616Y1133589D01*
X1361279Y1133765D01*
X1359943Y1133589D01*
X1358698Y1133073D01*
X1357629Y1132253D01*
X1356809Y1131184D01*
X1356550Y1130559D01*
X1356009D01*
X1355750Y1131184D01*
X1354930Y1132253D01*
X1353861Y1133073D01*
X1352616Y1133589D01*
X1351280Y1133765D01*
X1349943Y1133589D01*
X1348698Y1133073D01*
X1347629Y1132253D01*
X1346809Y1131184D01*
X1346550Y1130559D01*
X1346009D01*
X1345750Y1131184D01*
X1344930Y1132253D01*
X1343861Y1133073D01*
X1342616Y1133589D01*
X1341280Y1133765D01*
X1339943Y1133589D01*
X1338698Y1133073D01*
X1337629Y1132253D01*
X1336809Y1131184D01*
X1336293Y1129939D01*
X1336117Y1128602D01*
X1336293Y1127266D01*
X1336809Y1126021D01*
X1337629Y1124952D01*
X1338698Y1124132D01*
X1339943Y1123616D01*
X1341280Y1123440D01*
X1342616Y1123616D01*
X1343861Y1124132D01*
X1344930Y1124952D01*
X1345750Y1126021D01*
X1346009Y1126646D01*
X1346550D01*
X1346809Y1126021D01*
X1347629Y1124952D01*
X1348698Y1124132D01*
X1349943Y1123616D01*
X1351280Y1123440D01*
X1352616Y1123616D01*
X1353861Y1124132D01*
X1354930Y1124952D01*
X1355750Y1126021D01*
X1356009Y1126646D01*
X1356550D01*
X1356809Y1126021D01*
X1357629Y1124952D01*
X1358698Y1124132D01*
X1359943Y1123616D01*
X1361279Y1123440D01*
X1362616Y1123616D01*
X1363861Y1124132D01*
X1364930Y1124952D01*
X1365750Y1126021D01*
X1366009Y1126646D01*
X1366550D01*
X1366809Y1126021D01*
X1367629Y1124952D01*
X1368698Y1124132D01*
X1369943Y1123616D01*
X1371280Y1123440D01*
X1372616Y1123616D01*
X1373861Y1124132D01*
X1374930Y1124952D01*
X1375750Y1126021D01*
X1376009Y1126646D01*
X1376550D01*
X1376809Y1126021D01*
X1377629Y1124952D01*
X1378698Y1124132D01*
X1379943Y1123616D01*
X1381279Y1123440D01*
X1382616Y1123616D01*
X1383861Y1124132D01*
X1384930Y1124952D01*
X1385750Y1126021D01*
X1386009Y1126646D01*
X1386550D01*
X1386809Y1126021D01*
X1387629Y1124952D01*
X1388698Y1124132D01*
X1389943Y1123616D01*
X1391280Y1123440D01*
X1392616Y1123616D01*
X1393861Y1124132D01*
X1394930Y1124952D01*
X1395750Y1126021D01*
X1396009Y1126646D01*
X1396550D01*
X1396809Y1126021D01*
X1397629Y1124952D01*
X1398698Y1124132D01*
X1399943Y1123616D01*
X1401280Y1123440D01*
X1402616Y1123616D01*
X1403861Y1124132D01*
X1404930Y1124952D01*
X1405750Y1126021D01*
X1406009Y1126646D01*
X1406550D01*
X1406809Y1126021D01*
X1407629Y1124952D01*
X1408698Y1124132D01*
X1409943Y1123616D01*
X1411279Y1123440D01*
X1412616Y1123616D01*
X1413861Y1124132D01*
X1414930Y1124952D01*
X1415750Y1126021D01*
X1416009Y1126646D01*
X1416550D01*
X1416809Y1126021D01*
X1417629Y1124952D01*
X1418698Y1124132D01*
X1419943Y1123616D01*
X1421280Y1123440D01*
X1422616Y1123616D01*
X1423861Y1124132D01*
X1424930Y1124952D01*
X1425750Y1126021D01*
X1426009Y1126646D01*
X1426550D01*
X1426809Y1126021D01*
X1427629Y1124952D01*
X1428698Y1124132D01*
X1429943Y1123616D01*
X1431279Y1123440D01*
X1432616Y1123616D01*
X1433861Y1124132D01*
X1434930Y1124952D01*
X1435750Y1126021D01*
X1436009Y1126646D01*
X1436550D01*
X1436809Y1126021D01*
X1437629Y1124952D01*
X1438698Y1124132D01*
X1439943Y1123616D01*
X1441280Y1123440D01*
X1442616Y1123616D01*
X1443861Y1124132D01*
X1444930Y1124952D01*
X1445750Y1126021D01*
X1446009Y1126646D01*
X1446550D01*
X1446809Y1126021D01*
X1447629Y1124952D01*
X1448698Y1124132D01*
X1449943Y1123616D01*
X1451280Y1123440D01*
X1452616Y1123616D01*
X1453861Y1124132D01*
X1454930Y1124952D01*
X1455661Y1125906D01*
X1456161Y1125771D01*
Y1123484D01*
X1466398D01*
Y1126021D01*
X1469049D01*
X1472320Y1122750D01*
Y1054022D01*
X1471569Y1053270D01*
X1463282D01*
X1463155Y1053579D01*
X1463123Y1053770D01*
X1463515Y1054280D01*
X1463773Y1054903D01*
X1463861Y1055571D01*
Y1064132D01*
X1464930Y1064952D01*
X1465750Y1066021D01*
X1466266Y1067266D01*
X1466442Y1068602D01*
X1466266Y1069938D01*
X1465750Y1071183D01*
X1464930Y1072253D01*
X1463861Y1073073D01*
X1462616Y1073589D01*
X1461279Y1073765D01*
X1459943Y1073589D01*
X1458698Y1073073D01*
X1457629Y1072253D01*
X1456809Y1071183D01*
X1456550Y1070559D01*
X1456009D01*
X1455750Y1071183D01*
X1454930Y1072253D01*
X1453861Y1073073D01*
X1452616Y1073589D01*
X1451280Y1073765D01*
X1449943Y1073589D01*
X1448698Y1073073D01*
X1447629Y1072253D01*
X1446809Y1071183D01*
X1446550Y1070559D01*
X1446009D01*
X1445750Y1071183D01*
X1444930Y1072253D01*
X1443861Y1073073D01*
X1442616Y1073589D01*
X1441280Y1073765D01*
X1439943Y1073589D01*
X1438698Y1073073D01*
X1437629Y1072253D01*
X1436809Y1071183D01*
X1436550Y1070559D01*
X1436009D01*
X1435750Y1071183D01*
X1434930Y1072253D01*
X1433861Y1073073D01*
X1432616Y1073589D01*
X1431279Y1073765D01*
X1429943Y1073589D01*
X1428698Y1073073D01*
X1427629Y1072253D01*
X1426809Y1071183D01*
X1426550Y1070559D01*
X1426009D01*
X1425750Y1071183D01*
X1424930Y1072253D01*
X1423861Y1073073D01*
X1422616Y1073589D01*
X1421280Y1073765D01*
X1419943Y1073589D01*
X1418698Y1073073D01*
X1417629Y1072253D01*
X1416809Y1071183D01*
X1416550Y1070559D01*
X1416009D01*
X1415750Y1071183D01*
X1414930Y1072253D01*
X1413861Y1073073D01*
X1412616Y1073589D01*
X1411279Y1073765D01*
X1409943Y1073589D01*
X1408698Y1073073D01*
X1407629Y1072253D01*
X1406809Y1071183D01*
X1406550Y1070559D01*
X1406009D01*
X1405750Y1071183D01*
X1404930Y1072253D01*
X1403861Y1073073D01*
X1402616Y1073589D01*
X1401280Y1073765D01*
X1399943Y1073589D01*
X1398698Y1073073D01*
X1397629Y1072253D01*
X1396809Y1071183D01*
X1396550Y1070559D01*
X1396009D01*
X1395750Y1071183D01*
X1394930Y1072253D01*
X1393861Y1073073D01*
X1392616Y1073589D01*
X1391280Y1073765D01*
X1389943Y1073589D01*
X1388698Y1073073D01*
X1387629Y1072253D01*
X1386809Y1071183D01*
X1386550Y1070559D01*
X1386009D01*
X1385750Y1071183D01*
X1384930Y1072253D01*
X1383861Y1073073D01*
X1382616Y1073589D01*
X1381279Y1073765D01*
X1379943Y1073589D01*
X1378698Y1073073D01*
X1377629Y1072253D01*
X1376809Y1071183D01*
X1376550Y1070559D01*
X1376009D01*
X1375750Y1071183D01*
X1374930Y1072253D01*
X1373861Y1073073D01*
X1372616Y1073589D01*
X1371280Y1073765D01*
X1369943Y1073589D01*
X1368698Y1073073D01*
X1367629Y1072253D01*
X1366809Y1071183D01*
X1366550Y1070559D01*
X1366009D01*
X1365750Y1071183D01*
X1364930Y1072253D01*
X1363861Y1073073D01*
X1362616Y1073589D01*
X1361279Y1073765D01*
X1359943Y1073589D01*
X1358698Y1073073D01*
X1357629Y1072253D01*
X1356809Y1071183D01*
X1356293Y1069938D01*
X1356117Y1068602D01*
X1356293Y1067266D01*
X1356809Y1066021D01*
X1357629Y1064952D01*
X1358698Y1064132D01*
X1359943Y1063616D01*
X1361279Y1063440D01*
X1362616Y1063616D01*
X1363861Y1064132D01*
X1364930Y1064952D01*
X1365750Y1066021D01*
X1366009Y1066646D01*
X1366550D01*
X1366809Y1066021D01*
X1367629Y1064952D01*
X1368698Y1064132D01*
X1369943Y1063616D01*
X1371280Y1063440D01*
X1372616Y1063616D01*
X1373861Y1064132D01*
X1374930Y1064952D01*
X1375750Y1066021D01*
X1376009Y1066646D01*
X1376550D01*
X1376809Y1066021D01*
X1377629Y1064952D01*
X1378698Y1064132D01*
X1379943Y1063616D01*
X1381279Y1063440D01*
X1382616Y1063616D01*
X1383861Y1064132D01*
X1384930Y1064952D01*
X1385750Y1066021D01*
X1386009Y1066646D01*
X1386550D01*
X1386809Y1066021D01*
X1387629Y1064952D01*
X1388698Y1064132D01*
X1389943Y1063616D01*
X1391280Y1063440D01*
X1392616Y1063616D01*
X1393861Y1064132D01*
X1394930Y1064952D01*
X1395750Y1066021D01*
X1396009Y1066646D01*
X1396550D01*
X1396809Y1066021D01*
X1397629Y1064952D01*
X1398698Y1064132D01*
X1399943Y1063616D01*
X1401280Y1063440D01*
X1402616Y1063616D01*
X1403861Y1064132D01*
X1404930Y1064952D01*
X1405750Y1066021D01*
X1406009Y1066646D01*
X1406550D01*
X1406809Y1066021D01*
X1407629Y1064952D01*
X1408698Y1064132D01*
X1409943Y1063616D01*
X1411279Y1063440D01*
X1412616Y1063616D01*
X1413861Y1064132D01*
X1414930Y1064952D01*
X1415750Y1066021D01*
X1416009Y1066646D01*
X1416550D01*
X1416809Y1066021D01*
X1417629Y1064952D01*
X1418698Y1064132D01*
X1419943Y1063616D01*
X1421280Y1063440D01*
X1422616Y1063616D01*
X1423861Y1064132D01*
X1424930Y1064952D01*
X1425750Y1066021D01*
X1426009Y1066646D01*
X1426550D01*
X1426809Y1066021D01*
X1427629Y1064952D01*
X1428698Y1064132D01*
X1429943Y1063616D01*
X1431279Y1063440D01*
X1432616Y1063616D01*
X1433861Y1064132D01*
X1434930Y1064952D01*
X1435750Y1066021D01*
X1436009Y1066646D01*
X1436550D01*
X1436809Y1066021D01*
X1437629Y1064952D01*
X1438698Y1064132D01*
X1439943Y1063616D01*
X1441280Y1063440D01*
X1442616Y1063616D01*
X1443861Y1064132D01*
X1444930Y1064952D01*
X1445750Y1066021D01*
X1446009Y1066646D01*
X1446550D01*
X1446809Y1066021D01*
X1447629Y1064952D01*
X1448698Y1064132D01*
Y1058648D01*
X1448439Y1058388D01*
X1321555D01*
X1320887Y1058300D01*
X1320265Y1058042D01*
X1319730Y1057632D01*
X1317171Y1055073D01*
X1316761Y1054539D01*
X1316503Y1053916D01*
X1316415Y1053248D01*
Y862008D01*
X1316503Y861340D01*
X1316761Y860717D01*
X1317171Y860183D01*
X1320321Y857033D01*
X1320855Y856623D01*
X1321060Y856538D01*
X1320961Y856038D01*
X1312632D01*
Y896690D01*
X1313458Y897368D01*
X1314319Y898417D01*
X1314959Y899614D01*
X1315353Y900913D01*
X1315486Y902264D01*
X1315353Y903614D01*
X1314959Y904913D01*
X1314319Y906110D01*
X1313458Y907159D01*
X1312632Y907837D01*
Y943996D01*
X1312497Y945024D01*
X1312100Y945982D01*
X1311469Y946804D01*
X1310647Y947435D01*
X1309689Y947832D01*
X1308661Y947967D01*
X1253417D01*
X1252396Y948987D01*
Y952445D01*
X1254618D01*
Y959350D01*
X1255618D01*
Y952445D01*
X1258087D01*
Y957399D01*
X1258213Y957563D01*
X1258570Y958425D01*
X1258692Y959350D01*
Y970571D01*
X1258570Y971496D01*
X1258213Y972358D01*
X1257645Y973098D01*
X1257001Y973592D01*
X1256998Y973625D01*
X1257056Y973979D01*
X1257117Y974107D01*
X1257728Y974228D01*
X1257761Y974251D01*
X1257795Y974228D01*
X1258563Y974076D01*
X1262401D01*
X1263170Y974228D01*
X1263821Y974664D01*
X1264256Y975315D01*
X1264409Y976083D01*
Y986417D01*
X1264409Y986417D01*
Y1007283D01*
X1264409Y1007284D01*
Y1019291D01*
X1264256Y1020059D01*
X1263821Y1020710D01*
X1263170Y1021146D01*
X1262401Y1021298D01*
X1258563D01*
X1257795Y1021146D01*
X1257761Y1021123D01*
X1257728Y1021146D01*
X1256960Y1021298D01*
X1253121D01*
X1252353Y1021146D01*
X1252320Y1021123D01*
X1252287Y1021146D01*
X1251519Y1021298D01*
X1247680D01*
X1246912Y1021146D01*
X1246879Y1021123D01*
X1246845Y1021146D01*
X1246077Y1021298D01*
X1242238D01*
X1241470Y1021146D01*
X1241437Y1021123D01*
X1241404Y1021146D01*
X1240635Y1021298D01*
X1236797D01*
X1236029Y1021146D01*
X1235995Y1021123D01*
X1235962Y1021146D01*
X1235194Y1021298D01*
X1231355D01*
X1230587Y1021146D01*
X1230554Y1021123D01*
X1230521Y1021146D01*
X1229753Y1021298D01*
X1225914D01*
X1225146Y1021146D01*
X1225113Y1021123D01*
X1225079Y1021146D01*
X1224311Y1021298D01*
X1221582D01*
Y1136587D01*
X1235763D01*
X1236082Y1136087D01*
X1235996Y1135433D01*
Y1110433D01*
X1236105Y1109611D01*
X1236422Y1108845D01*
X1236927Y1108187D01*
X1237585Y1107682D01*
X1238351Y1107364D01*
X1239173Y1107256D01*
X1325197D01*
X1326019Y1107364D01*
X1326785Y1107682D01*
X1327443Y1108187D01*
X1327948Y1108845D01*
X1328265Y1109611D01*
X1328374Y1110433D01*
Y1111984D01*
X1328822Y1112205D01*
X1329089Y1112000D01*
X1330051Y1111602D01*
X1330583Y1111532D01*
Y1115453D01*
X1331583D01*
Y1111532D01*
X1332115Y1111602D01*
X1333076Y1112000D01*
X1333694Y1112475D01*
X1348301D01*
Y1071537D01*
X1347655Y1070695D01*
X1347237Y1069686D01*
X1347160Y1069102D01*
X1351280D01*
X1355399D01*
X1355322Y1069686D01*
X1354904Y1070695D01*
X1354258Y1071537D01*
Y1115453D01*
X1354156Y1116224D01*
X1353859Y1116942D01*
X1353386Y1117559D01*
X1352769Y1118032D01*
X1352050Y1118330D01*
X1351280Y1118431D01*
X1334061D01*
Y1125506D01*
X1334239Y1125643D01*
X1334904Y1126510D01*
X1335322Y1127519D01*
X1335399Y1128102D01*
X1331279D01*
Y1128602D01*
X1330779D01*
Y1132722D01*
X1330196Y1132645D01*
X1329187Y1132227D01*
X1328822Y1131947D01*
X1328374Y1132168D01*
Y1142489D01*
X1375049D01*
X1375378Y1142113D01*
D02*
G37*
G36*
X1399810Y913365D02*
X1400568Y912379D01*
X1401554Y911621D01*
X1402704Y911145D01*
X1403805Y911000D01*
Y910496D01*
X1402704Y910351D01*
X1401554Y909875D01*
X1400568Y909118D01*
X1399810Y908131D01*
X1399334Y906981D01*
X1399172Y905748D01*
X1399334Y904515D01*
X1399810Y903366D01*
X1400568Y902378D01*
X1401554Y901621D01*
X1402704Y901145D01*
X1403937Y900983D01*
X1406299D01*
X1407533Y901145D01*
X1408682Y901621D01*
X1409669Y902378D01*
X1410426Y903366D01*
X1410546Y903656D01*
X1411713D01*
X1412483Y903757D01*
X1413202Y904055D01*
X1413818Y904528D01*
X1414292Y905145D01*
X1414303Y905173D01*
X1414946Y905418D01*
X1415619Y905140D01*
X1415619Y905139D01*
Y904627D01*
X1415619Y904626D01*
X1414546Y904182D01*
X1413518Y903393D01*
X1412729Y902365D01*
X1412233Y901168D01*
X1412064Y899883D01*
X1412233Y898598D01*
X1412729Y897401D01*
X1413518Y896373D01*
X1414546Y895584D01*
X1415743Y895088D01*
X1417027Y894919D01*
X1417149Y894935D01*
X1423761D01*
X1423823Y894732D01*
X1424377Y893696D01*
X1424994Y892943D01*
X1424785Y892443D01*
X1408984D01*
X1408814Y892943D01*
X1408978Y893069D01*
X1409580Y893854D01*
X1409958Y894767D01*
X1410022Y895248D01*
X1405118D01*
Y896248D01*
X1410022D01*
X1409958Y896729D01*
X1409580Y897642D01*
X1408978Y898427D01*
X1408193Y899029D01*
X1407280Y899407D01*
X1406299Y899536D01*
X1405694D01*
X1405118Y899612D01*
X1393434D01*
X1393320Y900480D01*
X1392921Y901441D01*
X1392288Y902267D01*
X1391462Y902900D01*
X1390500Y903299D01*
X1389968Y903369D01*
Y899448D01*
X1389468D01*
Y898948D01*
X1385548D01*
X1385618Y898416D01*
X1386016Y897454D01*
X1386490Y896836D01*
Y896634D01*
X1386592Y895863D01*
X1386889Y895145D01*
X1387363Y894528D01*
X1387979Y894055D01*
X1388698Y893757D01*
X1389468Y893656D01*
X1400808D01*
X1401258Y893069D01*
X1401422Y892943D01*
X1401253Y892443D01*
X1383416D01*
X1383195Y892892D01*
X1383359Y893106D01*
X1383835Y894255D01*
X1383997Y895488D01*
X1383835Y896721D01*
X1383359Y897871D01*
X1382602Y898858D01*
X1381615Y899615D01*
X1380466Y900091D01*
X1380266Y900117D01*
X1379900Y900269D01*
X1379232Y900357D01*
X1370149D01*
X1369550Y901086D01*
X1368963Y901568D01*
Y902212D01*
X1369550Y902694D01*
X1370288Y903593D01*
X1370671Y904309D01*
X1375787D01*
X1376455Y904397D01*
X1377078Y904654D01*
X1377612Y905065D01*
X1378023Y905599D01*
X1378281Y906222D01*
X1378368Y906890D01*
Y907420D01*
X1378868Y907800D01*
X1379232Y907752D01*
X1384844D01*
X1385170Y906966D01*
X1385959Y905938D01*
X1386987Y905149D01*
X1388184Y904653D01*
X1389468Y904484D01*
X1390753Y904653D01*
X1391950Y905149D01*
X1392978Y905938D01*
X1393767Y906966D01*
X1394263Y908163D01*
X1394432Y909448D01*
X1394263Y910732D01*
X1393767Y911930D01*
X1392978Y912957D01*
X1392203Y913553D01*
X1392372Y914053D01*
X1399526D01*
X1399810Y913365D01*
D02*
G37*
G36*
X1424377Y948617D02*
X1425123Y947708D01*
X1426031Y946962D01*
X1427068Y946408D01*
X1428193Y946067D01*
X1429363Y945951D01*
X1430534Y946067D01*
X1431658Y946408D01*
X1432695Y946962D01*
X1433431Y947566D01*
X1433931Y947340D01*
Y937996D01*
X1423395D01*
Y935892D01*
X1417027D01*
X1416257Y935790D01*
X1415538Y935493D01*
X1414922Y935019D01*
X1414448Y934402D01*
X1414151Y933684D01*
X1414049Y932913D01*
Y913801D01*
X1413979Y913747D01*
X1411713D01*
X1411091Y913665D01*
X1410707Y914043D01*
X1410902Y914515D01*
X1411064Y915748D01*
X1410902Y916981D01*
X1410426Y918131D01*
X1409669Y919118D01*
X1408682Y919875D01*
X1407533Y920351D01*
X1406299Y920513D01*
X1403937D01*
X1402704Y920351D01*
X1401554Y919875D01*
X1400694Y919215D01*
X1389468D01*
X1388800Y919127D01*
X1388178Y918869D01*
X1387643Y918459D01*
X1387233Y917924D01*
X1386975Y917302D01*
X1386887Y916634D01*
Y913670D01*
X1385959Y912957D01*
X1385926Y912915D01*
X1381813D01*
Y931671D01*
X1382602Y932276D01*
X1383359Y933263D01*
X1383835Y934412D01*
X1383997Y935646D01*
X1383835Y936879D01*
X1383359Y938028D01*
X1382602Y939015D01*
X1381615Y939772D01*
X1380466Y940248D01*
X1379232Y940411D01*
X1377999Y940248D01*
X1376850Y939772D01*
X1375863Y939015D01*
X1375105Y938028D01*
X1374629Y936879D01*
X1374467Y935646D01*
X1374559Y934945D01*
X1374230Y934569D01*
X1356420D01*
Y943088D01*
X1417027D01*
X1417696Y943176D01*
X1418318Y943434D01*
X1418853Y943844D01*
X1419263Y944379D01*
X1419521Y945001D01*
X1419609Y945669D01*
Y949069D01*
X1424135D01*
X1424377Y948617D01*
D02*
G37*
G36*
X1393508Y883319D02*
X1393534Y883136D01*
X1392749Y882112D01*
X1392248Y880903D01*
X1392077Y879606D01*
X1392248Y878309D01*
X1392749Y877101D01*
X1393545Y876063D01*
X1394583Y875266D01*
X1395045Y875075D01*
X1394946Y874575D01*
X1392120D01*
Y864638D01*
X1395008D01*
Y864110D01*
X1394699Y863802D01*
X1378840D01*
X1378578Y864254D01*
X1378758Y864638D01*
X1381453D01*
Y874575D01*
X1378627D01*
X1378528Y875075D01*
X1378990Y875266D01*
X1380028Y876063D01*
X1380824Y877101D01*
X1381325Y878309D01*
X1381496Y879606D01*
X1381325Y880903D01*
X1380824Y882112D01*
X1380039Y883136D01*
X1380065Y883319D01*
X1380172Y883636D01*
X1393401D01*
X1393508Y883319D01*
D02*
G37*
G36*
X1415112D02*
X1415139Y883136D01*
X1414353Y882112D01*
X1413852Y880903D01*
X1413682Y879606D01*
X1413852Y878309D01*
X1414353Y877101D01*
X1415149Y876063D01*
X1416187Y875266D01*
X1416650Y875075D01*
X1416550Y874575D01*
X1413724D01*
Y864638D01*
X1416612D01*
Y861601D01*
X1416451Y861439D01*
X1400166D01*
X1399902Y861939D01*
X1400082Y862373D01*
X1400170Y863041D01*
Y864638D01*
X1403057D01*
Y874575D01*
X1400231D01*
X1400132Y875075D01*
X1400594Y875266D01*
X1401632Y876063D01*
X1402429Y877101D01*
X1402929Y878309D01*
X1403100Y879606D01*
X1402929Y880903D01*
X1402429Y882112D01*
X1401643Y883136D01*
X1401669Y883319D01*
X1401776Y883636D01*
X1415005D01*
X1415112Y883319D01*
D02*
G37*
G36*
X1185090Y898417D02*
X1185951Y897368D01*
X1187000Y896507D01*
X1188197Y895868D01*
X1189496Y895474D01*
X1190847Y895341D01*
X1192197Y895474D01*
X1193496Y895868D01*
X1194650Y896484D01*
X1194932Y896401D01*
X1195150Y896298D01*
Y894515D01*
X1190945Y894515D01*
X1190123Y894407D01*
X1189357Y894090D01*
X1188699Y893585D01*
X1188194Y892927D01*
X1187876Y892161D01*
X1187768Y891339D01*
Y849311D01*
X1187876Y848489D01*
X1188194Y847723D01*
X1188699Y847065D01*
X1189357Y846560D01*
X1190123Y846243D01*
X1190945Y846134D01*
X1246251D01*
X1246259Y844941D01*
X1245906Y844587D01*
X1236220D01*
Y832382D01*
X1246383D01*
X1246386Y832356D01*
X1246439Y831953D01*
X1246443Y831945D01*
X1246444Y831935D01*
X1246602Y831561D01*
X1246757Y831187D01*
X1246762Y831180D01*
X1246766Y831171D01*
X1247015Y830851D01*
X1247262Y830529D01*
X1247269Y830523D01*
X1247275Y830516D01*
X1247598Y830271D01*
X1247919Y830024D01*
X1247928Y830021D01*
X1247936Y830015D01*
X1248312Y829862D01*
X1248686Y829707D01*
X1248695Y829706D01*
X1248704Y829702D01*
X1249106Y829652D01*
X1249508Y829599D01*
X1251139D01*
Y828881D01*
X1243799D01*
X1242515Y828712D01*
X1241317Y828216D01*
X1240289Y827427D01*
X1239501Y826399D01*
X1239005Y825202D01*
X1238836Y823917D01*
Y813314D01*
X1238302Y812316D01*
X1237964Y811200D01*
X1237899Y810539D01*
X1243799D01*
X1249700D01*
X1249635Y811200D01*
X1249296Y812316D01*
X1248763Y813314D01*
Y818954D01*
X1256102D01*
X1257387Y819123D01*
X1258584Y819619D01*
X1259612Y820407D01*
X1260401Y821436D01*
X1260897Y822633D01*
X1261066Y823917D01*
Y829599D01*
X1272706D01*
Y825558D01*
X1272827Y824633D01*
X1273184Y823771D01*
X1273752Y823031D01*
X1274493Y822463D01*
X1275354Y822106D01*
X1276280Y821984D01*
X1303521D01*
Y808248D01*
X1303609Y807580D01*
X1303867Y806958D01*
X1304277Y806423D01*
X1304812Y806013D01*
X1305434Y805755D01*
X1306102Y805667D01*
X1308053D01*
X1308261Y805395D01*
X1309097Y804754D01*
X1309599Y804546D01*
X1309888Y804257D01*
X1310422Y803847D01*
X1310738Y803716D01*
X1310638Y803216D01*
X1306146D01*
Y794317D01*
X1184081D01*
Y899245D01*
X1184581Y899371D01*
X1185090Y898417D01*
D02*
G37*
G36*
X1310433Y1139764D02*
X1218406D01*
Y992028D01*
X1204232D01*
Y931791D01*
X1214370D01*
Y874213D01*
X1281890D01*
Y832776D01*
X1249508D01*
X1249409Y849311D01*
X1190945D01*
Y891339D01*
X1198327Y891339D01*
Y917717D01*
X1190945Y917717D01*
Y1150886D01*
X1299114D01*
Y1161909D01*
X1310433D01*
Y1139764D01*
D02*
G37*
G36*
X1342434Y1171423D02*
X1341691Y1170455D01*
X1341175Y1169210D01*
X1340999Y1167874D01*
X1341175Y1166538D01*
X1341691Y1165293D01*
X1342511Y1164224D01*
X1343580Y1163403D01*
X1344205Y1163145D01*
Y1162603D01*
X1343580Y1162345D01*
X1342511Y1161524D01*
X1341691Y1160455D01*
X1341432Y1159830D01*
X1340891D01*
X1340632Y1160455D01*
X1339812Y1161524D01*
X1338743Y1162345D01*
X1337498Y1162860D01*
X1336161Y1163036D01*
X1334825Y1162860D01*
X1333580Y1162345D01*
X1332511Y1161524D01*
X1331691Y1160455D01*
X1331432Y1159830D01*
X1330891D01*
X1330632Y1160455D01*
X1329812Y1161524D01*
X1328743Y1162345D01*
X1328118Y1162603D01*
Y1163145D01*
X1328743Y1163403D01*
X1329812Y1164224D01*
X1330632Y1165293D01*
X1331148Y1166538D01*
X1331324Y1167874D01*
X1331148Y1169210D01*
X1330632Y1170455D01*
X1329889Y1171423D01*
X1330044Y1171923D01*
X1333183D01*
Y1170809D01*
X1332537Y1169967D01*
X1332119Y1168957D01*
X1332042Y1168374D01*
X1336161D01*
X1340281D01*
X1340204Y1168957D01*
X1339786Y1169967D01*
X1339140Y1170809D01*
Y1171923D01*
X1342278D01*
X1342434Y1171423D01*
D02*
G37*
G36*
X1362434D02*
X1361691Y1170455D01*
X1361175Y1169210D01*
X1360999Y1167874D01*
X1361175Y1166538D01*
X1361691Y1165293D01*
X1362511Y1164224D01*
X1363580Y1163403D01*
X1364205Y1163145D01*
Y1162603D01*
X1363580Y1162345D01*
X1362511Y1161524D01*
X1361691Y1160455D01*
X1361432Y1159830D01*
X1360891D01*
X1360632Y1160455D01*
X1359812Y1161524D01*
X1358743Y1162345D01*
X1357498Y1162860D01*
X1356161Y1163036D01*
X1354825Y1162860D01*
X1353580Y1162345D01*
X1352511Y1161524D01*
X1351691Y1160455D01*
X1351432Y1159830D01*
X1350891D01*
X1350632Y1160455D01*
X1349812Y1161524D01*
X1348742Y1162345D01*
X1348118Y1162603D01*
Y1163145D01*
X1348742Y1163403D01*
X1349812Y1164224D01*
X1350632Y1165293D01*
X1351148Y1166538D01*
X1351324Y1167874D01*
X1351148Y1169210D01*
X1350632Y1170455D01*
X1349889Y1171423D01*
X1350044Y1171923D01*
X1353183D01*
Y1170809D01*
X1352537Y1169967D01*
X1352119Y1168957D01*
X1352042Y1168374D01*
X1356161D01*
X1360281D01*
X1360204Y1168957D01*
X1359786Y1169967D01*
X1359140Y1170809D01*
Y1171923D01*
X1362278D01*
X1362434Y1171423D01*
D02*
G37*
G36*
X1400568Y967300D02*
X1401554Y966543D01*
X1402704Y966066D01*
X1403805Y965921D01*
Y965417D01*
X1402704Y965272D01*
X1401554Y964796D01*
X1400568Y964039D01*
X1399810Y963052D01*
X1399334Y961903D01*
X1399172Y960669D01*
X1399334Y959436D01*
X1399810Y958287D01*
X1400568Y957300D01*
X1401554Y956542D01*
X1402704Y956067D01*
X1403937Y955904D01*
X1406299D01*
X1407533Y956067D01*
X1408682Y956542D01*
X1409669Y957300D01*
X1410044Y957790D01*
X1411713D01*
X1412483Y957891D01*
X1412600Y957939D01*
X1412915Y957528D01*
X1412729Y957286D01*
X1412233Y956089D01*
X1412064Y954804D01*
X1412233Y953519D01*
X1412729Y952322D01*
X1413518Y951294D01*
X1414435Y950590D01*
X1414446Y950563D01*
Y948250D01*
X1409743D01*
X1409521Y948699D01*
X1409580Y948775D01*
X1409958Y949689D01*
X1410022Y950169D01*
X1405118D01*
Y950669D01*
X1404618D01*
Y954458D01*
X1403937D01*
X1402956Y954329D01*
X1402043Y953950D01*
X1401777Y953746D01*
X1393752D01*
X1393645Y953869D01*
X1389468D01*
X1385548D01*
X1385618Y953337D01*
X1386016Y952376D01*
X1386490Y951757D01*
Y950768D01*
X1386592Y949997D01*
X1386889Y949279D01*
X1387295Y948750D01*
X1387151Y948250D01*
X1383902D01*
X1383624Y948666D01*
X1383835Y949176D01*
X1383997Y950409D01*
X1383835Y951643D01*
X1383359Y952792D01*
X1382602Y953779D01*
X1381615Y954536D01*
X1380466Y955012D01*
X1379232Y955175D01*
X1377999Y955012D01*
X1376850Y954536D01*
X1376790Y954491D01*
X1370618D01*
X1370288Y955108D01*
X1369550Y956007D01*
X1368963Y956489D01*
Y957133D01*
X1369550Y957615D01*
X1370288Y958514D01*
X1370671Y959230D01*
X1375787D01*
X1376455Y959318D01*
X1377078Y959576D01*
X1377612Y959986D01*
X1378023Y960520D01*
X1378281Y961143D01*
X1378331Y961529D01*
X1378495Y961842D01*
X1378868Y961934D01*
X1379232Y961886D01*
X1385170D01*
X1385959Y960859D01*
X1386987Y960070D01*
X1388184Y959574D01*
X1389468Y959405D01*
X1390753Y959574D01*
X1391950Y960070D01*
X1392978Y960859D01*
X1393767Y961887D01*
X1394263Y963084D01*
X1394432Y964369D01*
X1394263Y965654D01*
X1393767Y966851D01*
X1393126Y967687D01*
X1393369Y968187D01*
X1399887D01*
X1400568Y967300D01*
D02*
G37*
G36*
X1218465Y988798D02*
Y986417D01*
X1218465Y986417D01*
Y976083D01*
X1218618Y975315D01*
X1219053Y974664D01*
X1219081Y974645D01*
X1218930Y974145D01*
X1207409D01*
Y988851D01*
X1218406D01*
X1218465Y988798D01*
D02*
G37*
G36*
X1412434Y1171423D02*
X1411691Y1170455D01*
X1411175Y1169210D01*
X1410999Y1167874D01*
X1411175Y1166538D01*
X1411691Y1165293D01*
X1412511Y1164224D01*
X1413580Y1163403D01*
X1414205Y1163145D01*
Y1162603D01*
X1413580Y1162345D01*
X1412511Y1161524D01*
X1411691Y1160455D01*
X1411432Y1159830D01*
X1410891D01*
X1410632Y1160455D01*
X1409812Y1161524D01*
X1408743Y1162345D01*
X1407498Y1162860D01*
X1406161Y1163036D01*
X1404825Y1162860D01*
X1403580Y1162345D01*
X1402511Y1161524D01*
X1401691Y1160455D01*
X1401432Y1159830D01*
X1400891D01*
X1400632Y1160455D01*
X1399812Y1161524D01*
X1398742Y1162345D01*
X1398118Y1162603D01*
Y1163145D01*
X1398742Y1163403D01*
X1399812Y1164224D01*
X1400632Y1165293D01*
X1401148Y1166538D01*
X1401324Y1167874D01*
X1401148Y1169210D01*
X1400632Y1170455D01*
X1399889Y1171423D01*
X1400044Y1171923D01*
X1403183D01*
Y1170809D01*
X1402537Y1169967D01*
X1402119Y1168957D01*
X1402042Y1168374D01*
X1406161D01*
X1410281D01*
X1410204Y1168957D01*
X1409786Y1169967D01*
X1409140Y1170809D01*
Y1171923D01*
X1412278D01*
X1412434Y1171423D01*
D02*
G37*
G36*
X1298857Y1177624D02*
X1298511Y1177481D01*
X1297894Y1177007D01*
X1297421Y1176391D01*
X1297123Y1175672D01*
X1297022Y1174902D01*
Y1170016D01*
X1296541Y1169880D01*
X1296494Y1169956D01*
X1295287Y1171370D01*
X1293873Y1172577D01*
X1292288Y1173548D01*
X1290571Y1174260D01*
X1288763Y1174694D01*
X1286909Y1174840D01*
X1285056Y1174694D01*
X1283248Y1174260D01*
X1281531Y1173548D01*
X1279946Y1172577D01*
X1278532Y1171370D01*
X1277325Y1169956D01*
X1276353Y1168371D01*
X1275642Y1166653D01*
X1275208Y1164845D01*
X1275062Y1162992D01*
X1275208Y1161139D01*
X1275642Y1159331D01*
X1276353Y1157613D01*
X1277325Y1156028D01*
X1278532Y1154615D01*
X1278629Y1154532D01*
X1278456Y1154063D01*
X1190945D01*
X1190123Y1153954D01*
X1189357Y1153637D01*
X1188699Y1153132D01*
X1188194Y1152474D01*
X1187876Y1151708D01*
X1187768Y1150886D01*
Y917717D01*
X1187876Y916894D01*
X1188194Y916128D01*
X1188699Y915470D01*
X1189357Y914965D01*
X1190123Y914648D01*
X1190945Y914540D01*
X1195150Y914540D01*
Y908230D01*
X1194932Y908127D01*
X1194650Y908043D01*
X1193496Y908660D01*
X1192197Y909054D01*
X1190847Y909187D01*
X1189496Y909054D01*
X1188197Y908660D01*
X1187000Y908020D01*
X1185951Y907159D01*
X1185090Y906110D01*
X1184581Y905157D01*
X1184081Y905282D01*
Y1178124D01*
X1298757D01*
X1298857Y1177624D01*
D02*
G37*
G36*
X1570053Y1176836D02*
X1569605Y1176615D01*
X1569565Y1176645D01*
X1568531Y1177074D01*
X1567921Y1177154D01*
Y1172933D01*
Y1168712D01*
X1568531Y1168793D01*
X1569565Y1169221D01*
X1569605Y1169252D01*
X1570053Y1169030D01*
Y1160316D01*
X1569553Y1159982D01*
X1568784Y1160301D01*
X1567421Y1160480D01*
X1566059Y1160301D01*
X1564789Y1159775D01*
X1563699Y1158938D01*
X1563129Y1158195D01*
X1544548D01*
X1543978Y1158938D01*
X1542888Y1159775D01*
X1541618Y1160301D01*
X1540256Y1160480D01*
X1538894Y1160301D01*
X1537624Y1159775D01*
X1536534Y1158938D01*
X1535963Y1158195D01*
X1527756D01*
X1526985Y1158093D01*
X1526581Y1157926D01*
X1526199Y1158309D01*
X1526622Y1159331D01*
X1527056Y1161139D01*
X1527202Y1162992D01*
X1527056Y1164845D01*
X1526622Y1166653D01*
X1525911Y1168371D01*
X1524939Y1169956D01*
X1523732Y1171370D01*
X1523518Y1171553D01*
X1523691Y1172022D01*
X1536006D01*
Y1168683D01*
X1539756D01*
Y1172933D01*
X1540756D01*
Y1168683D01*
X1544506D01*
Y1169955D01*
X1564349D01*
X1564390Y1169902D01*
X1565278Y1169221D01*
X1566312Y1168793D01*
X1566921Y1168712D01*
Y1172933D01*
Y1177154D01*
X1566312Y1177074D01*
X1565278Y1176645D01*
X1564390Y1175964D01*
X1564349Y1175911D01*
X1544506D01*
Y1177183D01*
X1542261D01*
X1541745Y1177579D01*
X1541637Y1177624D01*
X1541736Y1178124D01*
X1570053D01*
Y1176836D01*
D02*
G37*
G36*
X1442434Y1171423D02*
X1441691Y1170455D01*
X1441175Y1169210D01*
X1440999Y1167874D01*
X1441175Y1166538D01*
X1441691Y1165293D01*
X1442511Y1164224D01*
X1443580Y1163403D01*
X1444205Y1163145D01*
Y1162603D01*
X1443580Y1162345D01*
X1442511Y1161524D01*
X1441691Y1160455D01*
X1441432Y1159830D01*
X1440891D01*
X1440632Y1160455D01*
X1439812Y1161524D01*
X1438743Y1162345D01*
X1437498Y1162860D01*
X1436161Y1163036D01*
X1434825Y1162860D01*
X1433580Y1162345D01*
X1432511Y1161524D01*
X1431691Y1160455D01*
X1431432Y1159830D01*
X1430891D01*
X1430632Y1160455D01*
X1429812Y1161524D01*
X1428743Y1162345D01*
X1428118Y1162603D01*
Y1163145D01*
X1428743Y1163403D01*
X1429812Y1164224D01*
X1430632Y1165293D01*
X1431148Y1166538D01*
X1431324Y1167874D01*
X1431148Y1169210D01*
X1430632Y1170455D01*
X1429889Y1171423D01*
X1430044Y1171923D01*
X1433183D01*
Y1170809D01*
X1432537Y1169967D01*
X1432119Y1168957D01*
X1432042Y1168374D01*
X1436161D01*
X1440281D01*
X1440204Y1168957D01*
X1439786Y1169967D01*
X1439140Y1170809D01*
Y1171923D01*
X1442278D01*
X1442434Y1171423D01*
D02*
G37*
G36*
X1482542Y1171548D02*
X1482511Y1171524D01*
X1481691Y1170455D01*
X1481175Y1169210D01*
X1480999Y1167874D01*
X1481175Y1166538D01*
X1481691Y1165293D01*
X1482511Y1164224D01*
X1483580Y1163403D01*
X1484205Y1163145D01*
Y1162603D01*
X1483580Y1162345D01*
X1482511Y1161524D01*
X1481691Y1160455D01*
X1481432Y1159830D01*
X1480891D01*
X1480632Y1160455D01*
X1479812Y1161524D01*
X1478743Y1162345D01*
X1477497Y1162860D01*
X1476161Y1163036D01*
X1474825Y1162860D01*
X1473580Y1162345D01*
X1472511Y1161524D01*
X1471691Y1160455D01*
X1471432Y1159830D01*
X1470891D01*
X1470632Y1160455D01*
X1469812Y1161524D01*
X1468742Y1162345D01*
X1468118Y1162603D01*
Y1163145D01*
X1468742Y1163403D01*
X1469812Y1164224D01*
X1470632Y1165293D01*
X1471148Y1166538D01*
X1471324Y1167874D01*
X1471148Y1169210D01*
X1470632Y1170455D01*
X1469889Y1171423D01*
X1470044Y1171923D01*
X1473183D01*
Y1170809D01*
X1472537Y1169967D01*
X1472119Y1168957D01*
X1472042Y1168374D01*
X1476161D01*
X1480281D01*
X1480204Y1168957D01*
X1479786Y1169967D01*
X1479140Y1170809D01*
Y1172022D01*
X1482382D01*
X1482542Y1171548D01*
D02*
G37*
G36*
X1360420Y958514D02*
X1361158Y957615D01*
X1361745Y957133D01*
Y956489D01*
X1361158Y956007D01*
X1360420Y955108D01*
X1359872Y954082D01*
X1359534Y952969D01*
X1359420Y951811D01*
X1359534Y950653D01*
X1359872Y949540D01*
X1360294Y948750D01*
X1360014Y948250D01*
X1356420D01*
Y959230D01*
X1360038D01*
X1360420Y958514D01*
D02*
G37*
G36*
Y1012353D02*
X1361158Y1011454D01*
X1361745Y1010972D01*
Y1010328D01*
X1361158Y1009846D01*
X1360420Y1008946D01*
X1359872Y1007920D01*
X1359534Y1006807D01*
X1359420Y1005650D01*
X1359534Y1004492D01*
X1359872Y1003379D01*
X1360294Y1002589D01*
X1360014Y1002089D01*
X1356420D01*
Y1013068D01*
X1360038D01*
X1360420Y1012353D01*
D02*
G37*
G36*
X1423395Y980980D02*
X1433931D01*
Y956558D01*
X1433431Y956332D01*
X1432695Y956935D01*
X1431658Y957490D01*
X1430534Y957831D01*
X1429363Y957946D01*
X1428193Y957831D01*
X1427068Y957490D01*
X1426031Y956935D01*
X1425123Y956190D01*
X1424377Y955281D01*
X1424240Y955025D01*
X1421962D01*
X1421822Y956089D01*
X1421326Y957286D01*
X1420537Y958314D01*
X1419509Y959103D01*
X1418436Y959548D01*
X1418436Y959548D01*
Y960060D01*
X1418436Y960061D01*
X1419509Y960505D01*
X1420537Y961294D01*
X1421326Y962322D01*
X1421822Y963519D01*
X1421991Y964804D01*
X1421822Y966089D01*
X1421326Y967286D01*
X1420537Y968314D01*
X1420006Y968722D01*
Y984069D01*
X1423395D01*
Y980980D01*
D02*
G37*
%LPC*%
G36*
X1455661Y1161994D02*
X1455078Y1161917D01*
X1454069Y1161499D01*
X1453202Y1160833D01*
X1452537Y1159967D01*
X1452119Y1158957D01*
X1452042Y1158374D01*
X1455661D01*
Y1161994D01*
D02*
G37*
G36*
X1456661Y1161994D02*
Y1158374D01*
X1460281D01*
X1460204Y1158957D01*
X1459786Y1159967D01*
X1459121Y1160833D01*
X1458254Y1161499D01*
X1457245Y1161917D01*
X1456661Y1161994D01*
D02*
G37*
G36*
X1563772Y1142366D02*
X1563240Y1142296D01*
X1562278Y1141898D01*
X1561660Y1141423D01*
X1549409D01*
X1548639Y1141322D01*
X1547920Y1141024D01*
X1547303Y1140551D01*
X1546830Y1139934D01*
X1546533Y1139216D01*
X1546431Y1138445D01*
Y1130990D01*
X1538537D01*
X1537919Y1131464D01*
X1536957Y1131863D01*
X1536425Y1131933D01*
Y1128011D01*
Y1124090D01*
X1536957Y1124160D01*
X1537919Y1124559D01*
X1538537Y1125033D01*
X1549409D01*
X1550180Y1125135D01*
X1550899Y1125432D01*
X1551515Y1125906D01*
X1551989Y1126522D01*
X1552286Y1127241D01*
X1552388Y1128012D01*
Y1135467D01*
X1561660D01*
X1562278Y1134992D01*
X1563240Y1134594D01*
X1563772Y1134524D01*
Y1138445D01*
Y1142366D01*
D02*
G37*
G36*
X1564772Y1142366D02*
Y1138945D01*
X1568193D01*
X1568123Y1139477D01*
X1567724Y1140438D01*
X1567091Y1141264D01*
X1566265Y1141898D01*
X1565304Y1142296D01*
X1564772Y1142366D01*
D02*
G37*
G36*
X1568193Y1137945D02*
X1564772D01*
Y1134524D01*
X1565304Y1134594D01*
X1566265Y1134992D01*
X1567091Y1135626D01*
X1567724Y1136451D01*
X1568123Y1137413D01*
X1568193Y1137945D01*
D02*
G37*
G36*
X1535925Y1122976D02*
X1534641Y1122806D01*
X1533443Y1122311D01*
X1532415Y1121522D01*
X1531627Y1120494D01*
X1531131Y1119296D01*
X1530962Y1118012D01*
X1531131Y1116727D01*
X1531627Y1115530D01*
X1532415Y1114502D01*
X1533443Y1113713D01*
X1534641Y1113217D01*
X1535925Y1113048D01*
X1537210Y1113217D01*
X1538407Y1113713D01*
X1539435Y1114502D01*
X1540224Y1115530D01*
X1540720Y1116727D01*
X1540889Y1118012D01*
X1540720Y1119296D01*
X1540224Y1120494D01*
X1539435Y1121522D01*
X1538407Y1122311D01*
X1537210Y1122806D01*
X1535925Y1122976D01*
D02*
G37*
G36*
X1564272Y1133409D02*
X1562987Y1133239D01*
X1561790Y1132744D01*
X1560762Y1131955D01*
X1559973Y1130927D01*
X1559477Y1129730D01*
X1559308Y1128445D01*
X1559477Y1127160D01*
X1559973Y1125963D01*
X1560762Y1124935D01*
X1561790Y1124146D01*
X1562863Y1123702D01*
X1562862Y1123188D01*
X1561790Y1122744D01*
X1560762Y1121955D01*
X1559973Y1120927D01*
X1559477Y1119730D01*
X1559308Y1118445D01*
X1559477Y1117161D01*
X1559973Y1115963D01*
X1560762Y1114935D01*
X1561790Y1114147D01*
X1562863Y1113702D01*
X1562863Y1113701D01*
Y1113189D01*
X1562863Y1113189D01*
X1561790Y1112744D01*
X1560762Y1111955D01*
X1559973Y1110927D01*
X1559477Y1109730D01*
X1559308Y1108445D01*
X1559477Y1107160D01*
X1559973Y1105963D01*
X1560762Y1104935D01*
X1561790Y1104146D01*
X1562987Y1103651D01*
X1564271Y1103481D01*
X1565556Y1103651D01*
X1566753Y1104146D01*
X1567781Y1104935D01*
X1568570Y1105963D01*
X1569066Y1107160D01*
X1569235Y1108445D01*
X1569066Y1109730D01*
X1568570Y1110927D01*
X1567781Y1111955D01*
X1566753Y1112744D01*
X1565680Y1113189D01*
X1565679Y1113189D01*
Y1113701D01*
X1565680Y1113702D01*
X1566753Y1114147D01*
X1567781Y1114935D01*
X1568570Y1115963D01*
X1569066Y1117161D01*
X1569235Y1118445D01*
X1569066Y1119730D01*
X1568570Y1120927D01*
X1567781Y1121955D01*
X1566753Y1122744D01*
X1565680Y1123188D01*
X1565681Y1123702D01*
X1566753Y1124146D01*
X1567782Y1124935D01*
X1568570Y1125963D01*
X1569066Y1127160D01*
X1569235Y1128445D01*
X1569066Y1129730D01*
X1568570Y1130927D01*
X1567782Y1131955D01*
X1566753Y1132744D01*
X1565556Y1133239D01*
X1564272Y1133409D01*
D02*
G37*
G36*
X1535425Y1131933D02*
X1534894Y1131863D01*
X1533932Y1131464D01*
X1533106Y1130831D01*
X1532473Y1130005D01*
X1532075Y1129043D01*
X1532005Y1128511D01*
X1535425D01*
Y1131933D01*
D02*
G37*
G36*
Y1127511D02*
X1532005D01*
X1532075Y1126980D01*
X1532473Y1126018D01*
X1533106Y1125192D01*
X1533932Y1124559D01*
X1534894Y1124160D01*
X1535425Y1124090D01*
Y1127511D01*
D02*
G37*
G36*
X1334539Y951311D02*
X1330126D01*
X1330229Y950522D01*
X1330727Y949321D01*
X1331518Y948290D01*
X1332550Y947499D01*
X1333751Y947001D01*
X1334539Y946897D01*
Y951311D01*
D02*
G37*
G36*
X1339953D02*
X1335539D01*
Y946897D01*
X1336328Y947001D01*
X1337529Y947499D01*
X1338560Y948290D01*
X1339352Y949321D01*
X1339849Y950522D01*
X1339953Y951311D01*
D02*
G37*
G36*
X1388968Y1012129D02*
X1388437Y1012059D01*
X1387475Y1011660D01*
X1386649Y1011027D01*
X1386016Y1010201D01*
X1385618Y1009239D01*
X1385548Y1008708D01*
X1388968D01*
Y1012129D01*
D02*
G37*
G36*
X1406299Y1008296D02*
X1405618D01*
Y1005008D01*
X1410022D01*
X1409958Y1005488D01*
X1409580Y1006402D01*
X1408978Y1007187D01*
X1408193Y1007789D01*
X1407280Y1008167D01*
X1406299Y1008296D01*
D02*
G37*
G36*
X1339953Y1005150D02*
X1335539D01*
Y1000736D01*
X1336328Y1000840D01*
X1337529Y1001337D01*
X1338560Y1002129D01*
X1339352Y1003160D01*
X1339849Y1004361D01*
X1339953Y1005150D01*
D02*
G37*
G36*
X1334539D02*
X1330126D01*
X1330229Y1004361D01*
X1330727Y1003160D01*
X1331518Y1002129D01*
X1332550Y1001337D01*
X1333751Y1000840D01*
X1334539Y1000736D01*
Y1005150D01*
D02*
G37*
G36*
X1370177Y1033309D02*
X1368944Y1033146D01*
X1367795Y1032670D01*
X1366808Y1031913D01*
X1366508Y1031522D01*
X1347342D01*
X1346572Y1031420D01*
X1345853Y1031122D01*
X1345237Y1030649D01*
X1344763Y1030032D01*
X1344466Y1029314D01*
X1344364Y1028543D01*
Y1018628D01*
X1340144D01*
X1339973Y1018946D01*
X1339235Y1019846D01*
X1338336Y1020584D01*
X1337310Y1021132D01*
X1336197Y1021470D01*
X1335039Y1021584D01*
X1333882Y1021470D01*
X1332769Y1021132D01*
X1331743Y1020584D01*
X1330843Y1019846D01*
X1330105Y1018946D01*
X1329557Y1017920D01*
X1329219Y1016807D01*
X1329105Y1015650D01*
X1329219Y1014492D01*
X1329557Y1013379D01*
X1330105Y1012353D01*
X1330843Y1011454D01*
X1331743Y1010716D01*
X1332334Y1010400D01*
X1332355Y1010356D01*
X1332362Y1009818D01*
X1331518Y1009171D01*
X1330727Y1008139D01*
X1330229Y1006938D01*
X1330126Y1006150D01*
X1339953D01*
X1339849Y1006938D01*
X1339352Y1008139D01*
X1338560Y1009171D01*
X1337717Y1009818D01*
X1337723Y1010356D01*
X1337745Y1010400D01*
X1338336Y1010716D01*
X1339235Y1011454D01*
X1339973Y1012353D01*
X1340144Y1012671D01*
X1347342D01*
X1348113Y1012773D01*
X1348832Y1013070D01*
X1349448Y1013544D01*
X1349922Y1014161D01*
X1350219Y1014879D01*
X1350321Y1015650D01*
Y1025565D01*
X1366508D01*
X1366808Y1025174D01*
X1367795Y1024417D01*
X1368944Y1023940D01*
X1370177Y1023778D01*
X1371410Y1023940D01*
X1372560Y1024417D01*
X1373547Y1025174D01*
X1374304Y1026161D01*
X1374780Y1027310D01*
X1374942Y1028543D01*
X1374780Y1029777D01*
X1374304Y1030926D01*
X1373547Y1031913D01*
X1372560Y1032670D01*
X1371410Y1033146D01*
X1370177Y1033309D01*
D02*
G37*
G36*
X1389968Y1012129D02*
Y1008708D01*
X1393390D01*
X1393320Y1009239D01*
X1392921Y1010201D01*
X1392288Y1011027D01*
X1391462Y1011660D01*
X1390500Y1012059D01*
X1389968Y1012129D01*
D02*
G37*
G36*
X1376661Y1161994D02*
Y1158374D01*
X1380281D01*
X1380204Y1158957D01*
X1379786Y1159967D01*
X1379121Y1160833D01*
X1378254Y1161499D01*
X1377245Y1161917D01*
X1376661Y1161994D01*
D02*
G37*
G36*
X1375661Y1161994D02*
X1375078Y1161917D01*
X1374069Y1161499D01*
X1373202Y1160833D01*
X1372537Y1159967D01*
X1372119Y1158957D01*
X1372042Y1158374D01*
X1375661D01*
Y1161994D01*
D02*
G37*
G36*
X1234350Y909187D02*
X1233000Y909054D01*
X1231701Y908660D01*
X1230504Y908020D01*
X1229455Y907159D01*
X1228594Y906110D01*
X1227954Y904913D01*
X1227560Y903614D01*
X1227427Y902264D01*
X1227560Y900913D01*
X1227954Y899614D01*
X1228594Y898417D01*
X1229455Y897368D01*
X1230504Y896507D01*
X1231701Y895868D01*
X1233000Y895474D01*
X1234350Y895341D01*
X1235701Y895474D01*
X1237000Y895868D01*
X1238197Y896507D01*
X1239246Y897368D01*
X1240107Y898417D01*
X1240746Y899614D01*
X1241140Y900913D01*
X1241273Y902264D01*
X1241140Y903614D01*
X1240746Y904913D01*
X1240107Y906110D01*
X1239246Y907159D01*
X1238197Y908020D01*
X1237000Y908660D01*
X1235701Y909054D01*
X1234350Y909187D01*
D02*
G37*
G36*
X1286909Y981926D02*
X1285056Y981780D01*
X1283248Y981346D01*
X1281531Y980635D01*
X1279946Y979664D01*
X1278532Y978456D01*
X1277325Y977042D01*
X1276353Y975457D01*
X1275642Y973740D01*
X1275208Y971932D01*
X1275062Y970079D01*
X1275208Y968225D01*
X1275642Y966418D01*
X1276353Y964700D01*
X1277325Y963115D01*
X1278532Y961701D01*
X1279946Y960494D01*
X1281531Y959523D01*
X1283248Y958811D01*
X1285056Y958377D01*
X1286909Y958231D01*
X1288763Y958377D01*
X1290571Y958811D01*
X1292288Y959523D01*
X1293873Y960494D01*
X1295287Y961701D01*
X1296494Y963115D01*
X1297466Y964700D01*
X1298177Y966418D01*
X1298611Y968225D01*
X1298757Y970079D01*
X1298611Y971932D01*
X1298177Y973740D01*
X1297466Y975457D01*
X1296494Y977042D01*
X1295287Y978456D01*
X1293873Y979664D01*
X1292288Y980635D01*
X1290571Y981346D01*
X1288763Y981780D01*
X1286909Y981926D01*
D02*
G37*
G36*
X1253642Y934493D02*
X1252306Y934317D01*
X1251061Y933801D01*
X1249992Y932981D01*
X1249171Y931912D01*
X1248655Y930667D01*
X1248479Y929331D01*
X1248655Y927995D01*
X1249171Y926750D01*
X1249992Y925680D01*
X1251061Y924860D01*
X1252306Y924344D01*
X1253642Y924168D01*
X1254978Y924344D01*
X1256223Y924860D01*
X1257292Y925680D01*
X1258112Y926750D01*
X1258628Y927995D01*
X1258804Y929331D01*
X1258628Y930667D01*
X1258112Y931912D01*
X1257292Y932981D01*
X1256223Y933801D01*
X1254978Y934317D01*
X1253642Y934493D01*
D02*
G37*
G36*
X1382677Y808604D02*
X1381444Y808441D01*
X1380295Y807965D01*
X1379308Y807208D01*
X1378550Y806221D01*
X1378074Y805072D01*
X1377912Y803839D01*
X1378074Y802605D01*
X1378550Y801456D01*
X1379308Y800469D01*
X1380295Y799712D01*
X1381444Y799236D01*
X1382677Y799073D01*
X1383910Y799236D01*
X1385060Y799712D01*
X1386047Y800469D01*
X1386804Y801456D01*
X1387280Y802605D01*
X1387442Y803839D01*
X1387280Y805072D01*
X1386804Y806221D01*
X1386047Y807208D01*
X1385060Y807965D01*
X1383910Y808441D01*
X1382677Y808604D01*
D02*
G37*
G36*
X1312114Y812282D02*
X1312114D01*
Y808748D01*
X1316083D01*
X1316011Y809292D01*
X1315608Y810265D01*
X1314967Y811101D01*
X1314131Y811742D01*
X1313158Y812145D01*
X1312114Y812282D01*
D02*
G37*
G36*
X1453642Y861160D02*
X1452098Y861008D01*
X1450614Y860558D01*
X1449246Y859827D01*
X1448047Y858843D01*
X1447063Y857644D01*
X1446332Y856276D01*
X1445882Y854792D01*
X1445730Y853248D01*
X1445882Y851704D01*
X1446332Y850220D01*
X1447063Y848852D01*
X1448047Y847653D01*
X1449246Y846669D01*
X1450614Y845938D01*
X1452098Y845488D01*
X1453642Y845336D01*
X1455185Y845488D01*
X1456670Y845938D01*
X1458037Y846669D01*
X1459236Y847653D01*
X1460220Y848852D01*
X1460952Y850220D01*
X1461402Y851704D01*
X1461554Y853248D01*
X1461402Y854792D01*
X1460952Y856276D01*
X1460220Y857644D01*
X1459236Y858843D01*
X1458037Y859827D01*
X1456670Y860558D01*
X1455185Y861008D01*
X1453642Y861160D01*
D02*
G37*
G36*
X1306102Y840522D02*
X1304818Y840353D01*
X1303621Y839857D01*
X1302592Y839068D01*
X1301804Y838040D01*
X1301308Y836843D01*
X1301139Y835558D01*
X1301308Y834273D01*
X1301804Y833076D01*
X1302592Y832048D01*
X1303621Y831259D01*
X1304818Y830763D01*
X1306102Y830594D01*
X1307387Y830763D01*
X1308584Y831259D01*
X1309612Y832048D01*
X1310401Y833076D01*
X1310897Y834273D01*
X1311066Y835558D01*
X1310897Y836843D01*
X1310401Y838040D01*
X1309612Y839068D01*
X1308584Y839857D01*
X1307387Y840353D01*
X1306102Y840522D01*
D02*
G37*
G36*
X1345480Y829479D02*
Y826058D01*
X1348901D01*
X1348831Y826590D01*
X1348433Y827551D01*
X1347799Y828377D01*
X1346974Y829011D01*
X1346012Y829409D01*
X1345480Y829479D01*
D02*
G37*
G36*
X1445768Y837538D02*
X1444224Y837386D01*
X1442740Y836936D01*
X1441372Y836205D01*
X1440173Y835221D01*
X1439189Y834022D01*
X1438458Y832654D01*
X1438008Y831170D01*
X1437856Y829626D01*
X1438008Y828082D01*
X1438458Y826598D01*
X1439189Y825230D01*
X1440173Y824031D01*
X1441372Y823047D01*
X1442740Y822316D01*
X1444224Y821866D01*
X1445768Y821714D01*
X1447311Y821866D01*
X1448796Y822316D01*
X1450163Y823047D01*
X1451362Y824031D01*
X1452346Y825230D01*
X1453078Y826598D01*
X1453528Y828082D01*
X1453680Y829626D01*
X1453528Y831170D01*
X1453078Y832654D01*
X1452346Y834022D01*
X1451362Y835221D01*
X1450163Y836205D01*
X1448796Y836936D01*
X1447311Y837386D01*
X1445768Y837538D01*
D02*
G37*
G36*
X1331104Y840442D02*
X1320868D01*
Y830206D01*
X1331104D01*
Y840442D01*
D02*
G37*
G36*
X1344480Y829479D02*
X1343948Y829409D01*
X1343279Y829132D01*
X1327637D01*
X1327069Y829367D01*
X1326486Y829444D01*
Y825324D01*
Y821205D01*
X1327069Y821282D01*
X1328078Y821700D01*
X1328449Y821984D01*
X1341406D01*
Y820276D01*
X1341528Y819351D01*
X1341885Y818489D01*
X1342453Y817749D01*
X1343193Y817181D01*
X1344055Y816823D01*
X1344980Y816702D01*
X1363397D01*
X1363465Y816614D01*
X1364537Y815791D01*
X1365786Y815274D01*
X1366626Y815163D01*
Y820275D01*
Y825388D01*
X1365786Y825277D01*
X1364537Y824760D01*
X1363465Y823937D01*
X1363397Y823849D01*
X1349092D01*
X1348758Y824349D01*
X1348831Y824526D01*
X1348901Y825058D01*
X1344980D01*
Y825558D01*
X1344480D01*
Y829479D01*
D02*
G37*
G36*
X1451681Y1002787D02*
X1447267D01*
X1447371Y1001999D01*
X1447869Y1000798D01*
X1448660Y999766D01*
X1449691Y998975D01*
X1450892Y998477D01*
X1451681Y998374D01*
Y1002787D01*
D02*
G37*
G36*
X1331779Y1132722D02*
Y1129102D01*
X1335399D01*
X1335322Y1129686D01*
X1334904Y1130695D01*
X1334239Y1131562D01*
X1333372Y1132227D01*
X1332363Y1132645D01*
X1331779Y1132722D01*
D02*
G37*
G36*
X1482496Y1019221D02*
X1481338Y1019108D01*
X1480225Y1018770D01*
X1479199Y1018221D01*
X1478300Y1017483D01*
X1477562Y1016584D01*
X1477014Y1015558D01*
X1476676Y1014445D01*
X1476562Y1013287D01*
X1476676Y1012130D01*
X1477014Y1011016D01*
X1477562Y1009991D01*
X1478300Y1009091D01*
X1479199Y1008353D01*
X1479790Y1008037D01*
X1479812Y1007993D01*
X1479818Y1007456D01*
X1478975Y1006808D01*
X1478184Y1005777D01*
X1477686Y1004576D01*
X1477582Y1003787D01*
X1487410D01*
X1487306Y1004576D01*
X1486808Y1005777D01*
X1486017Y1006808D01*
X1485174Y1007456D01*
X1485180Y1007993D01*
X1485202Y1008037D01*
X1485793Y1008353D01*
X1486692Y1009091D01*
X1487430Y1009991D01*
X1487978Y1011016D01*
X1488316Y1012130D01*
X1488430Y1013287D01*
X1488316Y1014445D01*
X1487978Y1015558D01*
X1487430Y1016584D01*
X1486692Y1017483D01*
X1485793Y1018221D01*
X1484767Y1018770D01*
X1483654Y1019108D01*
X1482496Y1019221D01*
D02*
G37*
G36*
X1452181D02*
X1451023Y1019108D01*
X1449910Y1018770D01*
X1448884Y1018221D01*
X1447985Y1017483D01*
X1447247Y1016584D01*
X1446699Y1015558D01*
X1446361Y1014445D01*
X1446247Y1013287D01*
X1446361Y1012130D01*
X1446699Y1011016D01*
X1447247Y1009991D01*
X1447985Y1009091D01*
X1448884Y1008353D01*
X1449475Y1008037D01*
X1449497Y1007993D01*
X1449503Y1007456D01*
X1448660Y1006808D01*
X1447869Y1005777D01*
X1447371Y1004576D01*
X1447267Y1003787D01*
X1457095D01*
X1456991Y1004576D01*
X1456494Y1005777D01*
X1455702Y1006808D01*
X1454859Y1007456D01*
X1454865Y1007993D01*
X1454887Y1008037D01*
X1455478Y1008353D01*
X1456377Y1009091D01*
X1457115Y1009991D01*
X1457664Y1011016D01*
X1458001Y1012130D01*
X1458115Y1013287D01*
X1458001Y1014445D01*
X1457664Y1015558D01*
X1457115Y1016584D01*
X1456377Y1017483D01*
X1455478Y1018221D01*
X1454452Y1018770D01*
X1453339Y1019108D01*
X1452181Y1019221D01*
D02*
G37*
G36*
X1481996Y1002787D02*
X1477582D01*
X1477686Y1001999D01*
X1478184Y1000798D01*
X1478975Y999766D01*
X1480006Y998975D01*
X1481207Y998477D01*
X1481996Y998374D01*
Y1002787D01*
D02*
G37*
G36*
X1457095D02*
X1452681D01*
Y998374D01*
X1453470Y998477D01*
X1454671Y998975D01*
X1455702Y999766D01*
X1456494Y1000798D01*
X1456991Y1001999D01*
X1457095Y1002787D01*
D02*
G37*
G36*
X1487410D02*
X1482996D01*
Y998374D01*
X1483785Y998477D01*
X1484986Y998975D01*
X1486017Y999766D01*
X1486808Y1000798D01*
X1487306Y1001999D01*
X1487410Y1002787D01*
D02*
G37*
G36*
X1341280Y1073765D02*
X1339943Y1073589D01*
X1338698Y1073073D01*
X1337629Y1072253D01*
X1336809Y1071183D01*
X1336550Y1070559D01*
X1336009D01*
X1335750Y1071183D01*
X1334930Y1072253D01*
X1333861Y1073073D01*
X1332616Y1073589D01*
X1331279Y1073765D01*
X1329943Y1073589D01*
X1328698Y1073073D01*
X1327629Y1072253D01*
X1326809Y1071183D01*
X1326550Y1070559D01*
X1326009D01*
X1325750Y1071183D01*
X1324930Y1072253D01*
X1323861Y1073073D01*
X1322616Y1073589D01*
X1321280Y1073765D01*
X1319943Y1073589D01*
X1318698Y1073073D01*
X1317629Y1072253D01*
X1316809Y1071183D01*
X1316293Y1069938D01*
X1316117Y1068602D01*
X1316293Y1067266D01*
X1316809Y1066021D01*
X1317629Y1064952D01*
X1318698Y1064132D01*
X1319943Y1063616D01*
X1321280Y1063440D01*
X1322616Y1063616D01*
X1323861Y1064132D01*
X1324930Y1064952D01*
X1325750Y1066021D01*
X1326009Y1066646D01*
X1326550D01*
X1326809Y1066021D01*
X1327629Y1064952D01*
X1328698Y1064132D01*
X1329943Y1063616D01*
X1331279Y1063440D01*
X1332616Y1063616D01*
X1333861Y1064132D01*
X1334930Y1064952D01*
X1335750Y1066021D01*
X1336009Y1066646D01*
X1336550D01*
X1336809Y1066021D01*
X1337629Y1064952D01*
X1338698Y1064132D01*
X1339943Y1063616D01*
X1341280Y1063440D01*
X1342616Y1063616D01*
X1343861Y1064132D01*
X1344930Y1064952D01*
X1345750Y1066021D01*
X1346266Y1067266D01*
X1346442Y1068602D01*
X1346266Y1069938D01*
X1345750Y1071183D01*
X1344930Y1072253D01*
X1343861Y1073073D01*
X1342616Y1073589D01*
X1341280Y1073765D01*
D02*
G37*
G36*
X1350780Y1068102D02*
X1347160D01*
X1347237Y1067519D01*
X1347655Y1066510D01*
X1348320Y1065643D01*
X1349187Y1064978D01*
X1350196Y1064560D01*
X1350780Y1064483D01*
Y1068102D01*
D02*
G37*
G36*
X1355399D02*
X1351779D01*
Y1064483D01*
X1352363Y1064560D01*
X1353372Y1064978D01*
X1354239Y1065643D01*
X1354904Y1066510D01*
X1355322Y1067519D01*
X1355399Y1068102D01*
D02*
G37*
G36*
X1388968Y903369D02*
X1388437Y903299D01*
X1387475Y902900D01*
X1386649Y902267D01*
X1386016Y901441D01*
X1385618Y900480D01*
X1385548Y899948D01*
X1388968D01*
Y903369D01*
D02*
G37*
G36*
X1206791Y819783D02*
X1191043D01*
Y804035D01*
X1206791D01*
Y819783D01*
D02*
G37*
G36*
X1218602Y819822D02*
X1217059Y819670D01*
X1215575Y819219D01*
X1214207Y818488D01*
X1213008Y817504D01*
X1212024Y816305D01*
X1211292Y814937D01*
X1210842Y813453D01*
X1210690Y811909D01*
X1210842Y810366D01*
X1211292Y808882D01*
X1212024Y807514D01*
X1213008Y806315D01*
X1214207Y805331D01*
X1215575Y804600D01*
X1217059Y804149D01*
X1218602Y803997D01*
X1220146Y804149D01*
X1221630Y804600D01*
X1222998Y805331D01*
X1224197Y806315D01*
X1225181Y807514D01*
X1225912Y808882D01*
X1226363Y810366D01*
X1226515Y811909D01*
X1226363Y813453D01*
X1225912Y814937D01*
X1225181Y816305D01*
X1224197Y817504D01*
X1222998Y818488D01*
X1221630Y819219D01*
X1220146Y819670D01*
X1218602Y819822D01*
D02*
G37*
G36*
X1243299Y809539D02*
X1237899D01*
X1237964Y808879D01*
X1238302Y807762D01*
X1238852Y806734D01*
X1239592Y805832D01*
X1240494Y805092D01*
X1241522Y804542D01*
X1242638Y804204D01*
X1243299Y804139D01*
Y809539D01*
D02*
G37*
G36*
X1249700D02*
X1244299D01*
Y804139D01*
X1244960Y804204D01*
X1246076Y804542D01*
X1247105Y805092D01*
X1248006Y805832D01*
X1248746Y806734D01*
X1249296Y807762D01*
X1249635Y808879D01*
X1249700Y809539D01*
D02*
G37*
G36*
X1258957Y816963D02*
X1257606Y816829D01*
X1256307Y816436D01*
X1255110Y815796D01*
X1254061Y814935D01*
X1253200Y813886D01*
X1252561Y812689D01*
X1252167Y811390D01*
X1252034Y810039D01*
X1252167Y808689D01*
X1252561Y807390D01*
X1253200Y806193D01*
X1254061Y805144D01*
X1255110Y804283D01*
X1256307Y803643D01*
X1257606Y803249D01*
X1258957Y803116D01*
X1260307Y803249D01*
X1261606Y803643D01*
X1262803Y804283D01*
X1263852Y805144D01*
X1264713Y806193D01*
X1265353Y807390D01*
X1265747Y808689D01*
X1265880Y810039D01*
X1265747Y811390D01*
X1265353Y812689D01*
X1264713Y813886D01*
X1263852Y814935D01*
X1262803Y815796D01*
X1261606Y816436D01*
X1260307Y816829D01*
X1258957Y816963D01*
D02*
G37*
G36*
X1289272D02*
X1287921Y816829D01*
X1286622Y816436D01*
X1285425Y815796D01*
X1284376Y814935D01*
X1283515Y813886D01*
X1282876Y812689D01*
X1282482Y811390D01*
X1282349Y810039D01*
X1282482Y808689D01*
X1282876Y807390D01*
X1283515Y806193D01*
X1284376Y805144D01*
X1285425Y804283D01*
X1286622Y803643D01*
X1287921Y803249D01*
X1289272Y803116D01*
X1290622Y803249D01*
X1291921Y803643D01*
X1293118Y804283D01*
X1294167Y805144D01*
X1295028Y806193D01*
X1295668Y807390D01*
X1296062Y808689D01*
X1296195Y810039D01*
X1296062Y811390D01*
X1295668Y812689D01*
X1295028Y813886D01*
X1294167Y814935D01*
X1293118Y815796D01*
X1291921Y816436D01*
X1290622Y816829D01*
X1289272Y816963D01*
D02*
G37*
G36*
X1274114D02*
X1272764Y816829D01*
X1271465Y816436D01*
X1270268Y815796D01*
X1269219Y814935D01*
X1268358Y813886D01*
X1267718Y812689D01*
X1267324Y811390D01*
X1267191Y810039D01*
X1267324Y808689D01*
X1267718Y807390D01*
X1268358Y806193D01*
X1269219Y805144D01*
X1270268Y804283D01*
X1271465Y803643D01*
X1272764Y803249D01*
X1274114Y803116D01*
X1275465Y803249D01*
X1276764Y803643D01*
X1277960Y804283D01*
X1279010Y805144D01*
X1279871Y806193D01*
X1280510Y807390D01*
X1280904Y808689D01*
X1281037Y810039D01*
X1280904Y811390D01*
X1280510Y812689D01*
X1279871Y813886D01*
X1279010Y814935D01*
X1277960Y815796D01*
X1276764Y816436D01*
X1275465Y816829D01*
X1274114Y816963D01*
D02*
G37*
G36*
X1340281Y1167374D02*
X1336661D01*
Y1163754D01*
X1337245Y1163831D01*
X1338254Y1164249D01*
X1339121Y1164915D01*
X1339786Y1165781D01*
X1340204Y1166791D01*
X1340281Y1167374D01*
D02*
G37*
G36*
X1335661D02*
X1332042D01*
X1332119Y1166791D01*
X1332537Y1165781D01*
X1333202Y1164915D01*
X1334069Y1164249D01*
X1335078Y1163831D01*
X1335661Y1163754D01*
Y1167374D01*
D02*
G37*
G36*
X1355661D02*
X1352042D01*
X1352119Y1166791D01*
X1352537Y1165781D01*
X1353202Y1164915D01*
X1354069Y1164249D01*
X1355078Y1163831D01*
X1355661Y1163754D01*
Y1167374D01*
D02*
G37*
G36*
X1360281D02*
X1356661D01*
Y1163754D01*
X1357245Y1163831D01*
X1358254Y1164249D01*
X1359121Y1164915D01*
X1359786Y1165781D01*
X1360204Y1166791D01*
X1360281Y1167374D01*
D02*
G37*
G36*
X1406299Y954458D02*
X1405618D01*
Y951169D01*
X1410022D01*
X1409958Y951650D01*
X1409580Y952563D01*
X1408978Y953348D01*
X1408193Y953950D01*
X1407280Y954329D01*
X1406299Y954458D01*
D02*
G37*
G36*
X1389968Y958290D02*
Y954869D01*
X1393390D01*
X1393320Y955401D01*
X1392921Y956362D01*
X1392288Y957188D01*
X1391462Y957822D01*
X1390500Y958220D01*
X1389968Y958290D01*
D02*
G37*
G36*
X1388968Y958290D02*
X1388437Y958220D01*
X1387475Y957822D01*
X1386649Y957188D01*
X1386016Y956362D01*
X1385618Y955401D01*
X1385548Y954869D01*
X1388968D01*
Y958290D01*
D02*
G37*
G36*
X1410281Y1167374D02*
X1406661D01*
Y1163754D01*
X1407245Y1163831D01*
X1408254Y1164249D01*
X1409121Y1164915D01*
X1409786Y1165781D01*
X1410204Y1166791D01*
X1410281Y1167374D01*
D02*
G37*
G36*
X1405661D02*
X1402042D01*
X1402119Y1166791D01*
X1402537Y1165781D01*
X1403202Y1164915D01*
X1404069Y1164249D01*
X1405078Y1163831D01*
X1405661Y1163754D01*
Y1167374D01*
D02*
G37*
G36*
X1440281D02*
X1436661D01*
Y1163754D01*
X1437245Y1163831D01*
X1438254Y1164249D01*
X1439121Y1164915D01*
X1439786Y1165781D01*
X1440204Y1166791D01*
X1440281Y1167374D01*
D02*
G37*
G36*
X1435661D02*
X1432042D01*
X1432119Y1166791D01*
X1432537Y1165781D01*
X1433202Y1164915D01*
X1434069Y1164249D01*
X1435078Y1163831D01*
X1435661Y1163754D01*
Y1167374D01*
D02*
G37*
G36*
X1480281D02*
X1476661D01*
Y1163754D01*
X1477245Y1163831D01*
X1478254Y1164249D01*
X1479121Y1164915D01*
X1479786Y1165781D01*
X1480204Y1166791D01*
X1480281Y1167374D01*
D02*
G37*
G36*
X1475661D02*
X1472042D01*
X1472119Y1166791D01*
X1472537Y1165781D01*
X1473202Y1164915D01*
X1474069Y1164249D01*
X1475078Y1163831D01*
X1475661Y1163754D01*
Y1167374D01*
D02*
G37*
%LPD*%
D10*
X1255118Y959350D02*
D03*
X1248425D02*
D03*
X1241732D02*
D03*
X1235039D02*
D03*
X1228347D02*
D03*
D11*
X1411909Y828740D02*
D03*
X1431201Y828937D02*
D03*
X1452181Y1013287D02*
D03*
X1482496Y1003287D02*
D03*
Y1013287D02*
D03*
X1452181Y1003287D02*
D03*
X1335039Y1015650D02*
D03*
X1365354Y1005650D02*
D03*
Y1015650D02*
D03*
X1335039Y1005650D02*
D03*
Y961811D02*
D03*
X1365354Y951811D02*
D03*
Y961811D02*
D03*
X1335039Y951811D02*
D03*
Y906890D02*
D03*
X1365354Y896890D02*
D03*
Y906890D02*
D03*
X1335039Y896890D02*
D03*
D12*
X1476161Y1175000D02*
X1540256D01*
X1389468Y1004508D02*
X1405118D01*
X1389468Y950768D02*
X1405118D01*
X1389468Y896634D02*
X1405118D01*
X1331083Y1115453D02*
Y1128602D01*
X1305965Y1152165D02*
Y1157874D01*
X1336161Y1167874D02*
Y1174902D01*
X1300000D02*
X1336161D01*
X1300000Y1157874D02*
Y1174902D01*
Y1157874D02*
X1305965D01*
X1306161D01*
X1336161Y1174902D02*
X1356161D01*
Y1167874D02*
Y1174902D01*
X1406161D01*
Y1167874D02*
Y1174902D01*
X1436161D01*
Y1167874D02*
Y1174902D01*
X1476161D01*
Y1167874D02*
Y1174902D01*
X1376161Y1152165D02*
Y1157874D01*
X1305965Y1145965D02*
Y1152165D01*
X1456161D02*
Y1157874D01*
X1331083Y1128602D02*
X1331279D01*
X1321083D02*
X1321280D01*
X1351280Y1068602D02*
Y1115453D01*
X1331083D02*
X1351280D01*
X1567421Y1155217D02*
X1567717D01*
X1540256D02*
X1567421D01*
X1527756D02*
X1540256D01*
X1527756Y1143799D02*
Y1155217D01*
X1509941Y1143799D02*
X1527756D01*
X1519783Y1138011D02*
X1535925D01*
X1519783Y1103642D02*
Y1138011D01*
X1509941Y1103642D02*
X1519783D01*
X1540256Y1172933D02*
X1567421D01*
X1476161Y1174902D02*
Y1175000D01*
X1540256Y1172933D02*
Y1175000D01*
X1549409Y1138445D02*
X1564272D01*
X1549409Y1128012D02*
Y1138445D01*
X1535925Y1128012D02*
X1549409D01*
X1376161Y1152165D02*
X1456161D01*
X1305965D02*
X1376161D01*
X1389468Y1004508D02*
Y1008208D01*
X1405118Y1014508D02*
X1411713D01*
Y1018643D01*
X1417027D01*
Y1040787D01*
X1429363D01*
X1440945D01*
Y984744D02*
Y1040787D01*
Y984744D02*
X1453642D01*
X1417027Y964903D02*
Y987047D01*
X1411713Y960768D02*
Y964903D01*
X1389468Y954369D02*
Y954467D01*
X1417027Y910769D02*
Y932913D01*
X1411713Y906634D02*
Y910769D01*
X1389468Y896634D02*
Y899448D01*
Y900333D01*
X1429363Y986949D02*
X1436909D01*
Y919291D02*
Y986949D01*
Y919291D02*
X1453642D01*
X1389468Y950768D02*
Y954369D01*
X1435138Y872047D02*
X1453642D01*
X1429363Y897027D02*
X1435138D01*
Y872047D02*
Y897027D01*
X1347342Y961909D02*
Y974803D01*
X1370177D01*
X1335039Y1015650D02*
X1347342D01*
Y1028543D02*
X1370177D01*
X1347342Y1015650D02*
Y1028543D01*
Y920669D02*
X1370177D01*
X1347342Y907776D02*
Y920669D01*
X1335039Y907776D02*
X1347342D01*
X1335039Y961909D02*
X1347342D01*
X1405118Y960768D02*
X1411713D01*
Y964903D02*
X1417027D01*
Y987047D02*
X1429363D01*
X1405118Y906634D02*
X1411713D01*
Y910769D02*
X1417027D01*
Y932913D02*
X1429363D01*
X1428051Y886614D02*
X1431201Y883465D01*
X1337205Y886614D02*
X1428051D01*
X1335039Y888780D02*
X1337205Y886614D01*
X1335039Y888780D02*
Y896890D01*
X1367126Y820276D02*
X1429035D01*
X1431201Y822441D01*
X1367126Y834055D02*
X1406594D01*
X1431201Y822441D02*
Y828937D01*
Y883465D01*
X1406594Y834055D02*
X1411909Y828740D01*
X1321083Y1115453D02*
Y1128602D01*
X1417027Y897913D02*
X1429363D01*
X1417027Y952047D02*
X1429363D01*
X1417027Y1005787D02*
X1429363D01*
D13*
X1325986Y825558D02*
X1344980D01*
X1306102Y825324D02*
X1325986D01*
X1276280Y825558D02*
X1306102D01*
X1276280D02*
Y838484D01*
Y838681D01*
X1325986Y825324D02*
Y825558D01*
X1344980Y820276D02*
Y825558D01*
Y820276D02*
X1367126D01*
Y834055D02*
Y835558D01*
X1255118Y959350D02*
Y970571D01*
X1241732Y959350D02*
Y970571D01*
X1255118D01*
X1199902D02*
X1241732D01*
X1199902Y1002185D02*
X1211614D01*
X1496161Y1167874D02*
X1502756D01*
X1315965Y1138386D02*
Y1145965D01*
Y1138386D02*
X1321280D01*
Y1128602D02*
Y1138386D01*
X1486161Y1167874D02*
X1496161D01*
X1502756Y1145965D02*
Y1167874D01*
X1382677Y1145965D02*
Y1146063D01*
Y1145965D02*
X1502756D01*
X1315965D02*
Y1146063D01*
X1471949Y872047D02*
Y937500D01*
Y806004D02*
Y872047D01*
X1453642D02*
X1471949D01*
X1453642Y806004D02*
X1471949D01*
X1453642Y937500D02*
X1471949D01*
X1228347Y926870D02*
X1245768Y909449D01*
X1228347Y926870D02*
Y959350D01*
X1235039Y943799D02*
Y959350D01*
Y943799D02*
X1241831Y937008D01*
Y925197D02*
Y937008D01*
Y925197D02*
X1247736Y919291D01*
X1260138D01*
X1265158Y914272D01*
X1315965Y1132480D02*
Y1138386D01*
X1240847Y1132480D02*
X1246752D01*
X1252658D01*
X1258563D01*
X1315965D01*
X1211614Y946457D02*
Y957185D01*
Y946457D02*
X1221752Y936319D01*
Y882874D02*
Y936319D01*
Y882874D02*
X1265158D01*
Y914272D01*
X1315965Y1146063D02*
X1382677D01*
D14*
X1309547Y808248D02*
X1311713Y806083D01*
Y796083D02*
X1313878Y798248D01*
X1329724D02*
Y803839D01*
X1313878Y798248D02*
X1329724D01*
X1306102Y808248D02*
X1309547D01*
X1306102D02*
Y825324D01*
Y825558D01*
X1329724Y803839D02*
X1342520D01*
X1487992Y1024311D02*
X1492520D01*
Y1040453D01*
X1492421D02*
X1492520D01*
X1378512Y1138712D02*
X1378543Y1138681D01*
X1378512Y1138712D02*
Y1141788D01*
X1379232Y1004248D02*
Y1005650D01*
Y1018207D02*
Y1044405D01*
Y1018207D02*
X1389468D01*
Y1024508D01*
X1405118D01*
X1379232Y964467D02*
Y990567D01*
Y990665D01*
X1389468Y910334D02*
Y916634D01*
X1379232Y935646D02*
Y936532D01*
X1358169Y906890D02*
X1365354D01*
X1353839Y961811D02*
X1365354D01*
X1353839Y1015650D02*
X1365354D01*
Y960728D02*
Y961811D01*
X1353839Y999508D02*
X1417027D01*
Y1005787D01*
Y1008643D01*
X1353839Y985827D02*
Y999508D01*
Y1015650D01*
X1389468Y964467D02*
Y970768D01*
X1417027Y945669D02*
Y951949D01*
X1353839Y945669D02*
X1417027D01*
X1353839Y931988D02*
Y945669D01*
Y961811D01*
X1375787D02*
Y985827D01*
X1379232Y910334D02*
Y935646D01*
X1353839Y931988D02*
X1375787D01*
X1365354Y906890D02*
X1375787D01*
Y931988D01*
X1353839Y985827D02*
X1375787D01*
X1365354Y961811D02*
X1375787D01*
X1358169Y889862D02*
Y906890D01*
Y889862D02*
X1429363D01*
Y897027D01*
X1365354Y1005650D02*
X1379232D01*
X1365354Y951909D02*
X1379232D01*
X1365354Y897776D02*
X1379232D01*
Y964467D02*
X1389468D01*
Y970768D02*
X1405118D01*
X1379232Y910334D02*
X1389468D01*
Y916634D02*
X1405118D01*
X1449508Y1055807D02*
X1451280Y1057579D01*
Y1068602D01*
X1459153Y1053445D02*
X1461279Y1055571D01*
Y1068602D01*
X1472638Y1050689D02*
X1474902Y1052953D01*
X1461279Y1128602D02*
X1470118D01*
X1474902Y1123819D01*
Y1052953D02*
Y1123819D01*
X1378543Y1138681D02*
X1486417D01*
X1492421Y1132677D01*
Y1040453D02*
Y1132677D01*
X1323917Y1048720D02*
X1325886Y1050689D01*
X1472638D01*
X1321358Y1051280D02*
X1323524Y1053445D01*
X1459153D01*
X1318996Y1053248D02*
X1321555Y1055807D01*
X1449508D01*
X1318996Y862008D02*
Y1053248D01*
Y862008D02*
X1322146Y858858D01*
X1323917Y866043D02*
Y1048720D01*
Y866043D02*
X1326378Y863583D01*
X1321358Y864272D02*
Y1051280D01*
Y864272D02*
X1324409Y861220D01*
X1326378Y863583D02*
X1374508D01*
X1375984Y865059D01*
Y869606D01*
X1324409Y861220D02*
X1395768D01*
X1397589Y863041D01*
Y869606D01*
X1322146Y858858D02*
X1417520D01*
X1419193Y860532D01*
Y869606D01*
D15*
X1256102Y838484D02*
X1276280D01*
X1243799Y810039D02*
Y823917D01*
X1256102D01*
Y838484D01*
D16*
X1199902Y1145965D02*
X1305965D01*
X1199902Y970571D02*
Y1002185D01*
Y1145965D01*
Y855020D02*
X1256102D01*
Y838484D02*
Y855020D01*
X1199902D02*
Y884547D01*
X1203937D01*
X1199902Y923720D02*
Y970571D01*
Y923720D02*
X1203937D01*
Y884547D02*
Y923720D01*
D17*
X1248425Y947342D02*
X1251772Y943996D01*
X1248425Y947342D02*
Y959350D01*
X1344980Y835558D02*
Y852067D01*
X1308661D02*
X1344980D01*
X1251772Y943996D02*
X1308661D01*
Y852067D02*
Y943996D01*
X1344980Y835558D02*
X1367126D01*
D18*
X1227833Y997687D02*
D03*
X1233275D02*
D03*
X1238716D02*
D03*
X1244158D02*
D03*
X1249599D02*
D03*
X1255041D02*
D03*
X1222392D02*
D03*
X1260482D02*
D03*
D19*
X1241437Y996850D02*
D03*
D20*
X1445768Y829626D02*
D03*
X1453642Y853248D02*
D03*
Y806004D02*
D03*
X1501673Y853248D02*
D03*
Y806004D02*
D03*
X1445768Y895669D02*
D03*
X1453642Y919291D02*
D03*
Y872047D02*
D03*
X1501673Y919291D02*
D03*
Y872047D02*
D03*
X1561417Y865650D02*
D03*
Y845965D02*
D03*
Y826280D02*
D03*
Y931693D02*
D03*
Y912008D02*
D03*
Y892323D02*
D03*
Y997146D02*
D03*
Y977461D02*
D03*
Y957776D02*
D03*
X1560925Y1044291D02*
D03*
Y1086963D02*
D03*
X1218602Y811909D02*
D03*
X1445768Y961122D02*
D03*
X1453642Y984744D02*
D03*
Y937500D02*
D03*
X1501673Y984744D02*
D03*
Y937500D02*
D03*
D21*
X1560925Y1024606D02*
D03*
Y1067278D02*
D03*
D22*
X1198917Y811909D02*
D03*
D23*
X1331083Y1115453D02*
D03*
X1321083D02*
D03*
X1305965Y1145965D02*
D03*
X1315965D02*
D03*
X1535925Y1128012D02*
D03*
X1535925Y1118012D02*
D03*
X1564271Y1108445D02*
D03*
Y1118445D02*
D03*
X1564272Y1128445D02*
D03*
Y1138445D02*
D03*
X1417027Y1018643D02*
D03*
Y1008643D02*
D03*
X1389468Y1008208D02*
D03*
Y1018207D02*
D03*
Y954369D02*
D03*
Y964369D02*
D03*
Y899448D02*
D03*
Y909448D02*
D03*
X1417027Y964804D02*
D03*
Y954804D02*
D03*
Y909883D02*
D03*
Y899883D02*
D03*
X1306102Y825558D02*
D03*
Y835558D02*
D03*
X1344980Y825558D02*
D03*
Y835558D02*
D03*
D24*
X1540256Y1172933D02*
D03*
D25*
Y1155217D02*
D03*
X1567421Y1172933D02*
D03*
Y1155217D02*
D03*
D26*
X1535925Y1138011D02*
D03*
D27*
X1509941Y1103642D02*
D03*
Y1143799D02*
D03*
X1487992Y1035925D02*
D03*
X1447835D02*
D03*
Y1024311D02*
D03*
X1487992D02*
D03*
X1379232Y1044405D02*
D03*
Y1004248D02*
D03*
X1370177Y1028543D02*
D03*
X1330020D02*
D03*
X1370177Y974803D02*
D03*
X1330020D02*
D03*
X1370177Y920669D02*
D03*
X1330020D02*
D03*
X1379232Y990567D02*
D03*
Y950409D02*
D03*
Y935646D02*
D03*
Y895488D02*
D03*
X1342520Y803839D02*
D03*
X1382677D02*
D03*
D28*
X1461279Y1128602D02*
D03*
X1325986Y835324D02*
D03*
X1496161Y1157874D02*
D03*
D29*
X1451280Y1128602D02*
D03*
X1441280D02*
D03*
X1431279D02*
D03*
X1401280D02*
D03*
X1411279D02*
D03*
X1421280D02*
D03*
X1371280D02*
D03*
X1381279D02*
D03*
X1391280D02*
D03*
X1341280D02*
D03*
X1351280D02*
D03*
X1361279D02*
D03*
X1331279D02*
D03*
X1321280D02*
D03*
Y1068602D02*
D03*
X1331279D02*
D03*
X1361279D02*
D03*
X1351280D02*
D03*
X1341280D02*
D03*
X1391280D02*
D03*
X1381279D02*
D03*
X1371280D02*
D03*
X1421280D02*
D03*
X1411279D02*
D03*
X1401280D02*
D03*
X1431279D02*
D03*
X1441280D02*
D03*
X1451280D02*
D03*
X1461279D02*
D03*
X1253642Y929331D02*
D03*
X1245768Y909449D02*
D03*
X1325986Y825324D02*
D03*
X1486161Y1157874D02*
D03*
X1476161D02*
D03*
X1466161D02*
D03*
X1456161D02*
D03*
X1446161D02*
D03*
X1436161D02*
D03*
X1426161D02*
D03*
X1416161D02*
D03*
X1406161D02*
D03*
X1396161D02*
D03*
X1386161D02*
D03*
X1376161D02*
D03*
X1366161D02*
D03*
X1356161D02*
D03*
X1346161D02*
D03*
X1336161D02*
D03*
X1326161D02*
D03*
X1316161D02*
D03*
X1306161D02*
D03*
X1496161Y1167874D02*
D03*
X1486161D02*
D03*
X1476161D02*
D03*
X1466161D02*
D03*
X1456161D02*
D03*
X1446161D02*
D03*
X1436161D02*
D03*
X1426161D02*
D03*
X1416161D02*
D03*
X1406161D02*
D03*
X1396161D02*
D03*
X1386161D02*
D03*
X1376161D02*
D03*
X1366161D02*
D03*
X1356161D02*
D03*
X1346161D02*
D03*
X1336161D02*
D03*
X1326161D02*
D03*
X1316161D02*
D03*
X1306161D02*
D03*
D30*
X1429363Y1005787D02*
D03*
Y951949D02*
D03*
Y897027D02*
D03*
D31*
Y1040787D02*
D03*
Y986949D02*
D03*
Y932028D02*
D03*
D32*
X1405118Y1004508D02*
D03*
Y1014508D02*
D03*
Y1024508D02*
D03*
Y950669D02*
D03*
Y960669D02*
D03*
Y970669D02*
D03*
Y895748D02*
D03*
Y905748D02*
D03*
Y915748D02*
D03*
D33*
X1375984Y879606D02*
D03*
X1397589D02*
D03*
X1419193D02*
D03*
X1311614Y808248D02*
D03*
D34*
X1375984Y869606D02*
D03*
X1397589D02*
D03*
X1419193D02*
D03*
X1311614Y798248D02*
D03*
D35*
X1211614Y1002185D02*
D03*
D36*
Y957185D02*
D03*
D37*
X1234350Y902264D02*
D03*
X1190847D02*
D03*
X1265059D02*
D03*
X1308563D02*
D03*
X1243799Y810039D02*
D03*
X1258957D02*
D03*
X1274114D02*
D03*
X1289272D02*
D03*
D38*
X1256102Y838484D02*
D03*
X1276280Y838681D02*
D03*
X1367126Y820276D02*
D03*
D39*
X1242323Y838484D02*
D03*
X1290059Y838681D02*
D03*
D40*
X1367126Y834055D02*
D03*
D41*
X1515354Y1162992D02*
D03*
X1286909D02*
D03*
Y970079D02*
D03*
D42*
X1378512Y1141788D02*
D03*
X1258563Y1120669D02*
D03*
Y1126575D02*
D03*
X1252658Y1120669D02*
D03*
Y1126575D02*
D03*
X1246752Y1120669D02*
D03*
Y1126575D02*
D03*
X1240847Y1120669D02*
D03*
Y1126575D02*
D03*
Y1132480D02*
D03*
X1258563Y1114764D02*
D03*
X1252658D02*
D03*
X1246752D02*
D03*
X1240847D02*
D03*
X1246752Y1132480D02*
D03*
X1252658D02*
D03*
X1258563D02*
D03*
M02*
