G04 Layer_Color=32896*
%FSLAX25Y25*%
%MOIN*%
G70*
G01*
G75*
%ADD73C,0.00300*%
G36*
X1264466Y1091170D02*
X1264933Y1091111D01*
X1265137Y1091068D01*
X1265341Y1091024D01*
X1265531Y1090980D01*
X1265691Y1090936D01*
X1265837Y1090878D01*
X1265983Y1090835D01*
X1266085Y1090791D01*
X1266187Y1090762D01*
X1266260Y1090718D01*
X1266318Y1090703D01*
X1266347Y1090674D01*
X1266362D01*
X1266814Y1090412D01*
X1267004Y1090251D01*
X1267193Y1090106D01*
X1267368Y1089945D01*
X1267528Y1089785D01*
X1267674Y1089624D01*
X1267805Y1089478D01*
X1267907Y1089333D01*
X1268009Y1089202D01*
X1268097Y1089085D01*
X1268170Y1088983D01*
X1268214Y1088895D01*
X1268257Y1088837D01*
X1268272Y1088793D01*
X1268287Y1088779D01*
X1268403Y1088545D01*
X1268505Y1088312D01*
X1268666Y1087831D01*
X1268782Y1087350D01*
X1268855Y1086927D01*
X1268884Y1086723D01*
X1268913Y1086548D01*
X1268928Y1086388D01*
Y1086242D01*
X1268943Y1086140D01*
Y1086052D01*
Y1085994D01*
Y1085979D01*
X1268913Y1085440D01*
X1268855Y1084944D01*
X1268753Y1084492D01*
X1268709Y1084274D01*
X1268651Y1084084D01*
X1268593Y1083909D01*
X1268549Y1083749D01*
X1268491Y1083617D01*
X1268447Y1083501D01*
X1268418Y1083413D01*
X1268389Y1083340D01*
X1268359Y1083297D01*
Y1083282D01*
X1268112Y1082845D01*
X1267834Y1082466D01*
X1267543Y1082130D01*
X1267251Y1081868D01*
X1267120Y1081751D01*
X1266989Y1081649D01*
X1266887Y1081562D01*
X1266785Y1081503D01*
X1266712Y1081445D01*
X1266639Y1081401D01*
X1266610Y1081387D01*
X1266595Y1081372D01*
X1266362Y1081255D01*
X1266143Y1081153D01*
X1265662Y1080993D01*
X1265196Y1080876D01*
X1264773Y1080803D01*
X1264569Y1080774D01*
X1264394Y1080745D01*
X1264233Y1080731D01*
X1264087D01*
X1263985Y1080716D01*
X1263825D01*
X1263358Y1080731D01*
X1262921Y1080789D01*
X1262498Y1080862D01*
X1262134Y1080949D01*
X1261973Y1080993D01*
X1261828Y1081037D01*
X1261696Y1081081D01*
X1261580Y1081110D01*
X1261492Y1081139D01*
X1261434Y1081168D01*
X1261390Y1081182D01*
X1261376D01*
X1260938Y1081357D01*
X1260574Y1081547D01*
X1260253Y1081737D01*
X1259976Y1081897D01*
X1259772Y1082043D01*
X1259699Y1082101D01*
X1259626Y1082159D01*
X1259582Y1082203D01*
X1259538Y1082232D01*
X1259509Y1082261D01*
Y1086315D01*
X1263898D01*
Y1084609D01*
X1261565D01*
Y1083311D01*
X1261740Y1083180D01*
X1261930Y1083063D01*
X1262119Y1082961D01*
X1262294Y1082874D01*
X1262440Y1082801D01*
X1262571Y1082743D01*
X1262644Y1082713D01*
X1262659Y1082699D01*
X1262673D01*
X1262906Y1082611D01*
X1263140Y1082553D01*
X1263358Y1082509D01*
X1263548Y1082480D01*
X1263723Y1082466D01*
X1263840Y1082451D01*
X1263956D01*
X1264190Y1082466D01*
X1264423Y1082495D01*
X1264627Y1082539D01*
X1264831Y1082597D01*
X1265196Y1082743D01*
X1265341Y1082815D01*
X1265487Y1082903D01*
X1265618Y1082990D01*
X1265735Y1083063D01*
X1265823Y1083151D01*
X1265910Y1083209D01*
X1265968Y1083267D01*
X1266012Y1083311D01*
X1266041Y1083340D01*
X1266056Y1083355D01*
X1266187Y1083530D01*
X1266318Y1083734D01*
X1266420Y1083938D01*
X1266508Y1084157D01*
X1266654Y1084609D01*
X1266741Y1085046D01*
X1266770Y1085250D01*
X1266799Y1085454D01*
X1266814Y1085615D01*
X1266829Y1085775D01*
X1266843Y1085892D01*
Y1085994D01*
Y1086052D01*
Y1086067D01*
X1266829Y1086373D01*
X1266814Y1086650D01*
X1266770Y1086927D01*
X1266726Y1087175D01*
X1266668Y1087394D01*
X1266595Y1087598D01*
X1266522Y1087787D01*
X1266449Y1087962D01*
X1266391Y1088108D01*
X1266318Y1088239D01*
X1266245Y1088341D01*
X1266187Y1088429D01*
X1266143Y1088502D01*
X1266099Y1088545D01*
X1266085Y1088575D01*
X1266070Y1088589D01*
X1265910Y1088735D01*
X1265750Y1088881D01*
X1265575Y1088983D01*
X1265400Y1089085D01*
X1265225Y1089172D01*
X1265050Y1089245D01*
X1264714Y1089347D01*
X1264554Y1089377D01*
X1264408Y1089406D01*
X1264277Y1089420D01*
X1264160Y1089435D01*
X1264073Y1089449D01*
X1263942D01*
X1263621Y1089435D01*
X1263344Y1089377D01*
X1263096Y1089318D01*
X1262877Y1089231D01*
X1262717Y1089158D01*
X1262586Y1089085D01*
X1262513Y1089027D01*
X1262484Y1089012D01*
X1262280Y1088837D01*
X1262105Y1088647D01*
X1261959Y1088458D01*
X1261857Y1088268D01*
X1261769Y1088093D01*
X1261711Y1087962D01*
X1261682Y1087875D01*
X1261667Y1087860D01*
Y1087846D01*
X1259641Y1088225D01*
X1259699Y1088472D01*
X1259786Y1088720D01*
X1259874Y1088939D01*
X1259991Y1089143D01*
X1260093Y1089347D01*
X1260209Y1089522D01*
X1260326Y1089683D01*
X1260443Y1089828D01*
X1260559Y1089960D01*
X1260661Y1090076D01*
X1260749Y1090178D01*
X1260836Y1090251D01*
X1260909Y1090310D01*
X1260967Y1090368D01*
X1260997Y1090382D01*
X1261011Y1090397D01*
X1261215Y1090543D01*
X1261434Y1090660D01*
X1261667Y1090762D01*
X1261915Y1090849D01*
X1262396Y1090995D01*
X1262863Y1091082D01*
X1263081Y1091126D01*
X1263286Y1091141D01*
X1263475Y1091155D01*
X1263636Y1091170D01*
X1263767Y1091184D01*
X1263942D01*
X1264466Y1091170D01*
D02*
G37*
G36*
X1288961Y1085600D02*
Y1085294D01*
X1288946Y1085003D01*
Y1084725D01*
X1288932Y1084478D01*
X1288917Y1084244D01*
X1288903Y1084040D01*
X1288888Y1083851D01*
X1288859Y1083676D01*
X1288844Y1083530D01*
X1288830Y1083399D01*
X1288815Y1083282D01*
X1288801Y1083195D01*
X1288786Y1083122D01*
Y1083078D01*
X1288771Y1083049D01*
Y1083034D01*
X1288698Y1082815D01*
X1288626Y1082611D01*
X1288524Y1082422D01*
X1288436Y1082261D01*
X1288349Y1082116D01*
X1288276Y1081999D01*
X1288217Y1081941D01*
X1288203Y1081911D01*
X1288028Y1081722D01*
X1287838Y1081547D01*
X1287634Y1081401D01*
X1287445Y1081270D01*
X1287284Y1081168D01*
X1287138Y1081095D01*
X1287051Y1081051D01*
X1287036Y1081037D01*
X1287022D01*
X1286876Y1080978D01*
X1286716Y1080935D01*
X1286351Y1080847D01*
X1285987Y1080789D01*
X1285637Y1080760D01*
X1285476Y1080745D01*
X1285316Y1080731D01*
X1285185D01*
X1285054Y1080716D01*
X1284820D01*
X1284397Y1080731D01*
X1284018Y1080760D01*
X1283683Y1080818D01*
X1283406Y1080876D01*
X1283289Y1080891D01*
X1283173Y1080920D01*
X1283085Y1080949D01*
X1283012Y1080978D01*
X1282954Y1080993D01*
X1282910Y1081008D01*
X1282896Y1081022D01*
X1282881D01*
X1282619Y1081139D01*
X1282385Y1081285D01*
X1282181Y1081416D01*
X1282006Y1081547D01*
X1281875Y1081664D01*
X1281773Y1081751D01*
X1281715Y1081810D01*
X1281700Y1081839D01*
X1281540Y1082043D01*
X1281409Y1082261D01*
X1281306Y1082466D01*
X1281219Y1082670D01*
X1281161Y1082845D01*
X1281117Y1082990D01*
X1281102Y1083034D01*
Y1083078D01*
X1281088Y1083092D01*
Y1083107D01*
X1281059Y1083267D01*
X1281029Y1083442D01*
X1281000Y1083632D01*
X1280986Y1083821D01*
X1280956Y1084259D01*
X1280927Y1084682D01*
Y1084871D01*
Y1085061D01*
X1280913Y1085236D01*
Y1085382D01*
Y1085498D01*
Y1085600D01*
Y1085659D01*
Y1085673D01*
Y1090995D01*
X1282954D01*
Y1085396D01*
Y1085177D01*
Y1084973D01*
X1282969Y1084784D01*
Y1084609D01*
X1282983Y1084463D01*
Y1084317D01*
X1282998Y1084186D01*
Y1084069D01*
X1283027Y1083894D01*
X1283041Y1083763D01*
X1283056Y1083690D01*
Y1083661D01*
X1283100Y1083472D01*
X1283173Y1083311D01*
X1283260Y1083165D01*
X1283348Y1083034D01*
X1283435Y1082932D01*
X1283508Y1082859D01*
X1283566Y1082815D01*
X1283581Y1082801D01*
X1283756Y1082684D01*
X1283975Y1082597D01*
X1284179Y1082539D01*
X1284397Y1082495D01*
X1284587Y1082466D01*
X1284733Y1082451D01*
X1284879D01*
X1285185Y1082466D01*
X1285447Y1082509D01*
X1285680Y1082568D01*
X1285885Y1082640D01*
X1286030Y1082699D01*
X1286147Y1082757D01*
X1286205Y1082801D01*
X1286234Y1082815D01*
X1286395Y1082961D01*
X1286526Y1083136D01*
X1286643Y1083297D01*
X1286716Y1083457D01*
X1286774Y1083603D01*
X1286818Y1083719D01*
X1286847Y1083792D01*
Y1083821D01*
X1286861Y1083909D01*
X1286876Y1083996D01*
Y1084113D01*
X1286891Y1084244D01*
X1286905Y1084521D01*
Y1084813D01*
X1286920Y1085075D01*
Y1085192D01*
Y1085309D01*
Y1085396D01*
Y1085454D01*
Y1085498D01*
Y1085513D01*
Y1090995D01*
X1288961D01*
Y1085600D01*
D02*
G37*
G36*
X1245104D02*
Y1085294D01*
X1245090Y1085003D01*
Y1084725D01*
X1245075Y1084478D01*
X1245061Y1084244D01*
X1245046Y1084040D01*
X1245031Y1083851D01*
X1245002Y1083676D01*
X1244988Y1083530D01*
X1244973Y1083399D01*
X1244958Y1083282D01*
X1244944Y1083195D01*
X1244929Y1083122D01*
Y1083078D01*
X1244915Y1083049D01*
Y1083034D01*
X1244842Y1082815D01*
X1244769Y1082611D01*
X1244667Y1082422D01*
X1244579Y1082261D01*
X1244492Y1082116D01*
X1244419Y1081999D01*
X1244361Y1081941D01*
X1244346Y1081911D01*
X1244142Y1081707D01*
X1243923Y1081518D01*
X1243676Y1081357D01*
X1243398Y1081226D01*
X1243121Y1081110D01*
X1242844Y1081008D01*
X1242567Y1080935D01*
X1242290Y1080862D01*
X1242028Y1080818D01*
X1241780Y1080774D01*
X1241547Y1080760D01*
X1241357Y1080731D01*
X1241197D01*
X1241066Y1080716D01*
X1240964D01*
X1240570Y1080731D01*
X1240205Y1080760D01*
X1239870Y1080818D01*
X1239564Y1080891D01*
X1239287Y1080978D01*
X1239025Y1081066D01*
X1238791Y1081168D01*
X1238587Y1081285D01*
X1238412Y1081387D01*
X1238252Y1081489D01*
X1238120Y1081576D01*
X1238018Y1081664D01*
X1237931Y1081737D01*
X1237873Y1081795D01*
X1237844Y1081824D01*
X1237829Y1081839D01*
X1237683Y1082043D01*
X1237552Y1082261D01*
X1237450Y1082480D01*
X1237362Y1082670D01*
X1237304Y1082845D01*
X1237260Y1082990D01*
X1237231Y1083078D01*
Y1083092D01*
Y1083107D01*
X1237202Y1083267D01*
X1237173Y1083442D01*
X1237144Y1083632D01*
X1237129Y1083836D01*
X1237100Y1084274D01*
X1237071Y1084696D01*
Y1084886D01*
Y1085075D01*
X1237056Y1085250D01*
Y1085396D01*
Y1085513D01*
Y1085615D01*
Y1085673D01*
Y1085688D01*
Y1086606D01*
X1236823Y1086650D01*
X1236590Y1086694D01*
X1236386Y1086752D01*
X1236196Y1086810D01*
X1236021Y1086883D01*
X1235861Y1086942D01*
X1235715Y1087014D01*
X1235598Y1087073D01*
X1235481Y1087146D01*
X1235379Y1087204D01*
X1235307Y1087262D01*
X1235234Y1087306D01*
X1235190Y1087350D01*
X1235146Y1087379D01*
X1235117Y1087408D01*
X1234986Y1087554D01*
X1234869Y1087700D01*
X1234767Y1087846D01*
X1234694Y1087977D01*
X1234650Y1088093D01*
X1234607Y1088181D01*
X1234577Y1088254D01*
Y1088268D01*
X1234519Y1088458D01*
X1234490Y1088677D01*
X1234461Y1088910D01*
X1234432Y1089114D01*
Y1089318D01*
X1234417Y1089464D01*
Y1089522D01*
Y1089566D01*
Y1089595D01*
Y1089610D01*
Y1090995D01*
X1236356D01*
Y1089056D01*
X1235409D01*
X1235423Y1088837D01*
X1235452Y1088647D01*
X1235496Y1088487D01*
X1235540Y1088341D01*
X1235598Y1088239D01*
X1235627Y1088166D01*
X1235657Y1088123D01*
X1235671Y1088108D01*
X1235846Y1087918D01*
X1236050Y1087773D01*
X1236283Y1087642D01*
X1236517Y1087554D01*
X1236721Y1087481D01*
X1236896Y1087423D01*
X1236969Y1087408D01*
X1237012D01*
X1237042Y1087394D01*
X1237056D01*
Y1090995D01*
X1239097D01*
Y1085396D01*
Y1085177D01*
Y1084973D01*
X1239112Y1084784D01*
Y1084623D01*
X1239126Y1084463D01*
Y1084317D01*
X1239141Y1084201D01*
Y1084084D01*
X1239170Y1083894D01*
X1239185Y1083778D01*
X1239199Y1083705D01*
Y1083676D01*
X1239258Y1083457D01*
X1239331Y1083267D01*
X1239447Y1083107D01*
X1239564Y1082961D01*
X1239710Y1082845D01*
X1239870Y1082757D01*
X1240030Y1082670D01*
X1240191Y1082611D01*
X1240497Y1082509D01*
X1240643Y1082495D01*
X1240759Y1082466D01*
X1240876D01*
X1240949Y1082451D01*
X1241022D01*
X1241328Y1082466D01*
X1241590Y1082509D01*
X1241838Y1082582D01*
X1242043Y1082670D01*
X1242232Y1082772D01*
X1242392Y1082888D01*
X1242524Y1083005D01*
X1242640Y1083136D01*
X1242742Y1083267D01*
X1242815Y1083384D01*
X1242874Y1083501D01*
X1242917Y1083603D01*
X1242947Y1083690D01*
X1242976Y1083763D01*
X1242990Y1083807D01*
Y1083821D01*
X1243005Y1083894D01*
X1243019Y1083996D01*
Y1084113D01*
X1243034Y1084244D01*
X1243048Y1084521D01*
Y1084798D01*
X1243063Y1085075D01*
Y1085192D01*
Y1085294D01*
Y1085382D01*
Y1085454D01*
Y1085498D01*
Y1085513D01*
Y1090995D01*
X1245104D01*
Y1085600D01*
D02*
G37*
G36*
X1194031Y1091170D02*
X1194497Y1091111D01*
X1194701Y1091068D01*
X1194905Y1091024D01*
X1195095Y1090980D01*
X1195255Y1090936D01*
X1195401Y1090878D01*
X1195547Y1090835D01*
X1195649Y1090791D01*
X1195751Y1090762D01*
X1195824Y1090718D01*
X1195882Y1090703D01*
X1195911Y1090674D01*
X1195926D01*
X1196378Y1090412D01*
X1196568Y1090251D01*
X1196757Y1090106D01*
X1196932Y1089945D01*
X1197092Y1089785D01*
X1197238Y1089624D01*
X1197369Y1089478D01*
X1197472Y1089333D01*
X1197573Y1089202D01*
X1197661Y1089085D01*
X1197734Y1088983D01*
X1197778Y1088895D01*
X1197821Y1088837D01*
X1197836Y1088793D01*
X1197851Y1088779D01*
X1197967Y1088545D01*
X1198069Y1088312D01*
X1198230Y1087831D01*
X1198346Y1087350D01*
X1198419Y1086927D01*
X1198448Y1086723D01*
X1198477Y1086548D01*
X1198492Y1086388D01*
Y1086242D01*
X1198507Y1086140D01*
Y1086052D01*
Y1085994D01*
Y1085979D01*
X1198477Y1085440D01*
X1198419Y1084944D01*
X1198317Y1084492D01*
X1198273Y1084274D01*
X1198215Y1084084D01*
X1198157Y1083909D01*
X1198113Y1083749D01*
X1198055Y1083617D01*
X1198011Y1083501D01*
X1197982Y1083413D01*
X1197953Y1083340D01*
X1197923Y1083297D01*
Y1083282D01*
X1197676Y1082845D01*
X1197399Y1082466D01*
X1197107Y1082130D01*
X1196815Y1081868D01*
X1196684Y1081751D01*
X1196553Y1081649D01*
X1196451Y1081562D01*
X1196349Y1081503D01*
X1196276Y1081445D01*
X1196203Y1081401D01*
X1196174Y1081387D01*
X1196159Y1081372D01*
X1195926Y1081255D01*
X1195707Y1081153D01*
X1195226Y1080993D01*
X1194760Y1080876D01*
X1194337Y1080803D01*
X1194133Y1080774D01*
X1193958Y1080745D01*
X1193797Y1080731D01*
X1193651D01*
X1193549Y1080716D01*
X1193389D01*
X1192922Y1080731D01*
X1192485Y1080789D01*
X1192062Y1080862D01*
X1191698Y1080949D01*
X1191537Y1080993D01*
X1191392Y1081037D01*
X1191260Y1081081D01*
X1191144Y1081110D01*
X1191056Y1081139D01*
X1190998Y1081168D01*
X1190954Y1081182D01*
X1190940D01*
X1190502Y1081357D01*
X1190138Y1081547D01*
X1189817Y1081737D01*
X1189540Y1081897D01*
X1189336Y1082043D01*
X1189263Y1082101D01*
X1189190Y1082159D01*
X1189146Y1082203D01*
X1189102Y1082232D01*
X1189073Y1082261D01*
Y1086315D01*
X1193462D01*
Y1084609D01*
X1191129D01*
Y1083311D01*
X1191304Y1083180D01*
X1191494Y1083063D01*
X1191683Y1082961D01*
X1191858Y1082874D01*
X1192004Y1082801D01*
X1192135Y1082743D01*
X1192208Y1082713D01*
X1192223Y1082699D01*
X1192237D01*
X1192470Y1082611D01*
X1192704Y1082553D01*
X1192922Y1082509D01*
X1193112Y1082480D01*
X1193287Y1082466D01*
X1193404Y1082451D01*
X1193520D01*
X1193754Y1082466D01*
X1193987Y1082495D01*
X1194191Y1082539D01*
X1194395Y1082597D01*
X1194760Y1082743D01*
X1194905Y1082815D01*
X1195051Y1082903D01*
X1195182Y1082990D01*
X1195299Y1083063D01*
X1195387Y1083151D01*
X1195474Y1083209D01*
X1195532Y1083267D01*
X1195576Y1083311D01*
X1195605Y1083340D01*
X1195620Y1083355D01*
X1195751Y1083530D01*
X1195882Y1083734D01*
X1195984Y1083938D01*
X1196072Y1084157D01*
X1196218Y1084609D01*
X1196305Y1085046D01*
X1196334Y1085250D01*
X1196363Y1085454D01*
X1196378Y1085615D01*
X1196393Y1085775D01*
X1196407Y1085892D01*
Y1085994D01*
Y1086052D01*
Y1086067D01*
X1196393Y1086373D01*
X1196378Y1086650D01*
X1196334Y1086927D01*
X1196290Y1087175D01*
X1196232Y1087394D01*
X1196159Y1087598D01*
X1196086Y1087787D01*
X1196014Y1087962D01*
X1195955Y1088108D01*
X1195882Y1088239D01*
X1195809Y1088341D01*
X1195751Y1088429D01*
X1195707Y1088502D01*
X1195664Y1088545D01*
X1195649Y1088575D01*
X1195634Y1088589D01*
X1195474Y1088735D01*
X1195314Y1088881D01*
X1195139Y1088983D01*
X1194964Y1089085D01*
X1194789Y1089172D01*
X1194614Y1089245D01*
X1194278Y1089347D01*
X1194118Y1089377D01*
X1193972Y1089406D01*
X1193841Y1089420D01*
X1193724Y1089435D01*
X1193637Y1089449D01*
X1193506D01*
X1193185Y1089435D01*
X1192908Y1089377D01*
X1192660Y1089318D01*
X1192441Y1089231D01*
X1192281Y1089158D01*
X1192150Y1089085D01*
X1192077Y1089027D01*
X1192048Y1089012D01*
X1191844Y1088837D01*
X1191669Y1088647D01*
X1191523Y1088458D01*
X1191421Y1088268D01*
X1191333Y1088093D01*
X1191275Y1087962D01*
X1191246Y1087875D01*
X1191231Y1087860D01*
Y1087846D01*
X1189205Y1088225D01*
X1189263Y1088472D01*
X1189350Y1088720D01*
X1189438Y1088939D01*
X1189555Y1089143D01*
X1189657Y1089347D01*
X1189773Y1089522D01*
X1189890Y1089683D01*
X1190007Y1089828D01*
X1190123Y1089960D01*
X1190225Y1090076D01*
X1190313Y1090178D01*
X1190400Y1090251D01*
X1190473Y1090310D01*
X1190531Y1090368D01*
X1190561Y1090382D01*
X1190575Y1090397D01*
X1190779Y1090543D01*
X1190998Y1090660D01*
X1191231Y1090762D01*
X1191479Y1090849D01*
X1191960Y1090995D01*
X1192427Y1091082D01*
X1192645Y1091126D01*
X1192850Y1091141D01*
X1193039Y1091155D01*
X1193200Y1091170D01*
X1193331Y1091184D01*
X1193506D01*
X1194031Y1091170D01*
D02*
G37*
G36*
X1254406Y1089289D02*
X1251417D01*
Y1080906D01*
X1249376D01*
Y1089289D01*
X1246402D01*
Y1090995D01*
X1254406D01*
Y1089289D01*
D02*
G37*
G36*
X1501144Y1091170D02*
X1501523Y1091126D01*
X1501858Y1091053D01*
X1502193Y1090966D01*
X1502485Y1090864D01*
X1502777Y1090747D01*
X1503024Y1090616D01*
X1503258Y1090485D01*
X1503477Y1090353D01*
X1503651Y1090222D01*
X1503812Y1090106D01*
X1503943Y1090003D01*
X1504045Y1089916D01*
X1504118Y1089843D01*
X1504162Y1089799D01*
X1504176Y1089785D01*
X1504410Y1089508D01*
X1504599Y1089216D01*
X1504774Y1088910D01*
X1504920Y1088589D01*
X1505051Y1088254D01*
X1505153Y1087933D01*
X1505241Y1087612D01*
X1505314Y1087306D01*
X1505372Y1087000D01*
X1505401Y1086738D01*
X1505430Y1086490D01*
X1505459Y1086285D01*
Y1086111D01*
X1505474Y1085979D01*
Y1085892D01*
Y1085877D01*
Y1085863D01*
X1505459Y1085425D01*
X1505416Y1085017D01*
X1505357Y1084623D01*
X1505270Y1084274D01*
X1505182Y1083938D01*
X1505066Y1083617D01*
X1504949Y1083340D01*
X1504832Y1083092D01*
X1504716Y1082859D01*
X1504599Y1082655D01*
X1504482Y1082495D01*
X1504395Y1082349D01*
X1504308Y1082247D01*
X1504249Y1082159D01*
X1504206Y1082116D01*
X1504191Y1082101D01*
X1503943Y1081853D01*
X1503681Y1081649D01*
X1503404Y1081460D01*
X1503127Y1081314D01*
X1502850Y1081182D01*
X1502573Y1081066D01*
X1502310Y1080978D01*
X1502062Y1080906D01*
X1501814Y1080847D01*
X1501596Y1080803D01*
X1501392Y1080774D01*
X1501231Y1080760D01*
X1501085Y1080745D01*
X1500983Y1080731D01*
X1500896D01*
X1500590Y1080745D01*
X1500313Y1080760D01*
X1500036Y1080803D01*
X1499788Y1080862D01*
X1499555Y1080920D01*
X1499336Y1080978D01*
X1499132Y1081051D01*
X1498942Y1081139D01*
X1498782Y1081212D01*
X1498636Y1081285D01*
X1498505Y1081343D01*
X1498403Y1081401D01*
X1498315Y1081460D01*
X1498257Y1081503D01*
X1498228Y1081518D01*
X1498213Y1081532D01*
X1498024Y1081693D01*
X1497849Y1081868D01*
X1497528Y1082261D01*
X1497265Y1082670D01*
X1497061Y1083063D01*
X1496974Y1083253D01*
X1496901Y1083428D01*
X1496843Y1083588D01*
X1496784Y1083719D01*
X1496741Y1083836D01*
X1496711Y1083924D01*
X1496697Y1083982D01*
Y1083996D01*
X1498680Y1084609D01*
X1498796Y1084215D01*
X1498927Y1083880D01*
X1499059Y1083603D01*
X1499205Y1083370D01*
X1499321Y1083195D01*
X1499423Y1083078D01*
X1499496Y1083005D01*
X1499525Y1082976D01*
X1499759Y1082801D01*
X1499992Y1082684D01*
X1500225Y1082597D01*
X1500429Y1082524D01*
X1500619Y1082495D01*
X1500779Y1082480D01*
X1500838Y1082466D01*
X1500910D01*
X1501114Y1082480D01*
X1501304Y1082495D01*
X1501654Y1082597D01*
X1501960Y1082713D01*
X1502208Y1082874D01*
X1502412Y1083020D01*
X1502558Y1083136D01*
X1502616Y1083195D01*
X1502660Y1083238D01*
X1502675Y1083253D01*
X1502689Y1083267D01*
X1502806Y1083428D01*
X1502908Y1083617D01*
X1503010Y1083821D01*
X1503083Y1084040D01*
X1503199Y1084492D01*
X1503287Y1084944D01*
X1503316Y1085163D01*
X1503331Y1085352D01*
X1503360Y1085542D01*
Y1085702D01*
X1503374Y1085819D01*
Y1085921D01*
Y1085994D01*
Y1086008D01*
X1503360Y1086344D01*
X1503345Y1086650D01*
X1503316Y1086927D01*
X1503272Y1087189D01*
X1503214Y1087423D01*
X1503156Y1087642D01*
X1503097Y1087831D01*
X1503024Y1088006D01*
X1502966Y1088152D01*
X1502908Y1088283D01*
X1502850Y1088385D01*
X1502791Y1088472D01*
X1502748Y1088545D01*
X1502718Y1088589D01*
X1502689Y1088618D01*
Y1088633D01*
X1502558Y1088779D01*
X1502412Y1088910D01*
X1502266Y1089012D01*
X1502106Y1089100D01*
X1501800Y1089245D01*
X1501508Y1089347D01*
X1501260Y1089406D01*
X1501144Y1089420D01*
X1501056Y1089435D01*
X1500969Y1089449D01*
X1500867D01*
X1500575Y1089435D01*
X1500313Y1089377D01*
X1500079Y1089304D01*
X1499875Y1089216D01*
X1499715Y1089129D01*
X1499598Y1089056D01*
X1499525Y1088997D01*
X1499496Y1088983D01*
X1499307Y1088808D01*
X1499132Y1088604D01*
X1499000Y1088400D01*
X1498898Y1088196D01*
X1498825Y1088021D01*
X1498782Y1087889D01*
X1498753Y1087831D01*
Y1087787D01*
X1498738Y1087773D01*
Y1087758D01*
X1496726Y1088239D01*
X1496872Y1088662D01*
X1497032Y1089027D01*
X1497207Y1089347D01*
X1497367Y1089610D01*
X1497528Y1089814D01*
X1497586Y1089901D01*
X1497645Y1089974D01*
X1497688Y1090018D01*
X1497732Y1090062D01*
X1497747Y1090091D01*
X1497761D01*
X1497980Y1090281D01*
X1498228Y1090455D01*
X1498461Y1090601D01*
X1498709Y1090718D01*
X1498971Y1090835D01*
X1499219Y1090922D01*
X1499467Y1090995D01*
X1499700Y1091053D01*
X1499919Y1091097D01*
X1500123Y1091126D01*
X1500298Y1091155D01*
X1500458Y1091170D01*
X1500590Y1091184D01*
X1500765D01*
X1501144Y1091170D01*
D02*
G37*
G36*
X1371863D02*
X1372286Y1091126D01*
X1372650Y1091053D01*
X1372971Y1090980D01*
X1373102Y1090936D01*
X1373233Y1090907D01*
X1373335Y1090878D01*
X1373423Y1090835D01*
X1373496Y1090820D01*
X1373554Y1090791D01*
X1373583Y1090776D01*
X1373598D01*
X1373860Y1090660D01*
X1374108Y1090514D01*
X1374327Y1090353D01*
X1374516Y1090208D01*
X1374677Y1090076D01*
X1374808Y1089960D01*
X1374881Y1089887D01*
X1374895Y1089872D01*
X1374910Y1089858D01*
X1375114Y1089624D01*
X1375304Y1089377D01*
X1375464Y1089158D01*
X1375595Y1088939D01*
X1375697Y1088750D01*
X1375785Y1088604D01*
X1375799Y1088545D01*
X1375829Y1088502D01*
X1375843Y1088487D01*
Y1088472D01*
X1375989Y1088064D01*
X1376106Y1087627D01*
X1376178Y1087189D01*
X1376237Y1086781D01*
X1376251Y1086592D01*
X1376266Y1086417D01*
X1376281Y1086271D01*
Y1086140D01*
X1376295Y1086023D01*
Y1085950D01*
Y1085892D01*
Y1085877D01*
X1376281Y1085440D01*
X1376237Y1085017D01*
X1376178Y1084623D01*
X1376091Y1084259D01*
X1375989Y1083924D01*
X1375872Y1083617D01*
X1375756Y1083326D01*
X1375624Y1083078D01*
X1375508Y1082845D01*
X1375391Y1082655D01*
X1375275Y1082480D01*
X1375173Y1082334D01*
X1375085Y1082232D01*
X1375027Y1082145D01*
X1374983Y1082101D01*
X1374968Y1082086D01*
X1374706Y1081839D01*
X1374429Y1081635D01*
X1374152Y1081445D01*
X1373846Y1081299D01*
X1373554Y1081168D01*
X1373248Y1081051D01*
X1372971Y1080964D01*
X1372679Y1080891D01*
X1372417Y1080833D01*
X1372169Y1080789D01*
X1371950Y1080760D01*
X1371761Y1080745D01*
X1371615Y1080731D01*
X1371498Y1080716D01*
X1371396D01*
X1370988Y1080731D01*
X1370609Y1080774D01*
X1370244Y1080847D01*
X1369909Y1080935D01*
X1369588Y1081037D01*
X1369297Y1081153D01*
X1369034Y1081270D01*
X1368786Y1081401D01*
X1368582Y1081532D01*
X1368393Y1081649D01*
X1368232Y1081766D01*
X1368101Y1081868D01*
X1367984Y1081955D01*
X1367912Y1082028D01*
X1367868Y1082072D01*
X1367853Y1082086D01*
X1367620Y1082364D01*
X1367416Y1082655D01*
X1367226Y1082961D01*
X1367081Y1083267D01*
X1366949Y1083588D01*
X1366833Y1083909D01*
X1366745Y1084230D01*
X1366672Y1084536D01*
X1366629Y1084813D01*
X1366585Y1085090D01*
X1366556Y1085323D01*
X1366527Y1085527D01*
Y1085702D01*
X1366512Y1085833D01*
Y1085907D01*
Y1085936D01*
X1366527Y1086388D01*
X1366570Y1086810D01*
X1366629Y1087204D01*
X1366716Y1087583D01*
X1366818Y1087918D01*
X1366935Y1088239D01*
X1367051Y1088531D01*
X1367183Y1088779D01*
X1367314Y1089012D01*
X1367430Y1089216D01*
X1367547Y1089391D01*
X1367649Y1089537D01*
X1367722Y1089639D01*
X1367795Y1089726D01*
X1367839Y1089770D01*
X1367853Y1089785D01*
X1368116Y1090033D01*
X1368393Y1090251D01*
X1368684Y1090441D01*
X1368976Y1090601D01*
X1369282Y1090732D01*
X1369574Y1090849D01*
X1369865Y1090936D01*
X1370142Y1091009D01*
X1370405Y1091068D01*
X1370653Y1091111D01*
X1370871Y1091141D01*
X1371061Y1091170D01*
X1371207D01*
X1371323Y1091184D01*
X1371425D01*
X1371863Y1091170D01*
D02*
G37*
G36*
X1457360Y1085600D02*
Y1085294D01*
X1457345Y1085003D01*
Y1084725D01*
X1457331Y1084478D01*
X1457316Y1084244D01*
X1457302Y1084040D01*
X1457287Y1083851D01*
X1457258Y1083676D01*
X1457243Y1083530D01*
X1457229Y1083399D01*
X1457214Y1083282D01*
X1457200Y1083195D01*
X1457185Y1083122D01*
Y1083078D01*
X1457170Y1083049D01*
Y1083034D01*
X1457098Y1082815D01*
X1457025Y1082611D01*
X1456923Y1082422D01*
X1456835Y1082261D01*
X1456748Y1082116D01*
X1456675Y1081999D01*
X1456616Y1081941D01*
X1456602Y1081911D01*
X1456427Y1081722D01*
X1456237Y1081547D01*
X1456033Y1081401D01*
X1455844Y1081270D01*
X1455683Y1081168D01*
X1455537Y1081095D01*
X1455450Y1081051D01*
X1455435Y1081037D01*
X1455421D01*
X1455275Y1080978D01*
X1455115Y1080935D01*
X1454750Y1080847D01*
X1454386Y1080789D01*
X1454036Y1080760D01*
X1453875Y1080745D01*
X1453715Y1080731D01*
X1453584D01*
X1453452Y1080716D01*
X1453219D01*
X1452796Y1080731D01*
X1452417Y1080760D01*
X1452082Y1080818D01*
X1451805Y1080876D01*
X1451688Y1080891D01*
X1451572Y1080920D01*
X1451484Y1080949D01*
X1451411Y1080978D01*
X1451353Y1080993D01*
X1451309Y1081008D01*
X1451295Y1081022D01*
X1451280D01*
X1451018Y1081139D01*
X1450784Y1081285D01*
X1450580Y1081416D01*
X1450405Y1081547D01*
X1450274Y1081664D01*
X1450172Y1081751D01*
X1450114Y1081810D01*
X1450099Y1081839D01*
X1449939Y1082043D01*
X1449807Y1082261D01*
X1449706Y1082466D01*
X1449618Y1082670D01*
X1449560Y1082845D01*
X1449516Y1082990D01*
X1449501Y1083034D01*
Y1083078D01*
X1449487Y1083092D01*
Y1083107D01*
X1449458Y1083267D01*
X1449428Y1083442D01*
X1449399Y1083632D01*
X1449385Y1083821D01*
X1449356Y1084259D01*
X1449326Y1084682D01*
Y1084871D01*
Y1085061D01*
X1449312Y1085236D01*
Y1085382D01*
Y1085498D01*
Y1085600D01*
Y1085659D01*
Y1085673D01*
Y1090995D01*
X1451353D01*
Y1085396D01*
Y1085177D01*
Y1084973D01*
X1451368Y1084784D01*
Y1084609D01*
X1451382Y1084463D01*
Y1084317D01*
X1451397Y1084186D01*
Y1084069D01*
X1451426Y1083894D01*
X1451441Y1083763D01*
X1451455Y1083690D01*
Y1083661D01*
X1451499Y1083472D01*
X1451572Y1083311D01*
X1451659Y1083165D01*
X1451747Y1083034D01*
X1451834Y1082932D01*
X1451907Y1082859D01*
X1451965Y1082815D01*
X1451980Y1082801D01*
X1452155Y1082684D01*
X1452374Y1082597D01*
X1452578Y1082539D01*
X1452796Y1082495D01*
X1452986Y1082466D01*
X1453132Y1082451D01*
X1453277D01*
X1453584Y1082466D01*
X1453846Y1082509D01*
X1454079Y1082568D01*
X1454284Y1082640D01*
X1454429Y1082699D01*
X1454546Y1082757D01*
X1454604Y1082801D01*
X1454634Y1082815D01*
X1454794Y1082961D01*
X1454925Y1083136D01*
X1455042Y1083297D01*
X1455115Y1083457D01*
X1455173Y1083603D01*
X1455217Y1083719D01*
X1455246Y1083792D01*
Y1083821D01*
X1455260Y1083909D01*
X1455275Y1083996D01*
Y1084113D01*
X1455290Y1084244D01*
X1455304Y1084521D01*
Y1084813D01*
X1455319Y1085075D01*
Y1085192D01*
Y1085309D01*
Y1085396D01*
Y1085454D01*
Y1085498D01*
Y1085513D01*
Y1090995D01*
X1457360D01*
Y1085600D01*
D02*
G37*
G36*
X1350620Y1091170D02*
X1351086Y1091111D01*
X1351291Y1091068D01*
X1351495Y1091024D01*
X1351684Y1090980D01*
X1351845Y1090936D01*
X1351990Y1090878D01*
X1352136Y1090835D01*
X1352238Y1090791D01*
X1352340Y1090762D01*
X1352413Y1090718D01*
X1352471Y1090703D01*
X1352501Y1090674D01*
X1352515D01*
X1352967Y1090412D01*
X1353157Y1090251D01*
X1353346Y1090106D01*
X1353521Y1089945D01*
X1353682Y1089785D01*
X1353827Y1089624D01*
X1353959Y1089478D01*
X1354061Y1089333D01*
X1354163Y1089202D01*
X1354250Y1089085D01*
X1354323Y1088983D01*
X1354367Y1088895D01*
X1354411Y1088837D01*
X1354425Y1088793D01*
X1354440Y1088779D01*
X1354556Y1088545D01*
X1354658Y1088312D01*
X1354819Y1087831D01*
X1354935Y1087350D01*
X1355008Y1086927D01*
X1355037Y1086723D01*
X1355067Y1086548D01*
X1355081Y1086388D01*
Y1086242D01*
X1355096Y1086140D01*
Y1086052D01*
Y1085994D01*
Y1085979D01*
X1355067Y1085440D01*
X1355008Y1084944D01*
X1354906Y1084492D01*
X1354863Y1084274D01*
X1354804Y1084084D01*
X1354746Y1083909D01*
X1354702Y1083749D01*
X1354644Y1083617D01*
X1354600Y1083501D01*
X1354571Y1083413D01*
X1354542Y1083340D01*
X1354513Y1083297D01*
Y1083282D01*
X1354265Y1082845D01*
X1353988Y1082466D01*
X1353696Y1082130D01*
X1353405Y1081868D01*
X1353273Y1081751D01*
X1353142Y1081649D01*
X1353040Y1081562D01*
X1352938Y1081503D01*
X1352865Y1081445D01*
X1352792Y1081401D01*
X1352763Y1081387D01*
X1352748Y1081372D01*
X1352515Y1081255D01*
X1352297Y1081153D01*
X1351815Y1080993D01*
X1351349Y1080876D01*
X1350926Y1080803D01*
X1350722Y1080774D01*
X1350547Y1080745D01*
X1350387Y1080731D01*
X1350241D01*
X1350139Y1080716D01*
X1349978D01*
X1349512Y1080731D01*
X1349074Y1080789D01*
X1348652Y1080862D01*
X1348287Y1080949D01*
X1348127Y1080993D01*
X1347981Y1081037D01*
X1347850Y1081081D01*
X1347733Y1081110D01*
X1347645Y1081139D01*
X1347587Y1081168D01*
X1347543Y1081182D01*
X1347529D01*
X1347091Y1081357D01*
X1346727Y1081547D01*
X1346406Y1081737D01*
X1346129Y1081897D01*
X1345925Y1082043D01*
X1345852Y1082101D01*
X1345779Y1082159D01*
X1345735Y1082203D01*
X1345692Y1082232D01*
X1345663Y1082261D01*
Y1086315D01*
X1350051D01*
Y1084609D01*
X1347718D01*
Y1083311D01*
X1347893Y1083180D01*
X1348083Y1083063D01*
X1348272Y1082961D01*
X1348447Y1082874D01*
X1348593Y1082801D01*
X1348724Y1082743D01*
X1348797Y1082713D01*
X1348812Y1082699D01*
X1348826D01*
X1349060Y1082611D01*
X1349293Y1082553D01*
X1349512Y1082509D01*
X1349701Y1082480D01*
X1349876Y1082466D01*
X1349993Y1082451D01*
X1350109D01*
X1350343Y1082466D01*
X1350576Y1082495D01*
X1350780Y1082539D01*
X1350984Y1082597D01*
X1351349Y1082743D01*
X1351495Y1082815D01*
X1351640Y1082903D01*
X1351772Y1082990D01*
X1351888Y1083063D01*
X1351976Y1083151D01*
X1352063Y1083209D01*
X1352122Y1083267D01*
X1352165Y1083311D01*
X1352194Y1083340D01*
X1352209Y1083355D01*
X1352340Y1083530D01*
X1352471Y1083734D01*
X1352573Y1083938D01*
X1352661Y1084157D01*
X1352807Y1084609D01*
X1352894Y1085046D01*
X1352923Y1085250D01*
X1352953Y1085454D01*
X1352967Y1085615D01*
X1352982Y1085775D01*
X1352996Y1085892D01*
Y1085994D01*
Y1086052D01*
Y1086067D01*
X1352982Y1086373D01*
X1352967Y1086650D01*
X1352923Y1086927D01*
X1352880Y1087175D01*
X1352821Y1087394D01*
X1352748Y1087598D01*
X1352676Y1087787D01*
X1352603Y1087962D01*
X1352544Y1088108D01*
X1352471Y1088239D01*
X1352398Y1088341D01*
X1352340Y1088429D01*
X1352297Y1088502D01*
X1352253Y1088545D01*
X1352238Y1088575D01*
X1352224Y1088589D01*
X1352063Y1088735D01*
X1351903Y1088881D01*
X1351728Y1088983D01*
X1351553Y1089085D01*
X1351378Y1089172D01*
X1351203Y1089245D01*
X1350868Y1089347D01*
X1350707Y1089377D01*
X1350561Y1089406D01*
X1350430Y1089420D01*
X1350314Y1089435D01*
X1350226Y1089449D01*
X1350095D01*
X1349774Y1089435D01*
X1349497Y1089377D01*
X1349249Y1089318D01*
X1349031Y1089231D01*
X1348870Y1089158D01*
X1348739Y1089085D01*
X1348666Y1089027D01*
X1348637Y1089012D01*
X1348433Y1088837D01*
X1348258Y1088647D01*
X1348112Y1088458D01*
X1348010Y1088268D01*
X1347923Y1088093D01*
X1347864Y1087962D01*
X1347835Y1087875D01*
X1347820Y1087860D01*
Y1087846D01*
X1345794Y1088225D01*
X1345852Y1088472D01*
X1345940Y1088720D01*
X1346027Y1088939D01*
X1346144Y1089143D01*
X1346246Y1089347D01*
X1346362Y1089522D01*
X1346479Y1089683D01*
X1346596Y1089828D01*
X1346712Y1089960D01*
X1346814Y1090076D01*
X1346902Y1090178D01*
X1346989Y1090251D01*
X1347062Y1090310D01*
X1347121Y1090368D01*
X1347150Y1090382D01*
X1347164Y1090397D01*
X1347368Y1090543D01*
X1347587Y1090660D01*
X1347820Y1090762D01*
X1348068Y1090849D01*
X1348549Y1090995D01*
X1349016Y1091082D01*
X1349235Y1091126D01*
X1349439Y1091141D01*
X1349628Y1091155D01*
X1349789Y1091170D01*
X1349920Y1091184D01*
X1350095D01*
X1350620Y1091170D01*
D02*
G37*
G36*
X1229460Y1086592D02*
X1230510D01*
Y1085309D01*
X1229460D01*
Y1080906D01*
X1225655D01*
X1225246Y1080920D01*
X1224896Y1080935D01*
X1224576Y1080964D01*
X1224328Y1081008D01*
X1224124Y1081051D01*
X1223963Y1081081D01*
X1223920Y1081095D01*
X1223876D01*
X1223861Y1081110D01*
X1223847D01*
X1223526Y1081226D01*
X1223234Y1081357D01*
X1223001Y1081489D01*
X1222797Y1081620D01*
X1222637Y1081722D01*
X1222520Y1081810D01*
X1222447Y1081882D01*
X1222418Y1081897D01*
X1222170Y1082159D01*
X1221966Y1082436D01*
X1221791Y1082728D01*
X1221645Y1082990D01*
X1221528Y1083224D01*
X1221485Y1083326D01*
X1221441Y1083413D01*
X1221412Y1083472D01*
X1221397Y1083530D01*
X1221383Y1083559D01*
Y1083574D01*
X1221266Y1083953D01*
X1221179Y1084346D01*
X1221106Y1084725D01*
X1221062Y1085075D01*
X1221047Y1085236D01*
X1221033Y1085367D01*
Y1085498D01*
X1221018Y1085615D01*
Y1085702D01*
Y1085761D01*
Y1085804D01*
Y1085819D01*
X1221033Y1086329D01*
X1221062Y1086781D01*
X1221091Y1087000D01*
X1221120Y1087189D01*
X1221149Y1087379D01*
X1221179Y1087539D01*
X1221208Y1087685D01*
X1221237Y1087816D01*
X1221266Y1087933D01*
X1221295Y1088021D01*
X1221310Y1088093D01*
X1221324Y1088152D01*
X1221339Y1088181D01*
Y1088196D01*
X1221470Y1088545D01*
X1221630Y1088852D01*
X1221791Y1089129D01*
X1221937Y1089377D01*
X1222083Y1089566D01*
X1222199Y1089712D01*
X1222243Y1089756D01*
X1222272Y1089799D01*
X1222287Y1089814D01*
X1222301Y1089828D01*
X1222549Y1090062D01*
X1222797Y1090266D01*
X1223059Y1090441D01*
X1223293Y1090572D01*
X1223497Y1090674D01*
X1223672Y1090732D01*
X1223730Y1090762D01*
X1223774Y1090776D01*
X1223803Y1090791D01*
X1223818D01*
X1223949Y1090820D01*
X1224094Y1090864D01*
X1224401Y1090907D01*
X1224722Y1090951D01*
X1225028Y1090966D01*
X1225319Y1090980D01*
X1225436Y1090995D01*
X1229460D01*
Y1086592D01*
D02*
G37*
G36*
X1516321Y1080906D02*
X1514164D01*
X1513333Y1083195D01*
X1509279D01*
X1508405Y1080906D01*
X1506203D01*
X1510256Y1090995D01*
X1512414D01*
X1516321Y1080906D01*
D02*
G37*
G36*
X1331476D02*
X1329318D01*
X1328487Y1083195D01*
X1324434D01*
X1323559Y1080906D01*
X1321358D01*
X1325411Y1090995D01*
X1327569D01*
X1331476Y1080906D01*
D02*
G37*
G36*
X1395453D02*
X1393412D01*
Y1084711D01*
X1391604D01*
X1391385Y1084725D01*
X1391181D01*
X1390992Y1084740D01*
X1390817Y1084755D01*
X1390656Y1084769D01*
X1390525Y1084784D01*
X1390394D01*
X1390292Y1084798D01*
X1390190Y1084813D01*
X1390117Y1084828D01*
X1390059D01*
X1390015Y1084842D01*
X1389986D01*
X1389782Y1084900D01*
X1389592Y1084973D01*
X1389417Y1085046D01*
X1389257Y1085134D01*
X1389126Y1085207D01*
X1389023Y1085265D01*
X1388965Y1085309D01*
X1388936Y1085323D01*
X1388746Y1085469D01*
X1388586Y1085629D01*
X1388426Y1085804D01*
X1388309Y1085950D01*
X1388207Y1086096D01*
X1388134Y1086213D01*
X1388090Y1086285D01*
X1388076Y1086315D01*
X1387959Y1086563D01*
X1387872Y1086825D01*
X1387813Y1087102D01*
X1387770Y1087350D01*
X1387741Y1087554D01*
Y1087656D01*
X1387726Y1087729D01*
Y1087802D01*
Y1087846D01*
Y1087875D01*
Y1087889D01*
X1387755Y1088312D01*
X1387813Y1088706D01*
X1387915Y1089027D01*
X1388017Y1089318D01*
X1388076Y1089435D01*
X1388134Y1089537D01*
X1388178Y1089624D01*
X1388236Y1089712D01*
X1388265Y1089770D01*
X1388295Y1089814D01*
X1388324Y1089828D01*
Y1089843D01*
X1388557Y1090106D01*
X1388790Y1090324D01*
X1389038Y1090499D01*
X1389257Y1090630D01*
X1389461Y1090718D01*
X1389621Y1090791D01*
X1389680Y1090805D01*
X1389723Y1090820D01*
X1389752Y1090835D01*
X1389767D01*
X1389884Y1090864D01*
X1390030Y1090893D01*
X1390205Y1090907D01*
X1390379Y1090922D01*
X1390788Y1090951D01*
X1391196Y1090980D01*
X1391575D01*
X1391735Y1090995D01*
X1395453D01*
Y1080906D01*
D02*
G37*
G36*
X1320979Y1089289D02*
X1317990D01*
Y1080906D01*
X1315948D01*
Y1089289D01*
X1312974D01*
Y1090995D01*
X1320979D01*
Y1089289D01*
D02*
G37*
G36*
X1299109Y1080906D02*
X1297067D01*
Y1085119D01*
X1296411D01*
X1296207Y1085105D01*
X1296032Y1085090D01*
X1295886Y1085061D01*
X1295770Y1085046D01*
X1295697Y1085017D01*
X1295653Y1085003D01*
X1295639D01*
X1295522Y1084944D01*
X1295405Y1084886D01*
X1295303Y1084813D01*
X1295201Y1084755D01*
X1295128Y1084682D01*
X1295070Y1084623D01*
X1295041Y1084594D01*
X1295026Y1084580D01*
X1294968Y1084507D01*
X1294895Y1084434D01*
X1294735Y1084215D01*
X1294560Y1083982D01*
X1294370Y1083719D01*
X1294210Y1083486D01*
X1294137Y1083370D01*
X1294079Y1083282D01*
X1294020Y1083209D01*
X1293976Y1083151D01*
X1293962Y1083107D01*
X1293947Y1083092D01*
X1292489Y1080906D01*
X1290040D01*
X1291279Y1082874D01*
X1291410Y1083078D01*
X1291542Y1083282D01*
X1291658Y1083457D01*
X1291775Y1083617D01*
X1291877Y1083763D01*
X1291964Y1083909D01*
X1292139Y1084128D01*
X1292271Y1084303D01*
X1292358Y1084419D01*
X1292431Y1084492D01*
X1292446Y1084507D01*
X1292606Y1084682D01*
X1292795Y1084842D01*
X1292970Y1084973D01*
X1293145Y1085105D01*
X1293291Y1085207D01*
X1293408Y1085279D01*
X1293495Y1085338D01*
X1293510Y1085352D01*
X1293524D01*
X1293277Y1085396D01*
X1293058Y1085454D01*
X1292854Y1085513D01*
X1292650Y1085586D01*
X1292475Y1085659D01*
X1292314Y1085732D01*
X1292154Y1085804D01*
X1292023Y1085892D01*
X1291906Y1085965D01*
X1291804Y1086038D01*
X1291717Y1086111D01*
X1291658Y1086169D01*
X1291600Y1086213D01*
X1291556Y1086256D01*
X1291542Y1086271D01*
X1291527Y1086285D01*
X1291410Y1086431D01*
X1291308Y1086577D01*
X1291133Y1086898D01*
X1291017Y1087204D01*
X1290944Y1087510D01*
X1290886Y1087773D01*
X1290871Y1087875D01*
Y1087977D01*
X1290856Y1088050D01*
Y1088123D01*
Y1088152D01*
Y1088166D01*
X1290871Y1088487D01*
X1290929Y1088793D01*
X1291002Y1089056D01*
X1291075Y1089289D01*
X1291162Y1089478D01*
X1291235Y1089624D01*
X1291265Y1089668D01*
X1291294Y1089712D01*
X1291308Y1089726D01*
Y1089741D01*
X1291483Y1089989D01*
X1291673Y1090193D01*
X1291862Y1090353D01*
X1292052Y1090499D01*
X1292227Y1090587D01*
X1292358Y1090660D01*
X1292446Y1090703D01*
X1292460Y1090718D01*
X1292475D01*
X1292620Y1090762D01*
X1292781Y1090805D01*
X1293145Y1090878D01*
X1293539Y1090922D01*
X1293918Y1090966D01*
X1294108D01*
X1294268Y1090980D01*
X1294428D01*
X1294560Y1090995D01*
X1299109D01*
Y1080906D01*
D02*
G37*
G36*
X1308440Y1089289D02*
X1305451D01*
Y1080906D01*
X1303410D01*
Y1089289D01*
X1300435D01*
Y1090995D01*
X1308440D01*
Y1089289D01*
D02*
G37*
G36*
X1470730Y1080906D02*
X1468689D01*
Y1090995D01*
X1470730D01*
Y1080906D01*
D02*
G37*
G36*
X1480834Y1086592D02*
X1481884D01*
Y1085309D01*
X1480834D01*
Y1080906D01*
X1477028D01*
X1476620Y1080920D01*
X1476270Y1080935D01*
X1475949Y1080964D01*
X1475702Y1081008D01*
X1475498Y1081051D01*
X1475337Y1081081D01*
X1475293Y1081095D01*
X1475250D01*
X1475235Y1081110D01*
X1475220D01*
X1474900Y1081226D01*
X1474608Y1081357D01*
X1474375Y1081489D01*
X1474171Y1081620D01*
X1474010Y1081722D01*
X1473894Y1081810D01*
X1473821Y1081882D01*
X1473792Y1081897D01*
X1473544Y1082159D01*
X1473340Y1082436D01*
X1473165Y1082728D01*
X1473019Y1082990D01*
X1472902Y1083224D01*
X1472859Y1083326D01*
X1472815Y1083413D01*
X1472786Y1083472D01*
X1472771Y1083530D01*
X1472756Y1083559D01*
Y1083574D01*
X1472640Y1083953D01*
X1472552Y1084346D01*
X1472479Y1084725D01*
X1472436Y1085075D01*
X1472421Y1085236D01*
X1472406Y1085367D01*
Y1085498D01*
X1472392Y1085615D01*
Y1085702D01*
Y1085761D01*
Y1085804D01*
Y1085819D01*
X1472406Y1086329D01*
X1472436Y1086781D01*
X1472465Y1087000D01*
X1472494Y1087189D01*
X1472523Y1087379D01*
X1472552Y1087539D01*
X1472581Y1087685D01*
X1472611Y1087816D01*
X1472640Y1087933D01*
X1472669Y1088021D01*
X1472684Y1088093D01*
X1472698Y1088152D01*
X1472713Y1088181D01*
Y1088196D01*
X1472844Y1088545D01*
X1473004Y1088852D01*
X1473165Y1089129D01*
X1473310Y1089377D01*
X1473456Y1089566D01*
X1473573Y1089712D01*
X1473617Y1089756D01*
X1473646Y1089799D01*
X1473660Y1089814D01*
X1473675Y1089828D01*
X1473923Y1090062D01*
X1474171Y1090266D01*
X1474433Y1090441D01*
X1474666Y1090572D01*
X1474870Y1090674D01*
X1475045Y1090732D01*
X1475104Y1090762D01*
X1475148Y1090776D01*
X1475177Y1090791D01*
X1475191D01*
X1475323Y1090820D01*
X1475468Y1090864D01*
X1475774Y1090907D01*
X1476095Y1090951D01*
X1476401Y1090966D01*
X1476693Y1090980D01*
X1476810Y1090995D01*
X1480834D01*
Y1086592D01*
D02*
G37*
G36*
X1466735Y1080906D02*
X1459066D01*
Y1082611D01*
X1464694D01*
Y1085352D01*
X1459634D01*
Y1087058D01*
X1464694D01*
Y1089289D01*
X1459255D01*
Y1090995D01*
X1466735D01*
Y1080906D01*
D02*
G37*
G36*
X1418956D02*
X1411287D01*
Y1082611D01*
X1416915D01*
Y1085352D01*
X1411856D01*
Y1087058D01*
X1416915D01*
Y1089289D01*
X1411477D01*
Y1090995D01*
X1418956D01*
Y1080906D01*
D02*
G37*
G36*
X1422951D02*
X1420910D01*
Y1090995D01*
X1422951D01*
Y1080906D01*
D02*
G37*
G36*
X1336754Y1091170D02*
X1337133Y1091126D01*
X1337469Y1091068D01*
X1337760Y1091009D01*
X1337891Y1090966D01*
X1338008Y1090936D01*
X1338096Y1090907D01*
X1338183Y1090878D01*
X1338241Y1090849D01*
X1338285Y1090835D01*
X1338314Y1090820D01*
X1338329D01*
X1338620Y1090674D01*
X1338868Y1090514D01*
X1339087Y1090339D01*
X1339262Y1090178D01*
X1339408Y1090033D01*
X1339495Y1089916D01*
X1339568Y1089828D01*
X1339583Y1089814D01*
Y1089799D01*
X1339729Y1089551D01*
X1339831Y1089289D01*
X1339904Y1089041D01*
X1339947Y1088822D01*
X1339976Y1088633D01*
X1340005Y1088487D01*
Y1088429D01*
Y1088385D01*
Y1088371D01*
Y1088356D01*
X1339991Y1088137D01*
X1339962Y1087918D01*
X1339918Y1087729D01*
X1339860Y1087539D01*
X1339714Y1087189D01*
X1339539Y1086883D01*
X1339466Y1086752D01*
X1339379Y1086650D01*
X1339306Y1086548D01*
X1339233Y1086460D01*
X1339174Y1086402D01*
X1339131Y1086358D01*
X1339102Y1086329D01*
X1339087Y1086315D01*
X1338956Y1086213D01*
X1338795Y1086111D01*
X1338635Y1086008D01*
X1338445Y1085921D01*
X1338081Y1085746D01*
X1337702Y1085600D01*
X1337512Y1085542D01*
X1337352Y1085484D01*
X1337192Y1085440D01*
X1337060Y1085396D01*
X1336958Y1085367D01*
X1336871Y1085338D01*
X1336812Y1085323D01*
X1336798D01*
X1336565Y1085265D01*
X1336360Y1085207D01*
X1336171Y1085163D01*
X1335996Y1085119D01*
X1335850Y1085075D01*
X1335719Y1085046D01*
X1335602Y1085003D01*
X1335500Y1084973D01*
X1335413Y1084959D01*
X1335340Y1084930D01*
X1335238Y1084900D01*
X1335180Y1084871D01*
X1335165D01*
X1334975Y1084798D01*
X1334830Y1084725D01*
X1334698Y1084653D01*
X1334596Y1084580D01*
X1334523Y1084521D01*
X1334480Y1084478D01*
X1334451Y1084449D01*
X1334436Y1084434D01*
X1334363Y1084332D01*
X1334305Y1084230D01*
X1334276Y1084128D01*
X1334246Y1084040D01*
X1334232Y1083953D01*
X1334217Y1083880D01*
Y1083836D01*
Y1083821D01*
X1334232Y1083617D01*
X1334290Y1083442D01*
X1334378Y1083267D01*
X1334465Y1083122D01*
X1334567Y1083005D01*
X1334640Y1082917D01*
X1334698Y1082859D01*
X1334728Y1082845D01*
X1334932Y1082713D01*
X1335165Y1082611D01*
X1335413Y1082539D01*
X1335646Y1082495D01*
X1335865Y1082466D01*
X1336040Y1082436D01*
X1336200D01*
X1336535Y1082451D01*
X1336827Y1082509D01*
X1337075Y1082582D01*
X1337294Y1082670D01*
X1337469Y1082757D01*
X1337585Y1082830D01*
X1337658Y1082888D01*
X1337687Y1082903D01*
X1337877Y1083107D01*
X1338023Y1083326D01*
X1338154Y1083574D01*
X1338241Y1083821D01*
X1338314Y1084040D01*
X1338373Y1084215D01*
X1338387Y1084274D01*
Y1084332D01*
X1338402Y1084361D01*
Y1084375D01*
X1340385Y1084186D01*
X1340341Y1083880D01*
X1340283Y1083588D01*
X1340195Y1083311D01*
X1340122Y1083063D01*
X1340020Y1082830D01*
X1339918Y1082611D01*
X1339816Y1082422D01*
X1339714Y1082247D01*
X1339612Y1082101D01*
X1339510Y1081970D01*
X1339422Y1081853D01*
X1339335Y1081751D01*
X1339277Y1081678D01*
X1339218Y1081635D01*
X1339189Y1081605D01*
X1339174Y1081591D01*
X1338970Y1081430D01*
X1338752Y1081299D01*
X1338518Y1081182D01*
X1338270Y1081081D01*
X1338037Y1081008D01*
X1337789Y1080935D01*
X1337308Y1080833D01*
X1337090Y1080789D01*
X1336885Y1080760D01*
X1336710Y1080745D01*
X1336550Y1080731D01*
X1336419Y1080716D01*
X1336229D01*
X1335763Y1080731D01*
X1335340Y1080774D01*
X1334961Y1080833D01*
X1334801Y1080862D01*
X1334640Y1080906D01*
X1334509Y1080935D01*
X1334392Y1080964D01*
X1334290Y1080993D01*
X1334203Y1081022D01*
X1334130Y1081051D01*
X1334086Y1081066D01*
X1334057Y1081081D01*
X1334042D01*
X1333722Y1081241D01*
X1333459Y1081416D01*
X1333211Y1081591D01*
X1333022Y1081780D01*
X1332876Y1081941D01*
X1332759Y1082086D01*
X1332701Y1082174D01*
X1332672Y1082189D01*
Y1082203D01*
X1332511Y1082495D01*
X1332380Y1082772D01*
X1332293Y1083049D01*
X1332234Y1083311D01*
X1332205Y1083515D01*
X1332191Y1083617D01*
X1332176Y1083690D01*
Y1083749D01*
Y1083792D01*
Y1083821D01*
Y1083836D01*
X1332191Y1084186D01*
X1332234Y1084492D01*
X1332307Y1084769D01*
X1332380Y1085003D01*
X1332453Y1085192D01*
X1332526Y1085323D01*
X1332570Y1085411D01*
X1332584Y1085440D01*
X1332745Y1085673D01*
X1332934Y1085877D01*
X1333124Y1086052D01*
X1333299Y1086198D01*
X1333459Y1086315D01*
X1333590Y1086402D01*
X1333678Y1086460D01*
X1333692Y1086475D01*
X1333707D01*
X1333853Y1086548D01*
X1333999Y1086621D01*
X1334348Y1086752D01*
X1334713Y1086869D01*
X1335063Y1086985D01*
X1335223Y1087029D01*
X1335384Y1087073D01*
X1335530Y1087117D01*
X1335646Y1087146D01*
X1335748Y1087175D01*
X1335821Y1087189D01*
X1335879Y1087204D01*
X1335894D01*
X1336156Y1087277D01*
X1336390Y1087335D01*
X1336608Y1087394D01*
X1336812Y1087452D01*
X1336973Y1087510D01*
X1337133Y1087569D01*
X1337265Y1087627D01*
X1337381Y1087671D01*
X1337483Y1087714D01*
X1337556Y1087758D01*
X1337629Y1087787D01*
X1337673Y1087816D01*
X1337746Y1087860D01*
X1337760Y1087875D01*
X1337862Y1087977D01*
X1337935Y1088079D01*
X1337979Y1088181D01*
X1338008Y1088283D01*
X1338037Y1088356D01*
X1338052Y1088429D01*
Y1088472D01*
Y1088487D01*
X1338037Y1088633D01*
X1338008Y1088750D01*
X1337950Y1088866D01*
X1337891Y1088954D01*
X1337833Y1089027D01*
X1337775Y1089070D01*
X1337746Y1089100D01*
X1337731Y1089114D01*
X1337527Y1089245D01*
X1337308Y1089333D01*
X1337075Y1089406D01*
X1336856Y1089449D01*
X1336667Y1089478D01*
X1336506Y1089493D01*
X1336360D01*
X1336054Y1089478D01*
X1335792Y1089435D01*
X1335573Y1089377D01*
X1335398Y1089318D01*
X1335252Y1089260D01*
X1335150Y1089202D01*
X1335092Y1089158D01*
X1335077Y1089143D01*
X1334932Y1088997D01*
X1334801Y1088822D01*
X1334698Y1088647D01*
X1334626Y1088458D01*
X1334567Y1088298D01*
X1334538Y1088166D01*
X1334509Y1088064D01*
Y1088050D01*
Y1088035D01*
X1332468Y1088108D01*
X1332482Y1088371D01*
X1332526Y1088604D01*
X1332584Y1088837D01*
X1332657Y1089041D01*
X1332730Y1089245D01*
X1332818Y1089435D01*
X1332905Y1089595D01*
X1332992Y1089756D01*
X1333095Y1089887D01*
X1333182Y1090003D01*
X1333270Y1090106D01*
X1333342Y1090193D01*
X1333401Y1090251D01*
X1333444Y1090295D01*
X1333474Y1090324D01*
X1333488Y1090339D01*
X1333678Y1090485D01*
X1333882Y1090616D01*
X1334101Y1090732D01*
X1334334Y1090835D01*
X1334567Y1090907D01*
X1334801Y1090980D01*
X1335267Y1091082D01*
X1335486Y1091111D01*
X1335675Y1091141D01*
X1335865Y1091155D01*
X1336025Y1091170D01*
X1336156Y1091184D01*
X1336331D01*
X1336754Y1091170D01*
D02*
G37*
G36*
X1464912Y1091345D02*
X1463556D01*
X1462813Y1091840D01*
X1462055Y1091345D01*
X1460699D01*
X1462201Y1092234D01*
X1463425D01*
X1464912Y1091345D01*
D02*
G37*
G36*
X1216921Y1091913D02*
X1215565D01*
X1214822Y1092409D01*
X1214063Y1091913D01*
X1212708D01*
X1214209Y1092803D01*
X1215434D01*
X1216921Y1091913D01*
D02*
G37*
G36*
X1417134Y1091345D02*
X1415778D01*
X1415034Y1091840D01*
X1414276Y1091345D01*
X1412920D01*
X1414422Y1092234D01*
X1415647D01*
X1417134Y1091345D01*
D02*
G37*
G36*
X1433055Y1080906D02*
X1431014D01*
Y1085323D01*
X1427034D01*
Y1080906D01*
X1424992D01*
Y1090995D01*
X1427034D01*
Y1087029D01*
X1431014D01*
Y1090995D01*
X1433055D01*
Y1080906D01*
D02*
G37*
G36*
X1494933D02*
X1492891D01*
Y1085323D01*
X1488911D01*
Y1080906D01*
X1486870D01*
Y1090995D01*
X1488911D01*
Y1087029D01*
X1492891D01*
Y1090995D01*
X1494933D01*
Y1080906D01*
D02*
G37*
G36*
X1463192Y1092467D02*
X1461982D01*
X1462798Y1093590D01*
X1464956D01*
X1463192Y1092467D01*
D02*
G37*
G36*
X1415938Y1093648D02*
X1416157D01*
X1416230Y1093634D01*
X1416273D01*
X1416186Y1093182D01*
X1416084D01*
X1415982Y1093196D01*
X1415894Y1093211D01*
X1415865D01*
X1415734Y1093226D01*
X1415661Y1093240D01*
X1415399D01*
X1415224Y1093226D01*
X1415078Y1093211D01*
X1414961Y1093196D01*
X1414874Y1093167D01*
X1414801Y1093153D01*
X1414772Y1093138D01*
X1414757D01*
X1414699Y1093109D01*
X1414641Y1093094D01*
X1414597Y1093051D01*
X1414568Y1093007D01*
Y1092992D01*
X1414582Y1092949D01*
X1414626Y1092919D01*
X1414684Y1092876D01*
X1414743Y1092861D01*
X1414816Y1092832D01*
X1414859Y1092817D01*
X1414903Y1092803D01*
X1414918D01*
X1415034Y1092788D01*
X1415165Y1092774D01*
X1415311D01*
Y1092467D01*
X1414670D01*
Y1092555D01*
X1414466Y1092584D01*
X1414276Y1092628D01*
X1414130Y1092672D01*
X1413984Y1092715D01*
X1413882Y1092759D01*
X1413780Y1092817D01*
X1413707Y1092861D01*
X1413649Y1092919D01*
X1413562Y1093007D01*
X1413518Y1093094D01*
X1413503Y1093153D01*
Y1093167D01*
X1413533Y1093255D01*
X1413591Y1093328D01*
X1413693Y1093386D01*
X1413809Y1093444D01*
X1413955Y1093503D01*
X1414101Y1093532D01*
X1414436Y1093590D01*
X1414772Y1093634D01*
X1414918Y1093648D01*
X1415063D01*
X1415180Y1093663D01*
X1415778D01*
X1415938Y1093648D01*
D02*
G37*
G36*
X1371352Y1091913D02*
X1370142D01*
X1371105Y1093969D01*
X1373263D01*
X1371352Y1091913D01*
D02*
G37*
G36*
X1284951D02*
X1283741D01*
X1284704Y1093969D01*
X1286861D01*
X1284951Y1091913D01*
D02*
G37*
G36*
X1327219D02*
X1326009D01*
X1324099Y1093969D01*
X1326257D01*
X1327219Y1091913D01*
D02*
G37*
G36*
X1386049Y1080906D02*
X1384008D01*
Y1085323D01*
X1380028D01*
Y1080906D01*
X1377986D01*
Y1090995D01*
X1380028D01*
Y1087029D01*
X1384008D01*
Y1090995D01*
X1386049D01*
Y1080906D01*
D02*
G37*
G36*
X1364908D02*
X1363027D01*
Y1087554D01*
X1358930Y1080906D01*
X1356889D01*
Y1090995D01*
X1358770D01*
Y1084201D01*
X1362940Y1090995D01*
X1364908D01*
Y1080906D01*
D02*
G37*
G36*
X1409552D02*
X1407671D01*
Y1087554D01*
X1403574Y1080906D01*
X1401533D01*
Y1090995D01*
X1403414D01*
Y1084201D01*
X1407584Y1090995D01*
X1409552D01*
Y1080906D01*
D02*
G37*
G36*
X1278755D02*
X1276874D01*
Y1087554D01*
X1272777Y1080906D01*
X1270736D01*
Y1090995D01*
X1272617D01*
Y1084201D01*
X1276787Y1090995D01*
X1278755D01*
Y1080906D01*
D02*
G37*
G36*
X1527067D02*
X1525186D01*
Y1088837D01*
X1523203Y1080906D01*
X1521235D01*
X1519252Y1088837D01*
X1519238Y1080906D01*
X1517357D01*
Y1090995D01*
X1520418D01*
X1522212Y1084099D01*
X1524020Y1090995D01*
X1527067D01*
Y1080906D01*
D02*
G37*
G36*
X1208319D02*
X1206438D01*
Y1087554D01*
X1202341Y1080906D01*
X1200300D01*
Y1090995D01*
X1202181D01*
Y1084201D01*
X1206351Y1090995D01*
X1208319D01*
Y1080906D01*
D02*
G37*
G36*
X1443232D02*
X1441191D01*
Y1083953D01*
X1439543Y1085644D01*
X1436758Y1080906D01*
X1434119D01*
X1438129Y1087058D01*
X1434309Y1090995D01*
X1437050D01*
X1441191Y1086504D01*
Y1090995D01*
X1443232D01*
Y1080906D01*
D02*
G37*
G36*
X1215842Y1078135D02*
X1213903D01*
Y1080075D01*
X1215842D01*
Y1078135D01*
D02*
G37*
G36*
X1241999D02*
X1240060D01*
Y1080075D01*
X1241999D01*
Y1078135D01*
D02*
G37*
G36*
X1215274Y1091170D02*
X1215697Y1091126D01*
X1216061Y1091053D01*
X1216382Y1090980D01*
X1216513Y1090936D01*
X1216644Y1090907D01*
X1216746Y1090878D01*
X1216834Y1090835D01*
X1216907Y1090820D01*
X1216965Y1090791D01*
X1216994Y1090776D01*
X1217009D01*
X1217271Y1090660D01*
X1217519Y1090514D01*
X1217738Y1090353D01*
X1217927Y1090208D01*
X1218088Y1090076D01*
X1218219Y1089960D01*
X1218292Y1089887D01*
X1218306Y1089872D01*
X1218321Y1089858D01*
X1218525Y1089624D01*
X1218715Y1089377D01*
X1218875Y1089158D01*
X1219006Y1088939D01*
X1219108Y1088750D01*
X1219196Y1088604D01*
X1219210Y1088545D01*
X1219239Y1088502D01*
X1219254Y1088487D01*
Y1088472D01*
X1219400Y1088064D01*
X1219516Y1087627D01*
X1219589Y1087189D01*
X1219648Y1086781D01*
X1219662Y1086592D01*
X1219677Y1086417D01*
X1219691Y1086271D01*
Y1086140D01*
X1219706Y1086023D01*
Y1085950D01*
Y1085892D01*
Y1085877D01*
X1219691Y1085440D01*
X1219648Y1085017D01*
X1219589Y1084623D01*
X1219502Y1084259D01*
X1219400Y1083924D01*
X1219283Y1083617D01*
X1219166Y1083326D01*
X1219035Y1083078D01*
X1218919Y1082845D01*
X1218802Y1082655D01*
X1218685Y1082480D01*
X1218583Y1082334D01*
X1218496Y1082232D01*
X1218437Y1082145D01*
X1218394Y1082101D01*
X1218379Y1082086D01*
X1218117Y1081839D01*
X1217840Y1081635D01*
X1217563Y1081445D01*
X1217257Y1081299D01*
X1216965Y1081168D01*
X1216659Y1081051D01*
X1216382Y1080964D01*
X1216090Y1080891D01*
X1215828Y1080833D01*
X1215580Y1080789D01*
X1215361Y1080760D01*
X1215172Y1080745D01*
X1215026Y1080731D01*
X1214909Y1080716D01*
X1214807D01*
X1214399Y1080731D01*
X1214020Y1080774D01*
X1213655Y1080847D01*
X1213320Y1080935D01*
X1212999Y1081037D01*
X1212708Y1081153D01*
X1212445Y1081270D01*
X1212197Y1081401D01*
X1211993Y1081532D01*
X1211804Y1081649D01*
X1211643Y1081766D01*
X1211512Y1081868D01*
X1211395Y1081955D01*
X1211322Y1082028D01*
X1211279Y1082072D01*
X1211264Y1082086D01*
X1211031Y1082364D01*
X1210827Y1082655D01*
X1210637Y1082961D01*
X1210491Y1083267D01*
X1210360Y1083588D01*
X1210244Y1083909D01*
X1210156Y1084230D01*
X1210083Y1084536D01*
X1210039Y1084813D01*
X1209996Y1085090D01*
X1209966Y1085323D01*
X1209937Y1085527D01*
Y1085702D01*
X1209923Y1085833D01*
Y1085907D01*
Y1085936D01*
X1209937Y1086388D01*
X1209981Y1086810D01*
X1210039Y1087204D01*
X1210127Y1087583D01*
X1210229Y1087918D01*
X1210346Y1088239D01*
X1210462Y1088531D01*
X1210593Y1088779D01*
X1210725Y1089012D01*
X1210841Y1089216D01*
X1210958Y1089391D01*
X1211060Y1089537D01*
X1211133Y1089639D01*
X1211206Y1089726D01*
X1211250Y1089770D01*
X1211264Y1089785D01*
X1211527Y1090033D01*
X1211804Y1090251D01*
X1212095Y1090441D01*
X1212387Y1090601D01*
X1212693Y1090732D01*
X1212985Y1090849D01*
X1213276Y1090936D01*
X1213553Y1091009D01*
X1213816Y1091068D01*
X1214063Y1091111D01*
X1214282Y1091141D01*
X1214472Y1091170D01*
X1214618D01*
X1214734Y1091184D01*
X1214836D01*
X1215274Y1091170D01*
D02*
G37*
G36*
X1512254Y1078135D02*
X1510314D01*
Y1080075D01*
X1512254D01*
Y1078135D01*
D02*
G37*
%LPC*%
G36*
X1371513Y1089449D02*
X1371396D01*
X1371163Y1089435D01*
X1370944Y1089406D01*
X1370740Y1089377D01*
X1370551Y1089318D01*
X1370215Y1089172D01*
X1370055Y1089100D01*
X1369924Y1089027D01*
X1369792Y1088939D01*
X1369690Y1088866D01*
X1369603Y1088793D01*
X1369516Y1088720D01*
X1369457Y1088662D01*
X1369413Y1088633D01*
X1369399Y1088604D01*
X1369384Y1088589D01*
X1369253Y1088414D01*
X1369122Y1088225D01*
X1369020Y1088035D01*
X1368932Y1087816D01*
X1368801Y1087379D01*
X1368714Y1086956D01*
X1368670Y1086767D01*
X1368655Y1086577D01*
X1368641Y1086417D01*
X1368626Y1086271D01*
X1368612Y1086140D01*
Y1086052D01*
Y1085994D01*
Y1085979D01*
X1368626Y1085659D01*
X1368641Y1085352D01*
X1368684Y1085075D01*
X1368728Y1084828D01*
X1368786Y1084580D01*
X1368859Y1084361D01*
X1368932Y1084171D01*
X1369005Y1083996D01*
X1369078Y1083836D01*
X1369151Y1083705D01*
X1369209Y1083588D01*
X1369282Y1083486D01*
X1369326Y1083413D01*
X1369370Y1083370D01*
X1369384Y1083340D01*
X1369399Y1083326D01*
X1369545Y1083165D01*
X1369705Y1083034D01*
X1369880Y1082917D01*
X1370040Y1082815D01*
X1370215Y1082743D01*
X1370376Y1082670D01*
X1370696Y1082568D01*
X1370973Y1082495D01*
X1371090Y1082480D01*
X1371192Y1082466D01*
X1371280Y1082451D01*
X1371396D01*
X1371615Y1082466D01*
X1371834Y1082495D01*
X1372038Y1082539D01*
X1372227Y1082597D01*
X1372577Y1082728D01*
X1372854Y1082903D01*
X1372985Y1082976D01*
X1373088Y1083063D01*
X1373190Y1083136D01*
X1373263Y1083209D01*
X1373321Y1083253D01*
X1373365Y1083297D01*
X1373394Y1083326D01*
X1373408Y1083340D01*
X1373540Y1083515D01*
X1373671Y1083705D01*
X1373773Y1083909D01*
X1373860Y1084128D01*
X1374006Y1084550D01*
X1374094Y1084973D01*
X1374123Y1085177D01*
X1374152Y1085352D01*
X1374166Y1085527D01*
X1374181Y1085673D01*
X1374196Y1085790D01*
Y1085877D01*
Y1085936D01*
Y1085950D01*
X1374181Y1086271D01*
X1374166Y1086563D01*
X1374123Y1086840D01*
X1374079Y1087102D01*
X1374021Y1087335D01*
X1373962Y1087554D01*
X1373890Y1087743D01*
X1373816Y1087918D01*
X1373744Y1088079D01*
X1373671Y1088210D01*
X1373612Y1088312D01*
X1373554Y1088414D01*
X1373510Y1088487D01*
X1373467Y1088531D01*
X1373452Y1088560D01*
X1373438Y1088575D01*
X1373292Y1088735D01*
X1373131Y1088866D01*
X1372956Y1088983D01*
X1372796Y1089085D01*
X1372621Y1089172D01*
X1372446Y1089231D01*
X1372125Y1089347D01*
X1371834Y1089406D01*
X1371717Y1089420D01*
X1371600Y1089435D01*
X1371513Y1089449D01*
D02*
G37*
G36*
X1227419Y1089289D02*
X1226063D01*
X1225859Y1089274D01*
X1225684D01*
X1225523Y1089260D01*
X1225378D01*
X1225261Y1089245D01*
X1225144Y1089231D01*
X1225057Y1089216D01*
X1224969D01*
X1224853Y1089187D01*
X1224780Y1089172D01*
X1224765D01*
X1224561Y1089114D01*
X1224386Y1089027D01*
X1224226Y1088939D01*
X1224094Y1088852D01*
X1223993Y1088779D01*
X1223905Y1088706D01*
X1223861Y1088662D01*
X1223847Y1088647D01*
X1223715Y1088502D01*
X1223613Y1088327D01*
X1223511Y1088166D01*
X1223438Y1088006D01*
X1223380Y1087860D01*
X1223336Y1087743D01*
X1223322Y1087671D01*
X1223307Y1087656D01*
Y1087642D01*
X1223249Y1087394D01*
X1223191Y1087117D01*
X1223161Y1086825D01*
X1223147Y1086533D01*
X1223132Y1086285D01*
X1223118Y1086169D01*
Y1086081D01*
Y1086008D01*
Y1085936D01*
Y1085907D01*
Y1085892D01*
Y1085600D01*
X1223132Y1085338D01*
X1223161Y1085090D01*
X1223191Y1084857D01*
X1223220Y1084638D01*
X1223249Y1084449D01*
X1223293Y1084274D01*
X1223336Y1084113D01*
X1223380Y1083982D01*
X1223409Y1083865D01*
X1223453Y1083763D01*
X1223482Y1083676D01*
X1223511Y1083617D01*
X1223540Y1083574D01*
X1223555Y1083545D01*
Y1083530D01*
X1223686Y1083340D01*
X1223832Y1083180D01*
X1223978Y1083049D01*
X1224124Y1082947D01*
X1224255Y1082859D01*
X1224357Y1082815D01*
X1224430Y1082786D01*
X1224459Y1082772D01*
X1224649Y1082713D01*
X1224867Y1082684D01*
X1225101Y1082655D01*
X1225348Y1082626D01*
X1225567D01*
X1225742Y1082611D01*
X1227419D01*
Y1085309D01*
X1225261D01*
Y1086592D01*
X1227419D01*
Y1089289D01*
D02*
G37*
G36*
X1511350Y1088647D02*
X1509935Y1084900D01*
X1512720D01*
X1511350Y1088647D01*
D02*
G37*
G36*
X1326504D02*
X1325090Y1084900D01*
X1327875D01*
X1326504Y1088647D01*
D02*
G37*
G36*
X1393412Y1089289D02*
X1391896D01*
X1391750Y1089274D01*
X1391619D01*
X1391488Y1089260D01*
X1391298D01*
X1391152Y1089245D01*
X1391050Y1089231D01*
X1390992Y1089216D01*
X1390977D01*
X1390802Y1089172D01*
X1390642Y1089114D01*
X1390496Y1089041D01*
X1390379Y1088954D01*
X1390292Y1088881D01*
X1390219Y1088822D01*
X1390175Y1088779D01*
X1390161Y1088764D01*
X1390044Y1088618D01*
X1389971Y1088472D01*
X1389913Y1088312D01*
X1389869Y1088166D01*
X1389840Y1088035D01*
X1389825Y1087933D01*
Y1087875D01*
Y1087846D01*
X1389840Y1087685D01*
X1389855Y1087539D01*
X1389898Y1087408D01*
X1389942Y1087292D01*
X1389986Y1087189D01*
X1390015Y1087117D01*
X1390044Y1087073D01*
X1390059Y1087058D01*
X1390146Y1086942D01*
X1390263Y1086840D01*
X1390365Y1086752D01*
X1390467Y1086679D01*
X1390554Y1086635D01*
X1390627Y1086592D01*
X1390686Y1086577D01*
X1390700Y1086563D01*
X1390788Y1086533D01*
X1390890Y1086519D01*
X1391123Y1086475D01*
X1391385Y1086446D01*
X1391648Y1086431D01*
X1391910D01*
X1392012Y1086417D01*
X1393412D01*
Y1089289D01*
D02*
G37*
G36*
X1297067D02*
X1294735D01*
X1294603Y1089274D01*
X1294283D01*
X1294151Y1089260D01*
X1294064D01*
X1294020Y1089245D01*
X1294006D01*
X1293831Y1089202D01*
X1293670Y1089143D01*
X1293539Y1089085D01*
X1293437Y1089012D01*
X1293349Y1088939D01*
X1293277Y1088895D01*
X1293248Y1088852D01*
X1293233Y1088837D01*
X1293145Y1088720D01*
X1293073Y1088575D01*
X1293029Y1088443D01*
X1292985Y1088312D01*
X1292970Y1088196D01*
X1292956Y1088108D01*
Y1088050D01*
Y1088021D01*
X1292970Y1087860D01*
X1292985Y1087714D01*
X1293029Y1087583D01*
X1293058Y1087467D01*
X1293102Y1087379D01*
X1293145Y1087321D01*
X1293160Y1087277D01*
X1293175Y1087262D01*
X1293262Y1087160D01*
X1293349Y1087073D01*
X1293539Y1086942D01*
X1293612Y1086898D01*
X1293685Y1086869D01*
X1293729Y1086840D01*
X1293743D01*
X1293816Y1086825D01*
X1293933Y1086796D01*
X1294049Y1086781D01*
X1294181Y1086767D01*
X1294487Y1086752D01*
X1294793Y1086738D01*
X1295084Y1086723D01*
X1297067D01*
Y1089289D01*
D02*
G37*
G36*
X1478792D02*
X1477437D01*
X1477232Y1089274D01*
X1477057D01*
X1476897Y1089260D01*
X1476751D01*
X1476635Y1089245D01*
X1476518Y1089231D01*
X1476431Y1089216D01*
X1476343D01*
X1476227Y1089187D01*
X1476154Y1089172D01*
X1476139D01*
X1475935Y1089114D01*
X1475760Y1089027D01*
X1475599Y1088939D01*
X1475468Y1088852D01*
X1475366Y1088779D01*
X1475279Y1088706D01*
X1475235Y1088662D01*
X1475220Y1088647D01*
X1475089Y1088502D01*
X1474987Y1088327D01*
X1474885Y1088166D01*
X1474812Y1088006D01*
X1474754Y1087860D01*
X1474710Y1087743D01*
X1474696Y1087671D01*
X1474681Y1087656D01*
Y1087642D01*
X1474623Y1087394D01*
X1474564Y1087117D01*
X1474535Y1086825D01*
X1474521Y1086533D01*
X1474506Y1086285D01*
X1474492Y1086169D01*
Y1086081D01*
Y1086008D01*
Y1085936D01*
Y1085907D01*
Y1085892D01*
Y1085600D01*
X1474506Y1085338D01*
X1474535Y1085090D01*
X1474564Y1084857D01*
X1474594Y1084638D01*
X1474623Y1084449D01*
X1474666Y1084274D01*
X1474710Y1084113D01*
X1474754Y1083982D01*
X1474783Y1083865D01*
X1474827Y1083763D01*
X1474856Y1083676D01*
X1474885Y1083617D01*
X1474914Y1083574D01*
X1474929Y1083545D01*
Y1083530D01*
X1475060Y1083340D01*
X1475206Y1083180D01*
X1475352Y1083049D01*
X1475498Y1082947D01*
X1475629Y1082859D01*
X1475731Y1082815D01*
X1475804Y1082786D01*
X1475833Y1082772D01*
X1476022Y1082713D01*
X1476241Y1082684D01*
X1476474Y1082655D01*
X1476722Y1082626D01*
X1476941D01*
X1477116Y1082611D01*
X1478792D01*
Y1085309D01*
X1476635D01*
Y1086592D01*
X1478792D01*
Y1089289D01*
D02*
G37*
G36*
X1214924Y1089449D02*
X1214807D01*
X1214574Y1089435D01*
X1214355Y1089406D01*
X1214151Y1089377D01*
X1213961Y1089318D01*
X1213626Y1089172D01*
X1213466Y1089100D01*
X1213334Y1089027D01*
X1213203Y1088939D01*
X1213101Y1088866D01*
X1213014Y1088793D01*
X1212926Y1088720D01*
X1212868Y1088662D01*
X1212824Y1088633D01*
X1212810Y1088604D01*
X1212795Y1088589D01*
X1212664Y1088414D01*
X1212533Y1088225D01*
X1212430Y1088035D01*
X1212343Y1087816D01*
X1212212Y1087379D01*
X1212124Y1086956D01*
X1212081Y1086767D01*
X1212066Y1086577D01*
X1212051Y1086417D01*
X1212037Y1086271D01*
X1212022Y1086140D01*
Y1086052D01*
Y1085994D01*
Y1085979D01*
X1212037Y1085659D01*
X1212051Y1085352D01*
X1212095Y1085075D01*
X1212139Y1084828D01*
X1212197Y1084580D01*
X1212270Y1084361D01*
X1212343Y1084171D01*
X1212416Y1083996D01*
X1212489Y1083836D01*
X1212562Y1083705D01*
X1212620Y1083588D01*
X1212693Y1083486D01*
X1212737Y1083413D01*
X1212780Y1083370D01*
X1212795Y1083340D01*
X1212810Y1083326D01*
X1212955Y1083165D01*
X1213116Y1083034D01*
X1213291Y1082917D01*
X1213451Y1082815D01*
X1213626Y1082743D01*
X1213787Y1082670D01*
X1214107Y1082568D01*
X1214384Y1082495D01*
X1214501Y1082480D01*
X1214603Y1082466D01*
X1214690Y1082451D01*
X1214807D01*
X1215026Y1082466D01*
X1215244Y1082495D01*
X1215449Y1082539D01*
X1215638Y1082597D01*
X1215988Y1082728D01*
X1216265Y1082903D01*
X1216396Y1082976D01*
X1216498Y1083063D01*
X1216600Y1083136D01*
X1216673Y1083209D01*
X1216732Y1083253D01*
X1216775Y1083297D01*
X1216805Y1083326D01*
X1216819Y1083340D01*
X1216950Y1083515D01*
X1217082Y1083705D01*
X1217184Y1083909D01*
X1217271Y1084128D01*
X1217417Y1084550D01*
X1217504Y1084973D01*
X1217533Y1085177D01*
X1217563Y1085352D01*
X1217577Y1085527D01*
X1217592Y1085673D01*
X1217606Y1085790D01*
Y1085877D01*
Y1085936D01*
Y1085950D01*
X1217592Y1086271D01*
X1217577Y1086563D01*
X1217533Y1086840D01*
X1217490Y1087102D01*
X1217432Y1087335D01*
X1217373Y1087554D01*
X1217300Y1087743D01*
X1217227Y1087918D01*
X1217154Y1088079D01*
X1217082Y1088210D01*
X1217023Y1088312D01*
X1216965Y1088414D01*
X1216921Y1088487D01*
X1216877Y1088531D01*
X1216863Y1088560D01*
X1216848Y1088575D01*
X1216702Y1088735D01*
X1216542Y1088866D01*
X1216367Y1088983D01*
X1216207Y1089085D01*
X1216032Y1089172D01*
X1215857Y1089231D01*
X1215536Y1089347D01*
X1215244Y1089406D01*
X1215128Y1089420D01*
X1215011Y1089435D01*
X1214924Y1089449D01*
D02*
G37*
%LPD*%
D73*
X1238648Y1162084D02*
X1238948D01*
X1238648Y1161784D02*
X1238948D01*
X1238648Y1161483D02*
X1239248D01*
X1238348Y1161183D02*
X1239248D01*
X1238348Y1160884D02*
X1239248D01*
X1238348Y1160583D02*
X1239248D01*
X1238048Y1160283D02*
X1239548D01*
X1238048Y1159984D02*
X1239548D01*
X1238048Y1159684D02*
X1239548D01*
X1237748Y1159383D02*
X1239848D01*
X1237748Y1159083D02*
X1239848D01*
X1237748Y1158784D02*
X1239848D01*
X1237448Y1158484D02*
X1239848D01*
X1237448Y1158183D02*
X1240148D01*
X1237448Y1157883D02*
X1240148D01*
X1237148Y1157584D02*
X1240148D01*
X1237148Y1157283D02*
X1240148D01*
X1237148Y1156983D02*
X1240148D01*
X1237148Y1156684D02*
X1239848D01*
X1236848Y1156384D02*
X1239848D01*
X1236848Y1156083D02*
X1239848D01*
X1236848Y1155783D02*
X1239548D01*
X1236548Y1155484D02*
X1239548D01*
X1236548Y1155184D02*
X1239548D01*
X1236548Y1154883D02*
X1239248D01*
X1236248Y1154583D02*
X1239248D01*
X1236248Y1154284D02*
X1239248D01*
X1236248Y1153983D02*
X1238948D01*
X1235948Y1153683D02*
X1238948D01*
X1235948Y1153384D02*
X1238948D01*
X1235948Y1153084D02*
X1238948D01*
X1235648Y1152783D02*
X1238648D01*
X1235648Y1152483D02*
X1238648D01*
X1235648Y1152184D02*
X1238648D01*
X1235648Y1151884D02*
X1238348D01*
X1235348Y1151583D02*
X1238348D01*
X1235348Y1151283D02*
X1238348D01*
X1235348Y1150984D02*
X1238048D01*
X1235048Y1150683D02*
X1238048D01*
X1235048Y1150383D02*
X1238048D01*
X1235048Y1150084D02*
X1237748D01*
X1234748Y1149784D02*
X1237748D01*
X1234748Y1149483D02*
X1237748D01*
X1234748Y1149183D02*
X1237448D01*
X1234448Y1148884D02*
X1237448D01*
X1234448Y1148584D02*
X1237448D01*
X1234448Y1148283D02*
X1237148D01*
X1234448Y1147983D02*
X1237148D01*
X1234148Y1147684D02*
X1237148D01*
X1234148Y1147383D02*
X1236848D01*
X1234148Y1147083D02*
X1236848D01*
X1233848Y1146784D02*
X1236848D01*
X1233848Y1146484D02*
X1236548D01*
X1233848Y1146183D02*
X1236548D01*
X1233548Y1145883D02*
X1236548D01*
X1233548Y1145584D02*
X1236548D01*
X1233548Y1145284D02*
X1236248D01*
X1233248Y1144983D02*
X1236248D01*
X1233248Y1144683D02*
X1236248D01*
X1233248Y1144384D02*
X1235948D01*
X1233248Y1144083D02*
X1235948D01*
X1232948Y1143783D02*
X1235948D01*
X1232948Y1143484D02*
X1235648D01*
X1232948Y1143184D02*
X1235648D01*
X1232648Y1142883D02*
X1235648D01*
X1232648Y1142583D02*
X1235348D01*
X1232648Y1142284D02*
X1235348D01*
X1232348Y1141984D02*
X1235348D01*
X1232348Y1141683D02*
X1235048D01*
X1232348Y1141383D02*
X1235048D01*
X1232048Y1141084D02*
X1235048D01*
X1232048Y1140784D02*
X1234748D01*
X1232048Y1140483D02*
X1234748D01*
X1232048Y1140184D02*
X1234748D01*
X1231748Y1139884D02*
X1234448D01*
X1231748Y1139583D02*
X1234448D01*
X1231748Y1139283D02*
X1234448D01*
X1231448Y1138984D02*
X1234448D01*
X1231448Y1138684D02*
X1234148D01*
X1231448Y1138383D02*
X1234148D01*
X1231148Y1138083D02*
X1234148D01*
X1231148Y1137784D02*
X1233848D01*
X1231148Y1137484D02*
X1233848D01*
X1230848Y1137183D02*
X1233848D01*
X1230848Y1136884D02*
X1233548D01*
X1230848Y1136584D02*
X1233548D01*
X1230848Y1136283D02*
X1233548D01*
X1230548Y1135983D02*
X1233248D01*
X1230548Y1135684D02*
X1233248D01*
X1230548Y1135384D02*
X1233248D01*
X1230248Y1135083D02*
X1232948D01*
X1230248Y1134783D02*
X1232948D01*
X1230248Y1134484D02*
X1232948D01*
X1229948Y1134184D02*
X1232648D01*
X1229948Y1133883D02*
X1232648D01*
X1229948Y1133584D02*
X1232648D01*
X1229648Y1133284D02*
X1232348D01*
X1229648Y1132983D02*
X1232348D01*
X1229648Y1132683D02*
X1232348D01*
X1229348Y1132384D02*
X1232048D01*
X1229348Y1132084D02*
X1232048D01*
X1250348Y1131783D02*
X1290548D01*
X1189748D02*
X1232048D01*
X1250348Y1131483D02*
X1290248D01*
X1190048D02*
X1232048D01*
X1250348Y1131184D02*
X1289948D01*
X1190348D02*
X1231748D01*
X1250348Y1130884D02*
X1289648D01*
X1190648D02*
X1231748D01*
X1250348Y1130583D02*
X1289348D01*
X1190948D02*
X1231748D01*
X1250348Y1130284D02*
X1289048D01*
X1191248D02*
X1231448D01*
X1250348Y1129984D02*
X1288748D01*
X1191548D02*
X1231448D01*
X1250348Y1129683D02*
X1288448D01*
X1191848D02*
X1231448D01*
X1261448Y1127283D02*
X1262048D01*
X1244948D02*
X1245248D01*
X1228448D02*
X1228748D01*
X1211648D02*
X1211948D01*
X1195148D02*
X1195448D01*
X1261448Y1126984D02*
X1262048D01*
X1244948D02*
X1245548D01*
X1228148D02*
X1228748D01*
X1211648D02*
X1212248D01*
X1195148D02*
X1195448D01*
X1261448Y1126684D02*
X1262048D01*
X1244648D02*
X1245548D01*
X1228148D02*
X1228748D01*
X1211648D02*
X1212248D01*
X1194848D02*
X1195748D01*
X1261148Y1126383D02*
X1262348D01*
X1244648D02*
X1245548D01*
X1228148D02*
X1229048D01*
X1211348D02*
X1212248D01*
X1194848D02*
X1195748D01*
X1261148Y1126083D02*
X1262348D01*
X1244648D02*
X1245548D01*
X1227848D02*
X1229048D01*
X1211348D02*
X1212548D01*
X1194848D02*
X1195748D01*
X1261148Y1125784D02*
X1262348D01*
X1244348D02*
X1245848D01*
X1227848D02*
X1229048D01*
X1211348D02*
X1212548D01*
X1194548D02*
X1196048D01*
X1261148Y1125484D02*
X1262648D01*
X1244348D02*
X1245848D01*
X1227848D02*
X1229348D01*
X1211048D02*
X1212548D01*
X1194548D02*
X1196048D01*
X1260848Y1125183D02*
X1262648D01*
X1244348D02*
X1245848D01*
X1227548D02*
X1229348D01*
X1211048D02*
X1212848D01*
X1194548D02*
X1196048D01*
X1260848Y1124883D02*
X1262648D01*
X1244348D02*
X1246148D01*
X1227548D02*
X1229348D01*
X1211048D02*
X1212848D01*
X1194248D02*
X1196348D01*
X1260848Y1124584D02*
X1262948D01*
X1244048D02*
X1246148D01*
X1227548D02*
X1229648D01*
X1210748D02*
X1212848D01*
X1194248D02*
X1196348D01*
X1260548Y1124284D02*
X1262948D01*
X1244048D02*
X1246148D01*
X1227248D02*
X1229648D01*
X1210748D02*
X1213148D01*
X1194248D02*
X1196348D01*
X1260548Y1123983D02*
X1262948D01*
X1244048D02*
X1246448D01*
X1227248D02*
X1229648D01*
X1210748D02*
X1213148D01*
X1193948D02*
X1196648D01*
X1260548Y1123683D02*
X1263248D01*
X1243748D02*
X1246448D01*
X1227248D02*
X1229948D01*
X1210448D02*
X1213148D01*
X1193948D02*
X1196648D01*
X1276448Y1123384D02*
X1280648D01*
X1256048D02*
X1267448D01*
X1239548D02*
X1250948D01*
X1222748D02*
X1234148D01*
X1206248D02*
X1217648D01*
X1189748D02*
X1200848D01*
X1274648Y1123083D02*
X1282148D01*
X1256348D02*
X1267148D01*
X1239848D02*
X1250648D01*
X1223048D02*
X1233848D01*
X1206548D02*
X1217348D01*
X1189748D02*
X1200548D01*
X1273448Y1122783D02*
X1283048D01*
X1256648D02*
X1266848D01*
X1240148D02*
X1250048D01*
X1223348D02*
X1233548D01*
X1206848D02*
X1217048D01*
X1190348D02*
X1200248D01*
X1272548Y1122484D02*
X1283648D01*
X1256948D02*
X1266548D01*
X1240448D02*
X1249748D01*
X1223948D02*
X1233248D01*
X1207148D02*
X1216448D01*
X1190648D02*
X1199948D01*
X1271648Y1122184D02*
X1284248D01*
X1257548D02*
X1265948D01*
X1240748D02*
X1249448D01*
X1224248D02*
X1232648D01*
X1207748D02*
X1216148D01*
X1190948D02*
X1199648D01*
X1271048Y1121883D02*
X1284848D01*
X1257848D02*
X1265648D01*
X1241348D02*
X1249148D01*
X1224548D02*
X1232348D01*
X1208048D02*
X1215848D01*
X1191248D02*
X1199048D01*
X1270448Y1121583D02*
X1285448D01*
X1258148D02*
X1265348D01*
X1241648D02*
X1248548D01*
X1224848D02*
X1232048D01*
X1208348D02*
X1215548D01*
X1191848D02*
X1198748D01*
X1269848Y1121284D02*
X1285748D01*
X1258448D02*
X1265048D01*
X1241948D02*
X1248248D01*
X1225448D02*
X1231748D01*
X1208648D02*
X1214948D01*
X1192148D02*
X1198448D01*
X1269848Y1120984D02*
X1286348D01*
X1259048D02*
X1264448D01*
X1242248D02*
X1247948D01*
X1225748D02*
X1231148D01*
X1209248D02*
X1214648D01*
X1192448D02*
X1198148D01*
X1269848Y1120683D02*
X1286648D01*
X1259348D02*
X1264148D01*
X1242848D02*
X1247648D01*
X1226048D02*
X1230848D01*
X1209548D02*
X1214348D01*
X1192748D02*
X1197548D01*
X1269848Y1120383D02*
X1286948D01*
X1259348D02*
X1264148D01*
X1242848D02*
X1247648D01*
X1226048D02*
X1230848D01*
X1209548D02*
X1214348D01*
X1192748D02*
X1197548D01*
X1269848Y1120084D02*
X1287248D01*
X1259348D02*
X1264148D01*
X1242548D02*
X1247648D01*
X1226048D02*
X1230848D01*
X1209548D02*
X1214348D01*
X1192748D02*
X1197848D01*
X1269848Y1119783D02*
X1287548D01*
X1259048D02*
X1264448D01*
X1242548D02*
X1247648D01*
X1226048D02*
X1231148D01*
X1209248D02*
X1214348D01*
X1192748D02*
X1197848D01*
X1269848Y1119483D02*
X1287848D01*
X1259048D02*
X1264448D01*
X1242548D02*
X1247948D01*
X1225748D02*
X1231148D01*
X1209248D02*
X1214648D01*
X1192748D02*
X1197848D01*
X1269848Y1119184D02*
X1288148D01*
X1259048D02*
X1264448D01*
X1242248D02*
X1247948D01*
X1225748D02*
X1231148D01*
X1209248D02*
X1214648D01*
X1192448D02*
X1198148D01*
X1269848Y1118884D02*
X1288448D01*
X1258748D02*
X1264748D01*
X1242248D02*
X1247948D01*
X1225748D02*
X1231448D01*
X1208948D02*
X1214648D01*
X1192448D02*
X1198148D01*
X1279748Y1118583D02*
X1288448D01*
X1269848D02*
X1277948D01*
X1262048D02*
X1264748D01*
X1258748D02*
X1261448D01*
X1245548D02*
X1247948D01*
X1242248D02*
X1244948D01*
X1228748D02*
X1231448D01*
X1225448D02*
X1228148D01*
X1212248D02*
X1214948D01*
X1208948D02*
X1211648D01*
X1195448D02*
X1198148D01*
X1192448D02*
X1194848D01*
X1280348Y1118283D02*
X1288748D01*
X1269848D02*
X1277348D01*
X1262348D02*
X1264748D01*
X1258748D02*
X1261148D01*
X1245848D02*
X1248248D01*
X1241948D02*
X1244348D01*
X1229048D02*
X1231448D01*
X1225448D02*
X1227848D01*
X1212548D02*
X1214948D01*
X1208948D02*
X1211348D01*
X1196048D02*
X1198448D01*
X1192148D02*
X1194548D01*
X1280348Y1117984D02*
X1289048D01*
X1269848D02*
X1277048D01*
X1262948D02*
X1265048D01*
X1258748D02*
X1260548D01*
X1246148D02*
X1248248D01*
X1241948D02*
X1244048D01*
X1229648D02*
X1231748D01*
X1225448D02*
X1227548D01*
X1212848D02*
X1214948D01*
X1208648D02*
X1210748D01*
X1196348D02*
X1198448D01*
X1192148D02*
X1194248D01*
X1280648Y1117684D02*
X1289048D01*
X1269848D02*
X1277048D01*
X1263248D02*
X1265048D01*
X1258448D02*
X1260248D01*
X1246748D02*
X1248248D01*
X1241948D02*
X1243748D01*
X1229948D02*
X1231748D01*
X1225148D02*
X1226948D01*
X1213448D02*
X1215248D01*
X1208648D02*
X1210448D01*
X1196648D02*
X1198448D01*
X1192148D02*
X1193648D01*
X1280648Y1117383D02*
X1289348D01*
X1269848D02*
X1276748D01*
X1263548D02*
X1265048D01*
X1258448D02*
X1259948D01*
X1247048D02*
X1248548D01*
X1241948D02*
X1243148D01*
X1230248D02*
X1231748D01*
X1225148D02*
X1226648D01*
X1213748D02*
X1215248D01*
X1208648D02*
X1210148D01*
X1197248D02*
X1198748D01*
X1191848D02*
X1193348D01*
X1280948Y1117083D02*
X1289648D01*
X1269848D02*
X1276748D01*
X1264148D02*
X1265348D01*
X1258448D02*
X1259348D01*
X1247348D02*
X1248548D01*
X1241648D02*
X1242848D01*
X1230848D02*
X1232048D01*
X1225148D02*
X1226348D01*
X1214048D02*
X1215248D01*
X1208648D02*
X1209548D01*
X1197548D02*
X1198748D01*
X1191848D02*
X1193048D01*
X1280948Y1116784D02*
X1289648D01*
X1269848D02*
X1276748D01*
X1264448D02*
X1265348D01*
X1258148D02*
X1259048D01*
X1247948D02*
X1248548D01*
X1241648D02*
X1242548D01*
X1231148D02*
X1232048D01*
X1224848D02*
X1225748D01*
X1214648D02*
X1215548D01*
X1208348D02*
X1209248D01*
X1197848D02*
X1198748D01*
X1191848D02*
X1192448D01*
X1280948Y1116483D02*
X1289948D01*
X1269848D02*
X1276748D01*
X1264748D02*
X1265348D01*
X1258148D02*
X1258748D01*
X1248248D02*
X1248848D01*
X1241648D02*
X1241948D01*
X1231448D02*
X1232048D01*
X1224848D02*
X1225448D01*
X1214948D02*
X1215548D01*
X1208348D02*
X1208948D01*
X1198448D02*
X1198748D01*
X1191548D02*
X1192148D01*
X1280948Y1116183D02*
X1289948D01*
X1269848D02*
X1276748D01*
X1280948Y1115884D02*
X1289948D01*
X1269848D02*
X1276748D01*
X1280948Y1115584D02*
X1290248D01*
X1269848D02*
X1276748D01*
X1280948Y1115283D02*
X1290248D01*
X1269848D02*
X1276748D01*
X1280948Y1114983D02*
X1290248D01*
X1280948Y1114684D02*
X1290548D01*
X1280948Y1114384D02*
X1290548D01*
X1280948Y1114083D02*
X1290548D01*
X1280948Y1113783D02*
X1290548D01*
X1280948Y1113484D02*
X1290848D01*
X1280948Y1113183D02*
X1290848D01*
X1280948Y1112883D02*
X1290848D01*
X1280948Y1112584D02*
X1290848D01*
X1280948Y1112284D02*
X1290848D01*
X1280948Y1111983D02*
X1290848D01*
X1269848D02*
X1278548D01*
X1261448D02*
X1267748D01*
X1249448D02*
X1257248D01*
X1239848D02*
X1247648D01*
X1236248D02*
X1238348D01*
X1228748D02*
X1231148D01*
X1219148D02*
X1226948D01*
X1210148D02*
X1217948D01*
X1200548D02*
X1208648D01*
X1193348D02*
X1199048D01*
X1280948Y1111683D02*
X1290848D01*
X1269848D02*
X1278548D01*
X1260548D02*
X1267748D01*
X1249448D02*
X1257248D01*
X1239848D02*
X1247648D01*
X1235948D02*
X1238348D01*
X1228748D02*
X1231148D01*
X1219148D02*
X1226948D01*
X1209848D02*
X1217948D01*
X1200548D02*
X1208648D01*
X1192448D02*
X1199048D01*
X1280948Y1111384D02*
X1290848D01*
X1269848D02*
X1278548D01*
X1259948D02*
X1267748D01*
X1249448D02*
X1257248D01*
X1239848D02*
X1247648D01*
X1235648D02*
X1238348D01*
X1228748D02*
X1231148D01*
X1219148D02*
X1226948D01*
X1210148D02*
X1217948D01*
X1200548D02*
X1208648D01*
X1191848D02*
X1199048D01*
X1280948Y1111084D02*
X1290848D01*
X1269848D02*
X1278548D01*
X1259648D02*
X1267748D01*
X1249448D02*
X1257248D01*
X1239848D02*
X1247648D01*
X1235348D02*
X1238348D01*
X1228748D02*
X1231148D01*
X1219148D02*
X1226948D01*
X1209848D02*
X1217948D01*
X1200548D02*
X1208648D01*
X1191248D02*
X1199048D01*
X1280948Y1110783D02*
X1290848D01*
X1269848D02*
X1278548D01*
X1259348D02*
X1267748D01*
X1249448D02*
X1257248D01*
X1239848D02*
X1247648D01*
X1235048D02*
X1238348D01*
X1228748D02*
X1231148D01*
X1219148D02*
X1226948D01*
X1209848D02*
X1217948D01*
X1200548D02*
X1208648D01*
X1190948D02*
X1199048D01*
X1280948Y1110483D02*
X1290848D01*
X1269848D02*
X1278548D01*
X1259048D02*
X1267748D01*
X1249448D02*
X1257248D01*
X1239848D02*
X1247648D01*
X1235048D02*
X1238348D01*
X1228748D02*
X1231148D01*
X1219148D02*
X1226948D01*
X1209848D02*
X1217948D01*
X1200548D02*
X1208648D01*
X1190648D02*
X1199048D01*
X1280948Y1110184D02*
X1290848D01*
X1269848D02*
X1278548D01*
X1259048D02*
X1267748D01*
X1249448D02*
X1257248D01*
X1239848D02*
X1247648D01*
X1234748D02*
X1238348D01*
X1228748D02*
X1231148D01*
X1219148D02*
X1226948D01*
X1210148D02*
X1217948D01*
X1200548D02*
X1208648D01*
X1190348D02*
X1199048D01*
X1280948Y1109883D02*
X1290848D01*
X1269848D02*
X1278548D01*
X1265048D02*
X1267748D01*
X1258748D02*
X1262048D01*
X1249448D02*
X1257248D01*
X1240148D02*
X1247648D01*
X1234448D02*
X1238348D01*
X1228748D02*
X1231148D01*
X1219148D02*
X1226948D01*
X1210148D02*
X1217948D01*
X1200848D02*
X1208648D01*
X1190348D02*
X1199048D01*
X1280948Y1109583D02*
X1290848D01*
X1269848D02*
X1278548D01*
X1265048D02*
X1267748D01*
X1258748D02*
X1261448D01*
X1254848D02*
X1257248D01*
X1245248D02*
X1247648D01*
X1234148D02*
X1238348D01*
X1228748D02*
X1231148D01*
X1224548D02*
X1226948D01*
X1215548D02*
X1217948D01*
X1206248D02*
X1208648D01*
X1196648D02*
X1199048D01*
X1190048D02*
X1193348D01*
X1280948Y1109284D02*
X1290548D01*
X1269848D02*
X1278548D01*
X1265048D02*
X1267748D01*
X1258748D02*
X1261148D01*
X1254848D02*
X1257248D01*
X1245248D02*
X1247648D01*
X1234148D02*
X1238348D01*
X1228748D02*
X1231148D01*
X1224548D02*
X1226948D01*
X1215548D02*
X1217948D01*
X1206248D02*
X1208648D01*
X1196648D02*
X1199048D01*
X1190048D02*
X1192748D01*
X1280948Y1108984D02*
X1290548D01*
X1269848D02*
X1278548D01*
X1265048D02*
X1267748D01*
X1258748D02*
X1261148D01*
X1254848D02*
X1257248D01*
X1245248D02*
X1247648D01*
X1233848D02*
X1238348D01*
X1228748D02*
X1231148D01*
X1224548D02*
X1226948D01*
X1215548D02*
X1217948D01*
X1206248D02*
X1208648D01*
X1196648D02*
X1199048D01*
X1189748D02*
X1192448D01*
X1280948Y1108683D02*
X1290548D01*
X1269848D02*
X1278548D01*
X1265048D02*
X1267748D01*
X1258748D02*
X1261148D01*
X1254848D02*
X1257248D01*
X1245248D02*
X1247648D01*
X1233548D02*
X1238348D01*
X1228748D02*
X1231148D01*
X1224548D02*
X1226948D01*
X1215548D02*
X1217948D01*
X1206248D02*
X1208648D01*
X1196648D02*
X1199048D01*
X1189748D02*
X1192148D01*
X1280948Y1108383D02*
X1290548D01*
X1269848D02*
X1278548D01*
X1265048D02*
X1267748D01*
X1258448D02*
X1261148D01*
X1254848D02*
X1257248D01*
X1245248D02*
X1247648D01*
X1233248D02*
X1238348D01*
X1228748D02*
X1231148D01*
X1224548D02*
X1226948D01*
X1215548D02*
X1217948D01*
X1206248D02*
X1208648D01*
X1196648D02*
X1199048D01*
X1189748D02*
X1192148D01*
X1280948Y1108084D02*
X1290248D01*
X1269848D02*
X1278548D01*
X1265048D02*
X1267748D01*
X1258748D02*
X1261148D01*
X1254848D02*
X1257248D01*
X1245248D02*
X1247648D01*
X1232948D02*
X1238348D01*
X1228748D02*
X1231148D01*
X1224548D02*
X1226948D01*
X1215548D02*
X1217948D01*
X1206248D02*
X1208648D01*
X1196648D02*
X1199048D01*
X1189448D02*
X1191848D01*
X1280948Y1107784D02*
X1290248D01*
X1269848D02*
X1278548D01*
X1265048D02*
X1267748D01*
X1258748D02*
X1261148D01*
X1249448D02*
X1257248D01*
X1239848D02*
X1247648D01*
X1235948D02*
X1238348D01*
X1232948D02*
X1235648D01*
X1228748D02*
X1231148D01*
X1219448D02*
X1226948D01*
X1210448D02*
X1217948D01*
X1200848D02*
X1208648D01*
X1196648D02*
X1199048D01*
X1189448D02*
X1191848D01*
X1280948Y1107483D02*
X1290248D01*
X1269848D02*
X1278548D01*
X1265048D02*
X1267748D01*
X1258748D02*
X1261448D01*
X1249448D02*
X1257248D01*
X1239848D02*
X1247648D01*
X1235948D02*
X1238348D01*
X1232648D02*
X1235348D01*
X1228748D02*
X1231148D01*
X1219448D02*
X1226948D01*
X1210448D02*
X1217948D01*
X1200848D02*
X1208648D01*
X1196648D02*
X1199048D01*
X1189448D02*
X1191848D01*
X1280948Y1107183D02*
X1289948D01*
X1269848D02*
X1278548D01*
X1265048D02*
X1267748D01*
X1258748D02*
X1261748D01*
X1249448D02*
X1257248D01*
X1239848D02*
X1247648D01*
X1235948D02*
X1238348D01*
X1232348D02*
X1235348D01*
X1228748D02*
X1231148D01*
X1219448D02*
X1226948D01*
X1210448D02*
X1217948D01*
X1200848D02*
X1208648D01*
X1196648D02*
X1199048D01*
X1189448D02*
X1191848D01*
X1280948Y1106884D02*
X1289948D01*
X1269848D02*
X1278548D01*
X1258748D02*
X1267748D01*
X1249448D02*
X1257248D01*
X1239848D02*
X1247648D01*
X1235948D02*
X1238348D01*
X1232048D02*
X1235048D01*
X1228748D02*
X1231148D01*
X1219448D02*
X1226948D01*
X1210448D02*
X1217948D01*
X1200848D02*
X1208648D01*
X1196648D02*
X1199048D01*
X1189448D02*
X1191848D01*
X1280948Y1106583D02*
X1289648D01*
X1269848D02*
X1278548D01*
X1259048D02*
X1267748D01*
X1249448D02*
X1257248D01*
X1239848D02*
X1247648D01*
X1235948D02*
X1238348D01*
X1232048D02*
X1234748D01*
X1228748D02*
X1231148D01*
X1219448D02*
X1226948D01*
X1210448D02*
X1217948D01*
X1200848D02*
X1208648D01*
X1196648D02*
X1199048D01*
X1189448D02*
X1191848D01*
X1280948Y1106283D02*
X1289648D01*
X1269848D02*
X1278548D01*
X1259348D02*
X1267748D01*
X1249448D02*
X1257248D01*
X1239848D02*
X1247648D01*
X1235948D02*
X1238348D01*
X1231748D02*
X1234448D01*
X1228748D02*
X1231148D01*
X1219448D02*
X1226948D01*
X1210448D02*
X1217948D01*
X1200848D02*
X1208648D01*
X1196648D02*
X1199048D01*
X1189448D02*
X1191848D01*
X1280948Y1105984D02*
X1289648D01*
X1269848D02*
X1278548D01*
X1259648D02*
X1267748D01*
X1249448D02*
X1257248D01*
X1239848D02*
X1247648D01*
X1235948D02*
X1238348D01*
X1231448D02*
X1234148D01*
X1228748D02*
X1231148D01*
X1219448D02*
X1226948D01*
X1210448D02*
X1217948D01*
X1200848D02*
X1208648D01*
X1196648D02*
X1199048D01*
X1189448D02*
X1191848D01*
X1280948Y1105684D02*
X1289348D01*
X1269848D02*
X1278548D01*
X1259948D02*
X1267748D01*
X1254848D02*
X1257248D01*
X1245248D02*
X1247648D01*
X1235948D02*
X1238348D01*
X1231148D02*
X1234148D01*
X1228748D02*
X1230848D01*
X1224548D02*
X1226948D01*
X1215548D02*
X1217948D01*
X1205948D02*
X1208648D01*
X1196648D02*
X1199048D01*
X1189448D02*
X1191848D01*
X1280948Y1105383D02*
X1289048D01*
X1269848D02*
X1276748D01*
X1260548D02*
X1267748D01*
X1254848D02*
X1257248D01*
X1245248D02*
X1247648D01*
X1235948D02*
X1238348D01*
X1228748D02*
X1233848D01*
X1224548D02*
X1226948D01*
X1215548D02*
X1217948D01*
X1206248D02*
X1208648D01*
X1196648D02*
X1199048D01*
X1189748D02*
X1192148D01*
X1280648Y1105083D02*
X1289048D01*
X1269848D02*
X1277048D01*
X1260848D02*
X1267748D01*
X1254848D02*
X1257248D01*
X1245248D02*
X1247648D01*
X1235948D02*
X1238348D01*
X1228748D02*
X1233548D01*
X1224548D02*
X1226948D01*
X1215548D02*
X1217948D01*
X1206248D02*
X1208648D01*
X1196648D02*
X1199048D01*
X1189748D02*
X1192148D01*
X1280648Y1104784D02*
X1288748D01*
X1269848D02*
X1277048D01*
X1265048D02*
X1267748D01*
X1260548D02*
X1263548D01*
X1254848D02*
X1257248D01*
X1245248D02*
X1247648D01*
X1235948D02*
X1238348D01*
X1228748D02*
X1233248D01*
X1224548D02*
X1226948D01*
X1215548D02*
X1217948D01*
X1206248D02*
X1208648D01*
X1196648D02*
X1199048D01*
X1189748D02*
X1192448D01*
X1280348Y1104484D02*
X1288448D01*
X1269848D02*
X1277348D01*
X1265048D02*
X1267748D01*
X1260548D02*
X1263248D01*
X1254848D02*
X1257248D01*
X1245248D02*
X1247648D01*
X1235948D02*
X1238348D01*
X1228748D02*
X1232948D01*
X1224548D02*
X1226948D01*
X1215548D02*
X1217948D01*
X1206248D02*
X1208648D01*
X1196648D02*
X1199048D01*
X1189748D02*
X1192748D01*
X1280048Y1104183D02*
X1288448D01*
X1269848D02*
X1277648D01*
X1265048D02*
X1267748D01*
X1260248D02*
X1262948D01*
X1254848D02*
X1257248D01*
X1245248D02*
X1247648D01*
X1235948D02*
X1238348D01*
X1228748D02*
X1232948D01*
X1224548D02*
X1226948D01*
X1215548D02*
X1217948D01*
X1206248D02*
X1208648D01*
X1196648D02*
X1199048D01*
X1190048D02*
X1193048D01*
X1279748Y1103883D02*
X1288148D01*
X1269848D02*
X1277948D01*
X1265048D02*
X1267748D01*
X1259948D02*
X1262648D01*
X1254848D02*
X1257248D01*
X1245248D02*
X1247648D01*
X1235948D02*
X1238348D01*
X1228748D02*
X1232648D01*
X1224548D02*
X1226948D01*
X1215548D02*
X1217948D01*
X1206248D02*
X1208648D01*
X1196648D02*
X1199048D01*
X1190048D02*
X1193648D01*
X1269848Y1103584D02*
X1287848D01*
X1265048D02*
X1267748D01*
X1259648D02*
X1262348D01*
X1249448D02*
X1257248D01*
X1239848D02*
X1247648D01*
X1235948D02*
X1238348D01*
X1228748D02*
X1232348D01*
X1224548D02*
X1226948D01*
X1209848D02*
X1217948D01*
X1200248D02*
X1208648D01*
X1190348D02*
X1199048D01*
X1269848Y1103284D02*
X1287548D01*
X1265048D02*
X1267748D01*
X1259348D02*
X1262348D01*
X1249448D02*
X1257248D01*
X1239848D02*
X1247648D01*
X1235948D02*
X1238348D01*
X1228748D02*
X1232048D01*
X1224548D02*
X1226948D01*
X1209848D02*
X1217948D01*
X1200248D02*
X1208648D01*
X1190648D02*
X1199048D01*
X1269848Y1102983D02*
X1287248D01*
X1265048D02*
X1267748D01*
X1259048D02*
X1262048D01*
X1249448D02*
X1257248D01*
X1239848D02*
X1247648D01*
X1235948D02*
X1238348D01*
X1228748D02*
X1232048D01*
X1224548D02*
X1226948D01*
X1209848D02*
X1217948D01*
X1200248D02*
X1208648D01*
X1190948D02*
X1199048D01*
X1269848Y1102684D02*
X1286948D01*
X1265048D02*
X1267748D01*
X1259048D02*
X1261748D01*
X1249448D02*
X1257248D01*
X1239848D02*
X1247648D01*
X1235948D02*
X1238348D01*
X1228748D02*
X1231748D01*
X1224548D02*
X1226948D01*
X1209848D02*
X1217948D01*
X1200248D02*
X1208648D01*
X1191248D02*
X1199048D01*
X1269848Y1102384D02*
X1286648D01*
X1265048D02*
X1267748D01*
X1258748D02*
X1261448D01*
X1249448D02*
X1257248D01*
X1239848D02*
X1247648D01*
X1235948D02*
X1238348D01*
X1228748D02*
X1231448D01*
X1224548D02*
X1226948D01*
X1209848D02*
X1217948D01*
X1200248D02*
X1208648D01*
X1191548D02*
X1199048D01*
X1269848Y1102083D02*
X1286348D01*
X1265048D02*
X1267748D01*
X1258448D02*
X1261448D01*
X1249448D02*
X1257248D01*
X1239848D02*
X1247648D01*
X1235948D02*
X1238348D01*
X1228748D02*
X1231148D01*
X1224548D02*
X1226948D01*
X1209848D02*
X1217948D01*
X1200248D02*
X1208648D01*
X1192148D02*
X1199048D01*
X1269848Y1101783D02*
X1285748D01*
X1265048D02*
X1267748D01*
X1258148D02*
X1261148D01*
X1249448D02*
X1257248D01*
X1239848D02*
X1247648D01*
X1235948D02*
X1238348D01*
X1228748D02*
X1230848D01*
X1224548D02*
X1226948D01*
X1209848D02*
X1217948D01*
X1200248D02*
X1208648D01*
X1192748D02*
X1199048D01*
X1270448Y1101484D02*
X1285448D01*
X1265348D02*
X1267448D01*
X1258148D02*
X1260848D01*
X1249448D02*
X1256948D01*
X1240148D02*
X1247648D01*
X1235948D02*
X1238048D01*
X1228748D02*
X1230548D01*
X1224548D02*
X1226648D01*
X1209848D02*
X1217948D01*
X1200548D02*
X1208348D01*
X1198448D02*
X1199048D01*
X1194248D02*
X1198148D01*
X1271048Y1101184D02*
X1284848D01*
X1271648Y1100883D02*
X1284248D01*
X1272548Y1100583D02*
X1283648D01*
X1273448Y1100284D02*
X1283048D01*
X1274648Y1099984D02*
X1282148D01*
X1276448Y1099683D02*
X1280348D01*
M02*
