G04 Layer_Physical_Order=2*
G04 Layer_Color=16711680*
%FSLAX25Y25*%
%MOIN*%
G70*
G01*
G75*
%ADD11C,0.07874*%
%ADD12C,0.01968*%
%ADD13C,0.03150*%
%ADD14C,0.01181*%
%ADD15C,0.05905*%
%ADD17C,0.03937*%
%ADD20C,0.11811*%
%ADD21R,0.11811X0.11811*%
%ADD22R,0.11811X0.11811*%
%ADD23C,0.05905*%
%ADD24R,0.06500X0.06500*%
%ADD25C,0.06500*%
%ADD26R,0.05905X0.05905*%
%ADD27C,0.05512*%
%ADD28R,0.06299X0.06299*%
%ADD29C,0.06299*%
%ADD30C,0.08000*%
%ADD31R,0.08000X0.08000*%
%ADD32O,0.07874X0.05512*%
%ADD33O,0.07000X0.06000*%
%ADD34R,0.07000X0.06000*%
%ADD35R,0.10000X0.10000*%
%ADD36C,0.10000*%
%ADD37C,0.09842*%
%ADD38C,0.08268*%
%ADD39R,0.08268X0.08268*%
%ADD40R,0.08268X0.08268*%
%ADD41C,0.19685*%
%ADD42C,0.02362*%
G36*
X1371941Y876063D02*
X1372979Y875266D01*
X1373441Y875075D01*
X1373341Y874575D01*
X1370516D01*
Y864700D01*
X1370516Y864638D01*
X1370365Y864200D01*
X1352685Y864200D01*
X1352685Y874311D01*
X1352576Y875133D01*
X1352259Y875899D01*
X1351779Y876525D01*
X1351818Y876746D01*
X1351913Y877025D01*
X1371202D01*
X1371941Y876063D01*
D02*
G37*
G36*
X1568691Y873228D02*
X1568778Y856890D01*
X1529823Y856890D01*
X1529823Y845965D01*
X1494685D01*
Y860335D01*
X1519980D01*
Y873228D01*
X1568691Y873228D01*
D02*
G37*
G36*
X1568898Y839764D02*
X1549409D01*
Y822342D01*
X1438583D01*
Y836909D01*
X1535236Y836909D01*
X1535236Y852854D01*
X1568800Y852854D01*
X1568898Y839764D01*
D02*
G37*
G36*
X1265055Y1177662D02*
X1264317Y1176924D01*
X1263906Y1176389D01*
X1263649Y1175766D01*
X1263561Y1175098D01*
Y1147138D01*
X1263261Y1146937D01*
X1263061Y1146876D01*
X1262303Y1146976D01*
X1227165D01*
X1226343Y1146868D01*
X1225577Y1146550D01*
X1224919Y1146045D01*
X1224414Y1145388D01*
X1224097Y1144621D01*
X1223989Y1143799D01*
X1223989Y940551D01*
X1224097Y939729D01*
X1224414Y938963D01*
X1224919Y938305D01*
X1225577Y937800D01*
X1226343Y937483D01*
X1227165Y937374D01*
X1282059Y937374D01*
Y918791D01*
X1281611Y918570D01*
X1281511Y918646D01*
X1280649Y919003D01*
X1279724Y919125D01*
X1251870D01*
X1250945Y919003D01*
X1250083Y918646D01*
X1249343Y918078D01*
X1245863Y914598D01*
X1245768Y914611D01*
X1244432Y914435D01*
X1243187Y913920D01*
X1242117Y913099D01*
X1241297Y912030D01*
X1240781Y910785D01*
X1240606Y909449D01*
X1240781Y908113D01*
X1241297Y906868D01*
X1242117Y905799D01*
X1243187Y904978D01*
X1244432Y904463D01*
X1245768Y904287D01*
X1247104Y904463D01*
X1248349Y904978D01*
X1249418Y905799D01*
X1250238Y906868D01*
X1250754Y908113D01*
X1250930Y909449D01*
X1250917Y909544D01*
X1253350Y911977D01*
X1276151D01*
Y857185D01*
X1276272Y856260D01*
X1276629Y855398D01*
X1276694Y855314D01*
X1276473Y854865D01*
X1239314D01*
Y897452D01*
X1240107Y898417D01*
X1240746Y899614D01*
X1241140Y900913D01*
X1241273Y902264D01*
X1241140Y903614D01*
X1240746Y904913D01*
X1240107Y906110D01*
X1239314Y907076D01*
Y924367D01*
X1252251D01*
X1252306Y924344D01*
X1253642Y924168D01*
X1254978Y924344D01*
X1256223Y924860D01*
X1257292Y925680D01*
X1258112Y926750D01*
X1258628Y927995D01*
X1258804Y929331D01*
X1258628Y930667D01*
X1258112Y931912D01*
X1257292Y932981D01*
X1256223Y933801D01*
X1254978Y934317D01*
X1253642Y934493D01*
X1252306Y934317D01*
X1252251Y934294D01*
X1234350D01*
X1233066Y934125D01*
X1231868Y933629D01*
X1230840Y932841D01*
X1230052Y931813D01*
X1229556Y930615D01*
X1229387Y929331D01*
Y907076D01*
X1228594Y906110D01*
X1227954Y904913D01*
X1227560Y903614D01*
X1227427Y902264D01*
X1227560Y900913D01*
X1227954Y899614D01*
X1228594Y898417D01*
X1229387Y897452D01*
Y849902D01*
X1229556Y848617D01*
X1230052Y847420D01*
X1230840Y846392D01*
X1231868Y845603D01*
X1233066Y845107D01*
X1234350Y844938D01*
X1235866D01*
X1236220Y844587D01*
Y843448D01*
X1195810D01*
Y897452D01*
X1196603Y898417D01*
X1197243Y899614D01*
X1197637Y900913D01*
X1197770Y902264D01*
X1197637Y903614D01*
X1197243Y904913D01*
X1196603Y906110D01*
X1195742Y907159D01*
X1194693Y908020D01*
X1193496Y908660D01*
X1192197Y909054D01*
X1190847Y909187D01*
X1189496Y909054D01*
X1188197Y908660D01*
X1187000Y908020D01*
X1185951Y907159D01*
X1185090Y906110D01*
X1184581Y905157D01*
X1184081Y905282D01*
Y1178124D01*
X1264864D01*
X1265055Y1177662D01*
D02*
G37*
G36*
X1303234Y1172709D02*
X1303154Y1172017D01*
X1302511Y1171524D01*
X1301691Y1170455D01*
X1301175Y1169210D01*
X1300999Y1167874D01*
X1301175Y1166538D01*
X1301691Y1165293D01*
X1302511Y1164224D01*
X1303580Y1163403D01*
X1304825Y1162888D01*
X1306161Y1162712D01*
X1307498Y1162888D01*
X1308743Y1163403D01*
X1309812Y1164224D01*
X1310632Y1165293D01*
X1310891Y1165918D01*
X1311432D01*
X1311691Y1165293D01*
X1312511Y1164224D01*
X1313580Y1163403D01*
X1314205Y1163145D01*
Y1162603D01*
X1313580Y1162345D01*
X1312511Y1161524D01*
X1311691Y1160455D01*
X1311175Y1159210D01*
X1310999Y1157874D01*
X1311175Y1156538D01*
X1311691Y1155293D01*
X1312511Y1154224D01*
X1313580Y1153403D01*
X1314825Y1152888D01*
X1316161Y1152712D01*
X1317498Y1152888D01*
X1318742Y1153403D01*
X1319812Y1154224D01*
X1320632Y1155293D01*
X1320891Y1155918D01*
X1321432D01*
X1321691Y1155293D01*
X1322511Y1154224D01*
X1323580Y1153403D01*
X1324825Y1152888D01*
X1326161Y1152712D01*
X1327497Y1152888D01*
X1328743Y1153403D01*
X1329812Y1154224D01*
X1330632Y1155293D01*
X1330891Y1155918D01*
X1331432D01*
X1331691Y1155293D01*
X1332511Y1154224D01*
X1333580Y1153403D01*
X1334825Y1152888D01*
X1336161Y1152712D01*
X1337498Y1152888D01*
X1338743Y1153403D01*
X1339812Y1154224D01*
X1340632Y1155293D01*
X1340891Y1155918D01*
X1341432D01*
X1341691Y1155293D01*
X1342511Y1154224D01*
X1343580Y1153403D01*
X1344825Y1152888D01*
X1346161Y1152712D01*
X1347497Y1152888D01*
X1348742Y1153403D01*
X1349812Y1154224D01*
X1350632Y1155293D01*
X1350891Y1155918D01*
X1351432D01*
X1351691Y1155293D01*
X1352511Y1154224D01*
X1353580Y1153403D01*
X1354825Y1152888D01*
X1356161Y1152712D01*
X1357498Y1152888D01*
X1358743Y1153403D01*
X1359812Y1154224D01*
X1360632Y1155293D01*
X1360891Y1155918D01*
X1361432D01*
X1361691Y1155293D01*
X1362511Y1154224D01*
X1363580Y1153403D01*
X1364825Y1152888D01*
X1366161Y1152712D01*
X1367498Y1152888D01*
X1368742Y1153403D01*
X1369812Y1154224D01*
X1370632Y1155293D01*
X1371148Y1156538D01*
X1371324Y1157874D01*
X1371148Y1159210D01*
X1370632Y1160455D01*
X1369812Y1161524D01*
X1368742Y1162345D01*
X1368118Y1162603D01*
Y1163145D01*
X1368742Y1163403D01*
X1369812Y1164224D01*
X1370632Y1165293D01*
X1370891Y1165918D01*
X1371432D01*
X1371691Y1165293D01*
X1372511Y1164224D01*
X1373580Y1163403D01*
X1374825Y1162888D01*
X1376161Y1162712D01*
X1377497Y1162888D01*
X1378743Y1163403D01*
X1379812Y1164224D01*
X1380632Y1165293D01*
X1380891Y1165918D01*
X1381432D01*
X1381691Y1165293D01*
X1382511Y1164224D01*
X1383580Y1163403D01*
X1384205Y1163145D01*
Y1162603D01*
X1383580Y1162345D01*
X1382511Y1161524D01*
X1381691Y1160455D01*
X1381175Y1159210D01*
X1380999Y1157874D01*
X1381175Y1156538D01*
X1381691Y1155293D01*
X1382511Y1154224D01*
X1383580Y1153403D01*
X1383883Y1153278D01*
X1383784Y1152778D01*
X1381791D01*
X1381123Y1152690D01*
X1380501Y1152432D01*
X1379966Y1152022D01*
X1376687Y1148743D01*
X1376277Y1148208D01*
X1376019Y1147586D01*
X1375931Y1146918D01*
Y1143598D01*
X1375761Y1143376D01*
X1375444Y1142610D01*
X1375335Y1141788D01*
X1375444Y1140966D01*
X1375761Y1140200D01*
X1376266Y1139542D01*
X1376924Y1139037D01*
X1377690Y1138719D01*
X1378512Y1138611D01*
X1378771Y1138645D01*
X1379044Y1138180D01*
X1378786Y1137558D01*
X1378698Y1136890D01*
Y1133073D01*
X1377629Y1132253D01*
X1376809Y1131184D01*
X1376550Y1130559D01*
X1376009D01*
X1375750Y1131184D01*
X1374930Y1132253D01*
X1373861Y1133073D01*
X1372616Y1133589D01*
X1371280Y1133765D01*
X1369943Y1133589D01*
X1368698Y1133073D01*
X1367629Y1132253D01*
X1366809Y1131184D01*
X1366550Y1130559D01*
X1366009D01*
X1365750Y1131184D01*
X1364930Y1132253D01*
X1363861Y1133073D01*
X1362616Y1133589D01*
X1361279Y1133765D01*
X1359943Y1133589D01*
X1358698Y1133073D01*
X1357629Y1132253D01*
X1356809Y1131184D01*
X1356550Y1130559D01*
X1356009D01*
X1355750Y1131184D01*
X1354930Y1132253D01*
X1353861Y1133073D01*
X1352616Y1133589D01*
X1351280Y1133765D01*
X1349943Y1133589D01*
X1348698Y1133073D01*
X1347629Y1132253D01*
X1346809Y1131184D01*
X1346550Y1130559D01*
X1346009D01*
X1345750Y1131184D01*
X1344930Y1132253D01*
X1343861Y1133073D01*
X1342616Y1133589D01*
X1341280Y1133765D01*
X1339943Y1133589D01*
X1338698Y1133073D01*
X1337629Y1132253D01*
X1336809Y1131184D01*
X1336293Y1129939D01*
X1336117Y1128602D01*
X1336293Y1127266D01*
X1336809Y1126021D01*
X1337629Y1124952D01*
X1338301Y1124436D01*
Y1072768D01*
X1337629Y1072253D01*
X1336809Y1071183D01*
X1336550Y1070559D01*
X1336009D01*
X1335750Y1071183D01*
X1334930Y1072253D01*
X1333861Y1073073D01*
X1332616Y1073589D01*
X1331279Y1073765D01*
X1329943Y1073589D01*
X1328698Y1073073D01*
X1327629Y1072253D01*
X1326809Y1071183D01*
X1326550Y1070559D01*
X1326009D01*
X1325750Y1071183D01*
X1324930Y1072253D01*
X1323861Y1073073D01*
X1322616Y1073589D01*
X1321280Y1073765D01*
X1319943Y1073589D01*
X1318698Y1073073D01*
X1317629Y1072253D01*
X1316809Y1071183D01*
X1273215D01*
X1271380Y1073018D01*
Y1171470D01*
X1272723Y1172813D01*
X1279452D01*
X1279636Y1172313D01*
X1278532Y1171370D01*
X1277325Y1169956D01*
X1276353Y1168371D01*
X1275642Y1166653D01*
X1275208Y1164845D01*
X1275062Y1162992D01*
X1275208Y1161139D01*
X1275642Y1159331D01*
X1276353Y1157613D01*
X1277325Y1156028D01*
X1278532Y1154615D01*
X1279946Y1153407D01*
X1281531Y1152436D01*
X1283248Y1151724D01*
X1285056Y1151290D01*
X1286909Y1151145D01*
X1288763Y1151290D01*
X1290571Y1151724D01*
X1292288Y1152436D01*
X1293873Y1153407D01*
X1295287Y1154615D01*
X1296494Y1156028D01*
X1297466Y1157613D01*
X1298177Y1159331D01*
X1298611Y1161139D01*
X1298757Y1162992D01*
X1298611Y1164845D01*
X1298177Y1166653D01*
X1297466Y1168371D01*
X1296494Y1169956D01*
X1295287Y1171370D01*
X1294183Y1172313D01*
X1294367Y1172813D01*
X1303151D01*
X1303234Y1172709D01*
D02*
G37*
G36*
X1568691Y899213D02*
Y877067D01*
X1513878Y877067D01*
X1513878Y865256D01*
X1494488D01*
Y888091D01*
X1554528D01*
X1554527Y899213D01*
X1568691Y899213D01*
D02*
G37*
G36*
X1443234Y1172709D02*
X1443154Y1172017D01*
X1442511Y1171524D01*
X1441691Y1170455D01*
X1441175Y1169210D01*
X1440999Y1167874D01*
X1441175Y1166538D01*
X1441691Y1165293D01*
X1442511Y1164224D01*
X1443580Y1163403D01*
X1444205Y1163145D01*
Y1162603D01*
X1443580Y1162345D01*
X1442511Y1161524D01*
X1441691Y1160455D01*
X1441432Y1159830D01*
X1440891D01*
X1440632Y1160455D01*
X1439812Y1161524D01*
X1438743Y1162345D01*
X1437498Y1162860D01*
X1436161Y1163036D01*
X1434825Y1162860D01*
X1433580Y1162345D01*
X1432511Y1161524D01*
X1431691Y1160455D01*
X1431432Y1159830D01*
X1430891D01*
X1430632Y1160455D01*
X1429812Y1161524D01*
X1428743Y1162345D01*
X1428118Y1162603D01*
Y1163145D01*
X1428743Y1163403D01*
X1429812Y1164224D01*
X1430632Y1165293D01*
X1431148Y1166538D01*
X1431324Y1167874D01*
X1431148Y1169210D01*
X1430632Y1170455D01*
X1429812Y1171524D01*
X1429169Y1172017D01*
X1429088Y1172709D01*
X1429172Y1172813D01*
X1443151D01*
X1443234Y1172709D01*
D02*
G37*
G36*
X1461691Y1165293D02*
X1462511Y1164224D01*
X1463580Y1163403D01*
X1464205Y1163145D01*
Y1162603D01*
X1463580Y1162345D01*
X1462511Y1161524D01*
X1461691Y1160455D01*
X1461175Y1159210D01*
X1460999Y1157874D01*
X1461175Y1156538D01*
X1461691Y1155293D01*
X1462511Y1154224D01*
X1463580Y1153403D01*
X1464825Y1152888D01*
X1466161Y1152712D01*
X1467498Y1152888D01*
X1468742Y1153403D01*
X1469812Y1154224D01*
X1470632Y1155293D01*
X1470891Y1155918D01*
X1471432D01*
X1471691Y1155293D01*
X1472511Y1154224D01*
X1473580Y1153403D01*
X1474825Y1152888D01*
X1476161Y1152712D01*
X1477497Y1152888D01*
X1478743Y1153403D01*
X1479812Y1154224D01*
X1480632Y1155293D01*
X1480891Y1155918D01*
X1481432D01*
X1481691Y1155293D01*
X1482511Y1154224D01*
X1483580Y1153403D01*
X1484825Y1152888D01*
X1486161Y1152712D01*
X1487498Y1152888D01*
X1488743Y1153403D01*
X1489812Y1154224D01*
X1490543Y1155177D01*
X1491043Y1155043D01*
Y1152756D01*
X1499482D01*
Y1152264D01*
X1499584Y1151493D01*
X1499881Y1150775D01*
X1500355Y1150158D01*
X1503603Y1146910D01*
X1504220Y1146437D01*
X1504938Y1146139D01*
X1505239Y1146099D01*
X1505554Y1145554D01*
X1505338Y1145033D01*
X1505176Y1143799D01*
X1505338Y1142566D01*
X1505814Y1141417D01*
X1506571Y1140430D01*
X1507558Y1139672D01*
X1508708Y1139196D01*
X1509941Y1139034D01*
X1511174Y1139196D01*
X1512323Y1139672D01*
X1513310Y1140430D01*
X1514068Y1141417D01*
X1514544Y1142566D01*
X1514706Y1143799D01*
X1514544Y1145033D01*
X1514300Y1145622D01*
X1514577Y1146037D01*
X1534790D01*
X1537433Y1143395D01*
X1537241Y1142933D01*
X1531004D01*
Y1133090D01*
X1540847D01*
Y1139328D01*
X1541309Y1139519D01*
X1554488Y1126339D01*
X1554489Y1126339D01*
X1555105Y1125866D01*
X1555824Y1125568D01*
X1556594Y1125467D01*
X1560354D01*
X1560762Y1124935D01*
X1561790Y1124146D01*
X1562863Y1123702D01*
X1562862Y1123188D01*
X1561790Y1122744D01*
X1560762Y1121955D01*
X1560049Y1121026D01*
X1547284D01*
X1546616Y1120938D01*
X1545993Y1120681D01*
X1545459Y1120270D01*
X1541482Y1116294D01*
X1541072Y1115759D01*
X1540814Y1115137D01*
X1540726Y1114468D01*
Y1097624D01*
X1538695Y1095593D01*
X1500282D01*
X1498152Y1097723D01*
Y1137598D01*
X1498064Y1138266D01*
X1497806Y1138889D01*
X1497396Y1139424D01*
X1492179Y1144640D01*
X1491645Y1145050D01*
X1491022Y1145308D01*
X1490354Y1145396D01*
X1387205D01*
X1386537Y1145308D01*
X1385914Y1145050D01*
X1385380Y1144640D01*
X1382143Y1141403D01*
X1381669Y1141637D01*
X1381689Y1141788D01*
X1381581Y1142610D01*
X1381263Y1143376D01*
X1381093Y1143598D01*
Y1145848D01*
X1382860Y1147616D01*
X1433563D01*
X1434231Y1147704D01*
X1434853Y1147962D01*
X1435388Y1148372D01*
X1437986Y1150970D01*
X1438397Y1151505D01*
X1438655Y1152127D01*
X1438743Y1152795D01*
Y1153403D01*
X1439812Y1154224D01*
X1440632Y1155293D01*
X1440891Y1155918D01*
X1441432D01*
X1441691Y1155293D01*
X1442511Y1154224D01*
X1443580Y1153403D01*
X1444825Y1152888D01*
X1446161Y1152712D01*
X1447497Y1152888D01*
X1448742Y1153403D01*
X1449812Y1154224D01*
X1450632Y1155293D01*
X1451148Y1156538D01*
X1451324Y1157874D01*
X1451148Y1159210D01*
X1450632Y1160455D01*
X1449812Y1161524D01*
X1448742Y1162345D01*
X1448118Y1162603D01*
Y1163145D01*
X1448742Y1163403D01*
X1449812Y1164224D01*
X1450632Y1165293D01*
X1450891Y1165918D01*
X1451432D01*
X1451691Y1165293D01*
X1452511Y1164224D01*
X1453580Y1163403D01*
X1454825Y1162888D01*
X1456161Y1162712D01*
X1457498Y1162888D01*
X1458743Y1163403D01*
X1459812Y1164224D01*
X1460632Y1165293D01*
X1460891Y1165918D01*
X1461432D01*
X1461691Y1165293D01*
D02*
G37*
G36*
X1283957Y844783D02*
Y832917D01*
X1256974D01*
X1256941Y833416D01*
X1257443Y833482D01*
X1258691Y834000D01*
X1259764Y834823D01*
X1260587Y835895D01*
X1261104Y837144D01*
X1261215Y837984D01*
X1250990D01*
X1251101Y837144D01*
X1251618Y835895D01*
X1252441Y834823D01*
X1253513Y834000D01*
X1254762Y833482D01*
X1255264Y833416D01*
X1255231Y832917D01*
X1248425D01*
Y844587D01*
X1248780Y844938D01*
X1283521D01*
X1283957Y844783D01*
D02*
G37*
G36*
X1343234Y1172709D02*
X1343154Y1172017D01*
X1342511Y1171524D01*
X1341691Y1170455D01*
X1341175Y1169210D01*
X1340999Y1167874D01*
X1341175Y1166538D01*
X1341691Y1165293D01*
X1342511Y1164224D01*
X1343580Y1163403D01*
X1344205Y1163145D01*
Y1162603D01*
X1343580Y1162345D01*
X1342511Y1161524D01*
X1341691Y1160455D01*
X1341432Y1159830D01*
X1340891D01*
X1340632Y1160455D01*
X1339812Y1161524D01*
X1338743Y1162345D01*
X1337498Y1162860D01*
X1336161Y1163036D01*
X1334825Y1162860D01*
X1333580Y1162345D01*
X1332511Y1161524D01*
X1331691Y1160455D01*
X1331432Y1159830D01*
X1330891D01*
X1330632Y1160455D01*
X1329812Y1161524D01*
X1328743Y1162345D01*
X1328118Y1162603D01*
Y1163145D01*
X1328743Y1163403D01*
X1329812Y1164224D01*
X1330632Y1165293D01*
X1331148Y1166538D01*
X1331324Y1167874D01*
X1331148Y1169210D01*
X1330632Y1170455D01*
X1329812Y1171524D01*
X1329169Y1172017D01*
X1329088Y1172709D01*
X1329172Y1172813D01*
X1343151D01*
X1343234Y1172709D01*
D02*
G37*
G36*
X1363234D02*
X1363154Y1172017D01*
X1362511Y1171524D01*
X1361691Y1170455D01*
X1361175Y1169210D01*
X1360999Y1167874D01*
X1361175Y1166538D01*
X1361691Y1165293D01*
X1362511Y1164224D01*
X1363580Y1163403D01*
X1364205Y1163145D01*
Y1162603D01*
X1363580Y1162345D01*
X1362511Y1161524D01*
X1361691Y1160455D01*
X1361432Y1159830D01*
X1360891D01*
X1360632Y1160455D01*
X1359812Y1161524D01*
X1358743Y1162345D01*
X1357498Y1162860D01*
X1356161Y1163036D01*
X1354825Y1162860D01*
X1353580Y1162345D01*
X1352511Y1161524D01*
X1351691Y1160455D01*
X1351432Y1159830D01*
X1350891D01*
X1350632Y1160455D01*
X1349812Y1161524D01*
X1348742Y1162345D01*
X1348118Y1162603D01*
Y1163145D01*
X1348742Y1163403D01*
X1349812Y1164224D01*
X1350632Y1165293D01*
X1351148Y1166538D01*
X1351324Y1167874D01*
X1351148Y1169210D01*
X1350632Y1170455D01*
X1349812Y1171524D01*
X1349169Y1172017D01*
X1349088Y1172709D01*
X1349172Y1172813D01*
X1363151D01*
X1363234Y1172709D01*
D02*
G37*
G36*
X1413234D02*
X1413154Y1172017D01*
X1412511Y1171524D01*
X1411691Y1170455D01*
X1411175Y1169210D01*
X1410999Y1167874D01*
X1411175Y1166538D01*
X1411691Y1165293D01*
X1412511Y1164224D01*
X1413580Y1163403D01*
X1414205Y1163145D01*
Y1162603D01*
X1413580Y1162345D01*
X1412511Y1161524D01*
X1411691Y1160455D01*
X1411432Y1159830D01*
X1410891D01*
X1410632Y1160455D01*
X1409812Y1161524D01*
X1408743Y1162345D01*
X1407498Y1162860D01*
X1406161Y1163036D01*
X1404825Y1162860D01*
X1403580Y1162345D01*
X1402511Y1161524D01*
X1401691Y1160455D01*
X1401432Y1159830D01*
X1400891D01*
X1400632Y1160455D01*
X1399812Y1161524D01*
X1398742Y1162345D01*
X1398118Y1162603D01*
Y1163145D01*
X1398742Y1163403D01*
X1399812Y1164224D01*
X1400632Y1165293D01*
X1401148Y1166538D01*
X1401324Y1167874D01*
X1401148Y1169210D01*
X1400632Y1170455D01*
X1399812Y1171524D01*
X1399169Y1172017D01*
X1399088Y1172709D01*
X1399172Y1172813D01*
X1413151D01*
X1413234Y1172709D01*
D02*
G37*
G36*
X1416809Y1126021D02*
X1417629Y1124952D01*
X1418698Y1124132D01*
Y1094468D01*
X1418786Y1093800D01*
X1419044Y1093178D01*
X1419454Y1092643D01*
X1427756Y1084342D01*
X1427564Y1083880D01*
X1423116D01*
X1413861Y1093136D01*
Y1124132D01*
X1414930Y1124952D01*
X1415750Y1126021D01*
X1416009Y1126646D01*
X1416550D01*
X1416809Y1126021D01*
D02*
G37*
G36*
X1426809D02*
X1427629Y1124952D01*
X1428698Y1124132D01*
Y1097953D01*
X1428786Y1097285D01*
X1429044Y1096662D01*
X1429454Y1096128D01*
X1438287Y1087295D01*
X1438096Y1086833D01*
X1432565D01*
X1423861Y1095538D01*
Y1124132D01*
X1424930Y1124952D01*
X1425750Y1126021D01*
X1426009Y1126646D01*
X1426550D01*
X1426809Y1126021D01*
D02*
G37*
G36*
X1560762Y1114935D02*
X1561790Y1114147D01*
X1562863Y1113702D01*
X1562863Y1113701D01*
Y1113189D01*
X1562863Y1113189D01*
X1561790Y1112744D01*
X1560762Y1111955D01*
X1560049Y1111026D01*
X1549685D01*
X1549017Y1110938D01*
X1548395Y1110680D01*
X1547860Y1110270D01*
X1546350Y1108760D01*
X1545888Y1108952D01*
Y1113399D01*
X1548353Y1115864D01*
X1560049D01*
X1560762Y1114935D01*
D02*
G37*
G36*
X1270321Y1066777D02*
X1270855Y1066367D01*
X1271478Y1066109D01*
X1272146Y1066021D01*
X1316809D01*
X1317629Y1064952D01*
X1318477Y1064302D01*
X1318307Y1063802D01*
X1270557D01*
X1268723Y1065636D01*
Y1067722D01*
X1269185Y1067913D01*
X1270321Y1066777D01*
D02*
G37*
G36*
X1568560Y1004626D02*
Y989862D01*
X1510039Y989862D01*
Y977362D01*
X1494390D01*
Y1004626D01*
X1568560Y1004626D01*
D02*
G37*
G36*
X1406809Y1126021D02*
X1407629Y1124952D01*
X1408698Y1124132D01*
Y1092067D01*
X1408786Y1091399D01*
X1409044Y1090776D01*
X1409454Y1090242D01*
X1418799Y1080897D01*
X1418607Y1080435D01*
X1413471D01*
X1403861Y1090046D01*
Y1124132D01*
X1404930Y1124952D01*
X1405750Y1126021D01*
X1406009Y1126646D01*
X1406550D01*
X1406809Y1126021D01*
D02*
G37*
G36*
X1568560Y938681D02*
X1568560Y923130D01*
X1534350D01*
X1534350Y911319D01*
X1493898Y911319D01*
Y926575D01*
X1525197D01*
Y938681D01*
X1568560Y938681D01*
D02*
G37*
G36*
X1392027Y1139772D02*
X1389454Y1137199D01*
X1389044Y1136665D01*
X1388786Y1136042D01*
X1388698Y1135374D01*
Y1133073D01*
X1387629Y1132253D01*
X1386809Y1131184D01*
X1386550Y1130559D01*
X1386009D01*
X1385750Y1131184D01*
X1384930Y1132253D01*
X1383861Y1133073D01*
Y1135821D01*
X1388274Y1140234D01*
X1391836D01*
X1392027Y1139772D01*
D02*
G37*
G36*
X1568560Y918898D02*
X1568652Y905020D01*
X1550197Y905020D01*
Y891831D01*
X1487894D01*
Y888287D01*
X1438878Y888287D01*
Y907185D01*
X1538976Y907185D01*
Y918898D01*
X1568560Y918898D01*
D02*
G37*
G36*
X1568560Y970472D02*
X1534941D01*
Y954528D01*
X1438780D01*
Y968701D01*
X1522047D01*
Y984646D01*
X1568560D01*
Y970472D01*
D02*
G37*
G36*
X1488954Y1135053D02*
Y1095768D01*
X1489042Y1095100D01*
X1489300Y1094477D01*
X1489710Y1093943D01*
X1493503Y1090149D01*
X1493312Y1089687D01*
X1443195D01*
X1433861Y1099022D01*
Y1124132D01*
X1434930Y1124952D01*
X1435750Y1126021D01*
X1436009Y1126646D01*
X1436550D01*
X1436809Y1126021D01*
X1437629Y1124952D01*
X1438698Y1124132D01*
X1439943Y1123616D01*
X1441280Y1123440D01*
X1442616Y1123616D01*
X1443861Y1124132D01*
X1444930Y1124952D01*
X1445750Y1126021D01*
X1446009Y1126646D01*
X1446550D01*
X1446809Y1126021D01*
X1447629Y1124952D01*
X1448698Y1124132D01*
X1449943Y1123616D01*
X1451280Y1123440D01*
X1452616Y1123616D01*
X1453861Y1124132D01*
X1454930Y1124952D01*
X1455661Y1125906D01*
X1456161Y1125771D01*
Y1123484D01*
X1466398D01*
Y1133720D01*
X1456161D01*
Y1131433D01*
X1455661Y1131299D01*
X1454930Y1132253D01*
X1453861Y1133073D01*
X1452616Y1133589D01*
X1451280Y1133765D01*
X1449943Y1133589D01*
X1448698Y1133073D01*
X1447629Y1132253D01*
X1446809Y1131184D01*
X1446550Y1130559D01*
X1446009D01*
X1445750Y1131184D01*
X1444930Y1132253D01*
X1443861Y1133073D01*
X1442616Y1133589D01*
X1441280Y1133765D01*
X1439943Y1133589D01*
X1438698Y1133073D01*
X1437629Y1132253D01*
X1436809Y1131184D01*
X1436550Y1130559D01*
X1436009D01*
X1435750Y1131184D01*
X1434930Y1132253D01*
X1433861Y1133073D01*
X1432616Y1133589D01*
X1431279Y1133765D01*
X1429943Y1133589D01*
X1428698Y1133073D01*
X1427629Y1132253D01*
X1426809Y1131184D01*
X1426550Y1130559D01*
X1426009D01*
X1425750Y1131184D01*
X1424930Y1132253D01*
X1423861Y1133073D01*
X1422616Y1133589D01*
X1421280Y1133765D01*
X1419943Y1133589D01*
X1418698Y1133073D01*
X1417629Y1132253D01*
X1416809Y1131184D01*
X1416550Y1130559D01*
X1416009D01*
X1415750Y1131184D01*
X1414930Y1132253D01*
X1413861Y1133073D01*
X1412616Y1133589D01*
X1411279Y1133765D01*
X1409943Y1133589D01*
X1408698Y1133073D01*
X1407629Y1132253D01*
X1406809Y1131184D01*
X1406550Y1130559D01*
X1406009D01*
X1405750Y1131184D01*
X1404930Y1132253D01*
X1403861Y1133073D01*
X1402616Y1133589D01*
X1401280Y1133765D01*
X1399943Y1133589D01*
X1398698Y1133073D01*
X1397629Y1132253D01*
X1396809Y1131184D01*
X1396550Y1130559D01*
X1396009D01*
X1395750Y1131184D01*
X1394930Y1132253D01*
X1393861Y1133073D01*
Y1134305D01*
X1397329Y1137773D01*
X1486234D01*
X1488954Y1135053D01*
D02*
G37*
G36*
X1568560Y965256D02*
X1568560Y941437D01*
X1519783Y941437D01*
X1519783Y930413D01*
X1494488D01*
Y950295D01*
X1542618D01*
Y965256D01*
X1568560Y965256D01*
D02*
G37*
G36*
X1568898Y833465D02*
X1568898Y798917D01*
X1494193Y798917D01*
Y813287D01*
X1554331D01*
Y833465D01*
X1568898Y833465D01*
D02*
G37*
G36*
X1262303Y1051575D02*
X1271949Y1051575D01*
X1271949Y954429D01*
X1299902Y954429D01*
X1299902Y874311D01*
X1349508Y874311D01*
X1349508Y861024D01*
X1372539Y861024D01*
X1372539Y828937D01*
X1361122Y828937D01*
X1361122Y844882D01*
X1316437Y844882D01*
X1316437Y862500D01*
X1285236D01*
Y940551D01*
X1227165Y940551D01*
X1227165Y1143799D01*
X1262303D01*
Y1051575D01*
D02*
G37*
G36*
X1570053Y1176836D02*
X1569605Y1176615D01*
X1569565Y1176645D01*
X1568531Y1177074D01*
X1567921Y1177154D01*
Y1172933D01*
Y1168712D01*
X1568531Y1168793D01*
X1569565Y1169221D01*
X1569605Y1169252D01*
X1570053Y1169030D01*
Y1160316D01*
X1569553Y1159982D01*
X1568784Y1160301D01*
X1567421Y1160480D01*
X1566059Y1160301D01*
X1564789Y1159775D01*
X1563699Y1158938D01*
X1562863Y1157848D01*
X1562337Y1156579D01*
X1562158Y1155217D01*
X1562337Y1153854D01*
X1562863Y1152585D01*
X1563699Y1151495D01*
X1564789Y1150658D01*
X1566059Y1150132D01*
X1567421Y1149953D01*
X1568784Y1150132D01*
X1569553Y1150451D01*
X1570053Y1150117D01*
Y1007866D01*
X1569637Y1007589D01*
X1569382Y1007695D01*
X1568560Y1007803D01*
X1494390Y1007803D01*
X1493567Y1007695D01*
X1492801Y1007377D01*
X1492143Y1006872D01*
X1491639Y1006214D01*
X1491321Y1005448D01*
X1491213Y1004626D01*
Y977362D01*
X1491321Y976540D01*
X1491639Y975774D01*
X1492143Y975116D01*
X1492801Y974611D01*
X1493567Y974294D01*
X1494390Y974185D01*
X1510039D01*
X1510862Y974294D01*
X1511628Y974611D01*
X1512286Y975116D01*
X1512791Y975774D01*
X1513108Y976540D01*
X1513216Y977362D01*
Y986685D01*
X1519077D01*
X1519142Y986554D01*
X1519276Y986185D01*
X1518979Y985468D01*
X1518870Y984646D01*
Y971878D01*
X1438780D01*
X1437957Y971769D01*
X1437191Y971452D01*
X1436533Y970947D01*
X1436028Y970289D01*
X1435711Y969523D01*
X1435603Y968701D01*
Y954528D01*
X1435711Y953705D01*
X1436028Y952939D01*
X1436533Y952281D01*
X1437191Y951776D01*
X1437957Y951459D01*
X1438780Y951351D01*
X1491021D01*
X1491385Y950851D01*
X1491311Y950295D01*
Y930413D01*
X1491420Y929591D01*
X1491718Y928872D01*
X1491651Y928821D01*
X1491146Y928163D01*
X1490829Y927397D01*
X1490721Y926575D01*
Y911319D01*
X1490781Y910862D01*
X1490374Y910362D01*
X1439002Y910362D01*
Y912598D01*
X1439002Y912598D01*
X1438900Y913369D01*
X1438603Y914088D01*
X1438130Y914704D01*
X1438130Y914704D01*
X1432342Y920492D01*
Y926059D01*
X1435332D01*
Y937996D01*
X1423395D01*
Y926059D01*
X1426385D01*
Y919259D01*
X1426487Y918488D01*
X1426784Y917770D01*
X1427258Y917153D01*
X1433045Y911365D01*
Y902316D01*
X1432545Y902094D01*
X1431658Y902568D01*
X1430534Y902910D01*
X1429363Y903025D01*
X1428193Y902910D01*
X1427068Y902568D01*
X1426031Y902014D01*
X1425123Y901268D01*
X1424377Y900360D01*
X1423823Y899323D01*
X1423481Y898198D01*
X1423366Y897027D01*
X1423481Y895858D01*
X1423823Y894732D01*
X1424377Y893696D01*
X1425123Y892787D01*
X1426031Y892041D01*
X1427068Y891487D01*
X1428193Y891145D01*
X1429363Y891030D01*
X1430534Y891145D01*
X1431658Y891487D01*
X1432545Y891961D01*
X1433045Y891739D01*
Y858169D01*
X1433147Y857399D01*
X1433444Y856680D01*
X1433918Y856063D01*
X1438839Y851142D01*
X1439456Y850669D01*
X1440174Y850371D01*
X1440945Y850270D01*
X1446317D01*
X1446332Y850220D01*
X1447063Y848852D01*
X1448047Y847653D01*
X1449246Y846669D01*
X1450614Y845938D01*
X1452098Y845488D01*
X1453642Y845336D01*
X1455185Y845488D01*
X1456670Y845938D01*
X1458037Y846669D01*
X1459236Y847653D01*
X1460220Y848852D01*
X1460952Y850220D01*
X1461402Y851704D01*
X1461554Y853248D01*
X1461402Y854792D01*
X1460952Y856276D01*
X1460220Y857644D01*
X1459236Y858843D01*
X1458037Y859827D01*
X1456670Y860558D01*
X1455185Y861008D01*
X1453642Y861160D01*
X1452098Y861008D01*
X1450614Y860558D01*
X1449246Y859827D01*
X1448047Y858843D01*
X1447063Y857644D01*
X1446332Y856276D01*
X1446317Y856226D01*
X1442179D01*
X1439002Y859403D01*
Y885111D01*
X1487894Y885111D01*
X1488716Y885219D01*
X1489482Y885536D01*
X1490140Y886041D01*
X1490645Y886699D01*
X1490811Y887101D01*
X1491311Y887002D01*
Y865256D01*
X1491420Y864434D01*
X1491737Y863667D01*
X1492242Y863010D01*
X1492248Y863004D01*
X1492268Y862359D01*
X1491934Y861923D01*
X1491617Y861157D01*
X1491508Y860335D01*
Y845965D01*
X1491617Y845142D01*
X1491934Y844376D01*
X1492439Y843718D01*
X1493097Y843213D01*
X1493863Y842896D01*
X1494685Y842788D01*
X1529823D01*
X1530645Y842896D01*
X1531411Y843213D01*
X1531611Y843367D01*
X1532059Y843145D01*
Y840086D01*
X1438583Y840086D01*
X1437761Y839978D01*
X1436994Y839661D01*
X1436336Y839156D01*
X1435832Y838498D01*
X1435514Y837732D01*
X1435406Y836909D01*
Y822342D01*
X1435514Y821520D01*
X1435832Y820754D01*
X1436336Y820096D01*
X1436994Y819591D01*
X1437761Y819274D01*
X1438583Y819166D01*
X1549409D01*
X1550232Y819274D01*
X1550654Y819449D01*
X1551154Y819115D01*
Y816464D01*
X1494193D01*
X1493371Y816356D01*
X1492605Y816039D01*
X1491947Y815534D01*
X1491442Y814876D01*
X1491124Y814110D01*
X1491016Y813287D01*
Y798917D01*
X1491124Y798095D01*
X1491442Y797329D01*
X1491947Y796671D01*
X1492605Y796166D01*
X1493371Y795849D01*
X1494193Y795741D01*
X1568898Y795741D01*
X1569553Y795827D01*
X1570053Y795508D01*
Y794317D01*
X1317083D01*
Y803216D01*
X1306146D01*
Y794317D01*
X1279004D01*
X1278727Y794733D01*
X1278909Y795172D01*
X1279078Y796457D01*
Y805227D01*
X1279871Y806193D01*
X1280510Y807390D01*
X1280904Y808689D01*
X1281037Y810039D01*
X1280904Y811390D01*
X1280510Y812689D01*
X1279871Y813886D01*
X1279010Y814935D01*
X1277960Y815796D01*
X1276764Y816436D01*
X1275465Y816829D01*
X1274114Y816963D01*
X1272764Y816829D01*
X1271465Y816436D01*
X1270268Y815796D01*
X1269219Y814935D01*
X1268358Y813886D01*
X1267718Y812689D01*
X1267324Y811390D01*
X1267191Y810039D01*
X1267324Y808689D01*
X1267718Y807390D01*
X1268358Y806193D01*
X1269150Y805227D01*
Y801420D01*
X1203881D01*
Y804035D01*
X1206791D01*
Y819783D01*
X1191043D01*
Y804035D01*
X1193954D01*
Y796457D01*
X1194123Y795172D01*
X1194305Y794733D01*
X1194027Y794317D01*
X1184081D01*
Y899245D01*
X1184581Y899371D01*
X1185090Y898417D01*
X1185883Y897452D01*
Y838484D01*
X1186052Y837199D01*
X1186548Y836002D01*
X1187337Y834974D01*
X1188365Y834186D01*
X1189562Y833690D01*
X1190847Y833521D01*
X1236220D01*
Y832382D01*
X1237359D01*
Y827953D01*
X1237528Y826668D01*
X1238024Y825471D01*
X1238160Y825294D01*
X1237939Y824846D01*
X1218602D01*
X1217318Y824677D01*
X1216121Y824181D01*
X1215092Y823392D01*
X1214304Y822364D01*
X1213808Y821167D01*
X1213639Y819882D01*
Y818022D01*
X1213008Y817504D01*
X1212024Y816305D01*
X1211292Y814937D01*
X1210842Y813453D01*
X1210690Y811909D01*
X1210842Y810366D01*
X1211292Y808882D01*
X1212024Y807514D01*
X1213008Y806315D01*
X1214207Y805331D01*
X1215575Y804600D01*
X1217059Y804149D01*
X1218602Y803997D01*
X1220146Y804149D01*
X1221630Y804600D01*
X1222998Y805331D01*
X1224197Y806315D01*
X1225181Y807514D01*
X1225912Y808882D01*
X1226363Y810366D01*
X1226515Y811909D01*
X1226363Y813453D01*
X1226040Y814517D01*
X1226338Y814918D01*
X1239668D01*
X1239837Y814447D01*
X1239592Y814247D01*
X1238852Y813345D01*
X1238302Y812316D01*
X1237964Y811200D01*
X1237899Y810539D01*
X1243799D01*
X1249700D01*
X1249635Y811200D01*
X1249296Y812316D01*
X1248746Y813345D01*
X1248006Y814247D01*
X1247762Y814447D01*
X1247930Y814918D01*
X1253401D01*
X1253637Y814418D01*
X1253200Y813886D01*
X1252561Y812689D01*
X1252167Y811390D01*
X1252034Y810039D01*
X1252167Y808689D01*
X1252561Y807390D01*
X1253200Y806193D01*
X1254061Y805144D01*
X1255110Y804283D01*
X1256307Y803643D01*
X1257606Y803249D01*
X1258957Y803116D01*
X1260307Y803249D01*
X1261606Y803643D01*
X1262803Y804283D01*
X1263852Y805144D01*
X1264713Y806193D01*
X1265353Y807390D01*
X1265747Y808689D01*
X1265880Y810039D01*
X1265747Y811390D01*
X1265353Y812689D01*
X1264713Y813886D01*
X1263920Y814851D01*
Y819882D01*
X1263751Y821167D01*
X1263255Y822364D01*
X1263120Y822541D01*
X1263341Y822989D01*
X1284308D01*
Y814851D01*
X1283515Y813886D01*
X1282876Y812689D01*
X1282482Y811390D01*
X1282349Y810039D01*
X1282482Y808689D01*
X1282876Y807390D01*
X1283515Y806193D01*
X1284376Y805144D01*
X1285425Y804283D01*
X1286622Y803643D01*
X1287921Y803249D01*
X1289272Y803116D01*
X1290622Y803249D01*
X1291921Y803643D01*
X1293118Y804283D01*
X1294167Y805144D01*
X1295028Y806193D01*
X1295668Y807390D01*
X1296062Y808689D01*
X1296195Y810039D01*
X1296062Y811390D01*
X1295668Y812689D01*
X1295028Y813886D01*
X1294235Y814851D01*
Y827953D01*
X1294066Y829237D01*
X1293570Y830435D01*
X1292782Y831463D01*
X1291979Y832079D01*
X1292148Y832579D01*
X1296161D01*
Y844783D01*
X1295023D01*
Y849902D01*
X1294854Y851186D01*
X1294358Y852383D01*
X1293799Y853111D01*
X1294046Y853611D01*
X1297410D01*
Y835558D01*
X1297532Y834633D01*
X1297889Y833771D01*
X1298457Y833031D01*
X1299197Y832463D01*
X1300059Y832106D01*
X1300984Y831984D01*
X1302676D01*
X1303621Y831259D01*
X1304818Y830763D01*
X1306102Y830594D01*
X1307387Y830763D01*
X1308584Y831259D01*
X1309529Y831984D01*
X1320868D01*
Y830206D01*
X1331104D01*
Y840442D01*
X1320868D01*
Y839132D01*
X1309529D01*
X1308584Y839857D01*
X1307387Y840353D01*
X1306102Y840522D01*
X1305058Y840384D01*
X1304558Y840736D01*
Y857185D01*
X1304436Y858110D01*
X1304141Y858823D01*
X1304381Y859323D01*
X1313260D01*
X1313260Y844882D01*
X1313368Y844060D01*
X1313686Y843293D01*
X1314191Y842636D01*
X1314849Y842131D01*
X1315615Y841813D01*
X1316437Y841705D01*
X1357945Y841705D01*
X1357945Y836636D01*
X1357087D01*
X1356419Y836548D01*
X1355796Y836290D01*
X1355262Y835880D01*
X1354851Y835346D01*
X1354593Y834723D01*
X1354506Y834055D01*
Y808957D01*
X1354593Y808289D01*
X1354851Y807666D01*
X1355262Y807132D01*
X1360380Y802013D01*
X1360914Y801603D01*
X1361537Y801345D01*
X1362205Y801257D01*
X1378703D01*
X1379308Y800469D01*
X1380295Y799712D01*
X1381444Y799236D01*
X1382677Y799073D01*
X1383910Y799236D01*
X1385060Y799712D01*
X1386047Y800469D01*
X1386804Y801456D01*
X1387280Y802605D01*
X1387442Y803839D01*
X1387280Y805072D01*
X1386804Y806221D01*
X1386047Y807208D01*
X1385060Y807965D01*
X1383910Y808441D01*
X1382677Y808604D01*
X1381444Y808441D01*
X1380295Y807965D01*
X1379308Y807208D01*
X1378703Y806420D01*
X1363274D01*
X1359668Y810026D01*
Y825680D01*
X1360083Y825958D01*
X1360300Y825869D01*
X1361122Y825760D01*
X1365698D01*
X1365786Y825277D01*
X1364537Y824760D01*
X1363465Y823937D01*
X1362642Y822865D01*
X1362124Y821616D01*
X1362014Y820776D01*
X1367126D01*
X1372238D01*
X1372128Y821616D01*
X1371610Y822865D01*
X1370788Y823937D01*
X1369715Y824760D01*
X1368466Y825277D01*
X1368554Y825760D01*
X1372539D01*
X1373362Y825869D01*
X1374128Y826186D01*
X1374786Y826691D01*
X1375291Y827349D01*
X1375608Y828115D01*
X1375716Y828937D01*
Y829940D01*
X1376216Y830147D01*
X1402886Y803477D01*
X1403627Y802909D01*
X1404488Y802552D01*
X1405413Y802430D01*
X1446624D01*
X1447063Y801608D01*
X1448047Y800409D01*
X1449246Y799425D01*
X1450614Y798694D01*
X1452098Y798244D01*
X1453642Y798092D01*
X1455185Y798244D01*
X1456670Y798694D01*
X1458037Y799425D01*
X1459236Y800409D01*
X1460220Y801608D01*
X1460952Y802976D01*
X1461402Y804460D01*
X1461554Y806004D01*
X1461402Y807547D01*
X1460952Y809032D01*
X1460220Y810400D01*
X1459236Y811599D01*
X1458037Y812583D01*
X1456670Y813314D01*
X1455185Y813764D01*
X1453642Y813916D01*
X1452098Y813764D01*
X1450614Y813314D01*
X1449246Y812583D01*
X1448047Y811599D01*
X1447063Y810400D01*
X1446624Y809578D01*
X1406894D01*
X1379889Y836582D01*
X1379149Y837150D01*
X1378287Y837507D01*
X1377362Y837629D01*
X1375716D01*
X1375716Y861024D01*
X1375608Y861846D01*
X1375290Y862612D01*
X1374786Y863270D01*
X1374128Y863775D01*
X1373362Y864092D01*
X1373015Y864138D01*
X1373048Y864638D01*
X1381453D01*
Y874575D01*
X1378627D01*
X1378528Y875075D01*
X1378990Y875266D01*
X1380028Y876063D01*
X1380824Y877101D01*
X1381325Y878309D01*
X1381496Y879606D01*
X1381325Y880903D01*
X1381127Y881381D01*
X1381405Y881797D01*
X1392168D01*
X1392446Y881381D01*
X1392248Y880903D01*
X1392077Y879606D01*
X1392248Y878309D01*
X1392749Y877101D01*
X1393545Y876063D01*
X1394583Y875266D01*
X1395045Y875075D01*
X1394946Y874575D01*
X1392120D01*
Y864638D01*
X1403057D01*
Y874575D01*
X1400231D01*
X1400132Y875075D01*
X1400594Y875266D01*
X1401632Y876063D01*
X1402429Y877101D01*
X1402929Y878309D01*
X1403100Y879606D01*
X1402929Y880903D01*
X1402429Y882112D01*
X1401632Y883150D01*
X1400969Y883659D01*
X1401138Y884159D01*
X1415643D01*
X1415813Y883659D01*
X1415149Y883150D01*
X1414353Y882112D01*
X1413852Y880903D01*
X1413682Y879606D01*
X1413852Y878309D01*
X1414353Y877101D01*
X1415149Y876063D01*
X1416187Y875266D01*
X1416650Y875075D01*
X1416550Y874575D01*
X1413724D01*
Y864638D01*
X1424661D01*
Y874575D01*
X1421836D01*
X1421736Y875075D01*
X1422199Y875266D01*
X1423236Y876063D01*
X1424033Y877101D01*
X1424533Y878309D01*
X1424704Y879606D01*
X1424533Y880903D01*
X1424033Y882112D01*
X1423236Y883150D01*
X1422199Y883946D01*
X1421774Y884122D01*
Y884941D01*
X1421686Y885609D01*
X1421428Y886232D01*
X1421018Y886766D01*
X1419219Y888565D01*
X1418684Y888976D01*
X1418062Y889233D01*
X1417394Y889321D01*
X1392662D01*
X1392447Y889567D01*
Y896737D01*
X1392683Y896949D01*
X1393183Y896735D01*
Y895748D01*
X1393285Y894977D01*
X1393582Y894259D01*
X1394055Y893642D01*
X1394672Y893169D01*
X1395391Y892871D01*
X1396161Y892770D01*
X1401649D01*
X1402043Y892467D01*
X1402956Y892089D01*
X1403937Y891960D01*
X1404618D01*
Y895748D01*
Y899536D01*
X1403937D01*
X1402956Y899407D01*
X1402043Y899029D01*
X1401649Y898726D01*
X1399140D01*
Y903678D01*
X1399640Y903777D01*
X1399810Y903366D01*
X1400568Y902378D01*
X1401554Y901621D01*
X1402704Y901145D01*
X1403937Y900983D01*
X1406299D01*
X1407533Y901145D01*
X1408682Y901621D01*
X1409669Y902378D01*
X1410426Y903366D01*
X1410902Y904515D01*
X1411064Y905748D01*
X1410902Y906981D01*
X1410426Y908131D01*
X1409669Y909118D01*
X1408682Y909875D01*
X1407533Y910351D01*
X1406431Y910496D01*
Y911000D01*
X1407533Y911145D01*
X1408682Y911621D01*
X1409669Y912379D01*
X1410426Y913365D01*
X1410902Y914515D01*
X1411064Y915748D01*
X1410902Y916981D01*
X1410426Y918131D01*
X1409669Y919118D01*
X1408682Y919875D01*
X1407533Y920351D01*
X1406299Y920513D01*
X1403937D01*
X1402704Y920351D01*
X1401554Y919875D01*
X1400568Y919118D01*
X1399810Y918131D01*
X1399640Y917719D01*
X1399140Y917818D01*
Y947691D01*
X1401649D01*
X1402043Y947388D01*
X1402956Y947010D01*
X1403937Y946881D01*
X1404618D01*
Y950669D01*
Y954458D01*
X1403937D01*
X1402956Y954329D01*
X1402043Y953950D01*
X1401649Y953648D01*
X1399140D01*
Y958599D01*
X1399640Y958698D01*
X1399810Y958287D01*
X1400568Y957300D01*
X1401554Y956542D01*
X1402704Y956067D01*
X1403937Y955904D01*
X1406299D01*
X1407533Y956067D01*
X1408682Y956542D01*
X1409669Y957300D01*
X1410426Y958287D01*
X1410902Y959436D01*
X1411064Y960669D01*
X1410902Y961903D01*
X1410426Y963052D01*
X1409669Y964039D01*
X1408682Y964796D01*
X1407533Y965272D01*
X1406431Y965417D01*
Y965921D01*
X1407533Y966066D01*
X1408682Y966543D01*
X1409669Y967300D01*
X1410426Y968287D01*
X1410902Y969436D01*
X1411064Y970669D01*
X1410902Y971903D01*
X1410426Y973052D01*
X1409669Y974039D01*
X1408682Y974796D01*
X1407533Y975272D01*
X1406299Y975434D01*
X1403937D01*
X1402704Y975272D01*
X1401554Y974796D01*
X1400568Y974039D01*
X1399810Y973052D01*
X1399640Y972640D01*
X1399140Y972740D01*
Y1001325D01*
X1399344Y1001530D01*
X1401649D01*
X1402043Y1001227D01*
X1402140Y1001187D01*
Y998524D01*
X1402241Y997753D01*
X1402539Y997034D01*
X1403012Y996418D01*
X1404587Y994843D01*
X1404587Y994843D01*
X1405204Y994370D01*
X1405922Y994072D01*
X1406693Y993971D01*
X1406693Y993971D01*
X1434252D01*
X1435023Y994072D01*
X1435741Y994370D01*
X1436358Y994843D01*
X1441824Y1000309D01*
X1448243D01*
X1448660Y999766D01*
X1449691Y998975D01*
X1450892Y998477D01*
X1451681Y998374D01*
Y1003287D01*
X1452681D01*
Y998374D01*
X1453470Y998477D01*
X1454671Y998975D01*
X1455702Y999766D01*
X1456119Y1000309D01*
X1478558D01*
X1478975Y999766D01*
X1480006Y998975D01*
X1481207Y998477D01*
X1481996Y998374D01*
Y1003287D01*
X1482496D01*
Y1003787D01*
X1487410D01*
X1487306Y1004576D01*
X1486808Y1005777D01*
X1486017Y1006808D01*
X1485174Y1007456D01*
X1485180Y1007993D01*
X1485202Y1008037D01*
X1485793Y1008353D01*
X1486692Y1009091D01*
X1487430Y1009991D01*
X1487978Y1011016D01*
X1488316Y1012130D01*
X1488430Y1013287D01*
X1488316Y1014445D01*
X1487978Y1015558D01*
X1487430Y1016584D01*
X1486692Y1017483D01*
X1485793Y1018221D01*
X1484767Y1018770D01*
X1483654Y1019108D01*
X1482496Y1019221D01*
X1481338Y1019108D01*
X1480225Y1018770D01*
X1479199Y1018221D01*
X1478300Y1017483D01*
X1477562Y1016584D01*
X1477180Y1015868D01*
X1467408D01*
X1466459Y1016817D01*
Y1032874D01*
X1466371Y1033542D01*
X1466113Y1034165D01*
X1465703Y1034699D01*
X1462652Y1037750D01*
X1462117Y1038161D01*
X1461495Y1038418D01*
X1460827Y1038506D01*
X1451809D01*
X1451204Y1039295D01*
X1450217Y1040052D01*
X1449068Y1040528D01*
X1447835Y1040690D01*
X1446601Y1040528D01*
X1445452Y1040052D01*
X1444465Y1039295D01*
X1443708Y1038308D01*
X1443232Y1037158D01*
X1443069Y1035925D01*
X1443232Y1034692D01*
X1443708Y1033543D01*
X1444465Y1032556D01*
X1445452Y1031798D01*
X1446601Y1031322D01*
X1447835Y1031160D01*
X1449068Y1031322D01*
X1450217Y1031798D01*
X1451204Y1032556D01*
X1451809Y1033344D01*
X1459758D01*
X1461297Y1031805D01*
Y1015748D01*
X1461385Y1015080D01*
X1461643Y1014458D01*
X1462053Y1013923D01*
X1464513Y1011462D01*
X1465048Y1011052D01*
X1465670Y1010794D01*
X1466339Y1010706D01*
X1477180D01*
X1477562Y1009991D01*
X1478300Y1009091D01*
X1479199Y1008353D01*
X1479790Y1008037D01*
X1479812Y1007993D01*
X1479818Y1007456D01*
X1478975Y1006808D01*
X1478558Y1006266D01*
X1456119D01*
X1455702Y1006808D01*
X1454859Y1007456D01*
X1454865Y1007993D01*
X1454887Y1008037D01*
X1455478Y1008353D01*
X1456377Y1009091D01*
X1457115Y1009991D01*
X1457664Y1011016D01*
X1458001Y1012130D01*
X1458115Y1013287D01*
X1458001Y1014445D01*
X1457664Y1015558D01*
X1457115Y1016584D01*
X1456377Y1017483D01*
X1455478Y1018221D01*
X1454452Y1018770D01*
X1453339Y1019108D01*
X1452181Y1019221D01*
X1451023Y1019108D01*
X1449910Y1018770D01*
X1448884Y1018221D01*
X1447985Y1017483D01*
X1447247Y1016584D01*
X1446865Y1015868D01*
X1444904D01*
Y1020040D01*
X1445352Y1020261D01*
X1445452Y1020184D01*
X1446601Y1019708D01*
X1447835Y1019546D01*
X1449068Y1019708D01*
X1450217Y1020184D01*
X1451204Y1020942D01*
X1451961Y1021928D01*
X1452437Y1023078D01*
X1452600Y1024311D01*
X1452437Y1025544D01*
X1451961Y1026694D01*
X1451204Y1027680D01*
X1450217Y1028438D01*
X1449068Y1028914D01*
X1447835Y1029076D01*
X1446601Y1028914D01*
X1445452Y1028438D01*
X1444465Y1027680D01*
X1443860Y1026892D01*
X1442323D01*
X1441655Y1026804D01*
X1441032Y1026546D01*
X1440498Y1026136D01*
X1440088Y1025602D01*
X1439830Y1024979D01*
X1439742Y1024311D01*
Y1013287D01*
X1439830Y1012619D01*
X1440088Y1011997D01*
X1440498Y1011462D01*
X1441032Y1011052D01*
X1441655Y1010794D01*
X1442323Y1010706D01*
X1446865D01*
X1447247Y1009991D01*
X1447985Y1009091D01*
X1448884Y1008353D01*
X1449475Y1008037D01*
X1449497Y1007993D01*
X1449503Y1007456D01*
X1448660Y1006808D01*
X1448243Y1006266D01*
X1440591D01*
X1440591Y1006266D01*
X1439820Y1006164D01*
X1439101Y1005867D01*
X1438485Y1005393D01*
X1438485Y1005393D01*
X1433018Y999927D01*
X1432121D01*
X1431996Y1000427D01*
X1432695Y1000801D01*
X1433604Y1001547D01*
X1434350Y1002455D01*
X1434904Y1003492D01*
X1435246Y1004617D01*
X1435361Y1005787D01*
X1435246Y1006957D01*
X1434904Y1008082D01*
X1434350Y1009119D01*
X1433604Y1010028D01*
X1432695Y1010774D01*
X1431658Y1011328D01*
X1430534Y1011670D01*
X1429363Y1011785D01*
X1428193Y1011670D01*
X1427068Y1011328D01*
X1426031Y1010774D01*
X1425123Y1010028D01*
X1424377Y1009119D01*
X1423823Y1008082D01*
X1423481Y1006957D01*
X1423366Y1005787D01*
X1423481Y1004617D01*
X1423823Y1003492D01*
X1424377Y1002455D01*
X1425123Y1001547D01*
X1426031Y1000801D01*
X1426731Y1000427D01*
X1426605Y999927D01*
X1408096D01*
Y1001187D01*
X1408193Y1001227D01*
X1408978Y1001829D01*
X1409580Y1002614D01*
X1409958Y1003527D01*
X1410022Y1004008D01*
X1405118D01*
Y1004508D01*
X1404618D01*
Y1008296D01*
X1403937D01*
X1402956Y1008167D01*
X1402043Y1007789D01*
X1401649Y1007486D01*
X1398110D01*
X1397339Y1007385D01*
X1396621Y1007087D01*
X1396004Y1006614D01*
X1394055Y1004665D01*
X1393582Y1004048D01*
X1393285Y1003330D01*
X1393183Y1002559D01*
Y968352D01*
X1392683Y968105D01*
X1391950Y968668D01*
X1390753Y969164D01*
X1389468Y969333D01*
X1388184Y969164D01*
X1386987Y968668D01*
X1385959Y967879D01*
X1385170Y966851D01*
X1384674Y965654D01*
X1384505Y964369D01*
X1384674Y963084D01*
X1385170Y961887D01*
X1385959Y960859D01*
X1386987Y960070D01*
X1388184Y959574D01*
X1389468Y959405D01*
X1390753Y959574D01*
X1391950Y960070D01*
X1392683Y960633D01*
X1393183Y960386D01*
Y956842D01*
X1392683Y956672D01*
X1392288Y957188D01*
X1391462Y957822D01*
X1390500Y958220D01*
X1389968Y958290D01*
Y954369D01*
X1389468D01*
Y953869D01*
X1385548D01*
X1385618Y953337D01*
X1386016Y952376D01*
X1386490Y951757D01*
Y948773D01*
X1385184Y947466D01*
X1383494D01*
X1383273Y947915D01*
X1383359Y948027D01*
X1383835Y949176D01*
X1383997Y950409D01*
X1383835Y951643D01*
X1383359Y952792D01*
X1382602Y953779D01*
X1381615Y954536D01*
X1380466Y955012D01*
X1379232Y955175D01*
X1377999Y955012D01*
X1376850Y954536D01*
X1375863Y953779D01*
X1375105Y952792D01*
X1374629Y951643D01*
X1374467Y950409D01*
X1374629Y949176D01*
X1375105Y948027D01*
X1375191Y947915D01*
X1374970Y947466D01*
X1370075D01*
X1369839Y947966D01*
X1370288Y948514D01*
X1370837Y949540D01*
X1371174Y950653D01*
X1371288Y951811D01*
X1371174Y952969D01*
X1370837Y954082D01*
X1370288Y955108D01*
X1369550Y956007D01*
X1368963Y956489D01*
Y957133D01*
X1369550Y957615D01*
X1370288Y958514D01*
X1370837Y959540D01*
X1371174Y960653D01*
X1371288Y961811D01*
X1371174Y962969D01*
X1370837Y964082D01*
X1370288Y965108D01*
X1369550Y966007D01*
X1368651Y966745D01*
X1367625Y967293D01*
X1366512Y967631D01*
X1365354Y967745D01*
X1364197Y967631D01*
X1363083Y967293D01*
X1362057Y966745D01*
X1361158Y966007D01*
X1360420Y965108D01*
X1359872Y964082D01*
X1359534Y962969D01*
X1359420Y961811D01*
X1359534Y960653D01*
X1359872Y959540D01*
X1360420Y958514D01*
X1361158Y957615D01*
X1361745Y957133D01*
Y956489D01*
X1361158Y956007D01*
X1360420Y955108D01*
X1359872Y954082D01*
X1359534Y952969D01*
X1359420Y951811D01*
X1359534Y950653D01*
X1359872Y949540D01*
X1360420Y948514D01*
X1360870Y947966D01*
X1360633Y947466D01*
X1338733D01*
X1338546Y947671D01*
X1338560Y948290D01*
X1339352Y949321D01*
X1339849Y950522D01*
X1339953Y951311D01*
X1330126D01*
X1330229Y950522D01*
X1330727Y949321D01*
X1331518Y948290D01*
X1332061Y947873D01*
Y946457D01*
X1332163Y945686D01*
X1332460Y944968D01*
X1332933Y944351D01*
X1334902Y942382D01*
X1334902Y942382D01*
X1335519Y941909D01*
X1336237Y941611D01*
X1337008Y941510D01*
X1337008Y941510D01*
X1386417D01*
X1387188Y941611D01*
X1387906Y941909D01*
X1388523Y942382D01*
X1391574Y945433D01*
X1392048Y946050D01*
X1392345Y946768D01*
X1392447Y947539D01*
Y951658D01*
X1392683Y951870D01*
X1393183Y951657D01*
Y950669D01*
Y913431D01*
X1392683Y913184D01*
X1391950Y913746D01*
X1390753Y914242D01*
X1389468Y914411D01*
X1388184Y914242D01*
X1386987Y913746D01*
X1385959Y912957D01*
X1385170Y911930D01*
X1384674Y910732D01*
X1384505Y909448D01*
X1384674Y908163D01*
X1385170Y906966D01*
X1385959Y905938D01*
X1386987Y905149D01*
X1388184Y904653D01*
X1389468Y904484D01*
X1390753Y904653D01*
X1391950Y905149D01*
X1392683Y905711D01*
X1393183Y905465D01*
Y901921D01*
X1392683Y901751D01*
X1392288Y902267D01*
X1391462Y902900D01*
X1390500Y903299D01*
X1389968Y903369D01*
Y899448D01*
X1389468D01*
Y898948D01*
X1385548D01*
X1385618Y898416D01*
X1386016Y897454D01*
X1386490Y896836D01*
Y892545D01*
X1383494D01*
X1383273Y892994D01*
X1383359Y893106D01*
X1383835Y894255D01*
X1383997Y895488D01*
X1383835Y896721D01*
X1383359Y897871D01*
X1382602Y898858D01*
X1381615Y899615D01*
X1380466Y900091D01*
X1379232Y900253D01*
X1377999Y900091D01*
X1376850Y899615D01*
X1375863Y898858D01*
X1375105Y897871D01*
X1374629Y896721D01*
X1374467Y895488D01*
X1374629Y894255D01*
X1375105Y893106D01*
X1375191Y892994D01*
X1374970Y892545D01*
X1370075D01*
X1369839Y893045D01*
X1370288Y893593D01*
X1370837Y894619D01*
X1371174Y895732D01*
X1371288Y896890D01*
X1371174Y898047D01*
X1370837Y899161D01*
X1370288Y900187D01*
X1369550Y901086D01*
X1368963Y901568D01*
Y902212D01*
X1369550Y902694D01*
X1370288Y903593D01*
X1370837Y904619D01*
X1371174Y905732D01*
X1371288Y906890D01*
X1371174Y908047D01*
X1370837Y909161D01*
X1370288Y910187D01*
X1369550Y911086D01*
X1368651Y911824D01*
X1367625Y912372D01*
X1366512Y912710D01*
X1365354Y912824D01*
X1364197Y912710D01*
X1363083Y912372D01*
X1362057Y911824D01*
X1361158Y911086D01*
X1360420Y910187D01*
X1359872Y909161D01*
X1359534Y908047D01*
X1359420Y906890D01*
X1359534Y905732D01*
X1359872Y904619D01*
X1360420Y903593D01*
X1361158Y902694D01*
X1361745Y902212D01*
Y901568D01*
X1361158Y901086D01*
X1360420Y900187D01*
X1359872Y899161D01*
X1359534Y898047D01*
X1359420Y896890D01*
X1359534Y895732D01*
X1359872Y894619D01*
X1360420Y893593D01*
X1360870Y893045D01*
X1360633Y892545D01*
X1338284D01*
X1338139Y893045D01*
X1338560Y893369D01*
X1339352Y894400D01*
X1339849Y895601D01*
X1339953Y896390D01*
X1330126D01*
X1330229Y895601D01*
X1330727Y894400D01*
X1331518Y893369D01*
X1332061Y892952D01*
Y889567D01*
X1331846Y889321D01*
X1328896D01*
X1327975Y890242D01*
Y908183D01*
X1329070Y909278D01*
X1329512Y909013D01*
X1329219Y908047D01*
X1329105Y906890D01*
X1329219Y905732D01*
X1329557Y904619D01*
X1330105Y903593D01*
X1330843Y902694D01*
X1331743Y901956D01*
X1332334Y901640D01*
X1332355Y901596D01*
X1332362Y901058D01*
X1331518Y900411D01*
X1330727Y899380D01*
X1330229Y898179D01*
X1330126Y897390D01*
X1339953D01*
X1339849Y898179D01*
X1339352Y899380D01*
X1338560Y900411D01*
X1337717Y901058D01*
X1337723Y901596D01*
X1337745Y901640D01*
X1338336Y901956D01*
X1339235Y902694D01*
X1339973Y903593D01*
X1340522Y904619D01*
X1340859Y905732D01*
X1340973Y906890D01*
X1340859Y908047D01*
X1340522Y909161D01*
X1339973Y910187D01*
X1339235Y911086D01*
X1338336Y911824D01*
X1337310Y912372D01*
X1336197Y912710D01*
X1335039Y912824D01*
X1333882Y912710D01*
X1332769Y912372D01*
X1332660Y912314D01*
X1332502Y912421D01*
X1332296Y912687D01*
X1332513Y913210D01*
X1332601Y913878D01*
Y916695D01*
X1333389Y917300D01*
X1334146Y918287D01*
X1334622Y919436D01*
X1334785Y920669D01*
X1334622Y921903D01*
X1334146Y923052D01*
X1333389Y924039D01*
X1332402Y924796D01*
X1331253Y925272D01*
X1330020Y925434D01*
X1328786Y925272D01*
X1327637Y924796D01*
X1326650Y924039D01*
X1325893Y923052D01*
X1325817Y922869D01*
X1325317Y922969D01*
Y971754D01*
X1325659Y972085D01*
X1326176Y972052D01*
X1326650Y971434D01*
X1327637Y970676D01*
X1328786Y970200D01*
X1330020Y970038D01*
X1331253Y970200D01*
X1332402Y970676D01*
X1333389Y971434D01*
X1334146Y972421D01*
X1334622Y973570D01*
X1334785Y974803D01*
X1334622Y976036D01*
X1334146Y977186D01*
X1333389Y978173D01*
X1332402Y978930D01*
X1331253Y979406D01*
X1330020Y979568D01*
X1328786Y979406D01*
X1327637Y978930D01*
X1326650Y978173D01*
X1326045Y977384D01*
X1324606D01*
X1323938Y977296D01*
X1323316Y977038D01*
X1323160Y976919D01*
X1322660Y977166D01*
Y1025801D01*
X1322821Y1025962D01*
X1326045D01*
X1326650Y1025174D01*
X1327637Y1024417D01*
X1328786Y1023940D01*
X1330020Y1023778D01*
X1331253Y1023940D01*
X1332402Y1024417D01*
X1333389Y1025174D01*
X1334146Y1026161D01*
X1334622Y1027310D01*
X1334785Y1028543D01*
X1334622Y1029777D01*
X1334146Y1030926D01*
X1333389Y1031913D01*
X1332402Y1032670D01*
X1331253Y1033146D01*
X1330020Y1033309D01*
X1328786Y1033146D01*
X1327637Y1032670D01*
X1326650Y1031913D01*
X1326045Y1031124D01*
X1321752D01*
X1321084Y1031036D01*
X1320461Y1030779D01*
X1319927Y1030369D01*
X1318254Y1028695D01*
X1317843Y1028161D01*
X1317586Y1027538D01*
X1317498Y1026870D01*
Y882283D01*
X1317586Y881615D01*
X1317843Y880993D01*
X1318254Y880458D01*
X1320724Y877988D01*
X1320517Y877488D01*
X1303078Y877488D01*
Y897344D01*
X1303549Y897513D01*
X1303668Y897368D01*
X1304717Y896507D01*
X1305914Y895868D01*
X1307212Y895474D01*
X1308563Y895341D01*
X1309914Y895474D01*
X1311212Y895868D01*
X1312409Y896507D01*
X1313458Y897368D01*
X1314319Y898417D01*
X1314959Y899614D01*
X1315353Y900913D01*
X1315486Y902264D01*
X1315353Y903614D01*
X1314959Y904913D01*
X1314319Y906110D01*
X1313458Y907159D01*
X1312409Y908020D01*
X1311212Y908660D01*
X1309914Y909054D01*
X1308563Y909187D01*
X1307212Y909054D01*
X1305914Y908660D01*
X1304717Y908020D01*
X1303668Y907159D01*
X1303549Y907015D01*
X1303078Y907183D01*
X1303078Y954429D01*
X1302970Y955251D01*
X1302653Y956017D01*
X1302148Y956675D01*
X1301490Y957180D01*
X1300724Y957498D01*
X1299902Y957606D01*
X1275126Y957606D01*
Y966426D01*
X1275626Y966485D01*
X1275642Y966418D01*
X1276353Y964700D01*
X1277325Y963115D01*
X1278532Y961701D01*
X1279946Y960494D01*
X1281531Y959523D01*
X1283248Y958811D01*
X1285056Y958377D01*
X1286909Y958231D01*
X1288763Y958377D01*
X1290571Y958811D01*
X1292288Y959523D01*
X1293873Y960494D01*
X1295287Y961701D01*
X1296494Y963115D01*
X1297466Y964700D01*
X1298177Y966418D01*
X1298611Y968225D01*
X1298757Y970079D01*
X1298611Y971932D01*
X1298177Y973740D01*
X1297466Y975457D01*
X1296494Y977042D01*
X1295287Y978456D01*
X1293873Y979664D01*
X1292288Y980635D01*
X1290571Y981346D01*
X1288763Y981780D01*
X1286909Y981926D01*
X1285056Y981780D01*
X1283248Y981346D01*
X1281531Y980635D01*
X1279946Y979664D01*
X1278532Y978456D01*
X1277325Y977042D01*
X1276353Y975457D01*
X1275642Y973740D01*
X1275626Y973672D01*
X1275126Y973732D01*
X1275126Y1051575D01*
X1275017Y1052397D01*
X1274700Y1053163D01*
X1274195Y1053821D01*
X1273537Y1054326D01*
X1272771Y1054643D01*
X1271949Y1054752D01*
X1265480Y1054752D01*
Y1060925D01*
X1265942Y1061117D01*
X1267663Y1059395D01*
X1268198Y1058985D01*
X1268820Y1058727D01*
X1269488Y1058639D01*
X1329035D01*
X1329704Y1058727D01*
X1330326Y1058985D01*
X1330861Y1059395D01*
X1333105Y1061639D01*
X1333515Y1062174D01*
X1333773Y1062796D01*
X1333861Y1063465D01*
Y1064132D01*
X1334930Y1064952D01*
X1335750Y1066021D01*
X1336009Y1066646D01*
X1336550D01*
X1336809Y1066021D01*
X1337629Y1064952D01*
X1338698Y1064132D01*
Y1055669D01*
X1338786Y1055001D01*
X1339044Y1054379D01*
X1339454Y1053844D01*
X1341974Y1051324D01*
X1342509Y1050914D01*
X1343131Y1050656D01*
X1343799Y1050568D01*
X1483183D01*
X1485411Y1048340D01*
Y1039900D01*
X1484623Y1039295D01*
X1483865Y1038308D01*
X1483389Y1037158D01*
X1483227Y1035925D01*
X1483389Y1034692D01*
X1483865Y1033543D01*
X1484623Y1032556D01*
X1485610Y1031798D01*
X1486759Y1031322D01*
X1487992Y1031160D01*
X1489225Y1031322D01*
X1490375Y1031798D01*
X1491362Y1032556D01*
X1492119Y1033543D01*
X1492595Y1034692D01*
X1492757Y1035925D01*
X1492595Y1037158D01*
X1492119Y1038308D01*
X1491362Y1039295D01*
X1490573Y1039900D01*
Y1049409D01*
X1490485Y1050078D01*
X1490228Y1050700D01*
X1489817Y1051235D01*
X1486077Y1054975D01*
X1485542Y1055385D01*
X1484920Y1055643D01*
X1484252Y1055731D01*
X1344868D01*
X1343861Y1056738D01*
Y1064132D01*
X1344930Y1064952D01*
X1345750Y1066021D01*
X1346266Y1067266D01*
X1346442Y1068602D01*
X1346266Y1069938D01*
X1345750Y1071183D01*
X1344930Y1072253D01*
X1344258Y1072768D01*
Y1124436D01*
X1344930Y1124952D01*
X1345750Y1126021D01*
X1346009Y1126646D01*
X1346550D01*
X1346809Y1126021D01*
X1347629Y1124952D01*
X1348698Y1124132D01*
X1349943Y1123616D01*
X1351280Y1123440D01*
X1352616Y1123616D01*
X1353861Y1124132D01*
X1354930Y1124952D01*
X1355750Y1126021D01*
X1356009Y1126646D01*
X1356550D01*
X1356809Y1126021D01*
X1357629Y1124952D01*
X1358698Y1124132D01*
X1359943Y1123616D01*
X1361279Y1123440D01*
X1362616Y1123616D01*
X1363861Y1124132D01*
X1364930Y1124952D01*
X1365750Y1126021D01*
X1366009Y1126646D01*
X1366550D01*
X1366809Y1126021D01*
X1367629Y1124952D01*
X1368698Y1124132D01*
X1369943Y1123616D01*
X1371280Y1123440D01*
X1372616Y1123616D01*
X1373861Y1124132D01*
X1374930Y1124952D01*
X1375750Y1126021D01*
X1376009Y1126646D01*
X1376550D01*
X1376809Y1126021D01*
X1377629Y1124952D01*
X1378698Y1124132D01*
X1379943Y1123616D01*
X1381279Y1123440D01*
X1382616Y1123616D01*
X1383861Y1124132D01*
X1384930Y1124952D01*
X1385750Y1126021D01*
X1386009Y1126646D01*
X1386550D01*
X1386809Y1126021D01*
X1387629Y1124952D01*
X1388698Y1124132D01*
X1389943Y1123616D01*
X1391280Y1123440D01*
X1392616Y1123616D01*
X1393861Y1124132D01*
X1394930Y1124952D01*
X1395750Y1126021D01*
X1396009Y1126646D01*
X1396550D01*
X1396809Y1126021D01*
X1397629Y1124952D01*
X1398698Y1124132D01*
Y1088976D01*
X1398786Y1088308D01*
X1399044Y1087686D01*
X1399454Y1087151D01*
X1410576Y1076029D01*
X1411111Y1075619D01*
X1411734Y1075361D01*
X1412402Y1075273D01*
X1538596D01*
X1540726Y1073143D01*
Y1028543D01*
X1540814Y1027875D01*
X1541072Y1027253D01*
X1541482Y1026718D01*
X1545419Y1022781D01*
X1545953Y1022371D01*
X1546576Y1022113D01*
X1547244Y1022025D01*
X1553051D01*
Y1016732D01*
X1568799D01*
Y1032480D01*
X1553051D01*
Y1027187D01*
X1548313D01*
X1545888Y1029612D01*
Y1044100D01*
X1546350Y1044291D01*
X1548175Y1042466D01*
X1548709Y1042056D01*
X1549332Y1041798D01*
X1550000Y1041710D01*
X1553480D01*
X1553615Y1041263D01*
X1554346Y1039896D01*
X1555330Y1038697D01*
X1556530Y1037713D01*
X1557897Y1036981D01*
X1559382Y1036531D01*
X1560925Y1036379D01*
X1562469Y1036531D01*
X1563953Y1036981D01*
X1565321Y1037713D01*
X1566520Y1038697D01*
X1567504Y1039896D01*
X1568235Y1041263D01*
X1568685Y1042748D01*
X1568837Y1044291D01*
X1568685Y1045835D01*
X1568235Y1047319D01*
X1567504Y1048687D01*
X1566520Y1049886D01*
X1565321Y1050870D01*
X1563953Y1051601D01*
X1562469Y1052051D01*
X1560925Y1052203D01*
X1559382Y1052051D01*
X1557897Y1051601D01*
X1556530Y1050870D01*
X1555330Y1049886D01*
X1554346Y1048687D01*
X1553615Y1047319D01*
X1553480Y1046873D01*
X1551069D01*
X1548447Y1049494D01*
Y1067131D01*
X1548909Y1067322D01*
X1550778Y1065453D01*
X1551313Y1065043D01*
X1551935Y1064785D01*
X1552603Y1064697D01*
X1553051D01*
Y1059404D01*
X1568799D01*
Y1075152D01*
X1553051D01*
Y1071134D01*
X1552589Y1070943D01*
X1551400Y1072132D01*
Y1078839D01*
X1551312Y1079507D01*
X1551054Y1080129D01*
X1550644Y1080664D01*
X1547244Y1084063D01*
X1547436Y1084525D01*
X1553436D01*
X1553615Y1083936D01*
X1554346Y1082568D01*
X1555330Y1081369D01*
X1556530Y1080385D01*
X1557897Y1079654D01*
X1559382Y1079203D01*
X1560925Y1079051D01*
X1562469Y1079203D01*
X1563953Y1079654D01*
X1565321Y1080385D01*
X1566520Y1081369D01*
X1567504Y1082568D01*
X1568235Y1083936D01*
X1568685Y1085420D01*
X1568837Y1086963D01*
X1568685Y1088507D01*
X1568235Y1089991D01*
X1567504Y1091359D01*
X1566520Y1092558D01*
X1565321Y1093542D01*
X1563953Y1094273D01*
X1562469Y1094724D01*
X1560925Y1094876D01*
X1559382Y1094724D01*
X1557897Y1094273D01*
X1556530Y1093542D01*
X1555330Y1092558D01*
X1554346Y1091359D01*
X1553615Y1089991D01*
X1553523Y1089687D01*
X1545369D01*
X1545178Y1090149D01*
X1547593Y1092565D01*
X1548003Y1093099D01*
X1548261Y1093722D01*
X1548349Y1094390D01*
Y1103458D01*
X1550755Y1105864D01*
X1560049D01*
X1560762Y1104935D01*
X1561790Y1104146D01*
X1562987Y1103651D01*
X1564271Y1103481D01*
X1565556Y1103651D01*
X1566753Y1104146D01*
X1567781Y1104935D01*
X1568570Y1105963D01*
X1569066Y1107160D01*
X1569235Y1108445D01*
X1569066Y1109730D01*
X1568570Y1110927D01*
X1567781Y1111955D01*
X1566753Y1112744D01*
X1565680Y1113189D01*
X1565679Y1113189D01*
Y1113701D01*
X1565680Y1113702D01*
X1566753Y1114147D01*
X1567781Y1114935D01*
X1568570Y1115963D01*
X1569066Y1117161D01*
X1569235Y1118445D01*
X1569066Y1119730D01*
X1568570Y1120927D01*
X1567781Y1121955D01*
X1566753Y1122744D01*
X1565680Y1123188D01*
X1565681Y1123702D01*
X1566753Y1124146D01*
X1567782Y1124935D01*
X1568570Y1125963D01*
X1569066Y1127160D01*
X1569235Y1128445D01*
X1569066Y1129730D01*
X1568570Y1130927D01*
X1567782Y1131955D01*
X1566753Y1132744D01*
X1565556Y1133239D01*
X1564272Y1133409D01*
X1562987Y1133239D01*
X1561790Y1132744D01*
X1560762Y1131955D01*
X1560354Y1131423D01*
X1557828D01*
X1539703Y1149548D01*
X1539924Y1149997D01*
X1540256Y1149953D01*
X1541618Y1150132D01*
X1542888Y1150658D01*
X1543978Y1151495D01*
X1544814Y1152585D01*
X1545340Y1153854D01*
X1545519Y1155217D01*
X1545340Y1156579D01*
X1544814Y1157848D01*
X1543978Y1158938D01*
X1542888Y1159775D01*
X1541618Y1160301D01*
X1540256Y1160480D01*
X1538894Y1160301D01*
X1537624Y1159775D01*
X1536534Y1158938D01*
X1535698Y1157848D01*
X1535172Y1156579D01*
X1534992Y1155217D01*
X1535172Y1153854D01*
X1535698Y1152585D01*
X1535767Y1152494D01*
X1535521Y1151994D01*
X1520896D01*
X1520828Y1152494D01*
X1522318Y1153407D01*
X1523732Y1154615D01*
X1524939Y1156028D01*
X1525911Y1157613D01*
X1526622Y1159331D01*
X1527056Y1161139D01*
X1527202Y1162992D01*
X1527056Y1164845D01*
X1526622Y1166653D01*
X1525911Y1168371D01*
X1524939Y1169956D01*
X1523732Y1171370D01*
X1522318Y1172577D01*
X1520733Y1173548D01*
X1519015Y1174260D01*
X1517208Y1174694D01*
X1515354Y1174840D01*
X1513501Y1174694D01*
X1511693Y1174260D01*
X1509976Y1173548D01*
X1508391Y1172577D01*
X1506977Y1171370D01*
X1505770Y1169956D01*
X1504967Y1168646D01*
X1504932Y1168620D01*
X1504376Y1168555D01*
X1504343Y1168569D01*
X1502933Y1169980D01*
X1502316Y1170453D01*
X1501598Y1170751D01*
X1500827Y1170852D01*
X1500327D01*
X1499812Y1171524D01*
X1498742Y1172345D01*
X1497497Y1172860D01*
X1496161Y1173036D01*
X1494825Y1172860D01*
X1493580Y1172345D01*
X1492511Y1171524D01*
X1491691Y1170455D01*
X1491432Y1169831D01*
X1490891D01*
X1490632Y1170455D01*
X1489812Y1171524D01*
X1488743Y1172345D01*
X1487498Y1172860D01*
X1486161Y1173036D01*
X1484825Y1172860D01*
X1483580Y1172345D01*
X1482511Y1171524D01*
X1481691Y1170455D01*
X1481175Y1169210D01*
X1480999Y1167874D01*
X1481175Y1166538D01*
X1481691Y1165293D01*
X1482511Y1164224D01*
X1483580Y1163403D01*
X1484205Y1163145D01*
Y1162603D01*
X1483580Y1162345D01*
X1482511Y1161524D01*
X1481691Y1160455D01*
X1481432Y1159830D01*
X1480891D01*
X1480632Y1160455D01*
X1479812Y1161524D01*
X1478743Y1162345D01*
X1477497Y1162860D01*
X1476161Y1163036D01*
X1474825Y1162860D01*
X1473580Y1162345D01*
X1472511Y1161524D01*
X1471691Y1160455D01*
X1471432Y1159830D01*
X1470891D01*
X1470632Y1160455D01*
X1469812Y1161524D01*
X1468742Y1162345D01*
X1468118Y1162603D01*
Y1163145D01*
X1468742Y1163403D01*
X1469812Y1164224D01*
X1470632Y1165293D01*
X1471148Y1166538D01*
X1471324Y1167874D01*
X1471148Y1169210D01*
X1470632Y1170455D01*
X1469812Y1171524D01*
X1468742Y1172345D01*
Y1175472D01*
X1468655Y1176140D01*
X1468397Y1176763D01*
X1467986Y1177298D01*
X1467622Y1177662D01*
X1467813Y1178124D01*
X1570053D01*
Y1176836D01*
D02*
G37*
%LPC*%
G36*
X1211614Y964187D02*
X1210248Y964053D01*
X1208934Y963654D01*
X1207724Y963007D01*
X1206663Y962136D01*
X1205792Y961075D01*
X1205145Y959865D01*
X1204747Y958551D01*
X1204612Y957185D01*
X1204747Y955819D01*
X1205145Y954505D01*
X1205792Y953295D01*
X1206663Y952234D01*
X1207724Y951363D01*
X1208934Y950716D01*
X1210248Y950317D01*
X1211614Y950183D01*
X1212980Y950317D01*
X1214294Y950716D01*
X1215504Y951363D01*
X1216566Y952234D01*
X1217436Y953295D01*
X1218083Y954505D01*
X1218482Y955819D01*
X1218616Y957185D01*
X1218482Y958551D01*
X1218083Y959865D01*
X1217436Y961075D01*
X1216566Y962136D01*
X1215504Y963007D01*
X1214294Y963654D01*
X1212980Y964053D01*
X1211614Y964187D01*
D02*
G37*
G36*
X1211114Y1008185D02*
X1205614D01*
Y1002685D01*
X1211114D01*
Y1008185D01*
D02*
G37*
G36*
X1217614D02*
X1212114D01*
Y1002685D01*
X1217614D01*
Y1008185D01*
D02*
G37*
G36*
Y1001685D02*
X1212114D01*
Y996185D01*
X1217614D01*
Y1001685D01*
D02*
G37*
G36*
X1211114D02*
X1205614D01*
Y996185D01*
X1211114D01*
Y1001685D01*
D02*
G37*
G36*
X1265059Y909187D02*
X1263708Y909054D01*
X1262410Y908660D01*
X1261213Y908020D01*
X1260164Y907159D01*
X1259303Y906110D01*
X1258663Y904913D01*
X1258269Y903614D01*
X1258136Y902264D01*
X1258269Y900913D01*
X1258663Y899614D01*
X1259303Y898417D01*
X1260164Y897368D01*
X1261213Y896507D01*
X1262410Y895868D01*
X1263708Y895474D01*
X1265059Y895341D01*
X1266410Y895474D01*
X1267708Y895868D01*
X1268905Y896507D01*
X1269954Y897368D01*
X1270815Y898417D01*
X1271455Y899614D01*
X1271849Y900913D01*
X1271982Y902264D01*
X1271849Y903614D01*
X1271455Y904913D01*
X1270815Y906110D01*
X1269954Y907159D01*
X1268905Y908020D01*
X1267708Y908660D01*
X1266410Y909054D01*
X1265059Y909187D01*
D02*
G37*
G36*
X1305661Y1161994D02*
X1305078Y1161917D01*
X1304069Y1161499D01*
X1303202Y1160833D01*
X1302537Y1159967D01*
X1302119Y1158957D01*
X1302042Y1158374D01*
X1305661D01*
Y1161994D01*
D02*
G37*
G36*
X1310281Y1157374D02*
X1306661D01*
Y1153754D01*
X1307245Y1153831D01*
X1308254Y1154249D01*
X1309121Y1154914D01*
X1309786Y1155781D01*
X1310204Y1156791D01*
X1310281Y1157374D01*
D02*
G37*
G36*
X1380281D02*
X1376661D01*
Y1153754D01*
X1377245Y1153831D01*
X1378254Y1154249D01*
X1379121Y1154914D01*
X1379786Y1155781D01*
X1380204Y1156791D01*
X1380281Y1157374D01*
D02*
G37*
G36*
X1306661Y1161994D02*
Y1158374D01*
X1310281D01*
X1310204Y1158957D01*
X1309786Y1159967D01*
X1309121Y1160833D01*
X1308254Y1161499D01*
X1307245Y1161917D01*
X1306661Y1161994D01*
D02*
G37*
G36*
X1376661D02*
Y1158374D01*
X1380281D01*
X1380204Y1158957D01*
X1379786Y1159967D01*
X1379121Y1160833D01*
X1378254Y1161499D01*
X1377245Y1161917D01*
X1376661Y1161994D01*
D02*
G37*
G36*
X1375661Y1161994D02*
X1375078Y1161917D01*
X1374069Y1161499D01*
X1373202Y1160833D01*
X1372537Y1159967D01*
X1372119Y1158957D01*
X1372042Y1158374D01*
X1375661D01*
Y1161994D01*
D02*
G37*
G36*
X1305661Y1157374D02*
X1302042D01*
X1302119Y1156791D01*
X1302537Y1155781D01*
X1303202Y1154914D01*
X1304069Y1154249D01*
X1305078Y1153831D01*
X1305661Y1153754D01*
Y1157374D01*
D02*
G37*
G36*
X1330583Y1114953D02*
X1327162D01*
X1327232Y1114421D01*
X1327630Y1113459D01*
X1328263Y1112634D01*
X1329089Y1112000D01*
X1330051Y1111602D01*
X1330583Y1111532D01*
Y1114953D01*
D02*
G37*
G36*
X1335004D02*
X1331583D01*
Y1111532D01*
X1332115Y1111602D01*
X1333076Y1112000D01*
X1333902Y1112634D01*
X1334535Y1113459D01*
X1334934Y1114421D01*
X1335004Y1114953D01*
D02*
G37*
G36*
X1321083Y1120417D02*
X1319798Y1120247D01*
X1318601Y1119751D01*
X1317573Y1118963D01*
X1316784Y1117935D01*
X1316288Y1116737D01*
X1316119Y1115453D01*
X1316288Y1114168D01*
X1316784Y1112971D01*
X1317573Y1111943D01*
X1318601Y1111154D01*
X1319798Y1110658D01*
X1321083Y1110489D01*
X1322367Y1110658D01*
X1323565Y1111154D01*
X1324593Y1111943D01*
X1325381Y1112971D01*
X1325877Y1114168D01*
X1326046Y1115453D01*
X1325877Y1116737D01*
X1325381Y1117935D01*
X1324593Y1118963D01*
X1323565Y1119751D01*
X1322367Y1120247D01*
X1321083Y1120417D01*
D02*
G37*
G36*
X1315965Y1150928D02*
X1314680Y1150759D01*
X1313483Y1150263D01*
X1312455Y1149474D01*
X1311666Y1148446D01*
X1311170Y1147249D01*
X1311001Y1145965D01*
X1311170Y1144680D01*
X1311666Y1143483D01*
X1312455Y1142455D01*
X1313483Y1141666D01*
X1314680Y1141170D01*
X1315389Y1141077D01*
X1315356Y1140577D01*
X1309993D01*
X1308943Y1141627D01*
Y1143353D01*
X1309417Y1143971D01*
X1309816Y1144933D01*
X1309886Y1145465D01*
X1305965D01*
X1302044D01*
X1302114Y1144933D01*
X1302512Y1143971D01*
X1302986Y1143353D01*
Y1140394D01*
X1303088Y1139623D01*
X1303385Y1138905D01*
X1303859Y1138288D01*
X1306654Y1135493D01*
X1307271Y1135019D01*
X1307989Y1134722D01*
X1308760Y1134620D01*
X1308760Y1134620D01*
X1327507D01*
X1328301Y1133825D01*
Y1131538D01*
X1327655Y1130695D01*
X1327237Y1129686D01*
X1327160Y1129102D01*
X1331279D01*
X1335399D01*
X1335322Y1129686D01*
X1334904Y1130695D01*
X1334258Y1131538D01*
Y1135059D01*
X1334258Y1135059D01*
X1334156Y1135830D01*
X1333859Y1136548D01*
X1333385Y1137165D01*
X1333385Y1137165D01*
X1330846Y1139704D01*
X1330229Y1140178D01*
X1329511Y1140475D01*
X1328740Y1140577D01*
X1316573D01*
X1316541Y1141077D01*
X1317249Y1141170D01*
X1318446Y1141666D01*
X1319475Y1142455D01*
X1320263Y1143483D01*
X1320759Y1144680D01*
X1320928Y1145965D01*
X1320759Y1147249D01*
X1320263Y1148446D01*
X1319475Y1149474D01*
X1318446Y1150263D01*
X1317249Y1150759D01*
X1315965Y1150928D01*
D02*
G37*
G36*
X1375661Y1157374D02*
X1372042D01*
X1372119Y1156791D01*
X1372537Y1155781D01*
X1373202Y1154914D01*
X1374069Y1154249D01*
X1375078Y1153831D01*
X1375661Y1153754D01*
Y1157374D01*
D02*
G37*
G36*
X1305465Y1149886D02*
X1304933Y1149816D01*
X1303971Y1149417D01*
X1303145Y1148784D01*
X1302512Y1147958D01*
X1302114Y1146996D01*
X1302044Y1146465D01*
X1305465D01*
Y1149886D01*
D02*
G37*
G36*
X1306465Y1149886D02*
Y1146465D01*
X1309886D01*
X1309816Y1146996D01*
X1309417Y1147958D01*
X1308784Y1148784D01*
X1307958Y1149417D01*
X1306997Y1149816D01*
X1306465Y1149886D01*
D02*
G37*
G36*
X1331583Y1119374D02*
Y1115953D01*
X1335004D01*
X1334934Y1116485D01*
X1334535Y1117446D01*
X1333902Y1118272D01*
X1333076Y1118906D01*
X1332115Y1119304D01*
X1331583Y1119374D01*
D02*
G37*
G36*
X1321280Y1133765D02*
X1319943Y1133589D01*
X1318698Y1133073D01*
X1317629Y1132253D01*
X1316809Y1131184D01*
X1316293Y1129939D01*
X1316117Y1128602D01*
X1316293Y1127266D01*
X1316809Y1126021D01*
X1317629Y1124952D01*
X1318698Y1124132D01*
X1319943Y1123616D01*
X1321280Y1123440D01*
X1322616Y1123616D01*
X1323861Y1124132D01*
X1324930Y1124952D01*
X1325750Y1126021D01*
X1326266Y1127266D01*
X1326442Y1128602D01*
X1326266Y1129939D01*
X1325750Y1131184D01*
X1324930Y1132253D01*
X1323861Y1133073D01*
X1322616Y1133589D01*
X1321280Y1133765D01*
D02*
G37*
G36*
X1330583Y1119374D02*
X1330051Y1119304D01*
X1329089Y1118906D01*
X1328263Y1118272D01*
X1327630Y1117446D01*
X1327232Y1116485D01*
X1327162Y1115953D01*
X1330583D01*
Y1119374D01*
D02*
G37*
G36*
X1335399Y1128102D02*
X1331779D01*
Y1124483D01*
X1332363Y1124560D01*
X1333372Y1124978D01*
X1334239Y1125643D01*
X1334904Y1126510D01*
X1335322Y1127519D01*
X1335399Y1128102D01*
D02*
G37*
G36*
X1330779D02*
X1327160D01*
X1327237Y1127519D01*
X1327655Y1126510D01*
X1328320Y1125643D01*
X1329187Y1124978D01*
X1330196Y1124560D01*
X1330779Y1124483D01*
Y1128102D01*
D02*
G37*
G36*
X1440281Y1167374D02*
X1436661D01*
Y1163754D01*
X1437245Y1163831D01*
X1438254Y1164249D01*
X1439121Y1164915D01*
X1439786Y1165781D01*
X1440204Y1166791D01*
X1440281Y1167374D01*
D02*
G37*
G36*
X1435661D02*
X1432042D01*
X1432119Y1166791D01*
X1432537Y1165781D01*
X1433202Y1164915D01*
X1434069Y1164249D01*
X1435078Y1163831D01*
X1435661Y1163754D01*
Y1167374D01*
D02*
G37*
G36*
X1436661Y1171994D02*
Y1168374D01*
X1440281D01*
X1440204Y1168957D01*
X1439786Y1169967D01*
X1439121Y1170833D01*
X1438254Y1171499D01*
X1437245Y1171917D01*
X1436661Y1171994D01*
D02*
G37*
G36*
X1435661Y1171994D02*
X1435078Y1171917D01*
X1434069Y1171499D01*
X1433202Y1170833D01*
X1432537Y1169967D01*
X1432119Y1168957D01*
X1432042Y1168374D01*
X1435661D01*
Y1171994D01*
D02*
G37*
G36*
X1456661Y1161994D02*
Y1158374D01*
X1460281D01*
X1460204Y1158957D01*
X1459786Y1159967D01*
X1459121Y1160833D01*
X1458254Y1161499D01*
X1457245Y1161917D01*
X1456661Y1161994D01*
D02*
G37*
G36*
X1460281Y1157374D02*
X1456661D01*
Y1153754D01*
X1457245Y1153831D01*
X1458254Y1154249D01*
X1459121Y1154914D01*
X1459786Y1155781D01*
X1460204Y1156791D01*
X1460281Y1157374D01*
D02*
G37*
G36*
X1455661Y1161994D02*
X1455078Y1161917D01*
X1454069Y1161499D01*
X1453202Y1160833D01*
X1452537Y1159967D01*
X1452119Y1158957D01*
X1452042Y1158374D01*
X1455661D01*
Y1161994D01*
D02*
G37*
G36*
X1509941Y1108407D02*
X1508708Y1108245D01*
X1507558Y1107769D01*
X1506571Y1107011D01*
X1505814Y1106024D01*
X1505338Y1104875D01*
X1505176Y1103642D01*
X1505338Y1102408D01*
X1505814Y1101259D01*
X1506571Y1100272D01*
X1507558Y1099515D01*
X1508708Y1099039D01*
X1509941Y1098877D01*
X1511174Y1099039D01*
X1512323Y1099515D01*
X1513310Y1100272D01*
X1514068Y1101259D01*
X1514544Y1102408D01*
X1514706Y1103642D01*
X1514544Y1104875D01*
X1514068Y1106024D01*
X1513310Y1107011D01*
X1512323Y1107769D01*
X1511174Y1108245D01*
X1509941Y1108407D01*
D02*
G37*
G36*
X1536425Y1131933D02*
Y1128511D01*
X1539847D01*
X1539777Y1129043D01*
X1539378Y1130005D01*
X1538745Y1130831D01*
X1537919Y1131464D01*
X1536957Y1131863D01*
X1536425Y1131933D01*
D02*
G37*
G36*
X1455661Y1157374D02*
X1452042D01*
X1452119Y1156791D01*
X1452537Y1155781D01*
X1453202Y1154914D01*
X1454069Y1154249D01*
X1455078Y1153831D01*
X1455661Y1153754D01*
Y1157374D01*
D02*
G37*
G36*
X1535425Y1131933D02*
X1534894Y1131863D01*
X1533932Y1131464D01*
X1533106Y1130831D01*
X1532473Y1130005D01*
X1532075Y1129043D01*
X1532005Y1128511D01*
X1535425D01*
Y1131933D01*
D02*
G37*
G36*
X1535925Y1122976D02*
X1534641Y1122806D01*
X1533443Y1122311D01*
X1532415Y1121522D01*
X1531627Y1120494D01*
X1531131Y1119296D01*
X1530962Y1118012D01*
X1531131Y1116727D01*
X1531627Y1115530D01*
X1532415Y1114502D01*
X1533443Y1113713D01*
X1534641Y1113217D01*
X1535925Y1113048D01*
X1537210Y1113217D01*
X1538407Y1113713D01*
X1539435Y1114502D01*
X1540224Y1115530D01*
X1540720Y1116727D01*
X1540889Y1118012D01*
X1540720Y1119296D01*
X1540224Y1120494D01*
X1539435Y1121522D01*
X1538407Y1122311D01*
X1537210Y1122806D01*
X1535925Y1122976D01*
D02*
G37*
G36*
X1539847Y1127511D02*
X1536425D01*
Y1124090D01*
X1536957Y1124160D01*
X1537919Y1124559D01*
X1538745Y1125192D01*
X1539378Y1126018D01*
X1539777Y1126980D01*
X1539847Y1127511D01*
D02*
G37*
G36*
X1535425D02*
X1532005D01*
X1532075Y1126980D01*
X1532473Y1126018D01*
X1533106Y1125192D01*
X1533932Y1124559D01*
X1534894Y1124160D01*
X1535425Y1124090D01*
Y1127511D01*
D02*
G37*
G36*
X1255602Y843597D02*
X1254762Y843486D01*
X1253513Y842969D01*
X1252441Y842146D01*
X1251618Y841073D01*
X1251101Y839824D01*
X1250990Y838984D01*
X1255602D01*
Y843597D01*
D02*
G37*
G36*
X1275780Y838181D02*
X1271167D01*
X1271278Y837341D01*
X1271795Y836092D01*
X1272618Y835020D01*
X1273691Y834197D01*
X1274939Y833679D01*
X1275780Y833569D01*
Y838181D01*
D02*
G37*
G36*
X1256602Y843597D02*
Y838984D01*
X1261215D01*
X1261104Y839824D01*
X1260587Y841073D01*
X1259764Y842146D01*
X1258691Y842969D01*
X1257443Y843486D01*
X1256602Y843597D01*
D02*
G37*
G36*
X1276779Y843793D02*
Y839181D01*
X1281392D01*
X1281281Y840021D01*
X1280764Y841270D01*
X1279941Y842343D01*
X1278869Y843165D01*
X1277620Y843683D01*
X1276779Y843793D01*
D02*
G37*
G36*
X1275780Y843793D02*
X1274939Y843683D01*
X1273691Y843165D01*
X1272618Y842343D01*
X1271795Y841270D01*
X1271278Y840021D01*
X1271167Y839181D01*
X1275780D01*
Y843793D01*
D02*
G37*
G36*
X1281392Y838181D02*
X1276779D01*
Y833569D01*
X1277620Y833679D01*
X1278869Y834197D01*
X1279941Y835020D01*
X1280764Y836092D01*
X1281281Y837341D01*
X1281392Y838181D01*
D02*
G37*
G36*
X1335661Y1167374D02*
X1332042D01*
X1332119Y1166791D01*
X1332537Y1165781D01*
X1333202Y1164915D01*
X1334069Y1164249D01*
X1335078Y1163831D01*
X1335661Y1163754D01*
Y1167374D01*
D02*
G37*
G36*
X1340281D02*
X1336661D01*
Y1163754D01*
X1337245Y1163831D01*
X1338254Y1164249D01*
X1339121Y1164915D01*
X1339786Y1165781D01*
X1340204Y1166791D01*
X1340281Y1167374D01*
D02*
G37*
G36*
X1335661Y1171994D02*
X1335078Y1171917D01*
X1334069Y1171499D01*
X1333202Y1170833D01*
X1332537Y1169967D01*
X1332119Y1168957D01*
X1332042Y1168374D01*
X1335661D01*
Y1171994D01*
D02*
G37*
G36*
X1336661Y1171994D02*
Y1168374D01*
X1340281D01*
X1340204Y1168957D01*
X1339786Y1169967D01*
X1339121Y1170833D01*
X1338254Y1171499D01*
X1337245Y1171917D01*
X1336661Y1171994D01*
D02*
G37*
G36*
X1355661Y1167374D02*
X1352042D01*
X1352119Y1166791D01*
X1352537Y1165781D01*
X1353202Y1164915D01*
X1354069Y1164249D01*
X1355078Y1163831D01*
X1355661Y1163754D01*
Y1167374D01*
D02*
G37*
G36*
X1360281D02*
X1356661D01*
Y1163754D01*
X1357245Y1163831D01*
X1358254Y1164249D01*
X1359121Y1164915D01*
X1359786Y1165781D01*
X1360204Y1166791D01*
X1360281Y1167374D01*
D02*
G37*
G36*
X1356661Y1171994D02*
Y1168374D01*
X1360281D01*
X1360204Y1168957D01*
X1359786Y1169967D01*
X1359121Y1170833D01*
X1358254Y1171499D01*
X1357245Y1171917D01*
X1356661Y1171994D01*
D02*
G37*
G36*
X1355661Y1171994D02*
X1355078Y1171917D01*
X1354069Y1171499D01*
X1353202Y1170833D01*
X1352537Y1169967D01*
X1352119Y1168957D01*
X1352042Y1168374D01*
X1355661D01*
Y1171994D01*
D02*
G37*
G36*
X1405661Y1167374D02*
X1402042D01*
X1402119Y1166791D01*
X1402537Y1165781D01*
X1403202Y1164915D01*
X1404069Y1164249D01*
X1405078Y1163831D01*
X1405661Y1163754D01*
Y1167374D01*
D02*
G37*
G36*
X1406661Y1171994D02*
Y1168374D01*
X1410281D01*
X1410204Y1168957D01*
X1409786Y1169967D01*
X1409121Y1170833D01*
X1408254Y1171499D01*
X1407245Y1171917D01*
X1406661Y1171994D01*
D02*
G37*
G36*
X1410281Y1167374D02*
X1406661D01*
Y1163754D01*
X1407245Y1163831D01*
X1408254Y1164249D01*
X1409121Y1164915D01*
X1409786Y1165781D01*
X1410204Y1166791D01*
X1410281Y1167374D01*
D02*
G37*
G36*
X1405661Y1171994D02*
X1405078Y1171917D01*
X1404069Y1171499D01*
X1403202Y1170833D01*
X1402537Y1169967D01*
X1402119Y1168957D01*
X1402042Y1168374D01*
X1405661D01*
Y1171994D01*
D02*
G37*
G36*
X1335039Y967745D02*
X1333882Y967631D01*
X1332769Y967293D01*
X1331743Y966745D01*
X1330843Y966007D01*
X1330105Y965108D01*
X1329557Y964082D01*
X1329219Y962969D01*
X1329105Y961811D01*
X1329219Y960653D01*
X1329557Y959540D01*
X1330105Y958514D01*
X1330843Y957615D01*
X1331743Y956877D01*
X1332334Y956561D01*
X1332355Y956517D01*
X1332362Y955979D01*
X1331518Y955332D01*
X1330727Y954301D01*
X1330229Y953100D01*
X1330126Y952311D01*
X1339953D01*
X1339849Y953100D01*
X1339352Y954301D01*
X1338560Y955332D01*
X1337717Y955979D01*
X1337723Y956517D01*
X1337745Y956561D01*
X1338336Y956877D01*
X1339235Y957615D01*
X1339973Y958514D01*
X1340522Y959540D01*
X1340859Y960653D01*
X1340973Y961811D01*
X1340859Y962969D01*
X1340522Y964082D01*
X1339973Y965108D01*
X1339235Y966007D01*
X1338336Y966745D01*
X1337310Y967293D01*
X1336197Y967631D01*
X1335039Y967745D01*
D02*
G37*
G36*
X1311114Y807748D02*
X1307146D01*
X1307217Y807204D01*
X1307620Y806231D01*
X1308261Y805395D01*
X1309097Y804754D01*
X1310070Y804351D01*
X1311114Y804214D01*
Y807748D01*
D02*
G37*
G36*
X1243299Y809539D02*
X1237899D01*
X1237964Y808879D01*
X1238302Y807762D01*
X1238852Y806734D01*
X1239592Y805832D01*
X1240494Y805092D01*
X1241522Y804542D01*
X1242638Y804204D01*
X1243299Y804139D01*
Y809539D01*
D02*
G37*
G36*
X1388968Y958290D02*
X1388437Y958220D01*
X1387475Y957822D01*
X1386649Y957188D01*
X1386016Y956362D01*
X1385618Y955401D01*
X1385548Y954869D01*
X1388968D01*
Y958290D01*
D02*
G37*
G36*
X1316083Y807748D02*
X1312114D01*
Y804214D01*
X1312114D01*
X1313158Y804351D01*
X1314131Y804754D01*
X1314967Y805395D01*
X1315608Y806231D01*
X1316011Y807204D01*
X1316083Y807748D01*
D02*
G37*
G36*
X1406299Y954458D02*
X1405618D01*
Y951169D01*
X1410022D01*
X1409958Y951650D01*
X1409580Y952563D01*
X1408978Y953348D01*
X1408193Y953950D01*
X1407280Y954329D01*
X1406299Y954458D01*
D02*
G37*
G36*
X1311114Y812282D02*
X1310070Y812145D01*
X1309097Y811742D01*
X1308261Y811101D01*
X1307620Y810265D01*
X1307217Y809292D01*
X1307146Y808748D01*
X1311114D01*
Y812282D01*
D02*
G37*
G36*
X1312114Y812282D02*
X1312114D01*
Y808748D01*
X1316083D01*
X1316011Y809292D01*
X1315608Y810265D01*
X1314967Y811101D01*
X1314131Y811742D01*
X1313158Y812145D01*
X1312114Y812282D01*
D02*
G37*
G36*
X1379232Y940411D02*
X1377999Y940248D01*
X1376850Y939772D01*
X1375863Y939015D01*
X1375105Y938028D01*
X1374629Y936879D01*
X1374467Y935646D01*
X1374629Y934412D01*
X1375105Y933263D01*
X1375863Y932276D01*
X1376850Y931519D01*
X1377999Y931043D01*
X1379232Y930881D01*
X1380466Y931043D01*
X1381615Y931519D01*
X1382602Y932276D01*
X1383359Y933263D01*
X1383835Y934412D01*
X1383997Y935646D01*
X1383835Y936879D01*
X1383359Y938028D01*
X1382602Y939015D01*
X1381615Y939772D01*
X1380466Y940248D01*
X1379232Y940411D01*
D02*
G37*
G36*
X1429363Y957946D02*
X1428193Y957831D01*
X1427068Y957490D01*
X1426031Y956935D01*
X1425123Y956190D01*
X1424377Y955281D01*
X1423823Y954244D01*
X1423481Y953119D01*
X1423366Y951949D01*
X1423481Y950779D01*
X1423823Y949654D01*
X1424377Y948617D01*
X1425123Y947708D01*
X1426031Y946962D01*
X1427068Y946408D01*
X1428193Y946067D01*
X1429363Y945951D01*
X1430534Y946067D01*
X1431658Y946408D01*
X1432695Y946962D01*
X1433604Y947708D01*
X1434350Y948617D01*
X1434904Y949654D01*
X1435246Y950779D01*
X1435361Y951949D01*
X1435246Y953119D01*
X1434904Y954244D01*
X1434350Y955281D01*
X1433604Y956190D01*
X1432695Y956935D01*
X1431658Y957490D01*
X1430534Y957831D01*
X1429363Y957946D01*
D02*
G37*
G36*
X1417027Y969768D02*
X1415743Y969599D01*
X1414546Y969103D01*
X1413518Y968314D01*
X1412729Y967286D01*
X1412233Y966089D01*
X1412064Y964804D01*
X1412233Y963519D01*
X1412729Y962322D01*
X1413518Y961294D01*
X1414546Y960505D01*
X1415619Y960061D01*
X1415619Y960060D01*
Y959548D01*
X1415619Y959548D01*
X1414546Y959103D01*
X1413518Y958314D01*
X1412729Y957286D01*
X1412233Y956089D01*
X1412064Y954804D01*
X1412233Y953519D01*
X1412729Y952322D01*
X1413518Y951294D01*
X1414546Y950506D01*
X1415743Y950010D01*
X1417027Y949840D01*
X1418312Y950010D01*
X1419509Y950506D01*
X1420537Y951294D01*
X1421326Y952322D01*
X1421822Y953519D01*
X1421991Y954804D01*
X1421822Y956089D01*
X1421326Y957286D01*
X1420537Y958314D01*
X1419509Y959103D01*
X1418436Y959548D01*
X1418436Y959548D01*
Y960060D01*
X1418436Y960061D01*
X1419509Y960505D01*
X1420537Y961294D01*
X1421326Y962322D01*
X1421822Y963519D01*
X1421991Y964804D01*
X1421822Y966089D01*
X1421326Y967286D01*
X1420537Y968314D01*
X1419509Y969103D01*
X1418312Y969599D01*
X1417027Y969768D01*
D02*
G37*
G36*
X1410022Y950169D02*
X1405618D01*
Y946881D01*
X1406299D01*
X1407280Y947010D01*
X1408193Y947388D01*
X1408978Y947991D01*
X1409580Y948775D01*
X1409958Y949689D01*
X1410022Y950169D01*
D02*
G37*
G36*
X1249700Y809539D02*
X1244299D01*
Y804139D01*
X1244960Y804204D01*
X1246076Y804542D01*
X1247105Y805092D01*
X1248006Y805832D01*
X1248746Y806734D01*
X1249296Y807762D01*
X1249635Y808879D01*
X1249700Y809539D01*
D02*
G37*
G36*
X1365354Y1021584D02*
X1364197Y1021470D01*
X1363083Y1021132D01*
X1362057Y1020584D01*
X1361158Y1019846D01*
X1360420Y1018946D01*
X1359872Y1017920D01*
X1359534Y1016807D01*
X1359420Y1015650D01*
X1359534Y1014492D01*
X1359872Y1013379D01*
X1360420Y1012353D01*
X1361158Y1011454D01*
X1361745Y1010972D01*
Y1010328D01*
X1361158Y1009846D01*
X1360420Y1008946D01*
X1359872Y1007920D01*
X1359534Y1006807D01*
X1359420Y1005650D01*
X1359534Y1004492D01*
X1359872Y1003379D01*
X1360420Y1002353D01*
X1360870Y1001805D01*
X1360633Y1001305D01*
X1356549D01*
X1350098Y1007756D01*
X1349481Y1008229D01*
X1348763Y1008526D01*
X1347992Y1008628D01*
X1338977D01*
X1338560Y1009171D01*
X1337717Y1009818D01*
X1337723Y1010356D01*
X1337745Y1010400D01*
X1338336Y1010716D01*
X1339235Y1011454D01*
X1339973Y1012353D01*
X1340522Y1013379D01*
X1340859Y1014492D01*
X1340973Y1015650D01*
X1340859Y1016807D01*
X1340522Y1017920D01*
X1339973Y1018946D01*
X1339235Y1019846D01*
X1338336Y1020584D01*
X1337310Y1021132D01*
X1336197Y1021470D01*
X1335039Y1021584D01*
X1333882Y1021470D01*
X1332769Y1021132D01*
X1331743Y1020584D01*
X1330843Y1019846D01*
X1330105Y1018946D01*
X1329557Y1017920D01*
X1329219Y1016807D01*
X1329105Y1015650D01*
X1329219Y1014492D01*
X1329557Y1013379D01*
X1330105Y1012353D01*
X1330843Y1011454D01*
X1331743Y1010716D01*
X1332334Y1010400D01*
X1332355Y1010356D01*
X1332362Y1009818D01*
X1331518Y1009171D01*
X1330727Y1008139D01*
X1330229Y1006938D01*
X1330126Y1006150D01*
X1335039D01*
Y1005650D01*
X1335539D01*
Y1000736D01*
X1336328Y1000840D01*
X1337529Y1001337D01*
X1338560Y1002129D01*
X1338977Y1002671D01*
X1346758D01*
X1353209Y996221D01*
X1353209Y996221D01*
X1353826Y995748D01*
X1354544Y995450D01*
X1355315Y995349D01*
X1355315Y995349D01*
X1377124D01*
X1377224Y994849D01*
X1376850Y994694D01*
X1375863Y993936D01*
X1375105Y992949D01*
X1374629Y991800D01*
X1374467Y990567D01*
X1374629Y989334D01*
X1375105Y988184D01*
X1375863Y987197D01*
X1376850Y986440D01*
X1377999Y985964D01*
X1379232Y985802D01*
X1380466Y985964D01*
X1381615Y986440D01*
X1382602Y987197D01*
X1383359Y988184D01*
X1383835Y989334D01*
X1383997Y990567D01*
X1383835Y991800D01*
X1383359Y992949D01*
X1382602Y993936D01*
X1381615Y994694D01*
X1381241Y994849D01*
X1381340Y995349D01*
X1386516D01*
X1387287Y995450D01*
X1388005Y995748D01*
X1388622Y996221D01*
X1391574Y999174D01*
X1391574Y999174D01*
X1392048Y999790D01*
X1392345Y1000509D01*
X1392447Y1001280D01*
X1392447Y1001280D01*
Y1005596D01*
X1392921Y1006214D01*
X1393320Y1007176D01*
X1393390Y1007708D01*
X1389468D01*
X1385548D01*
X1385618Y1007176D01*
X1386016Y1006214D01*
X1386490Y1005596D01*
Y1002513D01*
X1385282Y1001305D01*
X1383494D01*
X1383273Y1001754D01*
X1383359Y1001865D01*
X1383835Y1003015D01*
X1383997Y1004248D01*
X1383835Y1005481D01*
X1383359Y1006631D01*
X1382602Y1007617D01*
X1381615Y1008375D01*
X1380466Y1008851D01*
X1379232Y1009013D01*
X1377999Y1008851D01*
X1376850Y1008375D01*
X1375863Y1007617D01*
X1375105Y1006631D01*
X1374629Y1005481D01*
X1374467Y1004248D01*
X1374629Y1003015D01*
X1375105Y1001865D01*
X1375191Y1001754D01*
X1374970Y1001305D01*
X1370075D01*
X1369839Y1001805D01*
X1370288Y1002353D01*
X1370837Y1003379D01*
X1371174Y1004492D01*
X1371288Y1005650D01*
X1371174Y1006807D01*
X1370837Y1007920D01*
X1370288Y1008946D01*
X1369550Y1009846D01*
X1368963Y1010328D01*
Y1010972D01*
X1369550Y1011454D01*
X1370288Y1012353D01*
X1370837Y1013379D01*
X1371174Y1014492D01*
X1371288Y1015650D01*
X1371174Y1016807D01*
X1370837Y1017920D01*
X1370288Y1018946D01*
X1369550Y1019846D01*
X1368651Y1020584D01*
X1367625Y1021132D01*
X1366512Y1021470D01*
X1365354Y1021584D01*
D02*
G37*
G36*
X1334539Y1005150D02*
X1330126D01*
X1330229Y1004361D01*
X1330727Y1003160D01*
X1331518Y1002129D01*
X1332550Y1001337D01*
X1333751Y1000840D01*
X1334539Y1000736D01*
Y1005150D01*
D02*
G37*
G36*
X1406299Y1008296D02*
X1405618D01*
Y1005008D01*
X1410022D01*
X1409958Y1005488D01*
X1409580Y1006402D01*
X1408978Y1007187D01*
X1408193Y1007789D01*
X1407280Y1008167D01*
X1406299Y1008296D01*
D02*
G37*
G36*
X1417027Y1023606D02*
X1415743Y1023437D01*
X1414546Y1022941D01*
X1413518Y1022153D01*
X1412729Y1021125D01*
X1412233Y1019928D01*
X1412064Y1018643D01*
X1412233Y1017358D01*
X1412729Y1016161D01*
X1413518Y1015133D01*
X1414546Y1014344D01*
X1415619Y1013899D01*
X1415619Y1013899D01*
Y1013387D01*
X1415619Y1013386D01*
X1414546Y1012941D01*
X1413518Y1012153D01*
X1412729Y1011125D01*
X1412233Y1009927D01*
X1412064Y1008643D01*
X1412233Y1007358D01*
X1412729Y1006161D01*
X1413518Y1005133D01*
X1414546Y1004344D01*
X1415743Y1003848D01*
X1417027Y1003679D01*
X1418312Y1003848D01*
X1419509Y1004344D01*
X1420537Y1005133D01*
X1421326Y1006161D01*
X1421822Y1007358D01*
X1421991Y1008643D01*
X1421822Y1009927D01*
X1421326Y1011125D01*
X1420537Y1012153D01*
X1419509Y1012941D01*
X1418436Y1013386D01*
X1418436Y1013387D01*
Y1013899D01*
X1418436Y1013899D01*
X1419509Y1014344D01*
X1420537Y1015133D01*
X1421326Y1016161D01*
X1421822Y1017358D01*
X1421991Y1018643D01*
X1421822Y1019928D01*
X1421326Y1021125D01*
X1420537Y1022153D01*
X1419509Y1022941D01*
X1418312Y1023437D01*
X1417027Y1023606D01*
D02*
G37*
G36*
X1487410Y1002787D02*
X1482996D01*
Y998374D01*
X1483785Y998477D01*
X1484986Y998975D01*
X1486017Y999766D01*
X1486808Y1000798D01*
X1487306Y1001999D01*
X1487410Y1002787D01*
D02*
G37*
G36*
X1453642Y992656D02*
X1452098Y992504D01*
X1450614Y992054D01*
X1449246Y991323D01*
X1448047Y990339D01*
X1447063Y989140D01*
X1446332Y987772D01*
X1445882Y986288D01*
X1445730Y984744D01*
X1445882Y983200D01*
X1446332Y981716D01*
X1447063Y980348D01*
X1448047Y979149D01*
X1449246Y978165D01*
X1450614Y977434D01*
X1452098Y976984D01*
X1453642Y976832D01*
X1455185Y976984D01*
X1456670Y977434D01*
X1458037Y978165D01*
X1459236Y979149D01*
X1460220Y980348D01*
X1460952Y981716D01*
X1461402Y983200D01*
X1461554Y984744D01*
X1461402Y986288D01*
X1460952Y987772D01*
X1460220Y989140D01*
X1459236Y990339D01*
X1458037Y991323D01*
X1456670Y992054D01*
X1455185Y992504D01*
X1453642Y992656D01*
D02*
G37*
G36*
X1370177Y979568D02*
X1368944Y979406D01*
X1367795Y978930D01*
X1366808Y978173D01*
X1366050Y977186D01*
X1365574Y976036D01*
X1365412Y974803D01*
X1365574Y973570D01*
X1366050Y972421D01*
X1366808Y971434D01*
X1367795Y970676D01*
X1368944Y970200D01*
X1370177Y970038D01*
X1371410Y970200D01*
X1372560Y970676D01*
X1373547Y971434D01*
X1374304Y972421D01*
X1374780Y973570D01*
X1374942Y974803D01*
X1374780Y976036D01*
X1374304Y977186D01*
X1373547Y978173D01*
X1372560Y978930D01*
X1371410Y979406D01*
X1370177Y979568D01*
D02*
G37*
G36*
X1342520Y808604D02*
X1341286Y808441D01*
X1340137Y807965D01*
X1339150Y807208D01*
X1338393Y806221D01*
X1337917Y805072D01*
X1337755Y803839D01*
X1337917Y802605D01*
X1338393Y801456D01*
X1339150Y800469D01*
X1340137Y799712D01*
X1341286Y799236D01*
X1342520Y799073D01*
X1343753Y799236D01*
X1344902Y799712D01*
X1345889Y800469D01*
X1346646Y801456D01*
X1347122Y802605D01*
X1347285Y803839D01*
X1347122Y805072D01*
X1346646Y806221D01*
X1345889Y807208D01*
X1344902Y807965D01*
X1343753Y808441D01*
X1342520Y808604D01*
D02*
G37*
G36*
X1435332Y992917D02*
X1423395D01*
Y980980D01*
X1435332D01*
Y992917D01*
D02*
G37*
G36*
X1453642Y945412D02*
X1452098Y945260D01*
X1450614Y944810D01*
X1449246Y944079D01*
X1448047Y943095D01*
X1447063Y941896D01*
X1446332Y940528D01*
X1445882Y939044D01*
X1445730Y937500D01*
X1445882Y935956D01*
X1446332Y934472D01*
X1447063Y933104D01*
X1448047Y931905D01*
X1449246Y930921D01*
X1450614Y930190D01*
X1452098Y929740D01*
X1453642Y929588D01*
X1455185Y929740D01*
X1456670Y930190D01*
X1458037Y930921D01*
X1459236Y931905D01*
X1460220Y933104D01*
X1460952Y934472D01*
X1461402Y935956D01*
X1461554Y937500D01*
X1461402Y939044D01*
X1460952Y940528D01*
X1460220Y941896D01*
X1459236Y943095D01*
X1458037Y944079D01*
X1456670Y944810D01*
X1455185Y945260D01*
X1453642Y945412D01*
D02*
G37*
G36*
X1325486Y829444D02*
X1324903Y829367D01*
X1323893Y828949D01*
X1323026Y828284D01*
X1322361Y827417D01*
X1321943Y826408D01*
X1321866Y825824D01*
X1325486D01*
Y829444D01*
D02*
G37*
G36*
X1310023Y825058D02*
X1306602D01*
Y821637D01*
X1307134Y821707D01*
X1308096Y822105D01*
X1308922Y822739D01*
X1309555Y823565D01*
X1309953Y824526D01*
X1310023Y825058D01*
D02*
G37*
G36*
X1305602Y829479D02*
X1305070Y829409D01*
X1304109Y829011D01*
X1303283Y828377D01*
X1302650Y827551D01*
X1302251Y826590D01*
X1302181Y826058D01*
X1305602D01*
Y829479D01*
D02*
G37*
G36*
X1306602Y829479D02*
Y826058D01*
X1310023D01*
X1309953Y826590D01*
X1309555Y827551D01*
X1308922Y828377D01*
X1308096Y829011D01*
X1307134Y829409D01*
X1306602Y829479D01*
D02*
G37*
G36*
X1344980Y840522D02*
X1343696Y840353D01*
X1342498Y839857D01*
X1341470Y839068D01*
X1340682Y838040D01*
X1340186Y836843D01*
X1340017Y835558D01*
X1340186Y834273D01*
X1340682Y833076D01*
X1341470Y832048D01*
X1342498Y831259D01*
X1343696Y830763D01*
X1344980Y830594D01*
X1346265Y830763D01*
X1347462Y831259D01*
X1348490Y832048D01*
X1349279Y833076D01*
X1349775Y834273D01*
X1349944Y835558D01*
X1349775Y836843D01*
X1349279Y838040D01*
X1348490Y839068D01*
X1347462Y839857D01*
X1346265Y840353D01*
X1344980Y840522D01*
D02*
G37*
G36*
X1345480Y829479D02*
Y826058D01*
X1348901D01*
X1348831Y826590D01*
X1348433Y827551D01*
X1347799Y828377D01*
X1346974Y829011D01*
X1346012Y829409D01*
X1345480Y829479D01*
D02*
G37*
G36*
X1326486Y829444D02*
Y825824D01*
X1330105D01*
X1330029Y826408D01*
X1329611Y827417D01*
X1328945Y828284D01*
X1328078Y828949D01*
X1327069Y829367D01*
X1326486Y829444D01*
D02*
G37*
G36*
X1344480Y829479D02*
X1343948Y829409D01*
X1342987Y829011D01*
X1342161Y828377D01*
X1341528Y827551D01*
X1341129Y826590D01*
X1341059Y826058D01*
X1344480D01*
Y829479D01*
D02*
G37*
G36*
X1453642Y879959D02*
X1452098Y879807D01*
X1450614Y879357D01*
X1449246Y878626D01*
X1448047Y877642D01*
X1447063Y876443D01*
X1446332Y875075D01*
X1445882Y873591D01*
X1445730Y872047D01*
X1445882Y870504D01*
X1446332Y869019D01*
X1447063Y867651D01*
X1448047Y866453D01*
X1449246Y865469D01*
X1450614Y864737D01*
X1452098Y864287D01*
X1453642Y864135D01*
X1455185Y864287D01*
X1456670Y864737D01*
X1458037Y865469D01*
X1459236Y866453D01*
X1460220Y867651D01*
X1460952Y869019D01*
X1461402Y870504D01*
X1461554Y872047D01*
X1461402Y873591D01*
X1460952Y875075D01*
X1460220Y876443D01*
X1459236Y877642D01*
X1458037Y878626D01*
X1456670Y879357D01*
X1455185Y879807D01*
X1453642Y879959D01*
D02*
G37*
G36*
X1325486Y824824D02*
X1321866D01*
X1321943Y824241D01*
X1322361Y823232D01*
X1323026Y822365D01*
X1323893Y821700D01*
X1324903Y821282D01*
X1325486Y821205D01*
Y824824D01*
D02*
G37*
G36*
X1388968Y903369D02*
X1388437Y903299D01*
X1387475Y902900D01*
X1386649Y902267D01*
X1386016Y901441D01*
X1385618Y900480D01*
X1385548Y899948D01*
X1388968D01*
Y903369D01*
D02*
G37*
G36*
X1406299Y899536D02*
X1405618D01*
Y896248D01*
X1410022D01*
X1409958Y896729D01*
X1409580Y897642D01*
X1408978Y898427D01*
X1408193Y899029D01*
X1407280Y899407D01*
X1406299Y899536D01*
D02*
G37*
G36*
X1366626Y819775D02*
X1362014D01*
X1362124Y818935D01*
X1362642Y817686D01*
X1363465Y816614D01*
X1364537Y815791D01*
X1365786Y815274D01*
X1366626Y815163D01*
Y819775D01*
D02*
G37*
G36*
X1370177Y925434D02*
X1368944Y925272D01*
X1367795Y924796D01*
X1366808Y924039D01*
X1366050Y923052D01*
X1365574Y921903D01*
X1365412Y920669D01*
X1365574Y919436D01*
X1366050Y918287D01*
X1366808Y917300D01*
X1367795Y916543D01*
X1368944Y916066D01*
X1370177Y915904D01*
X1371410Y916066D01*
X1372560Y916543D01*
X1373547Y917300D01*
X1374304Y918287D01*
X1374780Y919436D01*
X1374942Y920669D01*
X1374780Y921903D01*
X1374304Y923052D01*
X1373547Y924039D01*
X1372560Y924796D01*
X1371410Y925272D01*
X1370177Y925434D01*
D02*
G37*
G36*
X1453642Y927203D02*
X1452098Y927051D01*
X1450614Y926601D01*
X1449246Y925870D01*
X1448047Y924886D01*
X1447063Y923687D01*
X1446332Y922319D01*
X1445882Y920835D01*
X1445730Y919291D01*
X1445882Y917748D01*
X1446332Y916263D01*
X1447063Y914896D01*
X1448047Y913697D01*
X1449246Y912713D01*
X1450614Y911981D01*
X1452098Y911531D01*
X1453642Y911379D01*
X1455185Y911531D01*
X1456670Y911981D01*
X1458037Y912713D01*
X1459236Y913697D01*
X1460220Y914896D01*
X1460952Y916263D01*
X1461402Y917748D01*
X1461554Y919291D01*
X1461402Y920835D01*
X1460952Y922319D01*
X1460220Y923687D01*
X1459236Y924886D01*
X1458037Y925870D01*
X1456670Y926601D01*
X1455185Y927051D01*
X1453642Y927203D01*
D02*
G37*
G36*
X1372238Y819775D02*
X1367626D01*
Y815163D01*
X1368466Y815274D01*
X1369715Y815791D01*
X1370788Y816614D01*
X1371610Y817686D01*
X1372128Y818935D01*
X1372238Y819775D01*
D02*
G37*
G36*
X1410022Y895248D02*
X1405618D01*
Y891960D01*
X1406299D01*
X1407280Y892089D01*
X1408193Y892467D01*
X1408978Y893069D01*
X1409580Y893854D01*
X1409958Y894767D01*
X1410022Y895248D01*
D02*
G37*
G36*
X1344480Y825058D02*
X1341059D01*
X1341129Y824526D01*
X1341528Y823565D01*
X1342161Y822739D01*
X1342987Y822105D01*
X1343948Y821707D01*
X1344480Y821637D01*
Y825058D01*
D02*
G37*
G36*
X1348901D02*
X1345480D01*
Y821637D01*
X1346012Y821707D01*
X1346974Y822105D01*
X1347799Y822739D01*
X1348433Y823565D01*
X1348831Y824526D01*
X1348901Y825058D01*
D02*
G37*
G36*
X1305602Y825058D02*
X1302181D01*
X1302251Y824526D01*
X1302650Y823565D01*
X1303283Y822739D01*
X1304109Y822105D01*
X1305070Y821707D01*
X1305602Y821637D01*
Y825058D01*
D02*
G37*
G36*
X1417027Y914847D02*
X1415743Y914678D01*
X1414546Y914182D01*
X1413518Y913393D01*
X1412729Y912365D01*
X1412233Y911168D01*
X1412064Y909883D01*
X1412233Y908598D01*
X1412729Y907401D01*
X1413518Y906373D01*
X1414546Y905584D01*
X1415619Y905140D01*
X1415619Y905139D01*
Y904627D01*
X1415619Y904626D01*
X1414546Y904182D01*
X1413518Y903393D01*
X1412729Y902365D01*
X1412233Y901168D01*
X1412064Y899883D01*
X1412233Y898598D01*
X1412729Y897401D01*
X1413518Y896373D01*
X1414546Y895584D01*
X1415743Y895088D01*
X1417027Y894919D01*
X1418312Y895088D01*
X1419509Y895584D01*
X1420537Y896373D01*
X1421326Y897401D01*
X1421822Y898598D01*
X1421991Y899883D01*
X1421822Y901168D01*
X1421326Y902365D01*
X1420537Y903393D01*
X1419509Y904182D01*
X1418436Y904626D01*
X1418436Y904627D01*
Y905139D01*
X1418436Y905140D01*
X1419509Y905584D01*
X1420537Y906373D01*
X1421326Y907401D01*
X1421822Y908598D01*
X1421991Y909883D01*
X1421822Y911168D01*
X1421326Y912365D01*
X1420537Y913393D01*
X1419509Y914182D01*
X1418312Y914678D01*
X1417027Y914847D01*
D02*
G37*
G36*
X1330105Y824824D02*
X1326486D01*
Y821205D01*
X1327069Y821282D01*
X1328078Y821700D01*
X1328945Y822365D01*
X1329611Y823232D01*
X1330029Y824241D01*
X1330105Y824824D01*
D02*
G37*
G36*
X1475661Y1167374D02*
X1472042D01*
X1472119Y1166791D01*
X1472537Y1165781D01*
X1473202Y1164915D01*
X1474069Y1164249D01*
X1475078Y1163831D01*
X1475661Y1163754D01*
Y1167374D01*
D02*
G37*
G36*
X1476661Y1171994D02*
Y1168374D01*
X1480281D01*
X1480204Y1168957D01*
X1479786Y1169967D01*
X1479121Y1170833D01*
X1478254Y1171499D01*
X1477245Y1171917D01*
X1476661Y1171994D01*
D02*
G37*
G36*
X1539756Y1172433D02*
X1536006D01*
Y1168683D01*
X1539756D01*
Y1172433D01*
D02*
G37*
G36*
Y1177183D02*
X1536006D01*
Y1173433D01*
X1539756D01*
Y1177183D01*
D02*
G37*
G36*
X1544506D02*
X1540756D01*
Y1173433D01*
X1544506D01*
Y1177183D01*
D02*
G37*
G36*
Y1172433D02*
X1540756D01*
Y1168683D01*
X1544506D01*
Y1172433D01*
D02*
G37*
G36*
X1566921Y1177154D02*
X1566312Y1177074D01*
X1565278Y1176645D01*
X1564390Y1175964D01*
X1564349Y1175911D01*
X1558858D01*
X1558087Y1175810D01*
X1557369Y1175512D01*
X1556752Y1175039D01*
X1556752Y1175039D01*
X1553800Y1172086D01*
X1553326Y1171469D01*
X1553029Y1170751D01*
X1552927Y1169980D01*
Y1141535D01*
X1553029Y1140765D01*
X1553326Y1140046D01*
X1553800Y1139429D01*
X1556890Y1136339D01*
X1557507Y1135866D01*
X1558225Y1135568D01*
X1558996Y1135467D01*
X1558996Y1135467D01*
X1561660D01*
X1562278Y1134992D01*
X1563240Y1134594D01*
X1563772Y1134524D01*
Y1138445D01*
Y1142366D01*
X1563240Y1142296D01*
X1562278Y1141898D01*
X1561660Y1141423D01*
X1560230D01*
X1558884Y1142769D01*
Y1168747D01*
X1560092Y1169955D01*
X1564349D01*
X1564390Y1169902D01*
X1565278Y1169221D01*
X1566312Y1168793D01*
X1566921Y1168712D01*
Y1172933D01*
Y1177154D01*
D02*
G37*
G36*
X1480281Y1167374D02*
X1476661D01*
Y1163754D01*
X1477245Y1163831D01*
X1478254Y1164249D01*
X1479121Y1164915D01*
X1479786Y1165781D01*
X1480204Y1166791D01*
X1480281Y1167374D01*
D02*
G37*
G36*
X1475661Y1171994D02*
X1475078Y1171917D01*
X1474069Y1171499D01*
X1473202Y1170833D01*
X1472537Y1169967D01*
X1472119Y1168957D01*
X1472042Y1168374D01*
X1475661D01*
Y1171994D01*
D02*
G37*
G36*
X1351779Y1072722D02*
Y1069102D01*
X1355399D01*
X1355322Y1069686D01*
X1354904Y1070695D01*
X1354239Y1071562D01*
X1353372Y1072227D01*
X1352363Y1072645D01*
X1351779Y1072722D01*
D02*
G37*
G36*
X1461279Y1073765D02*
X1459943Y1073589D01*
X1458698Y1073073D01*
X1457629Y1072253D01*
X1456809Y1071183D01*
X1456550Y1070559D01*
X1456009D01*
X1455750Y1071183D01*
X1454930Y1072253D01*
X1453861Y1073073D01*
X1452616Y1073589D01*
X1451280Y1073765D01*
X1449943Y1073589D01*
X1448698Y1073073D01*
X1447629Y1072253D01*
X1446809Y1071183D01*
X1446550Y1070559D01*
X1446009D01*
X1445750Y1071183D01*
X1444930Y1072253D01*
X1443861Y1073073D01*
X1442616Y1073589D01*
X1441280Y1073765D01*
X1439943Y1073589D01*
X1438698Y1073073D01*
X1437629Y1072253D01*
X1436809Y1071183D01*
X1436550Y1070559D01*
X1436009D01*
X1435750Y1071183D01*
X1434930Y1072253D01*
X1433861Y1073073D01*
X1432616Y1073589D01*
X1431279Y1073765D01*
X1429943Y1073589D01*
X1428698Y1073073D01*
X1427629Y1072253D01*
X1426809Y1071183D01*
X1426550Y1070559D01*
X1426009D01*
X1425750Y1071183D01*
X1424930Y1072253D01*
X1423861Y1073073D01*
X1422616Y1073589D01*
X1421280Y1073765D01*
X1419943Y1073589D01*
X1418698Y1073073D01*
X1417629Y1072253D01*
X1416809Y1071183D01*
X1416550Y1070559D01*
X1416009D01*
X1415750Y1071183D01*
X1414930Y1072253D01*
X1413861Y1073073D01*
X1412616Y1073589D01*
X1411279Y1073765D01*
X1409943Y1073589D01*
X1408698Y1073073D01*
X1407629Y1072253D01*
X1406809Y1071183D01*
X1406550Y1070559D01*
X1406009D01*
X1405750Y1071183D01*
X1404930Y1072253D01*
X1403861Y1073073D01*
X1402616Y1073589D01*
X1401280Y1073765D01*
X1399943Y1073589D01*
X1398698Y1073073D01*
X1397629Y1072253D01*
X1396809Y1071183D01*
X1396550Y1070559D01*
X1396009D01*
X1395750Y1071183D01*
X1394930Y1072253D01*
X1393861Y1073073D01*
X1392616Y1073589D01*
X1391280Y1073765D01*
X1389943Y1073589D01*
X1388698Y1073073D01*
X1387629Y1072253D01*
X1386809Y1071183D01*
X1386550Y1070559D01*
X1386009D01*
X1385750Y1071183D01*
X1384930Y1072253D01*
X1383861Y1073073D01*
X1382616Y1073589D01*
X1381279Y1073765D01*
X1379943Y1073589D01*
X1378698Y1073073D01*
X1377629Y1072253D01*
X1376809Y1071183D01*
X1376550Y1070559D01*
X1376009D01*
X1375750Y1071183D01*
X1374930Y1072253D01*
X1373861Y1073073D01*
X1372616Y1073589D01*
X1371280Y1073765D01*
X1369943Y1073589D01*
X1368698Y1073073D01*
X1367629Y1072253D01*
X1366809Y1071183D01*
X1366550Y1070559D01*
X1366009D01*
X1365750Y1071183D01*
X1364930Y1072253D01*
X1363861Y1073073D01*
X1362616Y1073589D01*
X1361279Y1073765D01*
X1359943Y1073589D01*
X1358698Y1073073D01*
X1357629Y1072253D01*
X1356809Y1071183D01*
X1356293Y1069938D01*
X1356117Y1068602D01*
X1356293Y1067266D01*
X1356809Y1066021D01*
X1357629Y1064952D01*
X1358698Y1064132D01*
X1359943Y1063616D01*
X1361279Y1063440D01*
X1362616Y1063616D01*
X1363861Y1064132D01*
X1364930Y1064952D01*
X1365750Y1066021D01*
X1366009Y1066646D01*
X1366550D01*
X1366809Y1066021D01*
X1367629Y1064952D01*
X1368698Y1064132D01*
X1369943Y1063616D01*
X1371280Y1063440D01*
X1372616Y1063616D01*
X1373861Y1064132D01*
X1374930Y1064952D01*
X1375750Y1066021D01*
X1376009Y1066646D01*
X1376550D01*
X1376809Y1066021D01*
X1377629Y1064952D01*
X1378698Y1064132D01*
X1379943Y1063616D01*
X1381279Y1063440D01*
X1382616Y1063616D01*
X1383861Y1064132D01*
X1384930Y1064952D01*
X1385750Y1066021D01*
X1386009Y1066646D01*
X1386550D01*
X1386809Y1066021D01*
X1387629Y1064952D01*
X1388698Y1064132D01*
X1389943Y1063616D01*
X1391280Y1063440D01*
X1392616Y1063616D01*
X1393861Y1064132D01*
X1394930Y1064952D01*
X1395750Y1066021D01*
X1396009Y1066646D01*
X1396550D01*
X1396809Y1066021D01*
X1397629Y1064952D01*
X1398698Y1064132D01*
X1399943Y1063616D01*
X1401280Y1063440D01*
X1402616Y1063616D01*
X1403861Y1064132D01*
X1404930Y1064952D01*
X1405750Y1066021D01*
X1406009Y1066646D01*
X1406550D01*
X1406809Y1066021D01*
X1407629Y1064952D01*
X1408698Y1064132D01*
X1409943Y1063616D01*
X1411279Y1063440D01*
X1412616Y1063616D01*
X1413861Y1064132D01*
X1414930Y1064952D01*
X1415750Y1066021D01*
X1416009Y1066646D01*
X1416550D01*
X1416809Y1066021D01*
X1417629Y1064952D01*
X1418698Y1064132D01*
X1419943Y1063616D01*
X1421280Y1063440D01*
X1422616Y1063616D01*
X1423861Y1064132D01*
X1424930Y1064952D01*
X1425750Y1066021D01*
X1426009Y1066646D01*
X1426550D01*
X1426809Y1066021D01*
X1427629Y1064952D01*
X1428698Y1064132D01*
X1429943Y1063616D01*
X1431279Y1063440D01*
X1432616Y1063616D01*
X1433861Y1064132D01*
X1434930Y1064952D01*
X1435750Y1066021D01*
X1436009Y1066646D01*
X1436550D01*
X1436809Y1066021D01*
X1437629Y1064952D01*
X1438698Y1064132D01*
X1439943Y1063616D01*
X1441280Y1063440D01*
X1442616Y1063616D01*
X1443861Y1064132D01*
X1444930Y1064952D01*
X1445750Y1066021D01*
X1446009Y1066646D01*
X1446550D01*
X1446809Y1066021D01*
X1447629Y1064952D01*
X1448698Y1064132D01*
X1449943Y1063616D01*
X1451280Y1063440D01*
X1452616Y1063616D01*
X1453861Y1064132D01*
X1454930Y1064952D01*
X1455750Y1066021D01*
X1456009Y1066646D01*
X1456550D01*
X1456809Y1066021D01*
X1457629Y1064952D01*
X1458698Y1064132D01*
X1459943Y1063616D01*
X1461279Y1063440D01*
X1462616Y1063616D01*
X1463861Y1064132D01*
X1464930Y1064952D01*
X1465750Y1066021D01*
X1466266Y1067266D01*
X1466442Y1068602D01*
X1466266Y1069938D01*
X1465750Y1071183D01*
X1464930Y1072253D01*
X1463861Y1073073D01*
X1462616Y1073589D01*
X1461279Y1073765D01*
D02*
G37*
G36*
X1350780Y1068102D02*
X1347160D01*
X1347237Y1067519D01*
X1347655Y1066510D01*
X1348320Y1065643D01*
X1349187Y1064978D01*
X1350196Y1064560D01*
X1350780Y1064483D01*
Y1068102D01*
D02*
G37*
G36*
Y1072722D02*
X1350196Y1072645D01*
X1349187Y1072227D01*
X1348320Y1071562D01*
X1347655Y1070695D01*
X1347237Y1069686D01*
X1347160Y1069102D01*
X1350780D01*
Y1072722D01*
D02*
G37*
G36*
X1355399Y1068102D02*
X1351779D01*
Y1064483D01*
X1352363Y1064560D01*
X1353372Y1064978D01*
X1354239Y1065643D01*
X1354904Y1066510D01*
X1355322Y1067519D01*
X1355399Y1068102D01*
D02*
G37*
G36*
X1406299Y1029273D02*
X1403937D01*
X1402704Y1029111D01*
X1401554Y1028635D01*
X1400568Y1027877D01*
X1399810Y1026890D01*
X1399334Y1025741D01*
X1399172Y1024508D01*
X1399334Y1023275D01*
X1399810Y1022125D01*
X1400568Y1021138D01*
X1401554Y1020381D01*
X1402704Y1019905D01*
X1403805Y1019760D01*
Y1019256D01*
X1402704Y1019111D01*
X1401554Y1018635D01*
X1400568Y1017877D01*
X1399810Y1016891D01*
X1399334Y1015741D01*
X1399172Y1014508D01*
X1399334Y1013275D01*
X1399810Y1012125D01*
X1400568Y1011138D01*
X1401554Y1010381D01*
X1402704Y1009905D01*
X1403937Y1009743D01*
X1406299D01*
X1407533Y1009905D01*
X1408682Y1010381D01*
X1409669Y1011138D01*
X1410426Y1012125D01*
X1410902Y1013275D01*
X1411064Y1014508D01*
X1410902Y1015741D01*
X1410426Y1016891D01*
X1409669Y1017877D01*
X1408682Y1018635D01*
X1407533Y1019111D01*
X1406431Y1019256D01*
Y1019760D01*
X1407533Y1019905D01*
X1408682Y1020381D01*
X1409669Y1021138D01*
X1410426Y1022125D01*
X1410902Y1023275D01*
X1411064Y1024508D01*
X1410902Y1025741D01*
X1410426Y1026890D01*
X1409669Y1027877D01*
X1408682Y1028635D01*
X1407533Y1029111D01*
X1406299Y1029273D01*
D02*
G37*
G36*
X1389468Y1023171D02*
X1388184Y1023002D01*
X1386987Y1022506D01*
X1385959Y1021717D01*
X1385170Y1020689D01*
X1384674Y1019492D01*
X1384505Y1018207D01*
X1384674Y1016923D01*
X1385170Y1015726D01*
X1385959Y1014698D01*
X1386987Y1013909D01*
X1388184Y1013413D01*
X1389468Y1013244D01*
X1390753Y1013413D01*
X1391950Y1013909D01*
X1392978Y1014698D01*
X1393767Y1015726D01*
X1394263Y1016923D01*
X1394432Y1018207D01*
X1394263Y1019492D01*
X1393767Y1020689D01*
X1392978Y1021717D01*
X1391950Y1022506D01*
X1390753Y1023002D01*
X1389468Y1023171D01*
D02*
G37*
G36*
X1388968Y1012129D02*
X1388437Y1012059D01*
X1387475Y1011660D01*
X1386649Y1011027D01*
X1386016Y1010201D01*
X1385618Y1009239D01*
X1385548Y1008708D01*
X1388968D01*
Y1012129D01*
D02*
G37*
G36*
X1389968Y1012129D02*
Y1008708D01*
X1393390D01*
X1393320Y1009239D01*
X1392921Y1010201D01*
X1392288Y1011027D01*
X1391462Y1011660D01*
X1390500Y1012059D01*
X1389968Y1012129D01*
D02*
G37*
G36*
X1435332Y1046756D02*
X1423395D01*
Y1034819D01*
X1435332D01*
Y1046756D01*
D02*
G37*
G36*
X1379232Y1049171D02*
X1377999Y1049008D01*
X1376850Y1048532D01*
X1375863Y1047775D01*
X1375105Y1046788D01*
X1374629Y1045639D01*
X1374467Y1044405D01*
X1374629Y1043172D01*
X1375105Y1042023D01*
X1375863Y1041036D01*
X1376850Y1040279D01*
X1377999Y1039803D01*
X1379232Y1039640D01*
X1380466Y1039803D01*
X1381615Y1040279D01*
X1382602Y1041036D01*
X1383359Y1042023D01*
X1383835Y1043172D01*
X1383997Y1044405D01*
X1383835Y1045639D01*
X1383359Y1046788D01*
X1382602Y1047775D01*
X1381615Y1048532D01*
X1380466Y1049008D01*
X1379232Y1049171D01*
D02*
G37*
G36*
X1487992Y1029076D02*
X1486759Y1028914D01*
X1485610Y1028438D01*
X1484623Y1027680D01*
X1483865Y1026694D01*
X1483389Y1025544D01*
X1483227Y1024311D01*
X1483389Y1023078D01*
X1483865Y1021928D01*
X1484623Y1020942D01*
X1485610Y1020184D01*
X1486759Y1019708D01*
X1487992Y1019546D01*
X1489225Y1019708D01*
X1490375Y1020184D01*
X1491362Y1020942D01*
X1492119Y1021928D01*
X1492595Y1023078D01*
X1492757Y1024311D01*
X1492595Y1025544D01*
X1492119Y1026694D01*
X1491362Y1027680D01*
X1490375Y1028438D01*
X1489225Y1028914D01*
X1487992Y1029076D01*
D02*
G37*
G36*
X1370177Y1033309D02*
X1368944Y1033146D01*
X1367795Y1032670D01*
X1366808Y1031913D01*
X1366050Y1030926D01*
X1365574Y1029777D01*
X1365412Y1028543D01*
X1365574Y1027310D01*
X1366050Y1026161D01*
X1366808Y1025174D01*
X1367795Y1024417D01*
X1368944Y1023940D01*
X1370177Y1023778D01*
X1371410Y1023940D01*
X1372560Y1024417D01*
X1373547Y1025174D01*
X1374304Y1026161D01*
X1374780Y1027310D01*
X1374942Y1028543D01*
X1374780Y1029777D01*
X1374304Y1030926D01*
X1373547Y1031913D01*
X1372560Y1032670D01*
X1371410Y1033146D01*
X1370177Y1033309D01*
D02*
G37*
G36*
X1564772Y1142366D02*
Y1138945D01*
X1568193D01*
X1568123Y1139477D01*
X1567724Y1140438D01*
X1567091Y1141264D01*
X1566265Y1141898D01*
X1565304Y1142296D01*
X1564772Y1142366D01*
D02*
G37*
G36*
X1568193Y1137945D02*
X1564772D01*
Y1134524D01*
X1565304Y1134594D01*
X1566265Y1134992D01*
X1567091Y1135626D01*
X1567724Y1136451D01*
X1568123Y1137413D01*
X1568193Y1137945D01*
D02*
G37*
%LPD*%
D11*
X1452181Y1013287D02*
D03*
X1482496Y1003287D02*
D03*
Y1013287D02*
D03*
X1452181Y1003287D02*
D03*
X1335039Y1015650D02*
D03*
X1365354Y1005650D02*
D03*
Y1015650D02*
D03*
X1335039Y1005650D02*
D03*
Y961811D02*
D03*
X1365354Y951811D02*
D03*
Y961811D02*
D03*
X1335039Y951811D02*
D03*
Y906890D02*
D03*
X1365354Y896890D02*
D03*
Y906890D02*
D03*
X1335039Y896890D02*
D03*
D12*
X1341280Y1068602D02*
Y1128602D01*
X1452181Y1003287D02*
X1482496D01*
X1396161Y895748D02*
X1405118D01*
X1396161D02*
Y950669D01*
X1405118D01*
X1389468Y889567D02*
Y899448D01*
X1335039Y889567D02*
Y896890D01*
Y889567D02*
X1389468D01*
X1558996Y1138445D02*
X1564272D01*
X1555906Y1141535D02*
X1558996Y1138445D01*
X1536024Y1149016D02*
X1556594Y1128445D01*
X1564272D01*
X1505709Y1149016D02*
X1536024D01*
X1502461Y1152264D02*
X1505709Y1149016D01*
X1496161Y1167874D02*
X1500827D01*
X1502461Y1166240D01*
Y1152264D02*
Y1166240D01*
X1558858Y1172933D02*
X1567421D01*
X1555906Y1169980D02*
X1558858Y1172933D01*
X1555906Y1141535D02*
Y1169980D01*
X1328740Y1137598D02*
X1331279Y1135059D01*
Y1128602D02*
Y1135059D01*
X1308760Y1137598D02*
X1328740D01*
X1305965Y1140394D02*
X1308760Y1137598D01*
X1305965Y1140394D02*
Y1145965D01*
X1386516Y998327D02*
X1389468Y1001280D01*
Y1008208D01*
X1405118Y998524D02*
X1406693Y996949D01*
X1405118Y998524D02*
Y1004508D01*
X1398110D02*
X1405118D01*
X1396161Y1002559D02*
X1398110Y1004508D01*
X1396161Y950669D02*
Y1002559D01*
X1406693Y996949D02*
X1434252D01*
X1440591Y1003287D01*
X1452181D01*
X1429363Y919259D02*
Y932028D01*
Y919259D02*
X1436024Y912598D01*
X1440945Y853248D02*
X1453642D01*
X1436024Y858169D02*
X1440945Y853248D01*
X1436024Y858169D02*
Y912598D01*
X1335039Y946457D02*
X1337008Y944488D01*
X1335039Y946457D02*
Y951811D01*
X1337008Y944488D02*
X1386417D01*
X1389468Y947539D01*
Y954369D01*
X1335039Y1005650D02*
X1347992D01*
X1355315Y998327D01*
X1386516D01*
D13*
X1300984Y835558D02*
X1306102D01*
X1325986Y835324D02*
Y835558D01*
X1367126Y834055D02*
Y854823D01*
X1335039D02*
X1367126D01*
X1300984Y835558D02*
Y857185D01*
X1335039Y854823D02*
Y869193D01*
X1258563Y1114764D02*
Y1120669D01*
Y1126575D01*
Y947146D02*
Y1114764D01*
X1290551Y869193D02*
X1335039D01*
X1290551D02*
Y947146D01*
X1258563D02*
X1290551D01*
X1279724Y857185D02*
X1300984D01*
X1279724D02*
Y915551D01*
X1251870D02*
X1279724D01*
X1245768Y909449D02*
X1251870Y915551D01*
X1306102Y835558D02*
X1325986D01*
X1258563Y1126575D02*
Y1132480D01*
Y1138386D01*
X1367126Y834055D02*
X1377362D01*
X1405413Y806004D01*
X1453642D01*
D14*
X1357087Y834055D02*
X1367126D01*
X1453931Y1175394D02*
X1456161Y1173163D01*
Y1167874D02*
Y1173163D01*
X1381279Y1128602D02*
Y1136890D01*
X1387205Y1142815D01*
X1391280Y1128602D02*
Y1135374D01*
X1396260Y1140354D01*
X1539665Y1077854D02*
X1543307Y1074213D01*
X1541535Y1081299D02*
X1545866Y1076968D01*
X1543406Y1084252D02*
X1548819Y1078839D01*
X1539764Y1093012D02*
X1543307Y1096555D01*
X1541535Y1090158D02*
X1545768Y1094390D01*
X1499213Y1093012D02*
X1539764D01*
X1495571Y1096653D02*
X1499213Y1093012D01*
X1497146Y1090158D02*
X1541535D01*
X1491535Y1095768D02*
X1497146Y1090158D01*
X1396260Y1140354D02*
X1487303D01*
X1491535Y1136122D01*
Y1095768D02*
Y1136122D01*
X1387205Y1142815D02*
X1490354D01*
X1495571Y1137598D01*
Y1096653D02*
Y1137598D01*
X1549685Y1108445D02*
X1564271D01*
X1545768Y1104528D02*
X1549685Y1108445D01*
X1545768Y1094390D02*
Y1104528D01*
X1547284Y1118445D02*
X1564271D01*
X1543307Y1114468D02*
X1547284Y1118445D01*
X1543307Y1096555D02*
Y1114468D01*
X1463878Y1177756D02*
X1466161Y1175472D01*
Y1167874D02*
Y1175472D01*
X1271654Y1175394D02*
X1453931D01*
X1268799Y1172539D02*
X1271654Y1175394D01*
X1268799Y1177756D02*
X1463878D01*
X1266142Y1175098D02*
X1268799Y1177756D01*
X1272146Y1068602D02*
X1321280D01*
X1268799Y1071949D02*
X1272146Y1068602D01*
X1268799Y1071949D02*
Y1172539D01*
X1266142Y1064567D02*
Y1175098D01*
Y1064567D02*
X1269488Y1061220D01*
X1329035D01*
X1331279Y1063465D01*
Y1068602D01*
X1341280Y1055669D02*
X1343799Y1053150D01*
X1341280Y1055669D02*
Y1068602D01*
X1343799Y1053150D02*
X1484252D01*
X1487992Y1049409D01*
Y1035925D02*
Y1049409D01*
X1378512Y1146918D02*
X1381791Y1150197D01*
X1378512Y1141788D02*
Y1146918D01*
X1381791Y1150197D02*
X1433563D01*
X1436161Y1152795D01*
Y1157874D01*
X1460827Y1035925D02*
X1463878Y1032874D01*
X1447835Y1035925D02*
X1460827D01*
X1466339Y1013287D02*
X1482496D01*
X1463878Y1015748D02*
X1466339Y1013287D01*
X1463878Y1015748D02*
Y1032874D01*
X1442323Y1013287D02*
X1452181D01*
X1442323D02*
Y1024311D01*
X1447835D01*
X1417394Y886740D02*
X1419193Y884941D01*
Y879606D02*
Y884941D01*
X1396528Y884378D02*
X1397589Y883317D01*
Y879606D02*
Y883317D01*
X1327827Y886740D02*
X1417394D01*
X1325394Y889173D02*
X1327827Y886740D01*
X1325169Y884378D02*
X1396528D01*
X1322736Y886811D02*
X1325169Y884378D01*
X1322756Y879606D02*
X1375984D01*
X1320079Y882283D02*
X1322756Y879606D01*
X1325394Y889173D02*
Y909252D01*
X1330020Y913878D01*
Y918504D01*
X1324606Y974803D02*
X1330020D01*
X1322736Y972933D02*
X1324606Y974803D01*
X1322736Y886811D02*
Y972933D01*
X1320079Y882283D02*
Y1026870D01*
X1321752Y1028543D01*
X1330020D01*
X1362205Y803839D02*
X1382677D01*
X1357087Y808957D02*
X1362205Y803839D01*
X1357087Y808957D02*
Y834055D01*
X1327854Y920669D02*
X1330020Y918504D01*
X1550000Y1044291D02*
X1560925D01*
X1545866Y1048425D02*
X1550000Y1044291D01*
X1545866Y1048425D02*
Y1076968D01*
X1547244Y1024606D02*
X1560925D01*
X1543307Y1028543D02*
X1547244Y1024606D01*
X1543307Y1028543D02*
Y1074213D01*
X1552603Y1067278D02*
X1560925D01*
X1548819Y1071063D02*
X1552603Y1067278D01*
X1548819Y1071063D02*
Y1078839D01*
X1431279Y1097953D02*
X1442126Y1087106D01*
X1431279Y1097953D02*
Y1128602D01*
X1442126Y1087106D02*
X1560925D01*
X1431496Y1084252D02*
X1543406D01*
X1421280Y1094468D02*
X1431496Y1084252D01*
X1421280Y1094468D02*
Y1128602D01*
X1422047Y1081299D02*
X1541535D01*
X1411279Y1092067D02*
X1422047Y1081299D01*
X1411279Y1092067D02*
Y1128602D01*
X1412402Y1077854D02*
X1539665D01*
X1401280Y1088976D02*
X1412402Y1077854D01*
X1401280Y1088976D02*
Y1128602D01*
D15*
X1274114Y796457D02*
Y810039D01*
X1198917Y796457D02*
X1274114D01*
X1198917D02*
Y811909D01*
X1190847Y838484D02*
X1242323D01*
X1234350Y849902D02*
X1290059D01*
Y838681D02*
Y849902D01*
X1218602Y811909D02*
Y819882D01*
X1258957Y810039D02*
Y819882D01*
X1242323Y827953D02*
Y838484D01*
Y827953D02*
X1289272D01*
Y810039D02*
Y827953D01*
X1234350Y902264D02*
Y929331D01*
X1253642D01*
X1218602Y819882D02*
X1258957D01*
X1234350Y849902D02*
Y902264D01*
X1190847Y838484D02*
Y902264D01*
D17*
X1501673Y984744D02*
Y997146D01*
X1561417D01*
X1445768Y961122D02*
X1526673D01*
Y977461D01*
X1561417D01*
X1445768Y895669D02*
X1515650D01*
X1501673Y872047D02*
Y885728D01*
X1532185D01*
X1501673Y806004D02*
X1561417D01*
Y826280D01*
X1501673Y853248D02*
X1519587D01*
X1445768Y829626D02*
X1537894D01*
Y845965D01*
X1561417D01*
X1532185Y881988D02*
Y885728D01*
Y881988D02*
X1551083D01*
X1561417Y892323D01*
X1515650Y895669D02*
Y901870D01*
X1539075D01*
X1549213Y912008D01*
X1561417D01*
X1549902Y957776D02*
X1561417D01*
X1501673Y937500D02*
Y947736D01*
X1549902D01*
Y957776D01*
X1558661Y862894D02*
X1561417Y865650D01*
X1529232Y862894D02*
X1558661D01*
X1519587Y853248D02*
X1529232Y862894D01*
X1501673Y919291D02*
X1529528D01*
Y931693D01*
X1561417D01*
D20*
X1445768Y829626D02*
D03*
X1453642Y853248D02*
D03*
Y806004D02*
D03*
X1501673Y853248D02*
D03*
Y806004D02*
D03*
X1445768Y895669D02*
D03*
X1453642Y919291D02*
D03*
Y872047D02*
D03*
X1501673Y919291D02*
D03*
Y872047D02*
D03*
X1561417Y865650D02*
D03*
Y845965D02*
D03*
Y826280D02*
D03*
Y931693D02*
D03*
Y912008D02*
D03*
Y892323D02*
D03*
Y997146D02*
D03*
Y977461D02*
D03*
Y957776D02*
D03*
X1560925Y1044291D02*
D03*
Y1086963D02*
D03*
X1218602Y811909D02*
D03*
X1445768Y961122D02*
D03*
X1453642Y984744D02*
D03*
Y937500D02*
D03*
X1501673Y984744D02*
D03*
Y937500D02*
D03*
D21*
X1560925Y1024606D02*
D03*
Y1067278D02*
D03*
D22*
X1198917Y811909D02*
D03*
D23*
X1331083Y1115453D02*
D03*
X1321083D02*
D03*
X1305965Y1145965D02*
D03*
X1315965D02*
D03*
X1535925Y1128012D02*
D03*
X1535925Y1118012D02*
D03*
X1564271Y1108445D02*
D03*
Y1118445D02*
D03*
X1564272Y1128445D02*
D03*
Y1138445D02*
D03*
X1417027Y1018643D02*
D03*
Y1008643D02*
D03*
X1389468Y1008208D02*
D03*
Y1018207D02*
D03*
Y954369D02*
D03*
Y964369D02*
D03*
Y899448D02*
D03*
Y909448D02*
D03*
X1417027Y964804D02*
D03*
Y954804D02*
D03*
Y909883D02*
D03*
Y899883D02*
D03*
X1306102Y825558D02*
D03*
Y835558D02*
D03*
X1344980Y825558D02*
D03*
Y835558D02*
D03*
D24*
X1540256Y1172933D02*
D03*
D25*
Y1155217D02*
D03*
X1567421Y1172933D02*
D03*
Y1155217D02*
D03*
D26*
X1535925Y1138011D02*
D03*
D27*
X1509941Y1103642D02*
D03*
Y1143799D02*
D03*
X1487992Y1035925D02*
D03*
X1447835D02*
D03*
Y1024311D02*
D03*
X1487992D02*
D03*
X1379232Y1044405D02*
D03*
Y1004248D02*
D03*
X1370177Y1028543D02*
D03*
X1330020D02*
D03*
X1370177Y974803D02*
D03*
X1330020D02*
D03*
X1370177Y920669D02*
D03*
X1330020D02*
D03*
X1379232Y990567D02*
D03*
Y950409D02*
D03*
Y935646D02*
D03*
Y895488D02*
D03*
X1342520Y803839D02*
D03*
X1382677D02*
D03*
D28*
X1461279Y1128602D02*
D03*
X1325986Y835324D02*
D03*
X1496161Y1157874D02*
D03*
D29*
X1451280Y1128602D02*
D03*
X1441280D02*
D03*
X1431279D02*
D03*
X1401280D02*
D03*
X1411279D02*
D03*
X1421280D02*
D03*
X1371280D02*
D03*
X1381279D02*
D03*
X1391280D02*
D03*
X1341280D02*
D03*
X1351280D02*
D03*
X1361279D02*
D03*
X1331279D02*
D03*
X1321280D02*
D03*
Y1068602D02*
D03*
X1331279D02*
D03*
X1361279D02*
D03*
X1351280D02*
D03*
X1341280D02*
D03*
X1391280D02*
D03*
X1381279D02*
D03*
X1371280D02*
D03*
X1421280D02*
D03*
X1411279D02*
D03*
X1401280D02*
D03*
X1431279D02*
D03*
X1441280D02*
D03*
X1451280D02*
D03*
X1461279D02*
D03*
X1253642Y929331D02*
D03*
X1245768Y909449D02*
D03*
X1325986Y825324D02*
D03*
X1486161Y1157874D02*
D03*
X1476161D02*
D03*
X1466161D02*
D03*
X1456161D02*
D03*
X1446161D02*
D03*
X1436161D02*
D03*
X1426161D02*
D03*
X1416161D02*
D03*
X1406161D02*
D03*
X1396161D02*
D03*
X1386161D02*
D03*
X1376161D02*
D03*
X1366161D02*
D03*
X1356161D02*
D03*
X1346161D02*
D03*
X1336161D02*
D03*
X1326161D02*
D03*
X1316161D02*
D03*
X1306161D02*
D03*
X1496161Y1167874D02*
D03*
X1486161D02*
D03*
X1476161D02*
D03*
X1466161D02*
D03*
X1456161D02*
D03*
X1446161D02*
D03*
X1436161D02*
D03*
X1426161D02*
D03*
X1416161D02*
D03*
X1406161D02*
D03*
X1396161D02*
D03*
X1386161D02*
D03*
X1376161D02*
D03*
X1366161D02*
D03*
X1356161D02*
D03*
X1346161D02*
D03*
X1336161D02*
D03*
X1326161D02*
D03*
X1316161D02*
D03*
X1306161D02*
D03*
D30*
X1429363Y1005787D02*
D03*
Y951949D02*
D03*
Y897027D02*
D03*
D31*
Y1040787D02*
D03*
Y986949D02*
D03*
Y932028D02*
D03*
D32*
X1405118Y1004508D02*
D03*
Y1014508D02*
D03*
Y1024508D02*
D03*
Y950669D02*
D03*
Y960669D02*
D03*
Y970669D02*
D03*
Y895748D02*
D03*
Y905748D02*
D03*
Y915748D02*
D03*
D33*
X1375984Y879606D02*
D03*
X1397589D02*
D03*
X1419193D02*
D03*
X1311614Y808248D02*
D03*
D34*
X1375984Y869606D02*
D03*
X1397589D02*
D03*
X1419193D02*
D03*
X1311614Y798248D02*
D03*
D35*
X1211614Y1002185D02*
D03*
D36*
Y957185D02*
D03*
D37*
X1234350Y902264D02*
D03*
X1190847D02*
D03*
X1265059D02*
D03*
X1308563D02*
D03*
X1243799Y810039D02*
D03*
X1258957D02*
D03*
X1274114D02*
D03*
X1289272D02*
D03*
D38*
X1256102Y838484D02*
D03*
X1276280Y838681D02*
D03*
X1367126Y820276D02*
D03*
D39*
X1242323Y838484D02*
D03*
X1290059Y838681D02*
D03*
D40*
X1367126Y834055D02*
D03*
D41*
X1515354Y1162992D02*
D03*
X1286909D02*
D03*
Y970079D02*
D03*
D42*
X1378512Y1141788D02*
D03*
X1258563Y1120669D02*
D03*
Y1126575D02*
D03*
X1252658Y1120669D02*
D03*
Y1126575D02*
D03*
X1246752Y1120669D02*
D03*
Y1126575D02*
D03*
X1240847Y1120669D02*
D03*
Y1126575D02*
D03*
Y1132480D02*
D03*
X1258563Y1114764D02*
D03*
X1252658D02*
D03*
X1246752D02*
D03*
X1240847D02*
D03*
X1246752Y1132480D02*
D03*
X1252658D02*
D03*
X1258563D02*
D03*
M02*
