G04 Layer_Color=255*
%FSLAX25Y25*%
%MOIN*%
G70*
G01*
G75*
%ADD11C,0.07874*%
%ADD20C,0.11811*%
%ADD21R,0.11811X0.11811*%
%ADD22R,0.11811X0.11811*%
%ADD23C,0.05905*%
%ADD24R,0.06500X0.06500*%
%ADD25C,0.06500*%
%ADD26R,0.05905X0.05905*%
%ADD27C,0.05512*%
%ADD28R,0.06299X0.06299*%
%ADD29C,0.06299*%
%ADD30C,0.08000*%
%ADD31R,0.08000X0.08000*%
%ADD32O,0.07874X0.05512*%
%ADD33O,0.07000X0.06000*%
%ADD34R,0.07000X0.06000*%
%ADD35R,0.10000X0.10000*%
%ADD36C,0.10000*%
%ADD37C,0.09842*%
%ADD38C,0.08268*%
%ADD39R,0.08268X0.08268*%
%ADD40R,0.08268X0.08268*%
%ADD41C,0.19685*%
D11*
X1452181Y1013287D02*
D03*
X1482496Y1003287D02*
D03*
Y1013287D02*
D03*
X1452181Y1003287D02*
D03*
X1335039Y1015650D02*
D03*
X1365354Y1005650D02*
D03*
Y1015650D02*
D03*
X1335039Y1005650D02*
D03*
Y961811D02*
D03*
X1365354Y951811D02*
D03*
Y961811D02*
D03*
X1335039Y951811D02*
D03*
Y906890D02*
D03*
X1365354Y896890D02*
D03*
Y906890D02*
D03*
X1335039Y896890D02*
D03*
D20*
X1445768Y829626D02*
D03*
X1453642Y853248D02*
D03*
Y806004D02*
D03*
X1501673Y853248D02*
D03*
Y806004D02*
D03*
X1445768Y895669D02*
D03*
X1453642Y919291D02*
D03*
Y872047D02*
D03*
X1501673Y919291D02*
D03*
Y872047D02*
D03*
X1561417Y865650D02*
D03*
Y845965D02*
D03*
Y826280D02*
D03*
Y931693D02*
D03*
Y912008D02*
D03*
Y892323D02*
D03*
Y997146D02*
D03*
Y977461D02*
D03*
Y957776D02*
D03*
X1560925Y1044291D02*
D03*
Y1086963D02*
D03*
X1218602Y811909D02*
D03*
X1445768Y961122D02*
D03*
X1453642Y984744D02*
D03*
Y937500D02*
D03*
X1501673Y984744D02*
D03*
Y937500D02*
D03*
D21*
X1560925Y1024606D02*
D03*
Y1067278D02*
D03*
D22*
X1198917Y811909D02*
D03*
D23*
X1331083Y1115453D02*
D03*
X1321083D02*
D03*
X1305965Y1145965D02*
D03*
X1315965D02*
D03*
X1535925Y1128012D02*
D03*
X1535925Y1118012D02*
D03*
X1564271Y1108445D02*
D03*
Y1118445D02*
D03*
X1564272Y1128445D02*
D03*
Y1138445D02*
D03*
X1417027Y1018643D02*
D03*
Y1008643D02*
D03*
X1389468Y1008208D02*
D03*
Y1018207D02*
D03*
Y954369D02*
D03*
Y964369D02*
D03*
Y899448D02*
D03*
Y909448D02*
D03*
X1417027Y964804D02*
D03*
Y954804D02*
D03*
Y909883D02*
D03*
Y899883D02*
D03*
X1306102Y825558D02*
D03*
Y835558D02*
D03*
X1344980Y825558D02*
D03*
Y835558D02*
D03*
D24*
X1540256Y1172933D02*
D03*
D25*
Y1155217D02*
D03*
X1567421Y1172933D02*
D03*
Y1155217D02*
D03*
D26*
X1535925Y1138011D02*
D03*
D27*
X1509941Y1103642D02*
D03*
Y1143799D02*
D03*
X1487992Y1035925D02*
D03*
X1447835D02*
D03*
Y1024311D02*
D03*
X1487992D02*
D03*
X1379232Y1044405D02*
D03*
Y1004248D02*
D03*
X1370177Y1028543D02*
D03*
X1330020D02*
D03*
X1370177Y974803D02*
D03*
X1330020D02*
D03*
X1370177Y920669D02*
D03*
X1330020D02*
D03*
X1379232Y990567D02*
D03*
Y950409D02*
D03*
Y935646D02*
D03*
Y895488D02*
D03*
X1342520Y803839D02*
D03*
X1382677D02*
D03*
D28*
X1461279Y1128602D02*
D03*
X1325986Y835324D02*
D03*
X1496161Y1157874D02*
D03*
D29*
X1451280Y1128602D02*
D03*
X1441280D02*
D03*
X1431279D02*
D03*
X1401280D02*
D03*
X1411279D02*
D03*
X1421280D02*
D03*
X1371280D02*
D03*
X1381279D02*
D03*
X1391280D02*
D03*
X1341280D02*
D03*
X1351280D02*
D03*
X1361279D02*
D03*
X1331279D02*
D03*
X1321280D02*
D03*
Y1068602D02*
D03*
X1331279D02*
D03*
X1361279D02*
D03*
X1351280D02*
D03*
X1341280D02*
D03*
X1391280D02*
D03*
X1381279D02*
D03*
X1371280D02*
D03*
X1421280D02*
D03*
X1411279D02*
D03*
X1401280D02*
D03*
X1431279D02*
D03*
X1441280D02*
D03*
X1451280D02*
D03*
X1461279D02*
D03*
X1253642Y929331D02*
D03*
X1245768Y909449D02*
D03*
X1325986Y825324D02*
D03*
X1486161Y1157874D02*
D03*
X1476161D02*
D03*
X1466161D02*
D03*
X1456161D02*
D03*
X1446161D02*
D03*
X1436161D02*
D03*
X1426161D02*
D03*
X1416161D02*
D03*
X1406161D02*
D03*
X1396161D02*
D03*
X1386161D02*
D03*
X1376161D02*
D03*
X1366161D02*
D03*
X1356161D02*
D03*
X1346161D02*
D03*
X1336161D02*
D03*
X1326161D02*
D03*
X1316161D02*
D03*
X1306161D02*
D03*
X1496161Y1167874D02*
D03*
X1486161D02*
D03*
X1476161D02*
D03*
X1466161D02*
D03*
X1456161D02*
D03*
X1446161D02*
D03*
X1436161D02*
D03*
X1426161D02*
D03*
X1416161D02*
D03*
X1406161D02*
D03*
X1396161D02*
D03*
X1386161D02*
D03*
X1376161D02*
D03*
X1366161D02*
D03*
X1356161D02*
D03*
X1346161D02*
D03*
X1336161D02*
D03*
X1326161D02*
D03*
X1316161D02*
D03*
X1306161D02*
D03*
D30*
X1429363Y1005787D02*
D03*
Y951949D02*
D03*
Y897027D02*
D03*
D31*
Y1040787D02*
D03*
Y986949D02*
D03*
Y932028D02*
D03*
D32*
X1405118Y1004508D02*
D03*
Y1014508D02*
D03*
Y1024508D02*
D03*
Y950669D02*
D03*
Y960669D02*
D03*
Y970669D02*
D03*
Y895748D02*
D03*
Y905748D02*
D03*
Y915748D02*
D03*
D33*
X1375984Y879606D02*
D03*
X1397589D02*
D03*
X1419193D02*
D03*
X1311614Y808248D02*
D03*
D34*
X1375984Y869606D02*
D03*
X1397589D02*
D03*
X1419193D02*
D03*
X1311614Y798248D02*
D03*
D35*
X1211614Y1002185D02*
D03*
D36*
Y957185D02*
D03*
D37*
X1234350Y902264D02*
D03*
X1190847D02*
D03*
X1265059D02*
D03*
X1308563D02*
D03*
X1243799Y810039D02*
D03*
X1258957D02*
D03*
X1274114D02*
D03*
X1289272D02*
D03*
D38*
X1256102Y838484D02*
D03*
X1276280Y838681D02*
D03*
X1367126Y820276D02*
D03*
D39*
X1242323Y838484D02*
D03*
X1290059Y838681D02*
D03*
D40*
X1367126Y834055D02*
D03*
D41*
X1515354Y1162992D02*
D03*
X1286909D02*
D03*
Y970079D02*
D03*
M02*
