M48
;Layer_Color=9474304
;FILE_FORMAT=2:4
INCH,TZ
;TYPE=PLATED
T1F00S00C0.0118
T2F00S00C0.0236
T3F00S00C0.0276
T4F00S00C0.0315
T5F00S00C0.0350
T6F00S00C0.0354
T7F00S00C0.0394
T8F00S00C0.0433
T9F00S00C0.0450
T10F00S00C0.0472
T11F00S00C0.0591
T12F00S00C0.0630
T13F00S00C0.1181
%
T01
X125266Y111476
Y112067
X125856
Y112657
X125266
Y113248
X125856
Y111476
X137851Y114179
X124675Y113248
Y112657
Y112067
X124085
Y112657
Y113248
Y111476
X124675
T02
X134252Y80384
X138268
X137923Y89549
X137018Y92067
X137923Y93565
X133002Y92067
Y97480
X137018
X137923Y99057
Y100425
X137018Y102854
X137923Y104441
X133002Y102854
X137923Y95041
X144783Y102431
Y103593
X148799
Y102431
X150994Y110364
Y114380
T03
X141703Y89988
Y90988
X138947Y90945
Y89945
X134498Y83556
Y82556
X130610
Y83556
X138947Y95437
Y96437
Y100821
Y101821
X141703Y101864
Y100864
Y96480
Y95480
X133108Y111545
X132108
X131596Y114596
X130596
T04
X132599Y82532
Y83532
X133504Y89689
Y90689
X136535
Y89689
Y95181
Y96181
X133504
Y95181
Y100565
Y101565
X136535
Y100565
X145218Y100329
Y101329
X148250
Y100329
T05
X141919Y86961
Y87961
X142936Y89703
Y93203
X139759Y87961
Y86961
X137598
Y87961
X131161Y80825
Y79825
X142936Y95195
Y98695
Y100579
Y104079
T06
X125610Y83848
X127628Y83868
X129006
X136713Y83406
Y82028
X124232Y83848
T07
X125364Y92933
X140512Y91575
Y90575
Y89575
X124577Y90945
X140512Y95067
Y96067
Y97067
Y100451
Y101451
Y102451
X140128Y106860
X139128
X138128
X137128
X136128
X135128
X134128
X133128
X132128
X141128
X142128
X143128
X144128
X145128
X146128
X156427Y110845
Y111845
X156427Y112844
Y113844
X153593Y113801
Y112801
X153593Y111801
X149616Y115787
X148616
X147616
X146616
X145616
X144616
X143616
X142616
X141616
Y116787
X142616
X143616
X144616
X145616
X146616
X147616
X148616
X149616
X146128Y112860
X145128
X144128
X143128
X142128
X141128
X140128
X139128
X138128
X137128
X136128
X135128
X134128
X133128
X132128
X132616Y115787
X133616
X134616
X135616
X136616
X137616
X138616
X139616
X140616
Y116787
X139616
X138616
X137616
X136616
X135616
X134616
X133616
X132616
X131616
Y115787
X130616
Y116787
T08
X156742Y115522
Y117293
X154026
Y115522
T09
X121161Y95718
Y100218
T10
X125896Y81004
X127411
X128927
X130856Y90226
X126506
X123435
X119085
X124380Y81004
T11
X156142Y82628
Y84596
Y86565
Y89232
Y91201
Y93169
X121860Y81191
X119892
X156142Y95778
Y97746
Y99715
X156093Y102461
Y104429
Y106728
Y108696
T12
X150167Y80600
Y85325
Y87205
Y91929
X145364
X144577Y89567
X145364Y87205
Y85325
X144577Y82963
X145364Y80600
Y93750
X144577Y96112
X145364Y98474
X150167
Y93750
T13
X128691Y97008
X151535Y116299
X128691
M30
